<svg xmlns="http://www.w3.org/2000/svg" width="67.245" height="23.495" viewBox="0 0 67.245 23.495">
  <g id="icone-senado-graficogovernismo-seleção-filled" transform="translate(-1379.923 -764.819)">
    <path id="Caminho_3443" data-name="Caminho 3443" d="M125.349,63.561c-17.117,0-27.464-7.069-33.553-22.924L93.2,40.1c5.831,15.184,15.746,21.956,32.145,21.956,19.109,0,26.1-7.728,32.309-21.987l1.383.6c-6.315,14.5-13.854,22.892-33.692,22.892" transform="translate(1288.127 724.753)" fill="#00b53c"/>
    <path id="Caminho_3445" data-name="Caminho 3445" d="M19.313,42.739a.5.5,0,0,1,.13.015.623.623,0,0,1,.344.252c.253.439.253.439-2.7,2.663-.762.573-1.785,1.347-2.634,2.019,1.427-.841,3.324-2.092,4.563-2.909,2.809-1.852,2.916-1.9,3.207-1.832a.487.487,0,0,1,.3.22c.406.706-.523,1.4-4.359,3.854-.457.293-.98.626-1.5.967,1.087-.671,2.268-1.419,3.242-2.036,4.24-2.692,4.6-2.873,4.949-2.787a.5.5,0,0,1,.3.223c.143.247.131.5-.167.858a1.7,1.7,0,0,1,.861-.109.7.7,0,0,1,.458.327c.267.461.267.461-3.429,3l-.609.418c6.443-3.872,6.941-4.025,7.273-3.937a.509.509,0,0,1,.3.222.817.817,0,0,1-.172.979c1.864-1.157,2.713-1.535,3.143-1.434a.716.716,0,0,1,.369.27c.231.4.231.4-2.153,1.908-1.9,1.2-6.623,4.183-9.227,6.106,1.387-.844,3.207-2.018,4.807-3.049,6.339-4.088,8.417-5.328,9.129-5.162a.672.672,0,0,1,.354.258.526.526,0,0,1,.063.442A3.514,3.514,0,0,1,38.057,44a.75.75,0,0,1,.5.356c.442.765-.679,1.624-7.988,6.127-1.838,1.132-3.978,2.45-5.285,3.351,2.7-1.327,8.377-5,11.738-7.182,5.118-3.316,5.172-3.3,5.487-3.227a.483.483,0,0,1,.3.22.78.78,0,0,1,.068.608,1.16,1.16,0,0,1-.084.208c1-.526,1.561-.706,1.868-.629a.726.726,0,0,1,.372.271.64.64,0,0,1,.081.237c1.535-.837,2.631-1.24,3.222-1.111a.814.814,0,0,1,.549.391c.234.406-.032.561-.816,1.021-.427.249-1.042.6-1.8,1.037-11.21,6.457-17.317,10.381-18.18,11.679,2.1-.247,12.564-7.1,17.7-10.468,5.507-3.609,5.557-3.6,5.875-3.527a.486.486,0,0,1,.3.22.78.78,0,0,1,.066.612,1.1,1.1,0,0,1-.092.225,2.28,2.28,0,0,1,1.211-.276.589.589,0,0,1,.378.277l.021.035c1.573-.8,2.752-1.2,3.391-1.048a.905.905,0,0,1,.612.431.461.461,0,0,1,.045.348c-.065.235-.065.235-2.746,1.73-10.329,5.76-15.978,9.369-16.823,10.744,1.8-.671,8.262-4.749,12.661-7.526,7.574-4.78,8.384-5.2,8.826-5.094a.524.524,0,0,1,.306.228.632.632,0,0,1,.057.49,1.29,1.29,0,0,1-.3.483,2.68,2.68,0,0,1,1.482-.431.721.721,0,0,1,.369.268c.326.565.175.742-5.429,4.154-.133.083-.271.167-.413.253a.984.984,0,0,1,.4-.012.739.739,0,0,1,.374.273.452.452,0,0,1-.614.62c-.911.157-5.187,3-6.823,4.09-1.841,1.224-1.843,1.227-2.084,1.17a.461.461,0,0,1-.291-.214c-.181-.314-.106-.667.4-1.2-4.445,2.838-6.124,3.74-6.75,3.6a.722.722,0,0,1-.365-.267.646.646,0,0,1-.057-.5,1.011,1.011,0,0,1,.158-.315c-1.366.725-2.114,1-2.467.909a.7.7,0,0,1-.357-.264.859.859,0,0,1-.069-.679,2.248,2.248,0,0,1,.487-.795c-2.307,1.55-2.776,1.767-3.1,1.7a.529.529,0,0,1-.318-.232c-.333-.578-.392-.683,8.518-6.168l2-1.232c2.416-1.624,4.628-3.064,6.51-4.179-2.615,1.4-7.351,4.424-10.783,6.62-6.627,4.239-7.787,4.91-8.264,4.8a.539.539,0,0,1-.312-.232.64.64,0,0,1-.078-.238c-2.093,1.125-3.443,1.648-4.055,1.5a.7.7,0,0,1-.537-.9,1.3,1.3,0,0,1,.178-.365,1.8,1.8,0,0,1-1,.214.608.608,0,0,1-.4-.288.716.716,0,0,1-.062-.565.952.952,0,0,1,.1-.226c-1.137.614-1.832.869-2.184.786a.765.765,0,0,1-.378-.276.59.59,0,0,1-.053-.451c.069-.25.35-.558.9-.973a1.217,1.217,0,0,1-.517.023.629.629,0,0,1-.409-.3c-.369-.639.062-1.043,6.805-5.2a77.181,77.181,0,0,0,7.412-4.886c-1.571.366-7.614,4.474-10.966,6.754-4.537,3.085-5.227,3.492-5.659,3.4a.543.543,0,0,1-.32-.232c-.205-.357-.086-.727.795-1.44-1.126.645-1.559.8-1.831.724a.58.58,0,0,1-.326-.24c-.146-.252-.133-.544.359-1.078-.838.452-1.315.6-1.6.532a.721.721,0,0,1-.369-.268c-.437-.757.627-1.5,5.374-4.344,1.264-.757,2.879-1.725,4.123-2.554-2.158,1.24-5.267,3.126-7.274,4.34-3.483,2.113-3.483,2.11-3.713,2.052a.458.458,0,0,1-.28-.213c-.357-.618.166-1.164,6.541-5.54.213-.145.428-.293.644-.442-1.681,1.03-3.74,2.45-5.011,3.328-2.809,1.942-2.957,2.013-3.263,1.942a.5.5,0,0,1-.306-.223c-.228-.4-.086-.722,1.285-1.707-1.511.887-2.079,1.1-2.381,1.027a.584.584,0,0,1-.326-.241c-.188-.326-.084-.668.383-1.137a1.7,1.7,0,0,1-.942.2.715.715,0,0,1-.368-.268c-.229-.4-.109-.7,1.912-2.3-2.707,1.784-3.3,2.087-3.681,2a.569.569,0,0,1-.324-.238c-.181-.321-.032-.458.463-.915.6-.547,1.081-1.006,1.478-1.387-.79.48-.875.481-1.06.434a.47.47,0,0,1-.288-.217c-.081-.143-.083-.145.059-1.339-.317.2-.7.461-1,.663-1.479,1-1.831,1.22-2.155,1.137a.528.528,0,0,1-.317-.231c-.145-.249-.163-.4.624-1.6a.4.4,0,0,1-.188-.012.458.458,0,0,1-.283-.213.453.453,0,0,1,.164-.618.475.475,0,0,1,.13-.051c.173-.086.713-.418.982-.584.529-.323.552-.336.742-.288a.446.446,0,0,1,.284.216c.143.253.089.333-.339.958-.127.185-.336.493-.552.814l.4-.271c1.454-.988,1.8-1.188,2.12-1.117a.531.531,0,0,1,.315.231c.078.14.078.14-.029,1.059l-.027.229c.265-.163.564-.348.805-.5,1.485-.924,1.553-.959,1.8-.9a.46.46,0,0,1,.287.216c.176.3.207.57-1.089,1.894l.921-.611c3.3-2.185,4.5-2.921,5.082-2.921m31.21,4.575c1.267-.721,2.571-1.454,3.889-2.188l1.194-.668a27.951,27.951,0,0,0-3.8,1.987c-.357.252-.783.538-1.285.869M37.178,48.976A63.4,63.4,0,0,0,43.62,45.04c-1.341.667-3.875,2.271-6.442,3.936m4.412,7.442c1.493-.8,4.046-2.417,6.564-4.046-2.527,1.461-5.189,3.037-6.564,4.046M27.1,56.074a60.8,60.8,0,0,0,5.578-3.539A42.971,42.971,0,0,0,27.1,56.074" transform="translate(1379.412 726.069)" fill="#00b53c"/>
  </g>
</svg>
