<svg xmlns="http://www.w3.org/2000/svg" width="29.54" height="16" viewBox="0 0 29.54 16">
  <g id="Grupo_4886" data-name="Grupo 4886" transform="translate(0)">
    <g id="Grupo_994" data-name="Grupo 994" transform="translate(0 0)">
      <g id="Grupo_990" data-name="Grupo 990" transform="translate(19.222 10.841)">
        <path id="Caminho_666" data-name="Caminho 666" d="M1647.671,551.213a5.158,5.158,0,0,1-5.158-5.159h10.318A5.159,5.159,0,0,1,1647.671,551.213Z" transform="translate(-1642.513 -546.054)" fill="#fff"/>
      </g>
      <path id="Icon_ionic-md-person" data-name="Icon ionic-md-person" d="M12.472,12.5a4,4,0,1,0-3.986-4A4,4,0,0,0,12.472,12.5Zm0,2c-2.641,0-7.972,1.35-7.972,4v2H20.444v-2C20.444,15.85,15.113,14.5,12.472,14.5Z" transform="translate(-4.5 -4.5)" fill="#fff"/>
    </g>
  </g>
</svg>
