<svg xmlns="http://www.w3.org/2000/svg" width="29.437" height="15.945" viewBox="0 0 29.437 15.945">
  <g id="Grupo_4886" data-name="Grupo 4886" transform="translate(0)">
    <g id="Grupo_994" data-name="Grupo 994" transform="translate(0 0)">
      <g id="Grupo_990" data-name="Grupo 990" transform="translate(19.12 10.785)">
        <path id="Caminho_666" data-name="Caminho 666" d="M1647.671,551.213a5.158,5.158,0,0,1-5.158-5.159h10.318A5.159,5.159,0,0,1,1647.671,551.213Z" transform="translate(-1642.513 -546.054)" fill="#b0b6ba"/>
      </g>
      <path id="Icon_ionic-md-person" data-name="Icon ionic-md-person" d="M12.472,12.472A3.986,3.986,0,1,0,8.486,8.486,4,4,0,0,0,12.472,12.472Zm0,1.993c-2.641,0-7.972,1.345-7.972,3.986v1.993H20.444V18.451C20.444,15.811,15.113,14.465,12.472,14.465Z" transform="translate(-4.5 -4.5)" fill="#b0b6ba"/>
    </g>
  </g>
</svg>
