<svg id="Grupo_4905" data-name="Grupo 4905" xmlns="http://www.w3.org/2000/svg" xmlns:xlink="http://www.w3.org/1999/xlink" width="16.191" height="24" viewBox="0 0 16.191 24">
  <defs>
    <clipPath id="clip-path">
      <rect id="Retângulo_1233" data-name="Retângulo 1233" width="16.191" height="24" fill="#b0b6ba"/>
    </clipPath>
  </defs>
  <g id="Grupo_4904" data-name="Grupo 4904" transform="translate(0 0)" clip-path="url(#clip-path)">
    <path id="Subtração_36" data-name="Subtração 36" d="M15.662,24H.53c-.086,0-.169-.569-.261-1.792C.177,20.922.084,18.908,0,16.538v-.017c0-.026,0-.048,0-.065v0c0-.017,0-.029,0-.037A4.36,4.36,0,0,1,2.83,12.261,6.377,6.377,0,0,1,4.092,12a4.838,4.838,0,0,0,.776-.148,2.441,2.441,0,0,0,.663-.268,4.779,4.779,0,0,0,.1-1.009,3.213,3.213,0,0,1-.494-.762,9.753,9.753,0,0,1-.261-1.277,1.253,1.253,0,0,1-.529-.9,4.6,4.6,0,0,1-.3-1.481,1.264,1.264,0,0,1,.2-.607A4.579,4.579,0,0,1,4.057,3.7c0-.063,0-.134.007-.2A3.791,3.791,0,0,1,7.837,0c.1,0,.2,0,.3.011h.011A1.339,1.339,0,0,1,8.3,0H8.36a3.779,3.779,0,0,1,3.774,3.753,4.461,4.461,0,0,1-.19,1.806,1.089,1.089,0,0,1,.19.508,2.334,2.334,0,0,1-.148,1.03,3.612,3.612,0,0,0-.148.543,1.249,1.249,0,0,1-.529.9,10.055,10.055,0,0,1-.24,1.2,3.151,3.151,0,0,1-.522.84,4.862,4.862,0,0,0,.106,1.009,2.159,2.159,0,0,0,.607.254,4.223,4.223,0,0,0,.776.155.171.171,0,0,1,.032,0,.213.213,0,0,0,.032,0,6.4,6.4,0,0,1,1.256.254h.007A4.365,4.365,0,0,1,15.5,13.99a4.305,4.305,0,0,1,.691,2.427C16.189,16.492,15.954,24,15.662,24ZM7.173,12.624h0l-.161.28L7,12.925l-.052.09-.177.307.771,1.336-.874,3.511L8.1,19.349l1.428-1.181-.874-3.511.771-1.336-.265-.46-.137-.237ZM12.942,16.5h0l.906.659L13.5,16.09l.907-.659H13.289l-.347-1.066L12.6,15.431H11.475l.907.659-.346,1.066.906-.659Z" transform="translate(0 0)" fill="#b0b6ba" stroke="rgba(0,0,0,0)" stroke-width="1"/>
  </g>
</svg>
