<svg xmlns="http://www.w3.org/2000/svg" width="71.552" height="25" viewBox="0 0 71.552 25">
  <g id="icone-camara-graficogovernismo-seleção-filled" transform="translate(-1238.5 -934.744)">
    <path id="Caminho_3444" data-name="Caminho 3444" d="M70.08,64.766C63.7,50.117,50.849,41.371,35.7,41.371c-12.185,0-28.836,9.388-34.2,23.362L0,64.158c5.6-14.59,22.985-24.392,35.7-24.392,15.8,0,29.205,9.107,35.85,24.36Z" transform="translate(1238.5 894.978)" fill="#0a367c"/>
    <path id="Caminho_3445" data-name="Caminho 3445" d="M20.1,59.249a.534.534,0,0,0,.138-.016.663.663,0,0,0,.366-.268c.27-.467.27-.467-2.869-2.834-.81-.61-1.9-1.433-2.8-2.148,1.518.9,3.536,2.225,4.855,3.1,2.989,1.97,3.1,2.023,3.413,1.949a.519.519,0,0,0,.316-.234c.432-.751-.557-1.494-4.639-4.1-.486-.311-1.043-.666-1.595-1.028,1.157.714,2.413,1.51,3.45,2.166,4.512,2.864,4.892,3.057,5.266,2.965a.533.533,0,0,0,.318-.237c.152-.263.14-.528-.178-.913a1.806,1.806,0,0,0,.916.116.744.744,0,0,0,.488-.348c.284-.491.284-.491-3.649-3.191l-.648-.444c6.856,4.12,7.386,4.282,7.739,4.189a.541.541,0,0,0,.314-.236.869.869,0,0,0-.183-1.041c1.983,1.231,2.887,1.633,3.344,1.526a.762.762,0,0,0,.393-.287c.245-.427.245-.427-2.291-2.03-2.023-1.277-7.047-4.451-9.818-6.5,1.476.9,3.413,2.147,5.115,3.244C34.6,57,36.81,58.314,37.568,58.137a.715.715,0,0,0,.377-.274.559.559,0,0,0,.067-.47,3.739,3.739,0,0,0,2.028.513.8.8,0,0,0,.533-.379c.47-.813-.722-1.728-8.5-6.519-1.956-1.2-4.233-2.607-5.624-3.565,2.874,1.412,8.913,5.325,12.49,7.642,5.446,3.528,5.5,3.514,5.839,3.434a.514.514,0,0,0,.316-.234.83.83,0,0,0,.072-.647,1.234,1.234,0,0,0-.09-.221c1.062.56,1.661.751,1.988.669a.772.772,0,0,0,.4-.289.681.681,0,0,0,.087-.252c1.633.891,2.8,1.319,3.429,1.183a.866.866,0,0,0,.584-.416c.249-.432-.034-.6-.868-1.086-.454-.265-1.109-.642-1.913-1.1C36.852,49.252,30.354,45.077,29.436,43.7c2.238.263,13.369,7.556,18.837,11.139,5.86,3.84,5.913,3.828,6.251,3.753a.517.517,0,0,0,.314-.234.83.83,0,0,0,.071-.651,1.174,1.174,0,0,0-.1-.239,2.426,2.426,0,0,0,1.288.294.627.627,0,0,0,.4-.3l.022-.037c1.674.847,2.928,1.272,3.609,1.115a.963.963,0,0,0,.651-.459.49.49,0,0,0,.048-.371c-.069-.25-.069-.25-2.922-1.84-10.991-6.129-17-9.969-17.9-11.432,1.917.714,8.791,5.053,13.472,8.008,8.06,5.086,8.921,5.534,9.391,5.42a.557.557,0,0,0,.326-.242.673.673,0,0,0,.061-.521,1.373,1.373,0,0,0-.314-.513,2.852,2.852,0,0,0,1.577.459.768.768,0,0,0,.393-.286c.347-.6.186-.789-5.776-4.42-.141-.088-.289-.178-.44-.27a1.047,1.047,0,0,0,.425.013.786.786,0,0,0,.4-.29.481.481,0,0,0-.653-.659c-.969-.167-5.52-3.193-7.26-4.351-1.959-1.3-1.961-1.306-2.217-1.245a.49.49,0,0,0-.31.228c-.193.334-.112.709.428,1.274-4.73-3.02-6.516-3.979-7.182-3.827a.768.768,0,0,0-.388.284.687.687,0,0,0-.061.531,1.075,1.075,0,0,0,.168.335C40.6,43.591,39.8,43.3,39.424,43.4a.749.749,0,0,0-.38.281.914.914,0,0,0-.074.722,2.392,2.392,0,0,0,.518.846c-2.455-1.649-2.954-1.88-3.3-1.805a.563.563,0,0,0-.339.247c-.355.615-.417.727,9.064,6.562l2.126,1.311c2.57,1.728,4.924,3.26,6.927,4.446C51.187,54.519,46.147,51.3,42.5,48.961c-7.052-4.51-8.286-5.224-8.793-5.1a.574.574,0,0,0-.332.247.681.681,0,0,0-.083.254c-2.227-1.2-3.663-1.754-4.315-1.593a.748.748,0,0,0-.571.958,1.378,1.378,0,0,0,.189.388,1.917,1.917,0,0,0-1.065-.228.647.647,0,0,0-.425.306.761.761,0,0,0-.066.6,1.013,1.013,0,0,0,.1.241c-1.21-.653-1.949-.924-2.323-.836a.814.814,0,0,0-.4.294.627.627,0,0,0-.056.48c.074.266.372.594.958,1.035a1.294,1.294,0,0,0-.55-.024.669.669,0,0,0-.435.314c-.393.68.066,1.11,7.241,5.532a82.124,82.124,0,0,1,7.886,5.2c-1.672-.39-8.1-4.761-11.668-7.187-4.828-3.283-5.561-3.716-6.022-3.617a.578.578,0,0,0-.34.247c-.218.38-.091.773.846,1.532-1.2-.687-1.659-.847-1.948-.77a.617.617,0,0,0-.347.255c-.156.268-.141.579.382,1.147-.892-.481-1.4-.634-1.7-.566a.768.768,0,0,0-.393.286c-.465.805.667,1.595,5.719,4.623,1.345.805,3.063,1.836,4.387,2.718-2.3-1.319-5.6-3.326-7.74-4.618-3.706-2.248-3.706-2.245-3.95-2.184a.487.487,0,0,0-.3.226c-.38.658.176,1.239,6.96,5.895.226.154.456.311.685.47-1.789-1.1-3.979-2.607-5.332-3.541-2.989-2.067-3.146-2.142-3.472-2.067a.528.528,0,0,0-.326.237c-.242.422-.091.769,1.367,1.816-1.608-.943-2.213-1.17-2.534-1.093a.621.621,0,0,0-.347.257c-.2.347-.09.711.408,1.21a1.811,1.811,0,0,0-1-.213.761.761,0,0,0-.392.286c-.244.42-.116.743,2.035,2.442-2.88-1.9-3.516-2.221-3.917-2.129a.605.605,0,0,0-.345.254c-.193.342-.034.488.493.974.634.582,1.15,1.07,1.572,1.476-.841-.51-.931-.512-1.128-.462a.5.5,0,0,0-.306.231c-.087.152-.088.154.063,1.425-.337-.215-.744-.491-1.062-.706-1.574-1.069-1.948-1.3-2.293-1.21a.562.562,0,0,0-.337.245c-.154.265-.173.427.664,1.707a.426.426,0,0,0-.2.013.488.488,0,0,0-.3.226.482.482,0,0,0,.175.658.505.505,0,0,0,.138.055c.185.091.759.444,1.045.621.563.343.587.358.789.306a.475.475,0,0,0,.3-.229c.152-.27.095-.355-.361-1.019-.135-.2-.358-.525-.587-.866l.427.289c1.547,1.051,1.916,1.264,2.256,1.189a.565.565,0,0,0,.335-.245c.083-.149.083-.149-.03-1.126l-.029-.244c.282.173.6.371.857.531,1.58.984,1.653,1.02,1.911.955a.489.489,0,0,0,.3-.229c.188-.324.22-.607-1.158-2.015l.98.65c3.507,2.325,4.788,3.108,5.407,3.108M53.3,54.381c1.348.767,2.736,1.547,4.138,2.328l1.271.711a29.742,29.742,0,0,1-4.042-2.115c-.38-.268-.833-.573-1.367-.924M39.1,52.613A67.463,67.463,0,0,1,45.959,56.8c-1.426-.709-4.124-2.416-6.855-4.188M43.8,44.695c1.588.847,4.3,2.572,6.984,4.3-2.689-1.555-5.521-3.231-6.984-4.3m-15.413.366a64.7,64.7,0,0,1,5.935,3.766,45.723,45.723,0,0,1-5.935-3.766" transform="translate(1238.219 896.786)" fill="#0a367c"/>
  </g>
</svg>
