<svg xmlns="http://www.w3.org/2000/svg" viewBox="0 0 40.3 46.51"><defs><style>.cls-1{fill:#c92c2c;}.cls-2{fill:#fff;}</style></defs><title>Asset 5</title><g id="Layer_2" data-name="Layer 2"><g id="Layer_2-2" data-name="Layer 2"><path class="cls-1" d="M0,11.66V34.85a.06.06,0,0,0,0,.06L20.12,46.5h.06L40.27,34.91a.06.06,0,0,0,0-.06V11.66a.05.05,0,0,0,0-.05L20.18,0h-.06L0,11.61A.05.05,0,0,0,0,11.66Z"/><path class="cls-2" d="M33.34,13.81,29.19,9.66a.59.59,0,0,0-.83,0L7.6,30.41h0a.39.39,0,0,0-.11.17l0,0,0,.07L6.2,36.1a.58.58,0,0,0,.44.7H6.9l5.4-1.24.07,0,0,0a.5.5,0,0,0,.17-.11L33.34,14.64A.59.59,0,0,0,33.34,13.81ZM7.55,35.45,8.35,32,11,34.65Zm22-18.72-3.32-3.32.44-.43L30,16.3Zm1.26-1.26-3.32-3.32,1.25-1.25,3.32,3.33Z"/></g></g></svg>