<svg id="Layer_1" data-name="Layer 1" xmlns="http://www.w3.org/2000/svg" viewBox="0 0 300 300"><defs><style>.cls-1{fill:#d80820;}</style></defs><title>autor</title><polygon class="cls-1" points="73.1 224.42 94.14 219.55 77.97 203.38 73.1 224.42"/><rect class="cls-1" x="196.97" y="84.38" width="3.72" height="28.65" transform="translate(-11.56 169.5) rotate(-45)"/><polygon class="cls-1" points="195.05 82.17 215.31 102.48 222.92 94.87 202.66 74.56 195.05 82.17"/><path class="cls-1" d="M273,79,150,8A.06.06,0,0,0,150,8L27,79A.06.06,0,0,0,27,79V221a.06.06,0,0,0,0,.06l123,71H150l123-71a.06.06,0,0,0,0-.06V79A.06.06,0,0,0,273,79ZM230.53,97.39,103.77,224.14a3.24,3.24,0,0,1-1,.67.86.86,0,0,1-.28.11,4,4,0,0,0-.39.17l-33,7.61a3.69,3.69,0,0,1-.78.06,4,4,0,0,1-.84-.06,3.63,3.63,0,0,1-2.69-4.31l7.62-33c0-.11.11-.28.16-.39s.06-.17.11-.28a2.58,2.58,0,0,1,.68-1v-.05L200.14,67a3.55,3.55,0,0,1,5,0L230.53,92.3A3.61,3.61,0,0,1,230.53,97.39Z"/></svg>