<svg xmlns="http://www.w3.org/2000/svg" viewBox="0 0 40.3 46.5"><defs><style>.cls-1{fill:#5c45c4;}.cls-2{fill:#fff;}</style></defs><title>Asset 6</title><g id="Layer_2" data-name="Layer 2"><g id="Layer_2-2" data-name="Layer 2"><path class="cls-1" d="M0,11.68V34.82a.11.11,0,0,0,.05.09L20.1,46.48a.09.09,0,0,0,.1,0L40.25,34.91a.11.11,0,0,0,0-.09V11.68a.09.09,0,0,0,0-.09L20.2,0h-.1L.05,11.59A.09.09,0,0,0,0,11.68Z"/><path class="cls-2" d="M29.88,10.9H10.42a3.7,3.7,0,0,0-3.69,3.69V26.5a3.7,3.7,0,0,0,3.68,3.69v5.4l7.76-5.4H29.88a3.69,3.69,0,0,0,3.69-3.69V14.59A3.69,3.69,0,0,0,29.88,10.9ZM26.39,24.74H13.92V23.17H26.39Zm0-3.35H13.92V19.81H26.39Zm0-3.36H13.92V16.46H26.39Z"/></g></g></svg>