<svg id="Layer_1" data-name="Layer 1"
  xmlns="http://www.w3.org/2000/svg" viewBox="0 0 300 300">
  <title/>
  <rect fill="black" x="111.93" y="108.56" width="76.14" height="9.6"/>
  <rect fill="black" x="111.93" y="129.04" width="76.14" height="9.59"/>
  <rect fill="black" x="111.93" y="149.51" width="76.14" height="9.6"/>
  <path fill="black" d="M273,79,150.05,8a.09.09,0,0,0-.1,0L27,79A.1.1,0,0,0,27,79V221a.1.1,0,0,0,.06.09L150,292a.09.09,0,0,0,.1,0l122.92-71A.1.1,0,0,0,273,221V79A.1.1,0,0,0,273,79Zm-41,90.9a22.56,22.56,0,0,1-22.53,22.53H137.93l-47.41,33v-33a22.56,22.56,0,0,1-22.45-22.53V97.16A22.55,22.55,0,0,1,90.6,74.64H209.4a22.55,22.55,0,0,1,22.53,22.52Z"/>
</svg>
