<svg xmlns="http://www.w3.org/2000/svg" xmlns:xlink="http://www.w3.org/1999/xlink" width="1103.001" height="244.99" viewBox="0 0 1103.001 244.99">
  <defs>
    <linearGradient id="linear-gradient" x1="0.425" y1="-0.159" x2="0.401" y2="1.195" gradientUnits="objectBoundingBox">
      <stop offset="0" stop-color="#6942a3" stop-opacity="0.2"/>
      <stop offset="1" stop-color="#34174a" stop-opacity="0.2"/>
    </linearGradient>
    <filter id="Caminho_2006">
      <feOffset dy="3" input="SourceAlpha"/>
      <feGaussianBlur stdDeviation="3" result="blur"/>
      <feFlood flood-opacity="0.161" result="color"/>
      <feComposite operator="out" in="SourceGraphic" in2="blur"/>
      <feComposite operator="in" in="color"/>
      <feComposite operator="in" in2="SourceGraphic"/>
    </filter>
  </defs>
  <g data-type="innerShadowGroup">
    <path id="Caminho_2006-2" data-name="Caminho 2006" d="M1869,83.19a121.97,121.97,0,0,0-76.894,27.146v-.007l-.035.036a123.2,123.2,0,0,0-10.348,9.386c-19.961,16.761-66.963,57.973-125.668,57.973-59.126,0-108.417-41.7-129.125-58.338-.09-.091-.182-.177-.271-.267s-.2-.195-.3-.294q-3.879-3.856-8.093-7.361c-.144-.119-.286-.242-.43-.36-.57-.47-1.148-.931-1.726-1.39-.228-.181-.456-.364-.685-.544-.549-.43-1.1-.851-1.658-1.271-.266-.2-.532-.4-.8-.6q-.812-.6-1.637-1.194-.43-.309-.863-.614-.817-.575-1.643-1.139c-.3-.2-.595-.4-.893-.6q-.833-.557-1.674-1.1c-.293-.189-.587-.372-.881-.558-.577-.364-1.153-.729-1.736-1.084-.264-.16-.531-.315-.8-.474-.621-.371-1.242-.745-1.87-1.106l-.186-.1q-2.294-1.314-4.651-2.529c-.134-.07-.268-.143-.4-.212-.586-.3-1.179-.589-1.77-.88-.348-.17-.693-.344-1.042-.512-.55-.264-1.106-.519-1.66-.775-.4-.184-.8-.369-1.2-.549-.537-.24-1.078-.475-1.619-.708q-.637-.274-1.277-.544-.8-.332-1.6-.653-.669-.268-1.342-.529-.788-.305-1.582-.6-.7-.259-1.4-.508c-.52-.186-1.041-.372-1.565-.551-.488-.167-.979-.328-1.469-.488-.511-.168-1.022-.338-1.537-.5s-1.052-.32-1.58-.477c-.488-.146-.973-.3-1.462-.435-.673-.192-1.351-.371-2.028-.551q-.931-.248-1.867-.483c-.736-.183-1.472-.366-2.214-.536-.434-.1-.873-.19-1.31-.286-.616-.134-1.231-.27-1.851-.395-.465-.094-.932-.18-1.4-.268-.6-.113-1.195-.226-1.8-.331-.476-.083-.954-.16-1.432-.237-.6-.1-1.2-.192-1.8-.28-.477-.071-.956-.137-1.436-.2q-.914-.123-1.832-.233-.712-.085-1.427-.163c-.628-.068-1.258-.128-1.887-.186-.464-.043-.927-.086-1.391-.123-.663-.054-1.328-.1-1.994-.141-.437-.028-.872-.06-1.309-.083-.739-.04-1.481-.068-2.223-.094-.368-.014-.734-.032-1.1-.042q-1.668-.044-3.347-.047h0q-1.707,0-3.4.049c-.368.01-.734.029-1.1.041-.762.028-1.523.058-2.282.1-.433.024-.864.054-1.3.082-.693.045-1.385.094-2.076.15-.449.037-.9.078-1.346.119q-1.012.094-2.017.2-.669.074-1.336.153-1.023.124-2.04.266c-.422.059-.845.115-1.267.177-.733.109-1.462.228-2.191.351-.359.06-.72.115-1.078.178q-1.539.272-3.065.581l-.166.032q-1.614.33-3.212.7c-.326.076-.65.159-.975.238-.736.177-1.471.358-2.2.549-.394.1-.785.212-1.178.319-.661.18-1.32.362-1.977.553-.411.119-.82.243-1.229.366q-.958.289-1.908.593-.61.194-1.218.4c-.644.213-1.285.434-1.926.658-.381.134-.762.266-1.141.4-.694.251-1.383.511-2.07.773-.317.122-.637.239-.954.363q-1.414.554-2.812,1.141l-.166.068q-1.5.632-2.973,1.305c-.255.116-.507.238-.761.356-.718.332-1.433.667-2.144,1.013-.333.162-.662.329-.993.494-.63.313-1.258.63-1.883.955-.349.181-.7.367-1.045.551q-.908.483-1.806.98-.515.285-1.028.575-.914.517-1.818,1.052c-.318.187-.637.373-.954.564q-.981.589-1.948,1.2c-.255.159-.511.316-.765.477q-1.334.849-2.645,1.732l-.012.008q-1.356.914-2.684,1.864c-.165.118-.326.239-.49.357q-1.048.756-2.08,1.531c-.253.191-.5.386-.755.579q-.894.684-1.775,1.382c-.236.187-.471.376-.7.566v-.007l-.036.036-.079.065q-.845.684-1.676,1.381-.406.34-.81.684-.842.719-1.67,1.454c-.244.217-.491.433-.733.651q-.907.816-1.8,1.651c-.181.169-.364.335-.542.505q-1.564,1.482-3.073,3.02c-19.979,16.77-66.962,57.946-125.636,57.946-59.126,0-108.416-41.7-129.125-58.338a122.494,122.494,0,1,0-10.814,182.273l0,.93s78.988-73.448,139.94-73.448c54.9,0,120.326,59.021,133.619,69.879.213.182.429.36.643.54q.786.66,1.582,1.305l.207.175v-.007q.351.284.7.566.878.7,1.771,1.379c.254.194.505.391.76.582q1.03.777,2.078,1.53c.164.119.326.24.491.358q1.329.948,2.682,1.863l.027.017q1.3.879,2.631,1.723c.254.161.511.318.765.477q.969.608,1.948,1.2c.317.191.636.377.955.565q.9.532,1.814,1.05.514.291,1.032.577.9.5,1.8.978.521.278,1.045.552c.624.325,1.253.641,1.883.954.332.165.661.332.993.494.71.345,1.425.681,2.144,1.013.255.118.506.239.761.356q1.477.671,2.973,1.305l.166.068q1.4.588,2.812,1.141c.317.124.636.241.954.363.687.263,1.376.523,2.07.773.379.137.76.269,1.141.4.64.224,1.281.445,1.926.658q.608.2,1.218.4.951.3,1.908.593c.409.123.818.247,1.229.366.656.191,1.316.373,1.977.553.393.107.784.216,1.178.319.731.191,1.466.371,2.2.549.325.079.649.162.975.238q1.6.372,3.212.7l.166.032q1.526.309,3.065.581c.358.063.719.118,1.078.178.729.122,1.459.242,2.191.351.422.063.845.119,1.267.177q1.019.141,2.04.266.667.08,1.336.153,1.006.11,2.017.2c.448.041.9.083,1.346.119.691.056,1.383.105,2.076.15.431.028.862.058,1.3.082.759.041,1.52.072,2.282.1.368.013.733.032,1.1.041q1.7.047,3.4.049h0c1.132,0,2.261-.018,3.387-.049.371-.01.74-.029,1.11-.042.754-.027,1.507-.056,2.258-.1.436-.024.869-.055,1.3-.083.685-.045,1.368-.091,2.049-.147.456-.037.909-.08,1.363-.121q.99-.093,1.975-.2.686-.075,1.369-.157.987-.119,1.967-.255c.444-.06.888-.12,1.33-.186.682-.1,1.361-.212,2.04-.324.406-.068.814-.13,1.219-.2.8-.14,1.587-.292,2.377-.447.282-.056.564-.1.844-.162q1.6-.325,3.173-.69c.29-.068.577-.142.866-.212.767-.184,1.532-.37,2.292-.568.4-.1.795-.215,1.191-.322.649-.176,1.3-.353,1.941-.539.426-.123.85-.251,1.275-.379q.918-.276,1.83-.564.648-.206,1.292-.419.9-.3,1.8-.61c.422-.146.844-.294,1.264-.445.612-.221,1.222-.449,1.83-.679.394-.149.788-.3,1.18-.449.668-.261,1.332-.531,1.994-.8.325-.133.651-.262.974-.4q1.472-.62,2.926-1.275l.044-.021q1.433-.649,2.846-1.335c.305-.148.607-.3.911-.453.65-.321,1.3-.645,1.942-.978.355-.183.706-.371,1.059-.558.589-.312,1.177-.626,1.76-.947.364-.2.727-.4,1.089-.609q.857-.482,1.7-.978.535-.313,1.066-.63.859-.515,1.709-1.044c.335-.208.67-.414,1-.625.6-.383,1.2-.775,1.8-1.168.285-.188.572-.372.855-.562q1.105-.742,2.191-1.51c.137-.1.276-.189.412-.286q1.314-.932,2.6-1.9c.137-.1.271-.209.408-.313q1.057-.8,2.1-1.62c.07-.056.141-.109.211-.164v.93s78.987-73.448,139.94-73.448c54.9,0,120.326,59.021,133.619,69.879.706.6,1.421,1.188,2.14,1.773l.292.247v-.007A122.493,122.493,0,1,0,1869,83.19Z" transform="translate(-888.492 -83.19)" fill="url(#linear-gradient)"/>
    <g transform="matrix(1, 0, 0, 1, 0, 0)" filter="url(#Caminho_2006)">
      <path id="Caminho_2006-3" data-name="Caminho 2006" d="M1869,83.19a121.97,121.97,0,0,0-76.894,27.146v-.007l-.035.036a123.2,123.2,0,0,0-10.348,9.386c-19.961,16.761-66.963,57.973-125.668,57.973-59.126,0-108.417-41.7-129.125-58.338-.09-.091-.182-.177-.271-.267s-.2-.195-.3-.294q-3.879-3.856-8.093-7.361c-.144-.119-.286-.242-.43-.36-.57-.47-1.148-.931-1.726-1.39-.228-.181-.456-.364-.685-.544-.549-.43-1.1-.851-1.658-1.271-.266-.2-.532-.4-.8-.6q-.812-.6-1.637-1.194-.43-.309-.863-.614-.817-.575-1.643-1.139c-.3-.2-.595-.4-.893-.6q-.833-.557-1.674-1.1c-.293-.189-.587-.372-.881-.558-.577-.364-1.153-.729-1.736-1.084-.264-.16-.531-.315-.8-.474-.621-.371-1.242-.745-1.87-1.106l-.186-.1q-2.294-1.314-4.651-2.529c-.134-.07-.268-.143-.4-.212-.586-.3-1.179-.589-1.77-.88-.348-.17-.693-.344-1.042-.512-.55-.264-1.106-.519-1.66-.775-.4-.184-.8-.369-1.2-.549-.537-.24-1.078-.475-1.619-.708q-.637-.274-1.277-.544-.8-.332-1.6-.653-.669-.268-1.342-.529-.788-.305-1.582-.6-.7-.259-1.4-.508c-.52-.186-1.041-.372-1.565-.551-.488-.167-.979-.328-1.469-.488-.511-.168-1.022-.338-1.537-.5s-1.052-.32-1.58-.477c-.488-.146-.973-.3-1.462-.435-.673-.192-1.351-.371-2.028-.551q-.931-.248-1.867-.483c-.736-.183-1.472-.366-2.214-.536-.434-.1-.873-.19-1.31-.286-.616-.134-1.231-.27-1.851-.395-.465-.094-.932-.18-1.4-.268-.6-.113-1.195-.226-1.8-.331-.476-.083-.954-.16-1.432-.237-.6-.1-1.2-.192-1.8-.28-.477-.071-.956-.137-1.436-.2q-.914-.123-1.832-.233-.712-.085-1.427-.163c-.628-.068-1.258-.128-1.887-.186-.464-.043-.927-.086-1.391-.123-.663-.054-1.328-.1-1.994-.141-.437-.028-.872-.06-1.309-.083-.739-.04-1.481-.068-2.223-.094-.368-.014-.734-.032-1.1-.042q-1.668-.044-3.347-.047h0q-1.707,0-3.4.049c-.368.01-.734.029-1.1.041-.762.028-1.523.058-2.282.1-.433.024-.864.054-1.3.082-.693.045-1.385.094-2.076.15-.449.037-.9.078-1.346.119q-1.012.094-2.017.2-.669.074-1.336.153-1.023.124-2.04.266c-.422.059-.845.115-1.267.177-.733.109-1.462.228-2.191.351-.359.06-.72.115-1.078.178q-1.539.272-3.065.581l-.166.032q-1.614.33-3.212.7c-.326.076-.65.159-.975.238-.736.177-1.471.358-2.2.549-.394.1-.785.212-1.178.319-.661.18-1.32.362-1.977.553-.411.119-.82.243-1.229.366q-.958.289-1.908.593-.61.194-1.218.4c-.644.213-1.285.434-1.926.658-.381.134-.762.266-1.141.4-.694.251-1.383.511-2.07.773-.317.122-.637.239-.954.363q-1.414.554-2.812,1.141l-.166.068q-1.5.632-2.973,1.305c-.255.116-.507.238-.761.356-.718.332-1.433.667-2.144,1.013-.333.162-.662.329-.993.494-.63.313-1.258.63-1.883.955-.349.181-.7.367-1.045.551q-.908.483-1.806.98-.515.285-1.028.575-.914.517-1.818,1.052c-.318.187-.637.373-.954.564q-.981.589-1.948,1.2c-.255.159-.511.316-.765.477q-1.334.849-2.645,1.732l-.012.008q-1.356.914-2.684,1.864c-.165.118-.326.239-.49.357q-1.048.756-2.08,1.531c-.253.191-.5.386-.755.579q-.894.684-1.775,1.382c-.236.187-.471.376-.7.566v-.007l-.036.036-.079.065q-.845.684-1.676,1.381-.406.34-.81.684-.842.719-1.67,1.454c-.244.217-.491.433-.733.651q-.907.816-1.8,1.651c-.181.169-.364.335-.542.505q-1.564,1.482-3.073,3.02c-19.979,16.77-66.962,57.946-125.636,57.946-59.126,0-108.416-41.7-129.125-58.338a122.494,122.494,0,1,0-10.814,182.273l0,.93s78.988-73.448,139.94-73.448c54.9,0,120.326,59.021,133.619,69.879.213.182.429.36.643.54q.786.66,1.582,1.305l.207.175v-.007q.351.284.7.566.878.7,1.771,1.379c.254.194.505.391.76.582q1.03.777,2.078,1.53c.164.119.326.24.491.358q1.329.948,2.682,1.863l.027.017q1.3.879,2.631,1.723c.254.161.511.318.765.477q.969.608,1.948,1.2c.317.191.636.377.955.565q.9.532,1.814,1.05.514.291,1.032.577.9.5,1.8.978.521.278,1.045.552c.624.325,1.253.641,1.883.954.332.165.661.332.993.494.71.345,1.425.681,2.144,1.013.255.118.506.239.761.356q1.477.671,2.973,1.305l.166.068q1.4.588,2.812,1.141c.317.124.636.241.954.363.687.263,1.376.523,2.07.773.379.137.76.269,1.141.4.64.224,1.281.445,1.926.658q.608.2,1.218.4.951.3,1.908.593c.409.123.818.247,1.229.366.656.191,1.316.373,1.977.553.393.107.784.216,1.178.319.731.191,1.466.371,2.2.549.325.079.649.162.975.238q1.6.372,3.212.7l.166.032q1.526.309,3.065.581c.358.063.719.118,1.078.178.729.122,1.459.242,2.191.351.422.063.845.119,1.267.177q1.019.141,2.04.266.667.08,1.336.153,1.006.11,2.017.2c.448.041.9.083,1.346.119.691.056,1.383.105,2.076.15.431.028.862.058,1.3.082.759.041,1.52.072,2.282.1.368.013.733.032,1.1.041q1.7.047,3.4.049h0c1.132,0,2.261-.018,3.387-.049.371-.01.74-.029,1.11-.042.754-.027,1.507-.056,2.258-.1.436-.024.869-.055,1.3-.083.685-.045,1.368-.091,2.049-.147.456-.037.909-.08,1.363-.121q.99-.093,1.975-.2.686-.075,1.369-.157.987-.119,1.967-.255c.444-.06.888-.12,1.33-.186.682-.1,1.361-.212,2.04-.324.406-.068.814-.13,1.219-.2.8-.14,1.587-.292,2.377-.447.282-.056.564-.1.844-.162q1.6-.325,3.173-.69c.29-.068.577-.142.866-.212.767-.184,1.532-.37,2.292-.568.4-.1.795-.215,1.191-.322.649-.176,1.3-.353,1.941-.539.426-.123.85-.251,1.275-.379q.918-.276,1.83-.564.648-.206,1.292-.419.9-.3,1.8-.61c.422-.146.844-.294,1.264-.445.612-.221,1.222-.449,1.83-.679.394-.149.788-.3,1.18-.449.668-.261,1.332-.531,1.994-.8.325-.133.651-.262.974-.4q1.472-.62,2.926-1.275l.044-.021q1.433-.649,2.846-1.335c.305-.148.607-.3.911-.453.65-.321,1.3-.645,1.942-.978.355-.183.706-.371,1.059-.558.589-.312,1.177-.626,1.76-.947.364-.2.727-.4,1.089-.609q.857-.482,1.7-.978.535-.313,1.066-.63.859-.515,1.709-1.044c.335-.208.67-.414,1-.625.6-.383,1.2-.775,1.8-1.168.285-.188.572-.372.855-.562q1.105-.742,2.191-1.51c.137-.1.276-.189.412-.286q1.314-.932,2.6-1.9c.137-.1.271-.209.408-.313q1.057-.8,2.1-1.62c.07-.056.141-.109.211-.164v.93s78.987-73.448,139.94-73.448c54.9,0,120.326,59.021,133.619,69.879.706.6,1.421,1.188,2.14,1.773l.292.247v-.007A122.493,122.493,0,1,0,1869,83.19Z" transform="translate(-888.49 -83.19)" fill="#fff"/>
    </g>
  </g>
</svg>
