<svg id="Grupo_8345" data-name="Grupo 8345" xmlns="http://www.w3.org/2000/svg" xmlns:xlink="http://www.w3.org/1999/xlink" width="205" height="162.787" viewBox="0 0 205 162.787">
  <defs>
    <clipPath id="clip-path">
      <rect id="Retângulo_2403" data-name="Retângulo 2403" width="205" height="162.787" fill="none"/>
    </clipPath>
  </defs>
  <g id="Grupo_8344" data-name="Grupo 8344" clip-path="url(#clip-path)">
    <path id="Caminho_6723" data-name="Caminho 6723" d="M100.812,18.935a1.892,1.892,0,0,0,1.64-.9l5.164-9.18V20.82a1.885,1.885,0,1,0,3.77,0V1.884A1.908,1.908,0,0,0,109.5,0a2.076,2.076,0,0,0-1.722,1.068l-6.967,12.539L93.845,1.067A1.873,1.873,0,0,0,92.123,0a1.907,1.907,0,0,0-1.885,1.885V20.82a1.886,1.886,0,0,0,3.772,0V8.853l5.163,9.18a2,2,0,0,0,1.64.9M119.993,3.688h8.361a1.681,1.681,0,0,0,1.721-1.721A1.681,1.681,0,0,0,128.354.246H118.108a1.856,1.856,0,0,0-1.885,1.885V20.492a1.855,1.855,0,0,0,1.885,1.885h10.656a1.721,1.721,0,1,0,0-3.442h-8.771V12.868h6.229a1.731,1.731,0,0,0,1.722-1.721,1.681,1.681,0,0,0-1.722-1.721h-6.229Zm28.524-.08a1.733,1.733,0,0,0,1.721-1.723A1.681,1.681,0,0,0,148.517.163H134.582a1.732,1.732,0,0,0-1.721,1.721,1.682,1.682,0,0,0,1.721,1.723h5.083V20.82a1.885,1.885,0,1,0,3.77,0V3.607Zm11.147,10.327,5.984,8.114a1.915,1.915,0,0,0,1.475.657,1.856,1.856,0,0,0,1.885-1.885,1.787,1.787,0,0,0-.41-1.148l-4.919-5.9c3.2-.409,5.083-3.442,5.083-6.556A6.645,6.645,0,0,0,161.8.328h-6.311A1.854,1.854,0,0,0,153.6,2.214V20.82a1.885,1.885,0,1,0,3.77,0V13.935Zm2.214-10.247c2.131,0,3.032,1.721,3.032,3.444s-.9,3.442-2.951,3.442h-4.426V3.688Zm14.918-1.8a1.885,1.885,0,1,0-3.77,0V20.739a1.885,1.885,0,1,0,3.77,0Zm15.82,11.231h-5.41l2.7-6.885Zm1.311,3.524,2.049,4.755a2,2,0,0,0,1.8,1.23,1.906,1.906,0,0,0,1.885-1.885,1,1,0,0,0-.163-.658L191.713,1.147A1.784,1.784,0,0,0,189.992,0a1.9,1.9,0,0,0-1.721,1.148l-7.787,18.934a2.527,2.527,0,0,0-.164.658,1.908,1.908,0,0,0,1.885,1.885,2.1,2.1,0,0,0,1.8-1.23l2.048-4.755Z" transform="translate(5.335 0)" fill="#9ec757"/>
    <path id="Caminho_6724" data-name="Caminho 6724" d="M8.2,13.77c3.934,0,6.885-2.211,6.885-6.8S12.05.246,8.2.246H1.886A1.854,1.854,0,0,0,0,2.131V20.739a1.854,1.854,0,0,0,1.885,1.885,1.856,1.856,0,0,0,1.885-1.885V13.77ZM7.951,3.688A3,3,0,0,1,11.23,7.05,3.041,3.041,0,0,1,7.951,10.41h-4.1V3.688Zm19.755,9.427H22.294L25,6.23Zm1.31,3.524,2.05,4.755a2,2,0,0,0,1.8,1.23,1.906,1.906,0,0,0,1.884-1.885,1,1,0,0,0-.163-.658L26.8,1.147A1.785,1.785,0,0,0,25.081,0,1.907,1.907,0,0,0,23.36,1.147L15.573,20.081a2.616,2.616,0,0,0-.164.658,1.909,1.909,0,0,0,1.885,1.885,2.1,2.1,0,0,0,1.8-1.23l2.049-4.755Zm15.083-2.7,5.983,8.114a1.919,1.919,0,0,0,1.476.657,1.855,1.855,0,0,0,1.884-1.885,1.787,1.787,0,0,0-.41-1.148l-4.917-5.9c3.2-.409,5.083-3.442,5.083-6.556A6.645,6.645,0,0,0,46.229.328H39.917a1.854,1.854,0,0,0-1.884,1.885V20.82a1.885,1.885,0,0,0,3.77,0V13.935ZM46.312,3.688c2.131,0,3.032,1.721,3.032,3.444s-.9,3.442-2.951,3.442H41.968V3.688ZM61.23,18.853V1.884a1.886,1.886,0,0,0-3.772,0v18.69a1.856,1.856,0,0,0,1.885,1.885H69.1a1.8,1.8,0,1,0,0-3.606Zm24.18-5.738H80L82.7,6.23Zm1.312,3.524,2.048,4.755a2,2,0,0,0,1.8,1.23,1.907,1.907,0,0,0,1.886-1.885.991.991,0,0,0-.164-.658L84.426,1.147A1.785,1.785,0,0,0,82.7,0a1.9,1.9,0,0,0-1.72,1.148L73.2,20.081a2.607,2.607,0,0,0-.163.658,1.908,1.908,0,0,0,1.885,1.885,2.093,2.093,0,0,0,1.8-1.23l2.049-4.755Z" transform="translate(0 0)" fill="#654595"/>
    <path id="Caminho_6725" data-name="Caminho 6725" d="M136.293,34.749H4.9a1.97,1.97,0,0,0-1.8,1.968,2.029,2.029,0,0,0,1.8,1.967H65.964a41.111,41.111,0,1,0,70.329-3.935m-34.017,60A37.122,37.122,0,0,1,70.391,38.6h63.77a37.122,37.122,0,0,1-31.885,56.147" transform="translate(0.183 2.054)" fill="#654595"/>
    <path id="Caminho_6726" data-name="Caminho 6726" d="M0,57.357a2.951,2.951,0,0,1,5.9,0,96.513,96.513,0,0,0,6.066,33.77,95.339,95.339,0,0,0,16.721,28.525,2.907,2.907,0,0,1-4.426,3.77A102.225,102.225,0,0,1,6.557,93.176,99.039,99.039,0,0,1,0,57.357" transform="translate(0 3.217)" fill="#654595"/>
    <path id="Caminho_6727" data-name="Caminho 6727" d="M33.9,129.576a3.284,3.284,0,0,1,.656-1.885,2.965,2.965,0,0,1,4.1-.41,98.123,98.123,0,0,0,28.36,16.393,95.992,95.992,0,0,0,33.361,5.9,95.1,95.1,0,0,0,33.524-5.984,96.972,96.972,0,0,0,28.443-16.476,2.874,2.874,0,0,1,4.1.328,2.812,2.812,0,0,1-.41,4.1A101.067,101.067,0,0,1,135.865,149a102.949,102.949,0,0,1-35.574,6.311A102.27,102.27,0,0,1,34.8,131.625a2.556,2.556,0,0,1-.9-2.049" transform="translate(2.004 7.473)" fill="#654595"/>
    <path id="Caminho_6728" data-name="Caminho 6728" d="M166.47,121.963a3.284,3.284,0,0,1,.656-1.885,96.124,96.124,0,0,0,22.131-61.393A95.4,95.4,0,0,0,186.47,35.57a2.912,2.912,0,0,1,5.656-1.394,103,103,0,0,1-3.279,59.754,100.916,100.916,0,0,1-17.213,29.918,2.965,2.965,0,0,1-4.1.41,3.336,3.336,0,0,1-1.065-2.3" transform="translate(9.842 1.889)" fill="#9ec757"/>
    <path id="Caminho_6729" data-name="Caminho 6729" d="M20.664,57.329a2.466,2.466,0,0,1,2.459-2.459,2.416,2.416,0,0,1,2.459,2.459A75.342,75.342,0,0,0,42.3,104.788a2.451,2.451,0,1,1-3.852,3.032A78.58,78.58,0,0,1,25.418,84.542a78.911,78.911,0,0,1-4.754-27.213" transform="translate(1.222 3.244)" fill="#654595"/>
    <path id="Caminho_6730" data-name="Caminho 6730" d="M48.757,115.238a2.411,2.411,0,0,1,3.935-1.885A76.671,76.671,0,0,0,74.33,125.32a75.5,75.5,0,0,0,72.705-12.377,2.451,2.451,0,0,1,3.032,3.852,79.414,79.414,0,0,1-23.278,13.034,80.452,80.452,0,0,1-77.131-12.541,2.63,2.63,0,0,1-.9-2.049" transform="translate(2.882 6.646)" fill="#654595"/>
    <path id="Caminho_6731" data-name="Caminho 6731" d="M152.075,107.429a2.3,2.3,0,0,1,.574-1.557A75.683,75.683,0,0,0,165.6,35.544a2.411,2.411,0,0,1,4.59-1.475,81.307,81.307,0,0,1-.9,51.639,81.7,81.7,0,0,1-12.951,23.2,2.463,2.463,0,0,1-3.442.41,2.825,2.825,0,0,1-.82-1.885" transform="translate(8.991 1.915)" fill="#9ec757"/>
    <path id="Caminho_6732" data-name="Caminho 6732" d="M39.547,57.3a1.967,1.967,0,0,1,3.935,0A55.994,55.994,0,0,0,54.71,91.155,1.934,1.934,0,1,1,51.6,93.449,59.893,59.893,0,0,1,39.547,57.3" transform="translate(2.338 3.271)" fill="#654595"/>
    <path id="Caminho_6733" data-name="Caminho 6733" d="M62.378,102.034a1.53,1.53,0,0,1,.41-1.147,1.886,1.886,0,0,1,2.7-.41,56.591,56.591,0,0,0,66.557,0,1.934,1.934,0,1,1,2.3,3.114,60.776,60.776,0,0,1-71.312,0,2.1,2.1,0,0,1-.656-1.557" transform="translate(3.688 5.917)" fill="#654595"/>
    <path id="Caminho_6734" data-name="Caminho 6734" d="M139.383,93.46a1.957,1.957,0,0,1,.41-1.147,56.847,56.847,0,0,0,6.23-56.64,1.927,1.927,0,1,1,3.525-1.558,60.7,60.7,0,0,1-6.722,60.574,1.888,1.888,0,0,1-2.7.41,2.723,2.723,0,0,1-.737-1.64" transform="translate(8.24 1.949)" fill="#9ec757"/>
  </g>
</svg>
