<svg id="Grupo_4729" data-name="Grupo 4729" xmlns="http://www.w3.org/2000/svg" xmlns:xlink="http://www.w3.org/1999/xlink" width="16.842" height="16" viewBox="0 0 16.842 16">
  <defs>
    <clipPath id="clip-path">
      <rect id="Retângulo_1163" data-name="Retângulo 1163" width="16.842" height="16" fill="#b0b6ba"/>
    </clipPath>
  </defs>
  <rect id="Retângulo_1158" data-name="Retângulo 1158" width="1.684" height="2.526" transform="translate(7.579 13.474)" fill="#b0b6ba"/>
  <rect id="Retângulo_1159" data-name="Retângulo 1159" width="2.526" height="1.684" transform="translate(0 6.737)" fill="#b0b6ba"/>
  <rect id="Retângulo_1160" data-name="Retângulo 1160" width="2.526" height="1.684" transform="translate(14.315 6.737)" fill="#b0b6ba"/>
  <rect id="Retângulo_1161" data-name="Retângulo 1161" width="1.676" height="2.526" transform="translate(11.7 12.464) rotate(-45)" fill="#b0b6ba"/>
  <rect id="Retângulo_1162" data-name="Retângulo 1162" width="2.526" height="1.676" transform="translate(2.176 13.06) rotate(-45)" fill="#b0b6ba"/>
  <g id="Grupo_4728" data-name="Grupo 4728">
    <g id="Grupo_4727" data-name="Grupo 4727" clip-path="url(#clip-path)">
      <path id="Caminho_3355" data-name="Caminho 3355" d="M10.947,4.227V0H5.895V4.227a4.211,4.211,0,1,0,5.052,0M7.579,1.684H9.263V3.452a4.262,4.262,0,0,0-1.684,0ZM8.421,10.1a2.526,2.526,0,1,1,2.526-2.526A2.534,2.534,0,0,1,8.421,10.1" fill="#b0b6ba"/>
    </g>
  </g>
</svg>
