<svg id="Logo-vertical-parlametria-cor" xmlns="http://www.w3.org/2000/svg" xmlns:xlink="http://www.w3.org/1999/xlink" width="63" height="39.643" viewBox="0 0 63 39.643">
  <defs>
    <clipPath id="clip-path">
      <rect id="Retângulo_1131" data-name="Retângulo 1131" width="63" height="39.643" transform="translate(0 0)" fill="none"/>
    </clipPath>
  </defs>
  <g id="Grupo_4583" data-name="Grupo 4583" transform="translate(0 0)" clip-path="url(#clip-path)">
    <path id="Caminho_3246" data-name="Caminho 3246" d="M41.958.911H1.562a.6.6,0,0,0-.554.6.623.623,0,0,0,.554.6H20.336A12.639,12.639,0,1,0,41.958.911M31.5,19.357A11.413,11.413,0,0,1,21.7,2.1H41.3a11.413,11.413,0,0,1-9.8,17.262" fill="#654595"/>
    <path id="Caminho_3247" data-name="Caminho 3247" d="M0,8.219a.907.907,0,1,1,1.814,0A29.669,29.669,0,0,0,3.679,18.6a29.3,29.3,0,0,0,5.141,8.77A.894.894,0,1,1,7.459,28.53a31.435,31.435,0,0,1-5.443-9.3A30.442,30.442,0,0,1,0,8.219" fill="#654595"/>
    <path id="Caminho_3248" data-name="Caminho 3248" d="M11.038,31.73a1.012,1.012,0,0,1,.2-.58.912.912,0,0,1,1.26-.126,30.139,30.139,0,0,0,8.719,5.04,29.5,29.5,0,0,0,10.256,1.815,29.235,29.235,0,0,0,10.307-1.84,29.8,29.8,0,0,0,8.744-5.065.883.883,0,0,1,1.26.1.864.864,0,0,1-.126,1.26A31.06,31.06,0,0,1,42.387,37.7,31.635,31.635,0,0,1,31.45,39.643,31.453,31.453,0,0,1,11.315,32.36a.786.786,0,0,1-.277-.63" fill="#654595"/>
    <path id="Caminho_3249" data-name="Caminho 3249" d="M54.205,27.673a1.012,1.012,0,0,1,.2-.58,29.558,29.558,0,0,0,6.8-18.874,29.368,29.368,0,0,0-.857-7.107A.9.9,0,0,1,62.093.684a31.671,31.671,0,0,1-1.008,18.371,31.04,31.04,0,0,1-5.292,9.2.912.912,0,0,1-1.26.126,1.026,1.026,0,0,1-.328-.706" fill="#9ec757"/>
    <path id="Caminho_3250" data-name="Caminho 3250" d="M6.728,8.219a.759.759,0,0,1,.756-.756.743.743,0,0,1,.756.756A23.146,23.146,0,0,0,9.6,16.081a23.33,23.33,0,0,0,3.78,6.729.754.754,0,0,1-1.185.932A24.166,24.166,0,0,1,8.19,16.585,24.259,24.259,0,0,1,6.728,8.219" fill="#654595"/>
    <path id="Caminho_3251" data-name="Caminho 3251" d="M15.876,27.068a.741.741,0,0,1,1.21-.58,23.572,23.572,0,0,0,6.652,3.68,23.311,23.311,0,0,0,15.624-.026,23.33,23.33,0,0,0,6.729-3.78.754.754,0,0,1,.932,1.185,24.416,24.416,0,0,1-7.157,4.007,24.8,24.8,0,0,1-16.632.05A24.644,24.644,0,0,1,16.153,27.7a.809.809,0,0,1-.277-.63" fill="#654595"/>
    <path id="Caminho_3252" data-name="Caminho 3252" d="M49.518,23.213a.707.707,0,0,1,.176-.479,23.059,23.059,0,0,0,3.73-6.7,23.2,23.2,0,0,0,.252-14.918A.741.741,0,1,1,55.087.659a24.517,24.517,0,0,1,1.159,7.535,24.589,24.589,0,0,1-1.436,8.341,25.116,25.116,0,0,1-3.982,7.132.758.758,0,0,1-1.058.126.871.871,0,0,1-.252-.58" fill="#9ec757"/>
    <path id="Caminho_3253" data-name="Caminho 3253" d="M12.877,8.219a.605.605,0,1,1,1.21,0,17.214,17.214,0,0,0,3.452,10.408.595.595,0,0,1-.958.7,18.415,18.415,0,0,1-3.7-11.113" fill="#654595"/>
    <path id="Caminho_3254" data-name="Caminho 3254" d="M20.311,22.784a.472.472,0,0,1,.126-.353.582.582,0,0,1,.832-.126,17.394,17.394,0,0,0,20.462,0,.6.6,0,1,1,.706.958,18.687,18.687,0,0,1-21.924,0,.647.647,0,0,1-.2-.479" fill="#654595"/>
    <path id="Caminho_3255" data-name="Caminho 3255" d="M45.385,18.929a.6.6,0,0,1,.126-.353,17.234,17.234,0,0,0,3.4-10.357,17.286,17.286,0,0,0-1.487-7.056A.593.593,0,0,1,48.51.684,18.5,18.5,0,0,1,50.1,8.244a18.33,18.33,0,0,1-3.654,11.063.579.579,0,0,1-.831.126.836.836,0,0,1-.227-.5" fill="#9ec757"/>
  </g>
</svg>
