<svg id="Layer_1" data-name="Layer 1" xmlns="http://www.w3.org/2000/svg" viewBox="0 0 300 300"><defs><style>.cls-1{fill:#fcbb00;}</style></defs><title>presidente</title><path class="cls-1" d="M179.51,132.41,105.94,206V218h25.28l70.72-70.71A27,27,0,0,0,179.51,132.41Zm-42.94,75.33-.36,5.29-5.28.35-4,3.5-4-3.5-5.29-.35-.35-5.29-3.5-4,3.5-4,.35-5.29,5.29-.35,4-3.49,4,3.49,5.28.35.36,5.29,3.49,4Z"/><path class="cls-1" d="M150,8,27,79V221l123,71,123-71V79Zm59.08,213.65H101.94V158.19a29.48,29.48,0,0,1,29.42-29.43h24.15a42.85,42.85,0,1,1,42.86-42.85,42.85,42.85,0,0,1-42.86,42.85h24.14a16.07,16.07,0,0,1,2,.08A29.4,29.4,0,0,1,205.94,145a29,29,0,0,1,3.14,13.21Z"/></svg>