<svg xmlns="http://www.w3.org/2000/svg" viewBox="0 0 40.3 46.53"><defs><style>.cls-1{fill:#f5bc00;}.cls-2{fill:#fff;}</style></defs><title>Asset 3</title><g id="Layer_2" data-name="Layer 2"><g id="Layer_2-2" data-name="Layer 2"><polygon class="cls-1" points="0 11.63 0 34.9 20.15 46.53 40.3 34.9 40.3 11.63 20.15 0 0 11.63"/><circle class="cls-2" cx="21.05" cy="12.77" r="7.02"/><path class="cls-2" d="M29.31,22.44a4.82,4.82,0,0,0-4-2.64H17.1a4.82,4.82,0,0,0-4.82,4.82V35H29.83V24.61A4.76,4.76,0,0,0,29.31,22.44Zm-12.23,12H12.93v-2L25,20.38a4.44,4.44,0,0,1,3.68,2.45Z"/><polygon class="cls-2" points="16.37 29.92 17.03 30.49 17.89 30.55 17.95 31.42 18.52 32.07 17.95 32.72 17.89 33.59 17.03 33.65 16.37 34.22 15.72 33.65 14.85 33.59 14.8 32.72 14.22 32.07 14.8 31.42 14.85 30.55 15.72 30.49 16.37 29.92"/></g></g></svg>