<svg id="Layer_1" data-name="Layer 1" xmlns="http://www.w3.org/2000/svg" viewBox="0 0 300 300"><defs><style>.cls-1{fill:#00c3ac;}</style></defs><title>relator</title><path class="cls-1" d="M273,79,150,8h0L27,79s0,0,0,0V221s0,0,0,0l123,71s0,0,0,0l123-71s0,0,0,0V79S273,79,273,79ZM171.37,140.11l-7.08,92H135.71l-7.08-92a39.08,39.08,0,0,1-15.56-19.75,217,217,0,0,0,36.93,3,217,217,0,0,0,36.93-3A39.08,39.08,0,0,1,171.37,140.11Zm17.49-27.46A203.85,203.85,0,0,1,150,116.22a203.85,203.85,0,0,1-38.86-3.57,35.8,35.8,0,0,1-.43-5.5,39.29,39.29,0,0,1,78.58,0A35.8,35.8,0,0,1,188.86,112.65Z"/></svg>