<svg xmlns="http://www.w3.org/2000/svg" viewBox="0 0 40.3 46.52"><defs><style>.cls-1{fill:#21c0ad;}.cls-2{fill:#fff;}</style></defs><title>Asset 4</title><g id="Layer_2" data-name="Layer 2"><g id="Layer_2-2" data-name="Layer 2"><path class="cls-1" d="M0,11.64V34.88s0,0,0,0L20.14,46.52h0L40.29,34.9s0,0,0,0V11.62L20.16,0h0L0,11.62Z"/><path class="cls-2" d="M20.15,18.9a36.15,36.15,0,0,0,6.05-.49,6.42,6.42,0,0,1-12.1,0A36.24,36.24,0,0,0,20.15,18.9Z"/><path class="cls-2" d="M26.59,16.24a6.56,6.56,0,0,1-.07.9,32.81,32.81,0,0,1-6.37.59,32.7,32.7,0,0,1-6.36-.59,5.29,5.29,0,0,1-.07-.9,6.44,6.44,0,0,1,12.87,0Z"/><polygon class="cls-2" points="23.66 21.51 16.64 21.51 17.81 36.72 22.49 36.72 23.66 21.51"/></g></g></svg>