<?xml version="1.0" standalone="no"?>
<!DOCTYPE svg PUBLIC "-//W3C//DTD SVG 20010904//EN"
 "http://www.w3.org/TR/2001/REC-SVG-20010904/DTD/svg10.dtd">
<svg version="1.0" xmlns="http://www.w3.org/2000/svg"
 width="980.000000pt" height="980.000000pt" viewBox="0 0 980.000000 980.000000"
 preserveAspectRatio="xMidYMid meet">

<g transform="translate(0.000000,980.000000) scale(0.100000,-0.100000)"
fill="#000000" stroke="none">
<path d="M4465 9789 c-259 -13 -636 -86 -970 -187 -720 -218 -1369 -589 -1931
-1102 -793 -725 -1361 -1787 -1514 -2835 -38 -258 -45 -375 -45 -730 1 -623
57 -1026 211 -1506 406 -1268 1303 -2319 2484 -2908 775 -386 1557 -552 2422
-513 380 17 537 36 817 98 1016 226 1928 757 2609 1519 580 649 974 1424 1156
2275 61 289 83 499 92 900 10 402 -15 707 -87 1065 -165 816 -513 1542 -1048
2185 -129 155 -458 484 -611 610 -665 550 -1361 884 -2219 1064 -172 37 -335
54 -616 66 -270 11 -513 11 -750 -1z m985 -308 c715 -90 1419 -351 2005 -744
276 -184 440 -321 689 -572 258 -261 413 -445 564 -667 399 -591 634 -1191
748 -1908 60 -378 54 -1150 -12 -1485 -132 -676 -363 -1247 -715 -1765 -358
-527 -866 -1019 -1402 -1355 -172 -109 -533 -292 -714 -363 -351 -138 -780
-253 -1066 -287 -338 -39 -983 -39 -1269 1 -542 75 -1088 250 -1544 496 -391
211 -709 448 -1048 778 -633 618 -1047 1337 -1261 2190 -159 635 -171 1422
-30 2075 137 638 423 1265 814 1785 397 528 931 990 1496 1297 519 281 1204
492 1730 532 154 12 903 6 1015 -8z"/>
<path d="M4695 7640 c-247 -35 -488 -158 -651 -332 -244 -261 -338 -605 -321
-1168 9 -301 54 -542 137 -736 72 -169 138 -266 293 -434 64 -69 116 -131 117
-138 0 -21 -99 -119 -188 -187 -195 -146 -455 -259 -899 -390 -100 -30 -206
-66 -235 -81 -67 -34 -242 -208 -286 -285 -18 -32 -42 -92 -54 -135 -20 -73
-22 -108 -25 -454 -7 -585 -9 -581 337 -741 374 -172 876 -317 1275 -368 308
-40 1050 -40 1395 0 555 63 1474 384 1585 552 54 83 87 658 50 870 -30 170
-109 340 -209 446 -63 66 -203 137 -421 211 -289 100 -454 173 -672 297 -223
129 -275 140 -337 78 -19 -19 -40 -53 -47 -74 -11 -36 -9 -44 14 -83 43 -74
138 -138 387 -263 189 -95 388 -180 560 -240 194 -68 268 -104 314 -155 109
-121 158 -374 135 -695 -17 -249 1 -218 -179 -301 -339 -156 -670 -258 -1050
-323 -736 -125 -1590 -70 -2227 145 -308 104 -580 225 -610 271 -15 23 -17 62
-18 322 0 316 7 383 50 477 53 119 160 185 430 269 437 136 706 258 910 414
91 70 244 221 273 270 l25 44 71 -9 c39 -5 163 -9 276 -9 181 1 215 3 295 24
98 25 246 90 322 142 181 123 337 329 433 574 94 241 114 384 114 820 1 356
-7 447 -55 588 -137 411 -406 669 -803 768 -63 16 -122 21 -266 24 -102 2
-212 0 -245 -5z m470 -314 c79 -19 145 -49 229 -103 171 -110 284 -279 347
-519 23 -85 24 -103 24 -419 -1 -379 -14 -500 -70 -666 -39 -115 -108 -251
-167 -326 -89 -116 -219 -215 -337 -257 -47 -17 -89 -20 -262 -24 -242 -5
-285 2 -408 64 -293 146 -466 484 -512 999 -19 211 10 528 66 720 55 190 201
371 370 457 93 48 172 75 260 89 75 12 390 2 460 -15z"/>
</g>
</svg>
