<?xml version="1.0" standalone="no"?>
<!DOCTYPE svg PUBLIC "-//W3C//DTD SVG 20010904//EN"
 "http://www.w3.org/TR/2001/REC-SVG-20010904/DTD/svg10.dtd">
<svg version="1.0" xmlns="http://www.w3.org/2000/svg"
 width="512.000000pt" height="512.000000pt" viewBox="0 0 512.000000 512.000000"
 preserveAspectRatio="xMidYMid meet">

<g transform="translate(0.000000,512.000000) scale(0.100000,-0.100000)"
fill="#000000" stroke="none">
<path fill="#ccc0e0" d="M1980 5104 c-221 -47 -408 -236 -455 -459 -12 -55 -15 -160 -15 -497
l0 -428 200 0 199 0 3 433 3 434 27 39 c15 21 44 50 65 64 l37 25 1271 0 1272
0 39 -27 c21 -15 50 -44 64 -65 l25 -37 0 -2026 0 -2026 -25 -37 c-14 -21 -43
-50 -64 -65 l-39 -27 -1272 0 -1272 0 -39 27 c-21 15 -50 44 -64 65 l-25 37
-3 433 -3 433 -199 0 -200 0 0 -427 c0 -338 3 -443 15 -498 47 -225 235 -413
460 -460 105 -22 2555 -22 2660 0 225 47 413 235 460 460 22 105 22 4065 0
4170 -47 225 -235 413 -460 460 -102 21 -2566 21 -2665 -1z"/>
<path fill="#ccc0e0" d="M2265 3360 l-140 -140 230 -230 230 -230 -1293 0 -1292 0 0 -200 0
-200 1292 0 1293 0 -230 -230 -230 -230 143 -142 142 -143 472 473 473 472
-470 470 c-258 258 -472 470 -475 470 -3 0 -68 -63 -145 -140z"/>
</g>
</svg>
