<?xml version="1.0" standalone="no"?>
<!DOCTYPE svg PUBLIC "-//W3C//DTD SVG 20010904//EN"
 "http://www.w3.org/TR/2001/REC-SVG-20010904/DTD/svg10.dtd">
<svg version="1.0" xmlns="http://www.w3.org/2000/svg"
 width="512.000000pt" height="512.000000pt" viewBox="0 0 512.000000 512.000000"
 preserveAspectRatio="xMidYMid meet">

<g transform="translate(0.000000,512.000000) scale(0.100000,-0.100000)"
fill="#000000" stroke="none">
<path fill="#ccc0e0" d="M1252 5105 c-212 -46 -388 -217 -442 -430 -19 -73 -20 -111 -20 -602
l0 -523 195 0 195 0 0 508 c0 469 2 510 19 547 23 51 79 101 128 114 51 15
2803 15 2854 1 57 -16 102 -51 127 -100 l22 -44 0 -2016 0 -2016 -22 -44 c-25
-49 -70 -84 -127 -100 -51 -14 -2803 -14 -2854 1 -49 13 -105 63 -128 114 -17
37 -19 78 -19 548 l0 507 -195 0 -195 0 0 -523 c0 -491 1 -529 20 -602 55
-215 231 -384 446 -430 104 -22 2895 -22 2999 0 216 45 393 215 452 435 17 61
18 188 18 2110 0 1922 -1 2049 -18 2110 -59 220 -236 390 -452 435 -101 21
-2906 21 -3003 0z"/>
<path fill="#ccc0e0" d="M1661 3833 c-19 -10 -44 -31 -55 -46 -20 -27 -21 -43 -24 -333 l-3
-304 -612 0 c-574 0 -615 -2 -652 -19 -48 -22 -79 -54 -100 -103 -23 -56 -23
-880 0 -936 21 -49 52 -81 100 -103 37 -17 78 -19 653 -19 l612 0 0 -282 c0
-254 2 -287 19 -324 25 -56 67 -84 125 -84 l47 0 734 636 c404 350 735 640
735 644 0 4 -331 294 -736 645 -803 695 -767 668 -843 628z"/>
</g>
</svg>
