<svg xmlns="http://www.w3.org/2000/svg" width="24.285" height="24" viewBox="0 0 24.285 24">
  <g id="Grupo_4607" data-name="Grupo 4607" transform="translate(0.313 0.281)">
    <rect id="Retângulo_1162" data-name="Retângulo 1162" width="24" height="24" transform="translate(-0.313 -0.281)" fill="rgba(255,255,255,0)"/>
    <g id="Grupo_4605" data-name="Grupo 4605" transform="translate(2.247 6.719)">
      <path id="Caminho_3244" data-name="Caminho 3244" d="M19.476,107.077A2.748,2.748,0,0,0,16.8,109.2H11.114a5.326,5.326,0,1,0,0,1.261H16.8a2.748,2.748,0,1,0,2.673-3.379" transform="translate(-0.5 -104.5)" fill="#d5dbe0"/>
      <path id="Caminho_3245" data-name="Caminho 3245" d="M19.476,107.077A2.748,2.748,0,0,0,16.8,109.2H11.114a5.326,5.326,0,1,0,0,1.261H16.8a2.748,2.748,0,1,0,2.673-3.379Z" transform="translate(-0.5 -104.5)"/>
    </g>
  </g>
</svg>
