<?xml version="1.0" standalone="no"?>
<!DOCTYPE svg PUBLIC "-//W3C//DTD SVG 20010904//EN"
 "http://www.w3.org/TR/2001/REC-SVG-20010904/DTD/svg10.dtd">
<svg version="1.0" xmlns="http://www.w3.org/2000/svg"
 width="512.000000pt" height="512.000000pt" viewBox="0 0 512.000000 512.000000"
 preserveAspectRatio="xMidYMid meet">

<g transform="translate(0.000000,512.000000) scale(0.100000,-0.100000)"
fill="#000000" stroke="none">
<path fill="#ccc0e0" d="M1060 5104 c-225 -48 -408 -232 -455 -459 -22 -105 -22 -4065 0
-4170 48 -229 231 -412 460 -460 105 -22 2885 -22 2990 0 175 37 329 154 406
309 68 139 70 157 67 754 l-3 529 -192 -166 -193 -166 0 -337 c0 -373 -5 -421
-52 -474 -66 -75 72 -69 -1528 -69 -1331 0 -1437 1 -1466 17 -51 28 -91 81
-103 138 -16 72 -16 3948 0 4020 12 57 52 110 103 138 29 16 135 17 1466 17
1600 0 1462 6 1528 -69 47 -53 52 -101 52 -474 l0 -337 195 -168 195 -168 0
533 c0 600 -2 617 -70 754 -76 155 -230 272 -405 309 -102 21 -2896 21 -2995
-1z"/>
<path fill="#ccc0e0" d="M3243 3839 c-23 -7 -40 -23 -60 -57 l-28 -47 -3 -292 -4 -293 -607 0
-607 0 -52 -26 c-39 -19 -59 -38 -80 -72 l-27 -47 0 -445 0 -445 27 -47 c21
-34 41 -53 80 -72 l52 -26 607 0 607 0 4 -287 c3 -286 3 -288 28 -331 30 -52
63 -72 123 -72 43 0 47 3 778 636 404 350 734 640 734 644 0 10 -1444 1261
-1474 1277 -29 15 -52 15 -98 2z"/>
</g>
</svg>
