<svg xmlns="http://www.w3.org/2000/svg" width="23.765" height="23.765" viewBox="0 0 23.765 23.765">
  <g id="icone-prop-apensada" transform="translate(8890.657 4143.657)">
    <rect id="Retângulo_991" data-name="Retângulo 991" width="23.765" height="23.765" transform="translate(-8890.657 -4143.657)" fill="rgba(255,255,255,0)"/>
    <g id="Grupo_3931" data-name="Grupo 3931" transform="translate(-8888.628 -4141.627)">
      <path id="Subtração_31" data-name="Subtração 31" d="M0,17.133H0V0H17.476L0,17.133Z" transform="translate(0 0)" fill="rgba(0,0,0,0.1)"/>
      <g id="attach_file_black_24dp" transform="translate(20 20) rotate(180)">
        <path id="Caminho_1977" data-name="Caminho 1977" d="M0,0H20V20H0Z" transform="translate(0 0)" fill="none"/>
        <path id="Subtração_30" data-name="Subtração 30" d="M4.5,18.362a4.435,4.435,0,0,1-3.186-1.344A4.606,4.606,0,0,1,0,13.772V3.339A3.351,3.351,0,0,1,.959.978a3.234,3.234,0,0,1,4.635,0,3.35,3.35,0,0,1,.959,2.361V12.1A2.07,2.07,0,0,1,4.5,14.189a2.012,2.012,0,0,1-1.1-.327,2.086,2.086,0,0,1-.742-.848l1.022-.944V12.1a.82.82,0,1,0,1.639,0V3.339A2.07,2.07,0,0,0,3.277,1.253,2.07,2.07,0,0,0,1.229,3.339V13.772A3.311,3.311,0,0,0,4.5,17.11a3.312,3.312,0,0,0,3.278-3.339V8.327L9.011,7.2v6.576a4.608,4.608,0,0,1-1.318,3.247A4.439,4.439,0,0,1,4.5,18.362Z" transform="translate(5.917 0.819)" fill="#34174a"/>
      </g>
    </g>
  </g>
</svg>
