<svg id="campaign_black_24dp_filled" data-name="campaign_black_24dp filled" xmlns="http://www.w3.org/2000/svg" width="24" height="24" viewBox="0 0 24 24">
  <path id="Caminho_1993" data-name="Caminho 1993" d="M0,0H24V24H0Z" fill="none"/>
  <path id="Caminho_1994" data-name="Caminho 1994" d="M18,11v2h4V11Zm-2,6.61c.96.71,2.21,1.65,3.2,2.39.4-.53.8-1.07,1.2-1.6-.99-.74-2.24-1.68-3.2-2.4C16.8,16.54,16.4,17.08,16,17.61ZM20.4,5.6c-.4-.53-.8-1.07-1.2-1.6-.99.74-2.24,1.68-3.2,2.4.4.53.8,1.07,1.2,1.6C18.16,7.28,19.41,6.35,20.4,5.6ZM4,9a2.006,2.006,0,0,0-2,2v2a2.006,2.006,0,0,0,2,2H5v4H7V15H8l5,3V6L8,9Zm11.5,3A4.48,4.48,0,0,0,14,8.65v6.69A4.442,4.442,0,0,0,15.5,12Z"/>
</svg>
