<svg id="icone-senado-card-lista" xmlns="http://www.w3.org/2000/svg" width="48" height="48" viewBox="0 0 48 48">
  <rect id="Retângulo_997" data-name="Retângulo 997" width="48" height="48" fill="rgba(255,255,255,0)"/>
  <g id="Grupo_4200" data-name="Grupo 4200" transform="translate(7)">
    <rect id="Retângulo_996" data-name="Retângulo 996" width="10" height="48" transform="translate(31)" fill="#0a367c"/>
    <g id="Grupo_4199" data-name="Grupo 4199" transform="translate(0 14)">
      <g id="Retângulo_962" data-name="Retângulo 962" transform="translate(1)" fill="#fff" stroke="#707070" stroke-width="1" opacity="0">
        <rect width="23" height="23" stroke="none"/>
        <rect x="0.5" y="0.5" width="22" height="22" fill="none"/>
      </g>
      <g id="Grupo_3875" data-name="Grupo 3875" transform="translate(2.687 8.588)">
        <g id="Subtração_17" data-name="Subtração 17" fill="#0a367c">
          <path d="M 18.29850959777832 8.905744552612305 L 0.5138654112815857 8.905744552612305 C 0.7741847038269043 4.226869583129883 4.663357257843018 0.5000041723251343 9.406636238098145 0.5000041723251343 C 14.14926815032959 0.5000041723251343 18.03822708129883 4.226948738098145 18.29850959777832 8.905744552612305 Z" stroke="none"/>
          <path d="M 17.75323486328125 8.405744552612305 C 17.25726318359375 4.240499973297119 13.70309066772461 1.000004172325134 9.406636238098145 1.000004172325134 C 5.109574317932129 1.000004172325134 1.55517315864563 4.240455627441406 1.059143543243408 8.405744552612305 L 17.75323486328125 8.405744552612305 M 18.81237602233887 9.405744552612305 L -3.896179350704188e-06 9.405744552612305 C -3.896179350704188e-06 4.218954086303711 4.220246315002441 4.183654709777329e-06 9.406636238098145 4.183654709777329e-06 C 14.59245586395264 4.183654709777329e-06 18.81186676025391 4.218954086303711 18.81237602233887 9.404754638671875 L 18.81237602233887 9.405744552612305 Z" stroke="none" fill="#0a367c"/>
        </g>
      </g>
    </g>
  </g>
</svg>
