<svg xmlns="http://www.w3.org/2000/svg" width="36.34" height="25.003" viewBox="0 0 36.34 25.003">
  <path id="União_47" data-name="União 47" d="M-4169.206-2630a.749.749,0,0,1-.748-.736,6.155,6.155,0,0,1,.535-2.612h-5.833a.748.748,0,0,1-.529-.219.747.747,0,0,1-.218-.529,3.975,3.975,0,0,1,2.14-3.522,17.3,17.3,0,0,1,2.185-.622,1.34,1.34,0,0,0,.406-.134c.005-.045.012-.089.016-.134a5.563,5.563,0,0,1-2.213-.713.742.742,0,0,1-.362-.5.755.755,0,0,1,.141-.6c.661-.852.627-2.09.59-3.4a13.937,13.937,0,0,1,.047-2.132c0-.023.007-.158.008-.181a3.994,3.994,0,0,1,1.438-2.714,3.986,3.986,0,0,1,2.935-.9,1.048,1.048,0,0,1,.326-.022,4,4,0,0,1,3.986,3.89,13.427,13.427,0,0,1,.049,2,5.859,5.859,0,0,0,.618,3.5.738.738,0,0,1,.1.581.738.738,0,0,1-.35.476,5.97,5.97,0,0,1-2.24.765,5.564,5.564,0,0,0,.965.3,1.507,1.507,0,0,1,1.217.8,1.035,1.035,0,0,1,.083.329,5.006,5.006,0,0,0,.862-.173,3.621,3.621,0,0,0,.946-.378,7.489,7.489,0,0,0,.142-1.436,4.242,4.242,0,0,1-.7-1.072,12.46,12.46,0,0,1-.378-1.814,1.78,1.78,0,0,1-.752-1.269,6.72,6.72,0,0,1-.422-2.1,1.868,1.868,0,0,1,.279-.856,6.614,6.614,0,0,1-.266-2.632,2.506,2.506,0,0,1,.012-.289,5.369,5.369,0,0,1,5.772-4.936,1.144,1.144,0,0,1,.312-.015,5.362,5.362,0,0,1,5.357,5.313,6.361,6.361,0,0,1-.275,2.557,1.545,1.545,0,0,1,.269.726,3.22,3.22,0,0,1-.208,1.455,6.882,6.882,0,0,0-.208.771,1.765,1.765,0,0,1-.75,1.271,12.979,12.979,0,0,1-.337,1.7,4.436,4.436,0,0,1-.74,1.188,7.581,7.581,0,0,0,.145,1.437,3.4,3.4,0,0,0,.869.361,6.511,6.511,0,0,0,1.181.224l.05.007a1.025,1.025,0,0,1,.085-.381,1.525,1.525,0,0,1,1.238-.8,5.55,5.55,0,0,0,.932-.292,6.024,6.024,0,0,1-2.22-.763.748.748,0,0,1-.349-.477.734.734,0,0,1,.1-.581,5.856,5.856,0,0,0,.618-3.5,13.922,13.922,0,0,1,.056-2.075,4.027,4.027,0,0,1,4.1-3.818,1.835,1.835,0,0,1,.314.022,3.968,3.968,0,0,1,4.255,3.609l.009.185a14.063,14.063,0,0,1,.046,2.132c-.037,1.31-.071,2.548.589,3.4a.745.745,0,0,1,.142.6.742.742,0,0,1-.361.5,5.575,5.575,0,0,1-2.215.712c0,.045.008.089.015.133a1.182,1.182,0,0,0,.372.127,19.047,19.047,0,0,1,2.113.582,4.006,4.006,0,0,1,2.249,3.57.748.748,0,0,1-.216.529.747.747,0,0,1-.53.22h-6.129a6.155,6.155,0,0,1,.53,2.616.748.748,0,0,1-.749.733Zm6.5-18.921c-.007.089-.009.172-.01.253a5.228,5.228,0,0,0,.379,2.582.741.741,0,0,1-.156.817.753.753,0,0,1-.213.15,5.47,5.47,0,0,0,.342,1.541,2.681,2.681,0,0,0,.089.324.729.729,0,0,1,.3.1.743.743,0,0,1,.364.58,11.4,11.4,0,0,0,.347,1.983,3.055,3.055,0,0,0,.562.736.752.752,0,0,1,.229.51,9.051,9.051,0,0,1-.238,2.4.744.744,0,0,1-.3.438,4.711,4.711,0,0,1-1.6.732,7.028,7.028,0,0,1-1.344.264,8.5,8.5,0,0,0-1.486.292,4.692,4.692,0,0,0-2.981,3.727h19.87a4.688,4.688,0,0,0-2.989-3.735,8.477,8.477,0,0,0-1.472-.281,6.88,6.88,0,0,1-1.437-.285,4.638,4.638,0,0,1-1.51-.713.749.749,0,0,1-.294-.436,9.08,9.08,0,0,1-.244-2.4.752.752,0,0,1,.228-.514,2.733,2.733,0,0,0,.6-.852,12.155,12.155,0,0,0,.307-1.869.743.743,0,0,1,.357-.575.762.762,0,0,1,.306-.1,1.273,1.273,0,0,0,.051-.2,7.938,7.938,0,0,1,.251-.939,2.429,2.429,0,0,0,.157-.708.739.739,0,0,1-.247-.166.749.749,0,0,1-.154-.822,5.047,5.047,0,0,0,.391-2.512,3.888,3.888,0,0,0-3.865-3.9.127.127,0,0,1-.035,0,2.3,2.3,0,0,0-.256.008c-.1-.007-.206-.011-.307-.011A3.938,3.938,0,0,0-4162.7-2648.921Zm-7.067,9.615a4.652,4.652,0,0,1-.1,1.543.748.748,0,0,1-.247.4,2.665,2.665,0,0,1-1.282.59,17.365,17.365,0,0,0-1.879.525,2.4,2.4,0,0,0-1.117,1.407h4.9a6.223,6.223,0,0,1,2.57-2.225c.033-.015.066-.027.1-.04-.121-.052-.238-.106-.355-.163a.758.758,0,0,1-.236-.182c-.125-.146-.358-.416-.216-1.778a.747.747,0,0,1,.732-.67,4.483,4.483,0,0,0,1.557-.3,8.426,8.426,0,0,1-.462-3.616,12.785,12.785,0,0,0-.045-1.855,2.475,2.475,0,0,0-2.579-2.51,2.02,2.02,0,0,0-.209.014h-.178a2.451,2.451,0,0,0-1.839.565,2.493,2.493,0,0,0-.9,1.7c0,.006-.013.221-.015.229a12.993,12.993,0,0,0-.036,1.9,8.068,8.068,0,0,1-.425,3.566,3.852,3.852,0,0,0,1.491.225h.021A.744.744,0,0,1-4169.77-2639.306Zm18.966-6.437a13.21,13.21,0,0,0-.05,1.927,8.421,8.421,0,0,1-.462,3.616,4.478,4.478,0,0,0,1.557.3.748.748,0,0,1,.734.679c.122,1.359-.1,1.612-.229,1.763a.762.762,0,0,1-.235.181c-.119.059-.241.114-.362.166l.076.031a6.255,6.255,0,0,1,2.6,2.238h4.907a2.489,2.489,0,0,0-1.225-1.456c-.523-.167-1.167-.347-1.808-.485a2.648,2.648,0,0,1-1.244-.579.736.736,0,0,1-.251-.406,4.639,4.639,0,0,1-.092-1.542.757.757,0,0,1,.769-.667,3.878,3.878,0,0,0,1.494-.224,8.054,8.054,0,0,1-.427-3.568,12.987,12.987,0,0,0-.037-1.9l-.017-.3a2.486,2.486,0,0,0-.9-1.631,2.456,2.456,0,0,0-1.838-.566.95.95,0,0,1-.181,0c-.083-.008-.166-.014-.253-.016A2.517,2.517,0,0,0-4150.8-2645.743Zm-3.514,2.546,0,0Zm-8.989-1.905h0Z" transform="translate(4176.5 2654.502)" stroke="rgba(0,0,0,0)" stroke-width="1"/>
</svg>
