<svg id="Grupo_4553" data-name="Grupo 4553" xmlns="http://www.w3.org/2000/svg" width="24" height="24" viewBox="0 0 24 24">
  <rect id="Retângulo_1022" data-name="Retângulo 1022" width="24" height="24" fill="rgba(255,255,255,0)"/>
  <g id="icone-pressão" transform="translate(5 4)">
    <g id="Grupo_478" data-name="Grupo 478" transform="translate(0)">
      <path id="Subtração_1" data-name="Subtração 1" d="M5.158,10.382a5.191,5.191,0,1,1,5.148-5.39l-3.448.372a1.992,1.992,0,0,0,.026-.319A1.892,1.892,0,1,0,4.992,6.976a1.887,1.887,0,0,0,.275-.02v3.421h-.01l-.039,0Z" transform="translate(1.853 1.999)" fill="#81858d" stroke="rgba(0,0,0,0)" stroke-width="1"/>
      <path id="União_43" data-name="União 43" d="M5.53,16.715v-2.4A7.237,7.237,0,0,1,0,7.25,7.2,7.2,0,0,1,7.118,0a7.194,7.194,0,0,1,7.118,7.25,7.234,7.234,0,0,1-5.569,7.077v2.389ZM.688,7.25A6.5,6.5,0,0,0,7.118,13.8,6.5,6.5,0,0,0,13.544,7.25,6.5,6.5,0,0,0,7.118.7,6.5,6.5,0,0,0,.688,7.25Z" fill="#81858d"/>
    </g>
  </g>
</svg>
