<svg xmlns="http://www.w3.org/2000/svg" width="23.912" height="24.061" viewBox="0 0 23.912 24.061">
  <g id="Grupo_4867" data-name="Grupo 4867" transform="translate(-861.547 -329.485)">
    <path id="Caminho_3372" data-name="Caminho 3372" d="M19.347,17.076,19.44,18.4v3.228A3.43,3.43,0,0,1,16,25.065H4.46a3.425,3.425,0,0,1-3.413-3.438V4.419A3.42,3.42,0,0,1,4.46,1H16A3.425,3.425,0,0,1,19.44,4.419l-.022,2.346L19.394,9.6l-1.718,3.67V4.419A1.66,1.66,0,0,0,16,2.77H4.46A1.655,1.655,0,0,0,2.813,4.419V21.627A1.659,1.659,0,0,0,4.46,23.3H16a1.665,1.665,0,0,0,1.673-1.671V18.794l.022-.022.767-.4a.363.363,0,0,1,.093-.093l.093-.093a6.614,6.614,0,0,0,.628-.789l-.163-.093Z" transform="translate(860.5 328.481)"/>
    <path id="Caminho_3373" data-name="Caminho 3373" d="M4.407,1.369A3.043,3.043,0,0,0,1.389,4.225V7.174a.6.6,0,0,0,0,.232l.6-.024V7.128a1.017,1.017,0,0,1,.325-.7q.488-.384,1.6,0a2.864,2.864,0,0,0,2.624-.4A2.9,2.9,0,0,0,7.776,3.715c0-1.371,1.508-1.72,1.579-1.742l.21-.046,2.485-.557ZM7.334,2.855a1.969,1.969,0,0,0-.186.86A2.287,2.287,0,0,1,4.106,5.85,3.6,3.6,0,0,0,3.2,5.642H2.946a1.592,1.592,0,0,0-.953.279V4.248A2.434,2.434,0,0,1,4.407,1.973h3.6a2,2,0,0,0-.65.858Z" transform="translate(860.739 328.743)"/>
    <path id="Caminho_3374" data-name="Caminho 3374" d="M7.108,1.993A2.215,2.215,0,0,0,6.883,3,2.662,2.662,0,0,1,5.724,5.145,2.882,2.882,0,0,1,3.183,5.5a4.564,4.564,0,0,0-1.1-.246Z" transform="translate(861.245 329.192)"/>
    <path id="Caminho_3375" data-name="Caminho 3375" d="M12.972,7.883H3.767A.262.262,0,0,1,3.5,7.62V7.436a.263.263,0,0,1,.263-.263h9.205a.264.264,0,0,1,.263.263V7.62a.263.263,0,0,1-.263.263" transform="translate(862.269 332.92)"/>
    <path id="Caminho_3376" data-name="Caminho 3376" d="M12.972,6.822H3.767A.262.262,0,0,1,3.5,6.559V6.375a.263.263,0,0,1,.263-.263h9.205a.264.264,0,0,1,.263.263v.184a.263.263,0,0,1-.263.263" transform="translate(862.269 332.157)"/>
    <path id="Caminho_3377" data-name="Caminho 3377" d="M12.972,5.407H3.767A.262.262,0,0,1,3.5,5.144V4.96A.263.263,0,0,1,3.767,4.7h9.205a.264.264,0,0,1,.263.263v.184a.263.263,0,0,1-.263.263" transform="translate(862.269 331.138)"/>
    <path id="Caminho_3378" data-name="Caminho 3378" d="M12.972,9.062H3.767A.262.262,0,0,1,3.5,8.8V8.615a.263.263,0,0,1,.263-.263h9.205a.264.264,0,0,1,.263.263V8.8a.263.263,0,0,1-.263.263" transform="translate(862.269 333.768)"/>
    <path id="Caminho_3379" data-name="Caminho 3379" d="M8.411,10.241H3.766A.262.262,0,0,1,3.5,9.978V9.794a.263.263,0,0,1,.261-.263H8.411a.264.264,0,0,1,.263.263v.184a.263.263,0,0,1-.263.263" transform="translate(862.269 334.617)"/>
    <path id="Caminho_3380" data-name="Caminho 3380" d="M12.183,13.424H7.538a.262.262,0,0,1-.261-.263v-.184a.263.263,0,0,1,.261-.263h4.645a.264.264,0,0,1,.263.263v.184a.263.263,0,0,1-.263.263" transform="translate(864.984 336.908)"/>
    <path id="Caminho_3381" data-name="Caminho 3381" d="M18.439,5.674c0-.021.022-.021.022-.045l.557-1.161a1.057,1.057,0,0,0-.464-1.419l-.069-.045a.659.659,0,0,0-.418-.026c-.046-.069-.093-.186-.186-.23l-.371-.21a1.057,1.057,0,0,0-.837,0,1.134,1.134,0,0,0-.58.559l-.557,1.23a1.348,1.348,0,0,0-.813.024,1.438,1.438,0,0,0-.86.791l-.279.58-.557,1.183-.6,1.278-.581,1.23L9.707,13.942A5.374,5.374,0,0,0,9.15,16.31l.418,2.021a2.384,2.384,0,0,0-.071.464l.046.581a.279.279,0,0,0,.139.256l.024.046V19.7a.531.531,0,0,0,.139.21L9.939,20l.115.022h.071a.5.5,0,0,0,.163.024.61.61,0,0,0,.394-.117l.581-.371v-.022c.115-.117.186-.232.279-.325l.3-.139.581-.3.139-.071.464-.255.093-.046.071-.024h.022l.21-.162v-.024a1.454,1.454,0,0,0,.186-.186,5.541,5.541,0,0,0,1.207-1.671l4.156-8.8H19a1.6,1.6,0,0,0,.022-1.137,1.468,1.468,0,0,0-.58-.721M17.9,7.045,14,15.288l-.533-.255a.676.676,0,0,0-.65.115.775.775,0,0,0-.139.21.537.537,0,0,0-.071.232.563.563,0,0,0,.232.44l.046.046.4.186.162.093a6.755,6.755,0,0,1-.626.791c-.024.022-.071.069-.093.093-.046.022-.071.069-.093.093l-.767.394-.024.024-.7.347-.208-.093h-.024l-.208-.115-.371-1.6a4.137,4.137,0,0,1,.23-1.3l1.116.533a.577.577,0,0,0,.44.024.568.568,0,0,0,.349-.3.543.543,0,0,0,.046-.255.569.569,0,0,0-.325-.535L11.054,13.9l.789-1.671,1.72-3.668,1.371-2.9a.452.452,0,0,1,.162-.187.325.325,0,0,1,.256,0l1.183.581h.024l1.185.58a.28.28,0,0,1,.162.162.464.464,0,0,1,0,.256m-.511-1.928-.349-.162-.418-.186.488-1.092.21.117a.509.509,0,0,0,.44.046c.046.069.071.162.139.21Z" transform="translate(866.332 329.523)"/>
  </g>
</svg>
