<svg id="Aumento-de-temperatura" xmlns="http://www.w3.org/2000/svg" width="36" height="36" viewBox="0 0 36 36">
  <g id="icon-aumento-temperatura" transform="translate(-807 -468)">
    <rect id="Retângulo_1018" data-name="Retângulo 1018" width="36" height="36" transform="translate(807 468)" fill="rgba(255,255,255,0)"/>
    <g id="icone-aumento_de_temperatura-filled" data-name="icone-aumento de temperatura-filled" transform="translate(1 0.958)">
      <rect id="Retângulo_1018-2" data-name="Retângulo 1018" width="32" height="32" transform="translate(808 468.894)" fill="rgba(255,255,255,0)"/>
      <g id="Grupo_4150" data-name="Grupo 4150" transform="translate(809.333 470.377)">
        <g id="Polígono_56" data-name="Polígono 56" transform="translate(-0.333 -0.335)" fill="none">
          <path d="M13.211,3.578a2,2,0,0,1,3.578,0L28.553,27.106A2,2,0,0,1,26.764,30H3.236a2,2,0,0,1-1.789-2.894Z" stroke="none"/>
          <path d="M 14.99999332427979 4.472131729125977 C 14.99999237060547 4.472133636474609 14.99999141693115 4.472135543823242 14.99999141693115 4.472137451171875 L 3.236066818237305 27.99999809265137 C 3.236066818237305 27.99999809265137 3.236068725585938 27.99999809265137 3.23607063293457 27.99999809265137 L 26.76393127441406 27.99999809265137 C 26.7639331817627 27.99999809265137 26.76393508911133 27.99999809265137 26.76394081115723 28.00000762939453 L 15.00000095367432 4.472146987915039 C 14.99999809265137 4.472141265869141 14.99999618530273 4.472137451171875 14.99999332427979 4.472131729125977 M 14.99999618530273 2.472131729125977 C 15.71016120910645 2.472131729125977 16.42032623291016 2.840658187866211 16.78885078430176 3.577707290649414 L 28.55279159545898 27.10557746887207 C 29.21769142150879 28.43537712097168 28.25070190429688 29.99999809265137 26.76393127441406 29.99999809265137 L 3.23607063293457 29.99999809265137 C 1.749300003051758 29.99999809265137 0.7823104858398438 28.43537712097168 1.447210311889648 27.10557746887207 L 13.21114158630371 3.577707290649414 C 13.57966613769531 2.840658187866211 14.28983116149902 2.472131729125977 14.99999618530273 2.472131729125977 Z" stroke="none" fill="#b0b6ba"/>
        </g>
        <g id="Grupo_3911" data-name="Grupo 3911" transform="translate(11.867 10.829)">
          <g id="Grupo_471" data-name="Grupo 471" transform="translate(0 0)">
            <path id="Caminho_640" data-name="Caminho 640" d="M1080.713,310.911V303.07a1.546,1.546,0,0,0-3.091,0v7.841a2.67,2.67,0,1,0,3.091,0Z" transform="translate(-1076.498 -301.544)" fill="#b0b6ba"/>
            <path id="Caminho_641" data-name="Caminho 641" d="M1076.5,313.254a2.566,2.566,0,0,1,1.157-2.137v-7.9a1.526,1.526,0,0,1,3.051,0v7.925a2.565,2.565,0,0,1,1.125,2.113,2.667,2.667,0,0,1-5.332,0Z" transform="translate(-1076.501 -301.63)" fill="#b0b6ba"/>
          </g>
        </g>
      </g>
    </g>
  </g>
</svg>
