<?xml version="1.0" encoding="UTF-8" standalone="no"?>
<svg
   xmlns:dc="http://purl.org/dc/elements/1.1/"
   xmlns:cc="http://creativecommons.org/ns#"
   xmlns:rdf="http://www.w3.org/1999/02/22-rdf-syntax-ns#"
   xmlns:svg="http://www.w3.org/2000/svg"
   xmlns="http://www.w3.org/2000/svg"
   xmlns:sodipodi="http://sodipodi.sourceforge.net/DTD/sodipodi-0.dtd"
   xmlns:inkscape="http://www.inkscape.org/namespaces/inkscape"
   width="40"
   height="40"
   viewBox="0 0 40 40"
   version="1.1"
   id="svg13"
   sodipodi:docname="view-list-icon.svg"
   inkscape:version="1.0.1 (3bc2e813f5, 2020-09-07)">
  <metadata
     id="metadata19">
    <rdf:RDF>
      <cc:Work
         rdf:about="">
        <dc:format>image/svg+xml</dc:format>
        <dc:type
           rdf:resource="http://purl.org/dc/dcmitype/StillImage" />
      </cc:Work>
    </rdf:RDF>
  </metadata>
  <defs
     id="defs17" />
  <sodipodi:namedview
     pagecolor="#ffffff"
     bordercolor="#666666"
     borderopacity="1"
     objecttolerance="10"
     gridtolerance="10"
     guidetolerance="10"
     inkscape:pageopacity="0"
     inkscape:pageshadow="2"
     inkscape:window-width="1920"
     inkscape:window-height="1016"
     id="namedview15"
     showgrid="false"
     inkscape:zoom="22"
     inkscape:cx="20"
     inkscape:cy="9.9350718"
     inkscape:window-x="0"
     inkscape:window-y="27"
     inkscape:window-maximized="1"
     inkscape:current-layer="svg13" />
  <g
     id="format_list_bulleted_black_36dp"
     transform="translate(4,4)">
    <path
       id="Caminho_777"
       data-name="Caminho 777"
       d="m 4.442,12.637 a 2.036,2.036 0 0 0 0,4.068 2.036,2.036 0 0 0 0,-4.068 z m 0,-8.137 A 1.987,1.987 0 0 0 2.5,6.534 1.987,1.987 0 0 0 4.442,8.568 1.987,1.987 0 0 0 6.384,6.534 1.987,1.987 0 0 0 4.442,4.5 Z m 0,16.273 a 2.036,2.036 0 0 0 0,4.068 2.036,2.036 0 0 0 0,-4.068 z m 3.884,3.39 H 26.452 V 21.451 H 8.326 Z m 0,-8.137 H 26.452 V 13.315 H 8.326 Z m 0,-10.849 V 7.89 H 26.452 V 5.178 Z"
       transform="translate(1.5,1.329)" />
  </g>
</svg>
