<svg xmlns="http://www.w3.org/2000/svg" xmlns:xlink="http://www.w3.org/1999/xlink" width="136.865" height="65.061" viewBox="0 0 136.865 65.061">
  <defs>
    <clipPath id="clip-path">
      <rect id="Retângulo_1496" data-name="Retângulo 1496" width="136.865" height="65.061" transform="translate(0 0)" fill="none"/>
    </clipPath>
  </defs>
  <g id="Grupo_5630" data-name="Grupo 5630" transform="translate(0 0)">
    <g id="Grupo_5629" data-name="Grupo 5629" clip-path="url(#clip-path)">
      <path id="Caminho_4322" data-name="Caminho 4322" d="M135.943,36.592a5.787,5.787,0,0,0-1.162,1.513c-.789,1.584-1.645,2.685-2.051,3.435-.02.04-.042.067-.063.107a22.025,22.025,0,0,1-3.182,3.1c-.217.188-4.542.838-5.452,1.016-.934.18-1.655,1.367-2.163,2.442a16,16,0,0,1-2.363,2.779c-.617.773-1.551.174-2.171.244a39.442,39.442,0,0,0-5.278,1.222c-1.818.594-.306,2.861-.268,3.875s-5.172,6.4-9.145,7.386-1.157-1.9-1.983-2.993-3.014,1.13-3.558,1.2S93.75,60.7,92.925,60.4a7.864,7.864,0,0,0-2.892.087c-.385.043-3.9,1.62-4.809,1.257a29.371,29.371,0,0,0-3.736-1.15,4.384,4.384,0,0,0-3.7,2.062c-1.36,1.875-2.088,1.655-3.49,1.813s-5.7.239-6.152-.966a94.218,94.218,0,0,1-1.877-11.1A28.058,28.058,0,0,1,66.5,45.4c.14-1.662-.891-2.337-1.174-4.19s.9-2.451.782-3.543-1-1.924-1.7-1.844-2.648,2.258-3.993,3.59-4.178,4.076-5.226,5.928-4.177,3.3-6.859,3.913-9.054,1.169-10.945.44-2.72-6.755-3.935-8.5-4.482-.753-7.1-.935-7.393.518-8.353-.316,1.822-3.346,2.7-5.242-.154-2.823-1.958-4.894-5.119-4.286-5.74-5.008-3.1-1.612-3.747-2.481-1.922-3.239-2.787-4.561a6.127,6.127,0,0,1-.908-3.265c-.114-1.018-.533-2.617-1.616-3.2S.688,8.349.54,7.034s.076-2.119,1.4-3.613.485-1.939.464-2.8c0,0,16.724,3.47,19.2,4.448S42.685,8.185,47.408,8.282s15.116.347,17.662,2.1,11.681,4.654,16.461,8.049,29.285,10.363,34.825,12.252c5.565,1.887,13.782,3.789,13.782,3.789l3.408,1.251Z" fill="#e2e6ea"/>
      <path id="Caminho_4323" data-name="Caminho 4323" d="M135.943,36.592a5.787,5.787,0,0,0-1.162,1.513c-.789,1.584-1.645,2.685-2.051,3.435-.02.04-.042.067-.063.107a22.025,22.025,0,0,1-3.182,3.1c-.217.188-4.542.838-5.452,1.016-.934.18-1.655,1.367-2.163,2.442a16,16,0,0,1-2.363,2.779c-.617.773-1.551.174-2.171.244a39.442,39.442,0,0,0-5.278,1.222c-1.818.594-.306,2.861-.268,3.875s-5.172,6.4-9.145,7.386-1.157-1.9-1.983-2.993-3.014,1.13-3.558,1.2S93.75,60.7,92.925,60.4a7.864,7.864,0,0,0-2.892.087c-.385.043-3.9,1.62-4.809,1.257a29.371,29.371,0,0,0-3.736-1.15,4.384,4.384,0,0,0-3.7,2.062c-1.36,1.875-2.088,1.655-3.49,1.813s-5.7.239-6.152-.966a94.218,94.218,0,0,1-1.877-11.1A28.058,28.058,0,0,1,66.5,45.4c.14-1.662-.891-2.337-1.174-4.19s.9-2.451.782-3.543-1-1.924-1.7-1.844-2.648,2.258-3.993,3.59-4.178,4.076-5.226,5.928-4.177,3.3-6.859,3.913-9.054,1.169-10.945.44-2.72-6.755-3.935-8.5-4.482-.753-7.1-.935-7.393.518-8.353-.316,1.822-3.346,2.7-5.242-.154-2.823-1.958-4.894-5.119-4.286-5.74-5.008-3.1-1.612-3.747-2.481-1.922-3.239-2.787-4.561a6.127,6.127,0,0,1-.908-3.265c-.114-1.018-.533-2.617-1.616-3.2S.688,8.349.54,7.034s.076-2.119,1.4-3.613.485-1.939.464-2.8c0,0,16.724,3.47,19.2,4.448S42.685,8.185,47.408,8.282s15.116.347,17.662,2.1,11.681,4.654,16.461,8.049,29.285,10.363,34.825,12.252c5.565,1.887,13.782,3.789,13.782,3.789l3.408,1.251Z" fill="none" stroke="#b0b6ba" stroke-width="1"/>
    </g>
  </g>
</svg>
