<svg id="Grupo_5628" data-name="Grupo 5628" xmlns="http://www.w3.org/2000/svg" xmlns:xlink="http://www.w3.org/1999/xlink" width="100.901" height="62.582" viewBox="0 0 100.901 62.582">
  <defs>
    <clipPath id="clip-path">
      <rect id="Retângulo_1495" data-name="Retângulo 1495" width="100.901" height="62.582" fill="none"/>
    </clipPath>
  </defs>
  <g id="Grupo_5627" data-name="Grupo 5627" clip-path="url(#clip-path)">
    <path id="Caminho_4320" data-name="Caminho 4320" d="M100.307,5.924c-3.154,7.025-7.283,16.021-7.972,17.583C91.22,26,81.918,34.519,79.877,37.252,77.833,39.964,68.168,54.9,64.932,60.805c-.2.378-.408.711-.594,1.02-1.834-1.522-3.8-3.228-4.283-3.8-.948-1.134-4.738-3.9-5.54-4.916s-8.059-4.079-9.561-5.019S35.31,44.9,32.133,42.469A13.164,13.164,0,0,0,28.864,40.8c-.486-.189-.993-.354-1.5-.541-.875-.3-1.793-.573-2.758-.885-1.263-.39-2.552-.822-3.874-1.337-.579-.224-1.158-.447-1.742-.714-.117-.053-.256-.1-.4-.176-.561-.27-1.146-.536-1.691-.851-2.881-1.582-7.24-1.912-10.693-1.878a3.369,3.369,0,0,1-.171-.734c-.162-1.444-3.144-3.325-4.642-5.017-.253-.282-.485-.566-.667-.812,0,0,3.608-2.2,4.126-3.9a5.137,5.137,0,0,1,1.494-2.672c.248-.161,3.068-.9,3.575-1.51a20.733,20.733,0,0,0,1.371-2.193l0-.022a8.243,8.243,0,0,0,.438-.847c.145-.282.268-.562.375-.795.562-1.305,2.559-4.433,2.968-4.345.433.105,4.931,3.057,5.377,3.272.426.24,1.77,3.524,2.572,3.168.78-.354,5.456-.747,5.95-.094.471.635,3.953,2.038,4.623,3.07a9.885,9.885,0,0,0,3.9,2.731,4.082,4.082,0,0,0,3.1.36c2.041-.363,5.422.144,6.567-.716,1.147-.838,5.16-3.373,6.5-3.657,1.364-.287,4.009.369,5.833-.944s3.55-1.928,4.609-3.555c1.055-1.647,2.9-3.783,3.968-5.3,1.092-1.519,1.749-2.967,3.777-3.461,2.025-.516,4.592-.938,5.008-.985s5.155-2.242,5.155-2.242S84.76.693,86.27.523a18.069,18.069,0,0,1,5.94.993c.594.354,5.433,1.605,5.433,1.605Z" fill="#e2e6ea"/>
    <path id="Caminho_4321" data-name="Caminho 4321" d="M100.307,5.924c-3.154,7.025-7.283,16.021-7.972,17.583C91.22,26,81.918,34.519,79.877,37.252,77.833,39.964,68.168,54.9,64.932,60.805c-.2.378-.408.711-.594,1.02-1.834-1.522-3.8-3.228-4.283-3.8-.948-1.134-4.738-3.9-5.54-4.916s-8.059-4.079-9.561-5.019S35.31,44.9,32.133,42.469A13.164,13.164,0,0,0,28.864,40.8c-.486-.189-.993-.354-1.5-.541-.875-.3-1.793-.573-2.758-.885-1.263-.39-2.552-.822-3.874-1.337-.579-.224-1.158-.447-1.742-.714-.117-.053-.256-.1-.4-.176-.561-.27-1.146-.536-1.691-.851-2.881-1.582-7.24-1.912-10.693-1.878a3.369,3.369,0,0,1-.171-.734c-.162-1.444-3.144-3.325-4.642-5.017-.253-.282-.485-.566-.667-.812,0,0,3.608-2.2,4.126-3.9a5.137,5.137,0,0,1,1.494-2.672c.248-.161,3.068-.9,3.575-1.51a20.733,20.733,0,0,0,1.371-2.193l0-.022a8.243,8.243,0,0,0,.438-.847c.145-.282.268-.562.375-.795.562-1.305,2.559-4.433,2.968-4.345.433.105,4.931,3.057,5.377,3.272.426.24,1.77,3.524,2.572,3.168.78-.354,5.456-.747,5.95-.094.471.635,3.953,2.038,4.623,3.07a9.885,9.885,0,0,0,3.9,2.731,4.082,4.082,0,0,0,3.1.36c2.041-.363,5.422.144,6.567-.716,1.147-.838,5.16-3.373,6.5-3.657,1.364-.287,4.009.369,5.833-.944s3.55-1.928,4.609-3.555c1.055-1.647,2.9-3.783,3.968-5.3,1.092-1.519,1.749-2.967,3.777-3.461,2.025-.516,4.592-.938,5.008-.985s5.155-2.242,5.155-2.242S84.76.693,86.27.523a18.069,18.069,0,0,1,5.94.993c.594.354,5.433,1.605,5.433,1.605Z" fill="none" stroke="#b0b6ba" stroke-width="1"/>
  </g>
</svg>
