<svg xmlns="http://www.w3.org/2000/svg" xmlns:xlink="http://www.w3.org/1999/xlink" width="86.093" height="64.598" viewBox="0 0 86.093 64.598">
  <defs>
    <clipPath id="clip-path">
      <rect id="Retângulo_1488" data-name="Retângulo 1488" width="86.093" height="64.598" transform="translate(0 0)" fill="none"/>
    </clipPath>
  </defs>
  <g id="Grupo_5614" data-name="Grupo 5614" transform="translate(0 0)">
    <g id="Grupo_5613" data-name="Grupo 5613" clip-path="url(#clip-path)">
      <path id="Caminho_4306" data-name="Caminho 4306" d="M85.366,18.673a10.68,10.68,0,0,0-1.091.981c-.41.445-.711.307-.667,1.218s.393,1.443-.014,2.405-2.409,6.05-2.8,7.639-2.708,7.974-3.083,9.218-1.639,2.7-1.6,3.04a1.473,1.473,0,0,0,.623.96,14.357,14.357,0,0,1,1.405,2.112,1.145,1.145,0,0,0-.412-.033c-.807.091.158.669.123,1.1s-.692,1.107-.678,1.236a6.235,6.235,0,0,0,.561,1.568c.257.359-.041,1.162-.128,1.515a2.176,2.176,0,0,0-.085,1.17,5.745,5.745,0,0,1,.11.976l-5.785.733L62.2,55.732h0a1,1,0,0,0-.569.015l-.873.662s-1.486-.269-1.761-.8a1.262,1.262,0,0,0-1.057-.636,4.679,4.679,0,0,1-1.291-1.159A13.759,13.759,0,0,0,55.4,52.673s-2.435-.286-2.561-.272-1.406.5-1.542.816a4.367,4.367,0,0,1-.633.847,11.945,11.945,0,0,0-.793.947c-.185.275.129,1.143.129,1.143a4.493,4.493,0,0,0-.795.56,4.028,4.028,0,0,0-.236,1.351c-.012.294-.121.45-.436.7s-.988-.02-.988-.02a3.544,3.544,0,0,0-1.671-.327c-.58.152-.313.636-.375,1.244a1.893,1.893,0,0,1-.43,1.12c-.119.1-1.113.427-1.316.148s-.334.082-.549.062-.506.445-.506.445a6.71,6.71,0,0,1-1.4.586,2.519,2.519,0,0,1-.969-.619,3.989,3.989,0,0,0-1.973.006c-.41.173-.369.9-.487,1.383s-1.414,1.251-1.414,1.251l-.931-.341s-2.246-.52-3.766-1.036-8.211-2.423-9.516-3.348-3.8-1.722-4.5-2.2-3.536-.546-4.827-.573A53.1,53.1,0,0,1,5.87,55.67C5.2,55.4.625,54.455.625,54.455c0-.234-.053-.465-.122-1.078s.934-1.65,1.39-1.959a8.024,8.024,0,0,0,1.561-1.206c.122-.25-.964-1.33-.893-1.832a4.447,4.447,0,0,1,.878-1.534A2.108,2.108,0,0,0,3.6,45.6a9.161,9.161,0,0,1,.258-1.7c.024-.367.652-.674.909-.9s2.332-1.763,2.606-2.01.791-.968,1.021-1.206.848-.1,1.272-.143a12.506,12.506,0,0,0,1.682-.705c.452-.16,1.861-.425,1.88-.62a2.1,2.1,0,0,1,.759-.878,3.336,3.336,0,0,1,1.269-.38,8.137,8.137,0,0,1,.624.788c.221.253,1.1.048,1.526-.172s.557-2.314.629-2.989.657-6.36.707-7.44.066-5.157.147-5.747-.32-.949-.814-1.343-.174-.969-.215-1.329-.872-.89-1.585-1.3a2.915,2.915,0,0,1-1.115-.97A12.5,12.5,0,0,1,14.5,13.2c0-.151,1.032-.566,1.17-.681a3.64,3.64,0,0,1,.783-.267s1.014-.33,1.1-.32.807.126,1.228.23S18.8,10.6,18.8,10.6a2.213,2.213,0,0,0-.239-.6,5.214,5.214,0,0,0-1.244-.375c-.277-.055-1.07.162-1.391.115s-.587-.394-.787-.642a4.527,4.527,0,0,1-.291-1.585c-.062-.549.922-1.2,1.064-1.221s1.257,0,1.481-.05,5.394-.48,5.439-.485.319-.208.264-.3-.407-.325-.526-.5.085-.25.226-.4.689.266.887.374a.884.884,0,0,0,.681-.049,2.129,2.129,0,0,0,.3-.508c.071-.135.675-.23.776-.241s.354-.4.441-.665.526-.5.676-.577.376.287.376.287a12.2,12.2,0,0,0,.336,1.219c.115.231.8.253.9.373a7.732,7.732,0,0,1,.293,1.44,9.409,9.409,0,0,0,.351,1.474c.107.191.508.06.566.053s.814.008,1.06.025.992.788,1.217,1.02.987.662,1.182.87,1.494-.213,1.694-.479.581-.938.658-1.018a3.707,3.707,0,0,1,.726-.3,4.86,4.86,0,0,1,.691.437,1.5,1.5,0,0,1,.189.278s-.394.559-.36.857.566.208.566.208.448-.353.473-.5a2.2,2.2,0,0,1,.285-.791c.152-.175.565-.163.634-.315s.066-.45.125-.57.421-.436.582-.653a2.777,2.777,0,0,1,.731-.583c.171-.092.6.117.731.089a6.43,6.43,0,0,0,.907-1.091.361.361,0,0,1,.411-.159s.235.316.379.314.291-.345.424-.563.889-.858.981-1.167a10.985,10.985,0,0,0-.09-1.594c.025-.143.692-.078.912-.016a.925.925,0,0,0,.86-.382,4.464,4.464,0,0,1,1.123-.7c.086-.054.134-.242.157-.46a5.258,5.258,0,0,1,.854.291s.93.153,1.075.164a4.577,4.577,0,0,1,1.26.518c.31.222.155.611-.012,1.172a4.814,4.814,0,0,0-.145,1.249s1.416.9,1.6.964.683.98.851,1.191-.271.917-.46,1.339.112.905.136,1.214.268.516.346.964a5.407,5.407,0,0,0,1.357,2.4A1.45,1.45,0,0,1,54,13.3a1.294,1.294,0,0,1-.346.983,7.573,7.573,0,0,0-1.118.984c-.093.21.823.45,1.36.647a3.669,3.669,0,0,1,1.192.954c.067.078.766.944.894,1.074s.318.019.741-.029.609.591.852.708.541.224.667.065-.092-.3-.421-.694a1.214,1.214,0,0,1-.408-.812.768.768,0,0,1,.13-.616.8.8,0,0,0,.145-.761c-.1-.39-.389-.643-.331-1.164s1.076-1.124,1.247-1.37,1.676.155,2.007.289.725.863.725.863a2.474,2.474,0,0,0,.78.311,4.437,4.437,0,0,0,.873-.356c.242-.113.634-.5.551-.718s-.431-.267-.65-.442.449-1.6.727-2.172a14.5,14.5,0,0,0,.6-2.3c.072-.334.921-.508,1.941-.592.147-.013.3-.023.45-.034.041,0,.085-.006.129-.007a.332.332,0,0,0,.055,0c.116-.006.236-.013.352-.016.069,0,.14-.005.212-.006l.243-.007.405,0c.055,0,.113,0,.164,0,.46,0,.873.005,1.183.011l.144.005h.076l.072,0h.045l.069,0c.11,0,.169,0,.169,0a6.845,6.845,0,0,0,.273,2.431c.352.589.931.64,1.158,1.13a5.758,5.758,0,0,0,.906,1.958,3.252,3.252,0,0,0,.95.806c.495.346.8.542.8.542l1.583-.179a1.246,1.246,0,0,0,.108.96c.278.425.339.48,1.413.871s1.941.468,2.245.606.87-.383,1.368.474.754,1.117.93,1.155a1.606,1.606,0,0,0,1.465.292,6.247,6.247,0,0,0,1.776-1Z" fill="#e2e6ea"/>
      <path id="Caminho_4307" data-name="Caminho 4307" d="M85.366,18.673a10.68,10.68,0,0,0-1.091.981c-.41.445-.711.307-.667,1.218s.393,1.443-.014,2.405-2.409,6.05-2.8,7.639-2.708,7.974-3.083,9.218-1.639,2.7-1.6,3.04a1.473,1.473,0,0,0,.623.96,14.357,14.357,0,0,1,1.405,2.112,1.145,1.145,0,0,0-.412-.033c-.807.091.158.669.123,1.1s-.692,1.107-.678,1.236a6.235,6.235,0,0,0,.561,1.568c.257.359-.041,1.162-.128,1.515a2.176,2.176,0,0,0-.085,1.17,5.745,5.745,0,0,1,.11.976l-5.785.733L62.2,55.732h0a1,1,0,0,0-.569.015l-.873.662s-1.486-.269-1.761-.8a1.262,1.262,0,0,0-1.057-.636,4.679,4.679,0,0,1-1.291-1.159A13.759,13.759,0,0,0,55.4,52.673s-2.435-.286-2.561-.272-1.406.5-1.542.816a4.367,4.367,0,0,1-.633.847,11.945,11.945,0,0,0-.793.947c-.185.275.129,1.143.129,1.143a4.493,4.493,0,0,0-.795.56,4.028,4.028,0,0,0-.236,1.351c-.012.294-.121.45-.436.7s-.988-.02-.988-.02a3.544,3.544,0,0,0-1.671-.327c-.58.152-.313.636-.375,1.244a1.893,1.893,0,0,1-.43,1.12c-.119.1-1.113.427-1.316.148s-.334.082-.549.062-.506.445-.506.445a6.71,6.71,0,0,1-1.4.586,2.519,2.519,0,0,1-.969-.619,3.989,3.989,0,0,0-1.973.006c-.41.173-.369.9-.487,1.383s-1.414,1.251-1.414,1.251l-.931-.341s-2.246-.52-3.766-1.036-8.211-2.423-9.516-3.348-3.8-1.722-4.5-2.2-3.536-.546-4.827-.573A53.1,53.1,0,0,1,5.87,55.67C5.2,55.4.625,54.455.625,54.455c0-.234-.053-.465-.122-1.078s.934-1.65,1.39-1.959a8.024,8.024,0,0,0,1.561-1.206c.122-.25-.964-1.33-.893-1.832a4.447,4.447,0,0,1,.878-1.534A2.108,2.108,0,0,0,3.6,45.6a9.161,9.161,0,0,1,.258-1.7c.024-.367.652-.674.909-.9s2.332-1.763,2.606-2.01.791-.968,1.021-1.206.848-.1,1.272-.143a12.506,12.506,0,0,0,1.682-.705c.452-.16,1.861-.425,1.88-.62a2.1,2.1,0,0,1,.759-.878,3.336,3.336,0,0,1,1.269-.38,8.137,8.137,0,0,1,.624.788c.221.253,1.1.048,1.526-.172s.557-2.314.629-2.989.657-6.36.707-7.44.066-5.157.147-5.747-.32-.949-.814-1.343-.174-.969-.215-1.329-.872-.89-1.585-1.3a2.915,2.915,0,0,1-1.115-.97A12.5,12.5,0,0,1,14.5,13.2c0-.151,1.032-.566,1.17-.681a3.64,3.64,0,0,1,.783-.267s1.014-.33,1.1-.32.807.126,1.228.23S18.8,10.6,18.8,10.6a2.213,2.213,0,0,0-.239-.6,5.214,5.214,0,0,0-1.244-.375c-.277-.055-1.07.162-1.391.115s-.587-.394-.787-.642a4.527,4.527,0,0,1-.291-1.585c-.062-.549.922-1.2,1.064-1.221s1.257,0,1.481-.05,5.394-.48,5.439-.485.319-.208.264-.3-.407-.325-.526-.5.085-.25.226-.4.689.266.887.374a.884.884,0,0,0,.681-.049,2.129,2.129,0,0,0,.3-.508c.071-.135.675-.23.776-.241s.354-.4.441-.665.526-.5.676-.577.376.287.376.287a12.2,12.2,0,0,0,.336,1.219c.115.231.8.253.9.373a7.732,7.732,0,0,1,.293,1.44,9.409,9.409,0,0,0,.351,1.474c.107.191.508.06.566.053s.814.008,1.06.025.992.788,1.217,1.02.987.662,1.182.87,1.494-.213,1.694-.479.581-.938.658-1.018a3.707,3.707,0,0,1,.726-.3,4.86,4.86,0,0,1,.691.437,1.5,1.5,0,0,1,.189.278s-.394.559-.36.857.566.208.566.208.448-.353.473-.5a2.2,2.2,0,0,1,.285-.791c.152-.175.565-.163.634-.315s.066-.45.125-.57.421-.436.582-.653a2.777,2.777,0,0,1,.731-.583c.171-.092.6.117.731.089a6.43,6.43,0,0,0,.907-1.091.361.361,0,0,1,.411-.159s.235.316.379.314.291-.345.424-.563.889-.858.981-1.167a10.985,10.985,0,0,0-.09-1.594c.025-.143.692-.078.912-.016a.925.925,0,0,0,.86-.382,4.464,4.464,0,0,1,1.123-.7c.086-.054.134-.242.157-.46a5.258,5.258,0,0,1,.854.291s.93.153,1.075.164a4.577,4.577,0,0,1,1.26.518c.31.222.155.611-.012,1.172a4.814,4.814,0,0,0-.145,1.249s1.416.9,1.6.964.683.98.851,1.191-.271.917-.46,1.339.112.905.136,1.214.268.516.346.964a5.407,5.407,0,0,0,1.357,2.4A1.45,1.45,0,0,1,54,13.3a1.294,1.294,0,0,1-.346.983,7.573,7.573,0,0,0-1.118.984c-.093.21.823.45,1.36.647a3.669,3.669,0,0,1,1.192.954c.067.078.766.944.894,1.074s.318.019.741-.029.609.591.852.708.541.224.667.065-.092-.3-.421-.694a1.214,1.214,0,0,1-.408-.812.768.768,0,0,1,.13-.616.8.8,0,0,0,.145-.761c-.1-.39-.389-.643-.331-1.164s1.076-1.124,1.247-1.37,1.676.155,2.007.289.725.863.725.863a2.474,2.474,0,0,0,.78.311,4.437,4.437,0,0,0,.873-.356c.242-.113.634-.5.551-.718s-.431-.267-.65-.442.449-1.6.727-2.172a14.5,14.5,0,0,0,.6-2.3c.072-.334.921-.508,1.941-.592.147-.013.3-.023.45-.034.041,0,.085-.006.129-.007a.332.332,0,0,0,.055,0c.116-.006.236-.013.352-.016.069,0,.14-.005.212-.006l.243-.007.405,0c.055,0,.113,0,.164,0,.46,0,.873.005,1.183.011l.144.005h.076l.072,0h.045l.069,0c.11,0,.169,0,.169,0a6.845,6.845,0,0,0,.273,2.431c.352.589.931.64,1.158,1.13a5.758,5.758,0,0,0,.906,1.958,3.252,3.252,0,0,0,.95.806c.495.346.8.542.8.542l1.583-.179a1.246,1.246,0,0,0,.108.96c.278.425.339.48,1.413.871s1.941.468,2.245.606.87-.383,1.368.474.754,1.117.93,1.155a1.606,1.606,0,0,0,1.465.292,6.247,6.247,0,0,0,1.776-1Z" fill="none" stroke="#b0b6ba" stroke-width="1"/>
    </g>
  </g>
</svg>
