<svg xmlns="http://www.w3.org/2000/svg" xmlns:xlink="http://www.w3.org/1999/xlink" width="58.834" height="66.96" viewBox="0 0 58.834 66.96">
  <defs>
    <clipPath id="clip-path">
      <rect id="Retângulo_1483" data-name="Retângulo 1483" width="58.834" height="66.96" transform="translate(0 0)" fill="none"/>
    </clipPath>
  </defs>
  <g id="Grupo_5604" data-name="Grupo 5604" transform="translate(0 0)">
    <g id="Grupo_5603" data-name="Grupo 5603" clip-path="url(#clip-path)">
      <path id="Caminho_4296" data-name="Caminho 4296" d="M57.727,40.333c-.247,1.278-1.144,2.125-.993,3.382a6.572,6.572,0,0,1-1.159.325,23.277,23.277,0,0,0-2.824.975c-.888.3-1.962,2.319-2.25,2.928a7.678,7.678,0,0,1-1.86,2.206c-.694.51-1.689.626-2.582,1.131A5.831,5.831,0,0,0,43.8,53.4c-.389.8-1.251,3.807-1.251,3.807s-1.869,1.513-2.459,2.117-1.263,2.207-2.228,5.3c-.949,3.1-3.273,1.339-3.273,1.339A44.761,44.761,0,0,1,30,64.72c-.8-.388-.936-2.872-1.037-3.365s-.81-.993-1.116-1.284a6.8,6.8,0,0,1-.834-2.977c-.012-1-4.22-3.731-4.84-4.918s-1.011-1.875-.723-2.381-.041-3.289-.054-4.277c-.012-1-.921-1.685-1.519-2.37-.614-.694-2.016-1.967-2.021-2.365a22.9,22.9,0,0,0-2.145-4.059,9.942,9.942,0,0,0-2.8-1.16,24.815,24.815,0,0,1-3.3-1.05c-.7-.39-2.921-3.054-3.924-3.568s-3.572.969-4.346.883S.375,28.949,1,27.85c.6-1.059.007-3.242-.043-3.432l.008.008c.8.762,1.532,1.51,1.532,1.51a41.86,41.86,0,0,0,4.924.735c.4-.14,4.373-.716,5.03-.995s4.653.078,4.653.078,2.8.761,3.2.756,4.491-1.386,5.41-2.457A15.641,15.641,0,0,0,29.474,17.5c.757-3.2,5.453-9.89,6.375-10.7a11.021,11.021,0,0,0,2.192-4.942A1.434,1.434,0,0,1,39.219.521l3.888,2.6.429,1.141a20.546,20.546,0,0,1,.323,2.283c.008.645-.025,1.792-.015,2.636s.483,2.934.766,5.224,1.8,5.2,1.81,5.9,1.072,1.58,1.328,2.326a10.22,10.22,0,0,0,.824,2.235,5.479,5.479,0,0,0,1.793.074,5.235,5.235,0,0,1,1.9.725c.4.29.523,1.73.99,3.373s.959.88,1.158.933a17.311,17.311,0,0,1,2.949,1.4c.459.393.784,2.778.95,3.971a26.759,26.759,0,0,1-.583,4.986" fill="#e2e6ea"/>
      <path id="Caminho_4297" data-name="Caminho 4297" d="M57.727,40.333c-.247,1.278-1.144,2.125-.993,3.382a6.572,6.572,0,0,1-1.159.325,23.277,23.277,0,0,0-2.824.975c-.888.3-1.962,2.319-2.25,2.928a7.678,7.678,0,0,1-1.86,2.206c-.694.51-1.689.626-2.582,1.131A5.831,5.831,0,0,0,43.8,53.4c-.389.8-1.251,3.807-1.251,3.807s-1.869,1.513-2.459,2.117-1.263,2.207-2.228,5.3c-.949,3.1-3.273,1.339-3.273,1.339A44.761,44.761,0,0,1,30,64.72c-.8-.388-.936-2.872-1.037-3.365s-.81-.993-1.116-1.284a6.8,6.8,0,0,1-.834-2.977c-.012-1-4.22-3.731-4.84-4.918s-1.011-1.875-.723-2.381-.041-3.289-.054-4.277c-.012-1-.921-1.685-1.519-2.37-.614-.694-2.016-1.967-2.021-2.365a22.9,22.9,0,0,0-2.145-4.059,9.942,9.942,0,0,0-2.8-1.16,24.815,24.815,0,0,1-3.3-1.05c-.7-.39-2.921-3.054-3.924-3.568s-3.572.969-4.346.883S.375,28.949,1,27.85c.6-1.059.007-3.242-.043-3.432l.008.008c.8.762,1.532,1.51,1.532,1.51a41.86,41.86,0,0,0,4.924.735c.4-.14,4.373-.716,5.03-.995s4.653.078,4.653.078,2.8.761,3.2.756,4.491-1.386,5.41-2.457A15.641,15.641,0,0,0,29.474,17.5c.757-3.2,5.453-9.89,6.375-10.7a11.021,11.021,0,0,0,2.192-4.942A1.434,1.434,0,0,1,39.219.521l3.888,2.6.429,1.141a20.546,20.546,0,0,1,.323,2.283c.008.645-.025,1.792-.015,2.636s.483,2.934.766,5.224,1.8,5.2,1.81,5.9,1.072,1.58,1.328,2.326a10.22,10.22,0,0,0,.824,2.235,5.479,5.479,0,0,0,1.793.074,5.235,5.235,0,0,1,1.9.725c.4.29.523,1.73.99,3.373s.959.88,1.158.933a17.311,17.311,0,0,1,2.949,1.4c.459.393.784,2.778.95,3.971A26.759,26.759,0,0,1,57.727,40.333Z" fill="none" stroke="#b0b6ba" stroke-width="1"/>
    </g>
  </g>
</svg>
