<svg xmlns="http://www.w3.org/2000/svg" xmlns:xlink="http://www.w3.org/1999/xlink" width="62.528" height="68.237" viewBox="0 0 62.528 68.237">
  <defs>
    <clipPath id="clip-path">
      <rect id="Retângulo_1485" data-name="Retângulo 1485" width="62.528" height="68.237" transform="translate(0 0.001)" fill="none"/>
    </clipPath>
  </defs>
  <g id="Grupo_5608" data-name="Grupo 5608" transform="translate(0 0)">
    <g id="Grupo_5607" data-name="Grupo 5607" clip-path="url(#clip-path)">
      <path id="Caminho_4300" data-name="Caminho 4300" d="M61.736,20.954c-.072.131-.138.258-.205.38l-.168.326c-.244.462-.448.851-.568,1.095-.469.964-2.619,3.01-3.09,3.771a33.338,33.338,0,0,0-1.521,3.365,2.949,2.949,0,0,1-1.677,1.285c-.706.286-.542-.531-.742-.728s-1.369,1.166-1.913,1.761-.088,1.3,0,1.694a2.394,2.394,0,0,1-.5,1.437c-.3.539.065.761.232,1.322A6.954,6.954,0,0,1,51.6,38.69c-.031.59.024,1.6.015,1.748a8.545,8.545,0,0,0-.931,1.725,5.074,5.074,0,0,0,.5,2.275,26.906,26.906,0,0,1,.336,2.926,20.583,20.583,0,0,1,.167,3.211,15.913,15.913,0,0,1-.71,2.259c-.388,1.071-.541,2.65-.892,4.063a12.973,12.973,0,0,0-.141,3.745c.028.113.442,2.11.5,2.5s-.521,1.3-.521,1.3-.926.8-1.458,1.2a1.883,1.883,0,0,0-.3.3A8.988,8.988,0,0,0,47.2,67.56l-.352-.182a12.63,12.63,0,0,1-2.116-1.334c-.191-.282-1.119-.661-1.481-.928a.425.425,0,0,1-.14-.144c-.116-.264.07-.753.067-.978a11.1,11.1,0,0,0-1.369-1.98c-.341-.407-.646-.67-.951-1.041a1.691,1.691,0,0,1-.235-1.2,5.39,5.39,0,0,1,.066-1.2c.075-.267.522-.568,1.084-.726s.709-.38.894-.909-.8-.741-.614-1.08a10.271,10.271,0,0,1,1.115-1.474c.3-.305,1.611-.731,1.87-.958s.3-.827-.013-1.5-.831-.858-1.285-1.192a3.241,3.241,0,0,0-1.692-.324c-.339,0-1.018-.365-1.061-.666s-.3-.223-1.2-.553a2.954,2.954,0,0,0-1.544-.172c-.676-.034-.525.266-.594.456s-.674.3-.674.3-1.241-.174-1.354-.362a4.124,4.124,0,0,1-.163-1.013L33.9,45.677a8.506,8.506,0,0,0-.906-.483c-.226-.07-.449.08-.672.308a6.9,6.9,0,0,1-1.877.39,4.87,4.87,0,0,1-1.241-.4,21.157,21.157,0,0,0-2.187-1.22,3.023,3.023,0,0,1-1.474-1.078A4.05,4.05,0,0,0,23.5,42.085c-1.168-.291-1.051.271-1.5.5s-.591.87-.851,1.1-.753.006-1.24-.1A1.682,1.682,0,0,1,18.847,42.5c-.23-.521.145-.975.4-1.392a1.36,1.36,0,0,0,.218-.79,8.128,8.128,0,0,0-.945-.857,11.008,11.008,0,0,0-3.191.212,11.868,11.868,0,0,0-2.423,1.751l-.866.53-.255.156a12.36,12.36,0,0,0-2.061.734,10.338,10.338,0,0,0-1.455,1.139c-.259.263-2.049,1.82-2.195,2.006a4.482,4.482,0,0,1-1.763.465c-.261-.033.071-.6.251-1.2s.41-.5.485-.721-.341-.484-.342-.632L4.688,41.72c-.006-.6.292-.489.517-.64s.036-.527-.155-.638-.829-.592-1.468-1-.242-1.386-.167-1.688a6.465,6.465,0,0,0,.14-1.5c-.041-.45-.236-.561-.241-1.165s.145-.452.556-.906,1.269-.646,1.533-1.027-.981-.329-1.284-.327-1.159.348-1.278-.327.479-.864.672-1.091.217-.3.366-.454-.079-.639-.25-.714a.749.749,0,0,1-.474-.595A1.95,1.95,0,0,1,3.613,28.4c.352-.377.089-.563-.007-.752s-.546-.257-.7-.368a7.982,7.982,0,0,1-.732-2.323c.017-.054.093-.091.2-.119.036-.009.082-.019.131-.028L2.59,24.8H2.6c.1-.024.22-.043.333-.08a.651.651,0,0,0,.1-.032.948.948,0,0,0,.219-.1.77.77,0,0,0,.264-.232.728.728,0,0,0,.062-.118c.275-.642-1.49-.965-1.49-.965s-.041-.635.07-.748,1.238-.124,1.647-.24-.233-.786-.379-1.01-1.28-.215-1.585-.4-1.132-.63-1.324-1,1.3-2.412,1.665-2.907,1.788-1.7,2.346-2.309,1.3-1.286,1.6-1.667a.419.419,0,0,0-.005-.617l-.056-.1c.237-.249.7-.866.909-.751a3.166,3.166,0,0,1,.992,1.645c0,.487.343.561.346.9a3.464,3.464,0,0,0,.01,1.238c.153.414.12.977.835,1.309a6.074,6.074,0,0,0,1.882.358c.191.034.756.408,1.206.179.044-.023.089-.046.139-.074a5.666,5.666,0,0,0,1.274-.993,12.083,12.083,0,0,1,1.269-1.362,3.944,3.944,0,0,0,.826.218,5.412,5.412,0,0,0,1.608-.641,6.9,6.9,0,0,0,1.451-1.6c.221-.416,1.26-2.264,1.143-2.6a2.708,2.708,0,0,0-.684-1.12c-.34-.3-1.062-.856-.5-1.573a8.267,8.267,0,0,1,2.2-1.672c.148-.038.745-.831.752-.007s.123,1.126.462,1.159a1.969,1.969,0,0,0,.861.033c.562-.081,1.39-.237,1.5-.013s-.034.748.609.968,1.13.441,1.5-.013A11,11,0,0,1,27.814,6.53a4.824,4.824,0,0,1,1.573-.577c.408-.044,1.273-.2,1.273-.2L32.638,4.2s.067-.564,1.041-1.023a13.678,13.678,0,0,0,2.2-1.478,2.122,2.122,0,0,0,.416.483c.721.593,1.016.441,1.549.96a10.38,10.38,0,0,1,1.367,1.831c.078.184.264.3,0,.563a1.441,1.441,0,0,0-.407.792c0,.148.613,1.121.837,1.042S41.3,6.337,41.3,6.337a1.323,1.323,0,0,0,.55-.342,1.634,1.634,0,0,0,.483-1.054c-.005-.491-.345-.673-.006-.717a6.965,6.965,0,0,1,.86-.007,2.18,2.18,0,0,0,.862-.341c.147-.118.3-.007.6-.46a11,11,0,0,1,1.226-1.4,4.634,4.634,0,0,1,1.23-.989c.338-.115.668-.906,1.053-.306s.572,1.081.834,1.232.038.148.9.253,1.388.025,1.5.1a5.842,5.842,0,0,0,.837.782,2.476,2.476,0,0,0,.975.329,2.115,2.115,0,0,1,1.431.366,2.682,2.682,0,0,1,.611,1.383,1.166,1.166,0,0,0,.226.565c.032.054.073.117.119.18.27.376.836.822.838,1.119a.755.755,0,0,0,.02.153,12.716,12.716,0,0,1,.29,1.309A2.242,2.242,0,0,0,57.2,9.841a6.734,6.734,0,0,1,.778.863v0c.164.206.314.389.4.474a1.061,1.061,0,0,1,.344.731,4.728,4.728,0,0,1-.518,1.113s-.149-.111.041.563.309.786.276,1.16-.824.607-.937.571-.679-.368-.679-.368.04-.153-.449,0-1.129-.17-1.124.388a3.227,3.227,0,0,0,.463,1.492c.229.413.342.412.571.86a5,5,0,0,1,.389,1.124c.115.413-.041.112.38.861a3.723,3.723,0,0,0,1.137,1.189,5.849,5.849,0,0,1,1.613-.014c.155.152.787-.119,1.127-.009a6.018,6.018,0,0,0,.722.106" fill="#e2e6ea"/>
      <path id="Caminho_4301" data-name="Caminho 4301" d="M61.736,20.954c-.072.131-.138.258-.205.38l-.168.326c-.244.462-.448.851-.568,1.095-.469.964-2.619,3.01-3.09,3.771a33.338,33.338,0,0,0-1.521,3.365,2.949,2.949,0,0,1-1.677,1.285c-.706.286-.542-.531-.742-.728s-1.369,1.166-1.913,1.761-.088,1.3,0,1.694a2.394,2.394,0,0,1-.5,1.437c-.3.539.065.761.232,1.322A6.954,6.954,0,0,1,51.6,38.69c-.031.59.024,1.6.015,1.748a8.545,8.545,0,0,0-.931,1.725,5.074,5.074,0,0,0,.5,2.275,26.906,26.906,0,0,1,.336,2.926,20.583,20.583,0,0,1,.167,3.211,15.913,15.913,0,0,1-.71,2.259c-.388,1.071-.541,2.65-.892,4.063a12.973,12.973,0,0,0-.141,3.745c.028.113.442,2.11.5,2.5s-.521,1.3-.521,1.3-.926.8-1.458,1.2a1.883,1.883,0,0,0-.3.3A8.988,8.988,0,0,0,47.2,67.56l-.352-.182a12.63,12.63,0,0,1-2.116-1.334c-.191-.282-1.119-.661-1.481-.928a.425.425,0,0,1-.14-.144c-.116-.264.07-.753.067-.978a11.1,11.1,0,0,0-1.369-1.98c-.341-.407-.646-.67-.951-1.041a1.691,1.691,0,0,1-.235-1.2,5.39,5.39,0,0,1,.066-1.2c.075-.267.522-.568,1.084-.726s.709-.38.894-.909-.8-.741-.614-1.08a10.271,10.271,0,0,1,1.115-1.474c.3-.305,1.611-.731,1.87-.958s.3-.827-.013-1.5-.831-.858-1.285-1.192a3.241,3.241,0,0,0-1.692-.324c-.339,0-1.018-.365-1.061-.666s-.3-.223-1.2-.553a2.954,2.954,0,0,0-1.544-.172c-.676-.034-.525.266-.594.456s-.674.3-.674.3-1.241-.174-1.354-.362a4.124,4.124,0,0,1-.163-1.013L33.9,45.677a8.506,8.506,0,0,0-.906-.483c-.226-.07-.449.08-.672.308a6.9,6.9,0,0,1-1.877.39,4.87,4.87,0,0,1-1.241-.4,21.157,21.157,0,0,0-2.187-1.22,3.023,3.023,0,0,1-1.474-1.078A4.05,4.05,0,0,0,23.5,42.085c-1.168-.291-1.051.271-1.5.5s-.591.87-.851,1.1-.753.006-1.24-.1A1.682,1.682,0,0,1,18.847,42.5c-.23-.521.145-.975.4-1.392a1.36,1.36,0,0,0,.218-.79,8.128,8.128,0,0,0-.945-.857,11.008,11.008,0,0,0-3.191.212,11.868,11.868,0,0,0-2.423,1.751l-.866.53-.255.156a12.36,12.36,0,0,0-2.061.734,10.338,10.338,0,0,0-1.455,1.139c-.259.263-2.049,1.82-2.195,2.006a4.482,4.482,0,0,1-1.763.465c-.261-.033.071-.6.251-1.2s.41-.5.485-.721-.341-.484-.342-.632L4.688,41.72c-.006-.6.292-.489.517-.64s.036-.527-.155-.638-.829-.592-1.468-1-.242-1.386-.167-1.688a6.465,6.465,0,0,0,.14-1.5c-.041-.45-.236-.561-.241-1.165s.145-.452.556-.906,1.269-.646,1.533-1.027-.981-.329-1.284-.327-1.159.348-1.278-.327.479-.864.672-1.091.217-.3.366-.454-.079-.639-.25-.714a.749.749,0,0,1-.474-.595A1.95,1.95,0,0,1,3.613,28.4c.352-.377.089-.563-.007-.752s-.546-.257-.7-.368a7.982,7.982,0,0,1-.732-2.323c.017-.054.093-.091.2-.119.036-.009.082-.019.131-.028L2.59,24.8H2.6c.1-.024.22-.043.333-.08a.651.651,0,0,0,.1-.032.948.948,0,0,0,.219-.1.77.77,0,0,0,.264-.232.728.728,0,0,0,.062-.118c.275-.642-1.49-.965-1.49-.965s-.041-.635.07-.748,1.238-.124,1.647-.24-.233-.786-.379-1.01-1.28-.215-1.585-.4-1.132-.63-1.324-1,1.3-2.412,1.665-2.907,1.788-1.7,2.346-2.309,1.3-1.286,1.6-1.667a.419.419,0,0,0-.005-.617l-.056-.1c.237-.249.7-.866.909-.751a3.166,3.166,0,0,1,.992,1.645c0,.487.343.561.346.9a3.464,3.464,0,0,0,.01,1.238c.153.414.12.977.835,1.309a6.074,6.074,0,0,0,1.882.358c.191.034.756.408,1.206.179.044-.023.089-.046.139-.074a5.666,5.666,0,0,0,1.274-.993,12.083,12.083,0,0,1,1.269-1.362,3.944,3.944,0,0,0,.826.218,5.412,5.412,0,0,0,1.608-.641,6.9,6.9,0,0,0,1.451-1.6c.221-.416,1.26-2.264,1.143-2.6a2.708,2.708,0,0,0-.684-1.12c-.34-.3-1.062-.856-.5-1.573a8.267,8.267,0,0,1,2.2-1.672c.148-.038.745-.831.752-.007s.123,1.126.462,1.159a1.969,1.969,0,0,0,.861.033c.562-.081,1.39-.237,1.5-.013s-.034.748.609.968,1.13.441,1.5-.013A11,11,0,0,1,27.814,6.53a4.824,4.824,0,0,1,1.573-.577c.408-.044,1.273-.2,1.273-.2L32.638,4.2s.067-.564,1.041-1.023a13.678,13.678,0,0,0,2.2-1.478,2.122,2.122,0,0,0,.416.483c.721.593,1.016.441,1.549.96a10.38,10.38,0,0,1,1.367,1.831c.078.184.264.3,0,.563a1.441,1.441,0,0,0-.407.792c0,.148.613,1.121.837,1.042S41.3,6.337,41.3,6.337a1.323,1.323,0,0,0,.55-.342,1.634,1.634,0,0,0,.483-1.054c-.005-.491-.345-.673-.006-.717a6.965,6.965,0,0,1,.86-.007,2.18,2.18,0,0,0,.862-.341c.147-.118.3-.007.6-.46a11,11,0,0,1,1.226-1.4,4.634,4.634,0,0,1,1.23-.989c.338-.115.668-.906,1.053-.306s.572,1.081.834,1.232.038.148.9.253,1.388.025,1.5.1a5.842,5.842,0,0,0,.837.782,2.476,2.476,0,0,0,.975.329,2.115,2.115,0,0,1,1.431.366,2.682,2.682,0,0,1,.611,1.383,1.166,1.166,0,0,0,.226.565c.032.054.073.117.119.18.27.376.836.822.838,1.119a.755.755,0,0,0,.02.153,12.716,12.716,0,0,1,.29,1.309A2.242,2.242,0,0,0,57.2,9.841a6.734,6.734,0,0,1,.778.863v0c.164.206.314.389.4.474a1.061,1.061,0,0,1,.344.731,4.728,4.728,0,0,1-.518,1.113s-.149-.111.041.563.309.786.276,1.16-.824.607-.937.571-.679-.368-.679-.368.04-.153-.449,0-1.129-.17-1.124.388a3.227,3.227,0,0,0,.463,1.492c.229.413.342.412.571.86a5,5,0,0,1,.389,1.124c.115.413-.041.112.38.861a3.723,3.723,0,0,0,1.137,1.189,5.849,5.849,0,0,1,1.613-.014c.155.152.787-.119,1.127-.009A6.018,6.018,0,0,0,61.736,20.954Z" fill="none" stroke="#b0b6ba" stroke-width="1"/>
    </g>
  </g>
</svg>
