<svg xmlns="http://www.w3.org/2000/svg" xmlns:xlink="http://www.w3.org/1999/xlink" width="52.718" height="61.275" viewBox="0 0 52.718 61.275">
  <defs>
    <clipPath id="clip-path">
      <rect id="Retângulo_1492" data-name="Retângulo 1492" width="52.718" height="61.275" transform="translate(0 0)" fill="none"/>
    </clipPath>
  </defs>
  <g id="Grupo_5622" data-name="Grupo 5622" transform="translate(0 0)">
    <g id="Grupo_5621" data-name="Grupo 5621" clip-path="url(#clip-path)">
      <path id="Caminho_4314" data-name="Caminho 4314" d="M51.463,21.594a30.38,30.38,0,0,1-3.333.909c-1.114.175-1.411-.2-1.774.66a14.04,14.04,0,0,0-.863,3.285c-.1.932-.609,1.457-1.478,3.3s-1.093,3-1.6,4.083-.377,1.686-1.361,2.512-.854.663-2.536,2.142C36.937,39.868,36.5,40.9,36.64,41.545a.753.753,0,0,0,.03.12A3.9,3.9,0,0,1,36.9,43.9a6.429,6.429,0,0,0-.531,2.369c.143.756,1.063.752.535,1.534s-1.192.8-1.232,1.322.331.678.943,1.587,2.053,2.694,1.75,3.656a13.689,13.689,0,0,1-1.246,2.655c-.041.071-.083.141-.125.2a22.362,22.362,0,0,0-1.558,2.148c-.549,1.031-.443,1.537-1.234,1.371a4.166,4.166,0,0,1-3-1.52,25.485,25.485,0,0,0-1.988-2.184,11.284,11.284,0,0,0-2.574-1.411s-2.8-.194-3.252.317A6.016,6.016,0,0,1,21.2,57.062a17.166,17.166,0,0,1-2.874.02c-.46,0-2.068-.269-3.721-.568a14.809,14.809,0,0,0,.9-1.786c.15-.493,1.136-4.508.146-5.423s-2.435.274-3.5-1.866a17.986,17.986,0,0,1-1.884-5.2A4.855,4.855,0,0,0,9.1,39.771a7.87,7.87,0,0,1-.839-3.809c.065-1.24.4-3.127-.167-3.958a22.774,22.774,0,0,0-3.343-2.911c-.829-.655-1.123-2.676-1.226-3.01a11.028,11.028,0,0,1,.233-4c.414-1.213,1.513-2.98.7-4.187s-1.993-2.446-2.5-3.285A8.41,8.41,0,0,1,.614,11.143,43.838,43.838,0,0,1,.6,4.982,15.771,15.771,0,0,0,.718,3.309c.145-.033.305-.067.456-.109.473-.111.983-.25,1.5-.391.255-.069.5-.138.765-.217.422-.121.843-.243,1.264-.372.216-.058.43-.123.645-.188.351-.1.692-.2,1.026-.3s.654-.181.957-.264c.151-.042.3-.084.439-.115.28-.073.543-.135.777-.178A66.476,66.476,0,0,1,16.328.5c.915-.046,5.448,2.781,7.942,3.987s6.211,3.566,6.748,3.81a21.786,21.786,0,0,0,2.725.926c.369.065,1.481,1.329,1.481,1.329S38.2,13.193,39,13.925a7.5,7.5,0,0,0,3.046,1.506,13.034,13.034,0,0,1,3.82,2.035c.253.21.6.483,1,.783l.376.279c.215.156.431.321.647.486a13.263,13.263,0,0,1,1.365,1.1,11.009,11.009,0,0,0,2.212,1.477" fill="#e2e6ea"/>
      <path id="Caminho_4315" data-name="Caminho 4315" d="M51.463,21.594a30.38,30.38,0,0,1-3.333.909c-1.114.175-1.411-.2-1.774.66a14.04,14.04,0,0,0-.863,3.285c-.1.932-.609,1.457-1.478,3.3s-1.093,3-1.6,4.083-.377,1.686-1.361,2.512-.854.663-2.536,2.142C36.937,39.868,36.5,40.9,36.64,41.545a.753.753,0,0,0,.03.12A3.9,3.9,0,0,1,36.9,43.9a6.429,6.429,0,0,0-.531,2.369c.143.756,1.063.752.535,1.534s-1.192.8-1.232,1.322.331.678.943,1.587,2.053,2.694,1.75,3.656a13.689,13.689,0,0,1-1.246,2.655c-.041.071-.083.141-.125.2a22.362,22.362,0,0,0-1.558,2.148c-.549,1.031-.443,1.537-1.234,1.371a4.166,4.166,0,0,1-3-1.52,25.485,25.485,0,0,0-1.988-2.184,11.284,11.284,0,0,0-2.574-1.411s-2.8-.194-3.252.317A6.016,6.016,0,0,1,21.2,57.062a17.166,17.166,0,0,1-2.874.02c-.46,0-2.068-.269-3.721-.568a14.809,14.809,0,0,0,.9-1.786c.15-.493,1.136-4.508.146-5.423s-2.435.274-3.5-1.866a17.986,17.986,0,0,1-1.884-5.2A4.855,4.855,0,0,0,9.1,39.771a7.87,7.87,0,0,1-.839-3.809c.065-1.24.4-3.127-.167-3.958a22.774,22.774,0,0,0-3.343-2.911c-.829-.655-1.123-2.676-1.226-3.01a11.028,11.028,0,0,1,.233-4c.414-1.213,1.513-2.98.7-4.187s-1.993-2.446-2.5-3.285A8.41,8.41,0,0,1,.614,11.143,43.838,43.838,0,0,1,.6,4.982,15.771,15.771,0,0,0,.718,3.309c.145-.033.305-.067.456-.109.473-.111.983-.25,1.5-.391.255-.069.5-.138.765-.217.422-.121.843-.243,1.264-.372.216-.058.43-.123.645-.188.351-.1.692-.2,1.026-.3s.654-.181.957-.264c.151-.042.3-.084.439-.115.28-.073.543-.135.777-.178A66.476,66.476,0,0,1,16.328.5c.915-.046,5.448,2.781,7.942,3.987s6.211,3.566,6.748,3.81a21.786,21.786,0,0,0,2.725.926c.369.065,1.481,1.329,1.481,1.329S38.2,13.193,39,13.925a7.5,7.5,0,0,0,3.046,1.506,13.034,13.034,0,0,1,3.82,2.035c.253.21.6.483,1,.783l.376.279c.215.156.431.321.647.486a13.263,13.263,0,0,1,1.365,1.1A11.009,11.009,0,0,0,51.463,21.594Z" fill="none" stroke="#b0b6ba" stroke-width="1"/>
    </g>
  </g>
</svg>
