<?xml version="1.0" encoding="UTF-8"?>
<!-- Generator: Adobe Illustrator 26.0.3, SVG Export Plug-In . SVG Version: 6.00 Build 0)  -->
<svg version="1.1" id="Camada_0_xA0_Imagem_00000021082144723702081060000014710128819979346334_" xmlns="http://www.w3.org/2000/svg" xmlns:xlink="http://www.w3.org/1999/xlink" x="0px" y="0px" viewBox="0 0 840 523" style="" xml:space="preserve">
<style type="text/css">
	.st0{fill:#E2E6EA;stroke:#B0B6BA;stroke-linecap:round;stroke-linejoin:round;stroke-miterlimit:10;}
</style>
<g>
	<path class="st0" d="M79.5,270.5c-1.63,7.98-6.82,11.82-14.45,14.16c-11.14,3.42-18.76,11.39-22.4,22.39   c-2.22,6.71-0.42,13.75,1.42,20.43c1.17,4.26,3.32,8.26,4.34,12.54c1.28,5.37,3.15,10.62,1.29,16.54   c-1.25,3.98-0.91,8.56,1.78,12.45c1.99,2.88,2.28,5.69-0.36,8.59c-0.52,0.57-1.22,1.53-1.59,2.41c-1.18,2.85,1.28,5.81,4.47,5.49   c9.22-0.93,9.06-0.89,11.13,8.47c0.44,1.98,1.07,4.11,1.65,6.09c0.79,2.71,1.41,6.01-1.73,8.5c-3.11,2.47-3.78,5.81-3.22,9.96   c0.63,4.6-0.48,9.07-2.67,13.56c-3.85,7.91-7.99,15.92-6.33,25.44c0.48,2.74-1.06,5.76-2.33,8.48c-1.07,2.3-2.09,4.63-3,7   c-3.14,8.19-2.59,8.99,5.99,8.99c72.33,0,144.67-0.04,217,0.02c22.5,0.02,45,0.31,67.5,0.48c153,1.1,306,0.21,459,0.48   c0.83,0,1.82,0.44,2.87-0.96c-1.13-3.05-1.39-6.13-5.71-8.34c-4.26-2.18-7.09-7.08-10.7-10.64c-1.61-1.59-2.74-3.97-6-3.19   c-1.56,0.38-2.44-1.96-2.89-3.37c-1.21-3.8-4.25-4.73-7.57-5.49c-14.07-3.18-17.83-9.68-19.37-19.51   c-1.35-8.6-1.71-17.38,2.81-25.51c0.71-1.28,1.2-2.79,1.1-4.47c-0.36-6.03-0.29-11.85,5.89-15.6c1.71-1.04,1.38-3.53,0.54-5.38   c-2.27-5.03-4.18-10.3-7.09-14.94c-4.06-6.48-5.24-12.82-2.45-20.09c3.25-8.51,4.76-17.45,6.49-26.39c0.93-4.82,2-10.66,6.51-14.66   c5.54-4.91,7.65-12.13,11.01-18.45c8.04-15.14,16.87-29.89,23.08-45.96c0.93-2.42,1.43-4.48,0.04-7.05   c-3.5-6.47-2.94-13.1,0.51-19.42c0.82-1.5,1.95-2.84,2.42-4.54c2.07-7.46,1.39-9.38-6.03-13.95c-4.33-2.66-5.6-5.67-5.24-11.07   c0.7-10.68,1.77-21.44-2.43-32.1c-2.07-5.25-0.01-11.5,2.69-16.89c2.57-5.13,5.27-10.22,7.44-15.52c1.84-4.48,0.01-6.97-4.92-6.9   c-4.75,0.06-9.06-1.04-12.99-3.58c-5.76-3.71-12.34-2.12-18.52-2.86c-4.71-0.56-8.69-1.29-11.1-6.06   c-0.96-1.91-2.84-3.86-5.39-4.01c-3.42-0.2-5.32-2.3-6.45-5.06c-2.88-7.02-6.81-12.35-16.04-10.18c0-13.3,0-25.8,0-38.8   c-204.17,0-407.83,0-612,0c0,1.67,0,3.33,0,5c0,17-0.36,34.01,0.12,51c0.37,13.01,0.08,26.01,0.46,39   c0.11,3.61-1.23,5.07-4.57,4.47c-9.61-1.72-14.52,4.36-19.62,10.94c-3.35,4.32-3.96,8.67-2.86,13.59   c1.24,5.53,0.26,10.92-1.63,15.96c-2.6,6.9-2.45,13.95-2.34,21.04c0.05,3.04,1.51,5.46,4.95,5.45c3.37-0.01,5.14,1.73,6.55,4.53   c1.64,3.26,3.52,6.42,5.48,9.5c2.07,3.25,2.52,6.34-0.03,9.52c-3.34,4.16-3.41,9.08-2.96,13.99c0.53,5.79-1.61,10.1-6.56,12.98   c-2.96,1.72-5.72,3.42-4.99,7.53"/>
</g>
</svg>