<?xml version="1.0" encoding="UTF-8"?>
<!-- Generator: Adobe Illustrator 26.0.3, SVG Export Plug-In . SVG Version: 6.00 Build 0)  -->
<svg version="1.1" id="Camada_0_xA0_Imagem_00000021082144723702081060000014710128819979346334_" xmlns="http://www.w3.org/2000/svg" xmlns:xlink="http://www.w3.org/1999/xlink" x="0px" y="0px" viewBox="0 0 123.12 73.44" style="" xml:space="preserve">
<style type="text/css">
	.st0{fill:#E2E6EA;stroke:#B0B6BA;stroke-linecap:round;stroke-linejoin:round;stroke-miterlimit:10;}
</style>
<g>
	<path class="st0" d="M13.81,37.23c-0.23,1.11-0.95,1.65-2.01,1.97c-1.55,0.48-2.61,1.59-3.12,3.12c-0.31,0.93-0.06,1.91,0.2,2.84   c0.16,0.59,0.46,1.15,0.6,1.75c0.18,0.75,0.44,1.48,0.18,2.3c-0.17,0.55-0.13,1.19,0.25,1.73c0.28,0.4,0.32,0.79-0.05,1.2   c-0.07,0.08-0.17,0.21-0.22,0.34c-0.16,0.4,0.18,0.81,0.62,0.76c1.28-0.13,1.26-0.12,1.55,1.18c0.06,0.28,0.15,0.57,0.23,0.85   c0.11,0.38,0.2,0.84-0.24,1.18c-0.43,0.34-0.53,0.81-0.45,1.39c0.09,0.64-0.07,1.26-0.37,1.89c-0.54,1.1-1.11,2.22-0.88,3.54   c0.07,0.38-0.15,0.8-0.32,1.18c-0.15,0.32-0.29,0.64-0.42,0.97c-0.44,1.14-0.36,1.25,0.83,1.25c10.07,0,20.13-0.01,30.2,0   c3.13,0,6.26,0.04,9.39,0.07c21.29,0.15,42.59,0.03,63.88,0.07c0.12,0,0.25,0.06,0.4-0.13c-0.16-0.42-0.19-0.85-0.79-1.16   c-0.59-0.3-0.99-0.99-1.49-1.48c-0.22-0.22-0.38-0.55-0.84-0.44c-0.22,0.05-0.34-0.27-0.4-0.47c-0.17-0.53-0.59-0.66-1.05-0.76   c-1.96-0.44-2.48-1.35-2.7-2.72c-0.19-1.2-0.24-2.42,0.39-3.55c0.1-0.18,0.17-0.39,0.15-0.62c-0.05-0.84-0.04-1.65,0.82-2.17   c0.24-0.14,0.19-0.49,0.08-0.75c-0.32-0.7-0.58-1.43-0.99-2.08c-0.57-0.9-0.73-1.78-0.34-2.8c0.45-1.18,0.66-2.43,0.9-3.67   c0.13-0.67,0.28-1.48,0.91-2.04c0.77-0.68,1.06-1.69,1.53-2.57c1.12-2.11,2.35-4.16,3.21-6.4c0.13-0.34,0.2-0.62,0.01-0.98   c-0.49-0.9-0.41-1.82,0.07-2.7c0.11-0.21,0.27-0.4,0.34-0.63c0.29-1.04,0.19-1.31-0.84-1.94c-0.6-0.37-0.78-0.79-0.73-1.54   c0.1-1.49,0.25-2.98-0.34-4.47c-0.29-0.73,0-1.6,0.37-2.35c0.36-0.71,0.73-1.42,1.04-2.16c0.26-0.62,0-0.97-0.68-0.96   c-0.66,0.01-1.26-0.14-1.81-0.5c-0.8-0.52-1.72-0.3-2.58-0.4c-0.66-0.08-1.21-0.18-1.54-0.84c-0.13-0.27-0.4-0.54-0.75-0.56   c-0.48-0.03-0.74-0.32-0.9-0.7c-0.4-0.98-0.95-1.72-2.23-1.42c0-1.85,0-3.59,0-5.4c-28.42,0-56.76,0-85.18,0c0,0.23,0,0.46,0,0.7   c0,2.37-0.05,4.73,0.02,7.1c0.05,1.81,0.01,3.62,0.06,5.43c0.02,0.5-0.17,0.71-0.64,0.62c-1.34-0.24-2.02,0.61-2.73,1.52   c-0.47,0.6-0.55,1.21-0.4,1.89c0.17,0.77,0.04,1.52-0.23,2.22c-0.36,0.96-0.34,1.94-0.33,2.93c0.01,0.42,0.21,0.76,0.69,0.76   c0.47,0,0.72,0.24,0.91,0.63c0.23,0.45,0.49,0.89,0.76,1.32c0.29,0.45,0.35,0.88,0,1.32c-0.46,0.58-0.47,1.26-0.41,1.95   c0.07,0.81-0.22,1.41-0.91,1.81c-0.41,0.24-0.8,0.48-0.69,1.05"/>
</g>
</svg>