<svg id="Grupo_5590" data-name="Grupo 5590" xmlns="http://www.w3.org/2000/svg" xmlns:xlink="http://www.w3.org/1999/xlink" width="62.792" height="67.968" viewBox="0 0 62.792 67.968">
  <defs>
    <clipPath id="clip-path">
      <rect id="Retângulo_1476" data-name="Retângulo 1476" width="62.792" height="67.968" fill="none"/>
    </clipPath>
  </defs>
  <g id="Grupo_5589" data-name="Grupo 5589" clip-path="url(#clip-path)">
    <path id="Caminho_4282" data-name="Caminho 4282" d="M59.4,4.334c-.4.045-1.517.63-1.77-.261s.53-1.23.75-1.561a19.253,19.253,0,0,0-2.392-.062,10.791,10.791,0,0,0-2.166.47,8.721,8.721,0,0,0-2.438,2.193c-.537.674-1.847.588-2.525.664a1.812,1.812,0,0,1-1.436-.451A2.3,2.3,0,0,0,45.788,5.2c-.624.07.384,1.183.124,1.592s.292.58.133,1.186-1.267-.366-1.267-.366-3.864-.944-4.318-.893a3.606,3.606,0,0,0-1.094.521,2.8,2.8,0,0,1-2.492-.351c-1-.727-.118-1.053-.17-1.513s-.974-1.19-1.445-1.291-.385.657-1.019,1.188-.543-.092-1.4-.915-.367.121-1.215.75-.568,1.823-.636,2.523a.622.622,0,0,1-.7.613l-1.91-.625S26.857,6.341,26.183,5.8s-1.816.2-2.118.239A5.058,5.058,0,0,1,22,5.5c-.973-.424-.349-1.8-.3-2.633A12.926,12.926,0,0,0,21.834.543c-.113-.294-.655.993-1.086,1.961a16.218,16.218,0,0,0-.738,2.915L19.4,7.486a17.286,17.286,0,0,0-.277,2.324,3.612,3.612,0,0,1-.538,1.98c-.494,1.054-1.246.526-1.008,2.645s.726,2.37.383,3.4-1.291,1.445-1.414,3.071.281,2.5.144,3.355-3.024,1.72-3.709,3.1-.689,2.763-1.275,4.362-.948,2.632-1.8,3.114-2.318.488-3.087,1.114-.73,1.688-1.881,2.357-1.765.658-1.68,1.415.476.792.569,1.622a2.791,2.791,0,0,1-.966,3.02,2.848,2.848,0,0,0-.224.24c-.011.013-.028.028-.039.041a2.916,2.916,0,0,0-.236.3,4.692,4.692,0,0,0-.268.4c-.084.126-.167.258-.238.389a1.932,1.932,0,0,0-.106.2,1.914,1.914,0,0,0-.111.215q-.1.2-.209.428c-.069.148-.132.3-.19.438a4.5,4.5,0,0,0-.165.442.292.292,0,0,0-.03.058c-.036.115-.073.223-.115.338q-.11.344-.2.666a.966.966,0,0,0-.042.177c-.034.126-.058.245-.087.365-.009.087-.031.163-.04.244s-.02.155-.036.224A.974.974,0,0,0,.5,49.7c0,.024,0,.055,0,.079a1.021,1.021,0,0,0,0,.111.294.294,0,0,0,0,.1c.111.987.213,1.9.362,2.565s1.023,1.57,1.082,2.1.584,1.16-.166,1.245a.847.847,0,0,0,.153,1.368,7.025,7.025,0,0,0,3.042.5,5.793,5.793,0,0,1-.489,1.815c-.277.264-.967.881-.32,1.188s.646,1,1.655.427-.149-.67,1.38-.695,1.729-.268,2.341.43a15.407,15.407,0,0,0,2.972,1.891c1.158.709,3.678.652,4.219.671a5.684,5.684,0,0,1,2.462.8,2.477,2.477,0,0,0,1.418.993c.958.346,1.372,1.3,2.1,1.983a1.434,1.434,0,0,0,.33-.552,16.538,16.538,0,0,0,.024-1.75c.14-.819,1.541-1.283,2.019-1.833a1.681,1.681,0,0,0,.117-.16.543.543,0,0,0,.063-.093c.019-.045.045-.091.07-.137s.033-.09.058-.135a2.09,2.09,0,0,0,.095-.305.72.72,0,0,0,.038-.152c.065-.289.094-.58.156-.851a6.907,6.907,0,0,1,1-2.295c.407-.469,1.878-.635,2.761-.961s2.427-.929,2.651-.954,1.42-.73,1.723-.764a9.559,9.559,0,0,0,2.1.334c.872-.1.864-.171,1.1-.5A8.869,8.869,0,0,1,38.567,54.9a3.117,3.117,0,0,1,1.384-.622,7.917,7.917,0,0,1,2.155-.242,2.537,2.537,0,0,0,1.644-.369,2.436,2.436,0,0,1,1.836-.023c.4.1,1.582.441,2.186.68s2.065-1.036,2.4-1.2a17.671,17.671,0,0,0,1.883-1.621A6.326,6.326,0,0,0,53.273,50.1c.292-.456-.212-.852-.282-1.151s-.508-1.132-.6-1.545.319-.919.409-1.156a1.432,1.432,0,0,0-.479-1.209c-.324-.153-.766.007-1.354-.424s.029-1.112.231-1.711a11.581,11.581,0,0,1,1.4-1.88,5.977,5.977,0,0,1,1.259-1.061c.352-.309-.237-1.126-.654-1.729A9.457,9.457,0,0,0,51.59,36.5c-.729-.642-.6-.962-.818-1.441s.191-.365.541-1.017-.076-.678-.17-1.514a3.368,3.368,0,0,1,.2-1.665c.117-.319.955-.34,1.142-.361s.966-.3,1.84-.587a2.79,2.79,0,0,0,1.366-.884c.384-.349-.051-.84-.107-.95A9.737,9.737,0,0,1,54.659,27a9.214,9.214,0,0,1-.8-1.18c-.088-.3.695-1.071.776-1.386s-.712-.877-1.034-1.343.405-1.192.768-1.35a1.9,1.9,0,0,1,.793-.089c.193-.022.9.169,1.441.224a.755.755,0,0,0,.814-.281c.245-.224-.14-.6-.415-.965a11.525,11.525,0,0,1-.654-1.024c-.157-.252.479-1.513.479-1.513s1.232.708,1.4.878a14.6,14.6,0,0,0,1.351,1.111c.669.5.72-.081,1.21-.136a12.548,12.548,0,0,1,1.49,0c.063-.314-.528-.6-.55-.8l-.33-2.93c-.09-.805.326-.7.606-.932s-.025-.714-.3-.836-1.192-.682-2.115-1.142-.518-1.83-.455-2.247a8.364,8.364,0,0,0-.027-2.039c-.116-.6-.394-.722-.485-1.533s.138-.629.62-1.3,1.624-1.047,1.924-1.6-1.371-.3-1.771-.26M50.947,28.721c.022.194-.242.3-.44.552s-.094,1.188-.066,1.436.562.575.009.79a13.463,13.463,0,0,1-2.042.536,19.6,19.6,0,0,1-3.02.07c-1.5-.021-2.673.111-3.021.07a.894.894,0,0,1-.487-1.281,5.379,5.379,0,0,1,.706-.864c.136-.151.6-.472.583-.587a2.18,2.18,0,0,1-.074-1.371c.247-.524.7-1.268,1.193-1.324s2.262-.328,2.5-.28a8.9,8.9,0,0,0,1.328.2c.181-.021,1.594-.106,1.594-.106l1.106.948s.115,1.023.136,1.211" fill="#e2e6ea"/>
    <path id="Caminho_4283" data-name="Caminho 4283" d="M59.4,4.334c-.4.045-1.517.63-1.77-.261s.53-1.23.75-1.561a19.253,19.253,0,0,0-2.392-.062,10.791,10.791,0,0,0-2.166.47,8.721,8.721,0,0,0-2.438,2.193c-.537.674-1.847.588-2.525.664a1.812,1.812,0,0,1-1.436-.451A2.3,2.3,0,0,0,45.788,5.2c-.624.07.384,1.183.124,1.592s.292.58.133,1.186-1.267-.366-1.267-.366-3.864-.944-4.318-.893a3.606,3.606,0,0,0-1.094.521,2.8,2.8,0,0,1-2.492-.351c-1-.727-.118-1.053-.17-1.513s-.974-1.19-1.445-1.291-.385.657-1.019,1.188-.543-.092-1.4-.915-.367.121-1.215.75-.568,1.823-.636,2.523a.622.622,0,0,1-.7.613l-1.91-.625S26.857,6.341,26.183,5.8s-1.816.2-2.118.239A5.058,5.058,0,0,1,22,5.5c-.973-.424-.349-1.8-.3-2.633A12.926,12.926,0,0,0,21.834.543c-.113-.294-.655.993-1.086,1.961a16.218,16.218,0,0,0-.738,2.915L19.4,7.486a17.286,17.286,0,0,0-.277,2.324,3.612,3.612,0,0,1-.538,1.98c-.494,1.054-1.246.526-1.008,2.645s.726,2.37.383,3.4-1.291,1.445-1.414,3.071.281,2.5.144,3.355-3.024,1.72-3.709,3.1-.689,2.763-1.275,4.362-.948,2.632-1.8,3.114-2.318.488-3.087,1.114-.73,1.688-1.881,2.357-1.765.658-1.68,1.415.476.792.569,1.622a2.791,2.791,0,0,1-.966,3.02,2.848,2.848,0,0,0-.224.24c-.011.013-.028.028-.039.041a2.916,2.916,0,0,0-.236.3,4.692,4.692,0,0,0-.268.4c-.084.126-.167.258-.238.389a1.932,1.932,0,0,0-.106.2,1.914,1.914,0,0,0-.111.215q-.1.2-.209.428c-.069.148-.132.3-.19.438a4.5,4.5,0,0,0-.165.442.292.292,0,0,0-.03.058c-.036.115-.073.223-.115.338q-.11.344-.2.666a.966.966,0,0,0-.042.177c-.034.126-.058.245-.087.365-.009.087-.031.163-.04.244s-.02.155-.036.224A.974.974,0,0,0,.5,49.7c0,.024,0,.055,0,.079a1.021,1.021,0,0,0,0,.111.294.294,0,0,0,0,.1c.111.987.213,1.9.362,2.565s1.023,1.57,1.082,2.1.584,1.16-.166,1.245a.847.847,0,0,0,.153,1.368,7.025,7.025,0,0,0,3.042.5,5.793,5.793,0,0,1-.489,1.815c-.277.264-.967.881-.32,1.188s.646,1,1.655.427-.149-.67,1.38-.695,1.729-.268,2.341.43a15.407,15.407,0,0,0,2.972,1.891c1.158.709,3.678.652,4.219.671a5.684,5.684,0,0,1,2.462.8,2.477,2.477,0,0,0,1.418.993c.958.346,1.372,1.3,2.1,1.983a1.434,1.434,0,0,0,.33-.552,16.538,16.538,0,0,0,.024-1.75c.14-.819,1.541-1.283,2.019-1.833a1.681,1.681,0,0,0,.117-.16.543.543,0,0,0,.063-.093c.019-.045.045-.091.07-.137s.033-.09.058-.135a2.09,2.09,0,0,0,.095-.305.72.72,0,0,0,.038-.152c.065-.289.094-.58.156-.851a6.907,6.907,0,0,1,1-2.295c.407-.469,1.878-.635,2.761-.961s2.427-.929,2.651-.954,1.42-.73,1.723-.764a9.559,9.559,0,0,0,2.1.334c.872-.1.864-.171,1.1-.5A8.869,8.869,0,0,1,38.567,54.9a3.117,3.117,0,0,1,1.384-.622,7.917,7.917,0,0,1,2.155-.242,2.537,2.537,0,0,0,1.644-.369,2.436,2.436,0,0,1,1.836-.023c.4.1,1.582.441,2.186.68s2.065-1.036,2.4-1.2a17.671,17.671,0,0,0,1.883-1.621A6.326,6.326,0,0,0,53.273,50.1c.292-.456-.212-.852-.282-1.151s-.508-1.132-.6-1.545.319-.919.409-1.156a1.432,1.432,0,0,0-.479-1.209c-.324-.153-.766.007-1.354-.424s.029-1.112.231-1.711a11.581,11.581,0,0,1,1.4-1.88,5.977,5.977,0,0,1,1.259-1.061c.352-.309-.237-1.126-.654-1.729A9.457,9.457,0,0,0,51.59,36.5c-.729-.642-.6-.962-.818-1.441s.191-.365.541-1.017-.076-.678-.17-1.514a3.368,3.368,0,0,1,.2-1.665c.117-.319.955-.34,1.142-.361s.966-.3,1.84-.587a2.79,2.79,0,0,0,1.366-.884c.384-.349-.051-.84-.107-.95A9.737,9.737,0,0,1,54.659,27a9.214,9.214,0,0,1-.8-1.18c-.088-.3.695-1.071.776-1.386s-.712-.877-1.034-1.343.405-1.192.768-1.35a1.9,1.9,0,0,1,.793-.089c.193-.022.9.169,1.441.224a.755.755,0,0,0,.814-.281c.245-.224-.14-.6-.415-.965a11.525,11.525,0,0,1-.654-1.024c-.157-.252.479-1.513.479-1.513s1.232.708,1.4.878a14.6,14.6,0,0,0,1.351,1.111c.669.5.72-.081,1.21-.136a12.548,12.548,0,0,1,1.49,0c.063-.314-.528-.6-.55-.8l-.33-2.93c-.09-.805.326-.7.606-.932s-.025-.714-.3-.836-1.192-.682-2.115-1.142-.518-1.83-.455-2.247a8.364,8.364,0,0,0-.027-2.039c-.116-.6-.394-.722-.485-1.533s.138-.629.62-1.3,1.624-1.047,1.924-1.6S59.8,4.289,59.4,4.334ZM50.947,28.721c.022.194-.242.3-.44.552s-.094,1.188-.066,1.436.562.575.009.79a13.463,13.463,0,0,1-2.042.536,19.6,19.6,0,0,1-3.02.07c-1.5-.021-2.673.111-3.021.07a.894.894,0,0,1-.487-1.281,5.379,5.379,0,0,1,.706-.864c.136-.151.6-.472.583-.587a2.18,2.18,0,0,1-.074-1.371c.247-.524.7-1.268,1.193-1.324s2.262-.328,2.5-.28a8.9,8.9,0,0,0,1.328.2c.181-.021,1.594-.106,1.594-.106l1.106.948S50.926,28.533,50.947,28.721Z" fill="none" stroke="#b0b6ba" stroke-width="1"/>
  </g>
</svg>
