<svg xmlns="http://www.w3.org/2000/svg" xmlns:xlink="http://www.w3.org/1999/xlink" width="43.659" height="65.664" viewBox="0 0 43.659 65.664">
  <defs>
    <clipPath id="clip-path">
      <rect id="Retângulo_1494" data-name="Retângulo 1494" width="43.659" height="65.664" transform="translate(0 0)" fill="none"/>
    </clipPath>
  </defs>
  <g id="Grupo_5626" data-name="Grupo 5626" transform="translate(0 0)">
    <g id="Grupo_5625" data-name="Grupo 5625" clip-path="url(#clip-path)">
      <path id="Caminho_4318" data-name="Caminho 4318" d="M43.115,10.429c-.029.279-.055.549-.088.758a4.58,4.58,0,0,1-1.209,1.891,16,16,0,0,1-1.448,1.351,5.032,5.032,0,0,1-1.848.872,11.012,11.012,0,0,0-1.049,1.442c-.456.771.1.868.147,1.307a3.514,3.514,0,0,1-.647,1.691c-.339.6-1.006,1.615-1.006,1.615a5.649,5.649,0,0,1,.219.579c.147.432.758.831.754,1.126a1.953,1.953,0,0,1-.381.979,1.635,1.635,0,0,0,.019,1.378,6.457,6.457,0,0,0,.845,1.27A3.975,3.975,0,0,1,38,28.322a1.527,1.527,0,0,1-.455.986c-.258.319-.842.661-1.112,1.215s.169,3.041.221,3.5.61.436.783.557a2.331,2.331,0,0,0,.969.3c.392.035.615.436.745.716a4.043,4.043,0,0,1-.1,1.414,4.377,4.377,0,0,1-.7,1.4c-.3.482-.967.225-1.371.29s-.832.584-1.53.953a1.678,1.678,0,0,1-1.55-.1,5.823,5.823,0,0,1-.513-.569c-.118-.179-1.274.106-1.907.392s-.519.582-.755,1.058a6.428,6.428,0,0,1-1.742,1.525c-.594.417-1.42,1.717-2.265,2.359a18.231,18.231,0,0,1-2.974,1.462,4.43,4.43,0,0,0-.372.318,14,14,0,0,0-1.088,1.1,2.43,2.43,0,0,0-.592,1.47,8.822,8.822,0,0,1-.094,1.784c-.1.812-.846,2.336-.935,3.127s-.531.976-.84,1.343a1.663,1.663,0,0,0-.476,1.34,7.767,7.767,0,0,0,.352,1.383s.634.981.821,1.231a2.032,2.032,0,0,1,.143.938c.015.134.429,1.023.517,1.308s-.3.619-.343.74-.011,1.812.013,2.356a1.9,1.9,0,0,1-.191.92s-1.987.008-2.121.024a2.084,2.084,0,0,1-.912-.66c-.3-.337-.339-.935-.523-1.322a.82.82,0,0,0-.543-.5c-.1-.032-.823-.418-.858-.723s.655-.911.681-1.012-.108-.3-.4-.988-.531-.235-.759-.345-.991-.16-1.275-.4-.228-.658-.44-1.162-.418-.225-.671-.393a1.152,1.152,0,0,1-.343-.639c.288-.561.46-1.109.735-1.781a8.45,8.45,0,0,0,.28-1.669c.16-.659.43-.343.805-.619s.813-.091.984-.111.412-1.038.274-1.724a6.19,6.19,0,0,0-.749-1.964c-.277-.376-1.067-.17-1.8.09a3.852,3.852,0,0,0-1.493,1.277c-.152.19-1.258-1.323-1.472-1.645S8.831,47.84,8.479,47.29a2.769,2.769,0,0,1-.451-1.437c-.062-.549-.137-.134-.586.038a1.429,1.429,0,0,1-1.262-.326c-.379-.252.888-.923,1.365-1.383s.5-3.5.5-3.5-.114-1.391-.24-1.966-.238-2.658-.383-3.4a6.521,6.521,0,0,0-1.239-2.2,20.7,20.7,0,0,0-2.164-1.567c-.643-.517-.8.147-1.271.143a10.923,10.923,0,0,0-1.441.163l-.71-1.2a4.569,4.569,0,0,0,.382-.637c.527-1.055.886-.979,1.242-1.43a22.756,22.756,0,0,1,2.336-1.606,4.632,4.632,0,0,0,1.178-1.465c.258-.455.486-.925.731-1.322a18.918,18.918,0,0,0,1.049-2.106c.427-.867.17-1.072.287-1.614a14.817,14.817,0,0,1,1.34-2.134,7.44,7.44,0,0,0,.814-2.084c.16-.659.043-1.7.176-2.593a20.448,20.448,0,0,1,1.333-3.246,23.787,23.787,0,0,0,.907-5.949A36.72,36.72,0,0,0,11.995.622c.138.027.277.053.406.076l.225.045c.2.038.4.072.578.108L13.472.9c.09.013.172.032.253.047.655.127,1.124.219,1.32.258a.551.551,0,0,0,.058.012l.033.006c.273.058,1.871.786,2.028.852s.955,1.212,1.173,1.36.536-.177.707-.486a2.189,2.189,0,0,1,1.284-.818c.377-.014,2.087,1.926,2.686,2.589a22.836,22.836,0,0,1,2.309,3.6c-.01.2.034.843.029,1.045s.639.485.639.485l.225-.082a7.463,7.463,0,0,1,1.112-.5c.119.015.439.531.439.531a7.354,7.354,0,0,0,1.447-1.154c.41-.514.588-.506,1.283-.818s1.422.162,2.057.325S35.76,9.372,35.76,9.372s1.444.366,1.56.353a.238.238,0,0,1,.051,0,.144.144,0,0,1,.047,0c.032,0,.075,0,.126,0,.005,0,.014,0,.023,0s.038,0,.057,0a1.8,1.8,0,0,0,.182,0c.122,0,.258,0,.408.006h.112c.244,0,.511.008.773.011.094,0,.188,0,.277,0,.047,0,.093,0,.14,0a.067.067,0,0,0,.028,0l.234,0a.621.621,0,0,0,.122,0c.1.007.2.006.291.005a1.439,1.439,0,0,0,.145,0,.054.054,0,0,0,.028,0c.112,0,.2,0,.262,0a7.9,7.9,0,0,1,2.17.579,1.206,1.206,0,0,0,.319.09" fill="#e2e6ea"/>
      <path id="Caminho_4319" data-name="Caminho 4319" d="M43.115,10.429c-.029.279-.055.549-.088.758a4.58,4.58,0,0,1-1.209,1.891,16,16,0,0,1-1.448,1.351,5.032,5.032,0,0,1-1.848.872,11.012,11.012,0,0,0-1.049,1.442c-.456.771.1.868.147,1.307a3.514,3.514,0,0,1-.647,1.691c-.339.6-1.006,1.615-1.006,1.615a5.649,5.649,0,0,1,.219.579c.147.432.758.831.754,1.126a1.953,1.953,0,0,1-.381.979,1.635,1.635,0,0,0,.019,1.378,6.457,6.457,0,0,0,.845,1.27A3.975,3.975,0,0,1,38,28.322a1.527,1.527,0,0,1-.455.986c-.258.319-.842.661-1.112,1.215s.169,3.041.221,3.5.61.436.783.557a2.331,2.331,0,0,0,.969.3c.392.035.615.436.745.716a4.043,4.043,0,0,1-.1,1.414,4.377,4.377,0,0,1-.7,1.4c-.3.482-.967.225-1.371.29s-.832.584-1.53.953a1.678,1.678,0,0,1-1.55-.1,5.823,5.823,0,0,1-.513-.569c-.118-.179-1.274.106-1.907.392s-.519.582-.755,1.058a6.428,6.428,0,0,1-1.742,1.525c-.594.417-1.42,1.717-2.265,2.359a18.231,18.231,0,0,1-2.974,1.462,4.43,4.43,0,0,0-.372.318,14,14,0,0,0-1.088,1.1,2.43,2.43,0,0,0-.592,1.47,8.822,8.822,0,0,1-.094,1.784c-.1.812-.846,2.336-.935,3.127s-.531.976-.84,1.343a1.663,1.663,0,0,0-.476,1.34,7.767,7.767,0,0,0,.352,1.383s.634.981.821,1.231a2.032,2.032,0,0,1,.143.938c.015.134.429,1.023.517,1.308s-.3.619-.343.74-.011,1.812.013,2.356a1.9,1.9,0,0,1-.191.92s-1.987.008-2.121.024a2.084,2.084,0,0,1-.912-.66c-.3-.337-.339-.935-.523-1.322a.82.82,0,0,0-.543-.5c-.1-.032-.823-.418-.858-.723s.655-.911.681-1.012-.108-.3-.4-.988-.531-.235-.759-.345-.991-.16-1.275-.4-.228-.658-.44-1.162-.418-.225-.671-.393a1.152,1.152,0,0,1-.343-.639c.288-.561.46-1.109.735-1.781a8.45,8.45,0,0,0,.28-1.669c.16-.659.43-.343.805-.619s.813-.091.984-.111.412-1.038.274-1.724a6.19,6.19,0,0,0-.749-1.964c-.277-.376-1.067-.17-1.8.09a3.852,3.852,0,0,0-1.493,1.277c-.152.19-1.258-1.323-1.472-1.645S8.831,47.84,8.479,47.29a2.769,2.769,0,0,1-.451-1.437c-.062-.549-.137-.134-.586.038a1.429,1.429,0,0,1-1.262-.326c-.379-.252.888-.923,1.365-1.383s.5-3.5.5-3.5-.114-1.391-.24-1.966-.238-2.658-.383-3.4a6.521,6.521,0,0,0-1.239-2.2,20.7,20.7,0,0,0-2.164-1.567c-.643-.517-.8.147-1.271.143a10.923,10.923,0,0,0-1.441.163l-.71-1.2a4.569,4.569,0,0,0,.382-.637c.527-1.055.886-.979,1.242-1.43a22.756,22.756,0,0,1,2.336-1.606,4.632,4.632,0,0,0,1.178-1.465c.258-.455.486-.925.731-1.322a18.918,18.918,0,0,0,1.049-2.106c.427-.867.17-1.072.287-1.614a14.817,14.817,0,0,1,1.34-2.134,7.44,7.44,0,0,0,.814-2.084c.16-.659.043-1.7.176-2.593a20.448,20.448,0,0,1,1.333-3.246,23.787,23.787,0,0,0,.907-5.949A36.72,36.72,0,0,0,11.995.622c.138.027.277.053.406.076l.225.045c.2.038.4.072.578.108L13.472.9c.09.013.172.032.253.047.655.127,1.124.219,1.32.258a.551.551,0,0,0,.058.012l.033.006c.273.058,1.871.786,2.028.852s.955,1.212,1.173,1.36.536-.177.707-.486a2.189,2.189,0,0,1,1.284-.818c.377-.014,2.087,1.926,2.686,2.589a22.836,22.836,0,0,1,2.309,3.6c-.01.2.034.843.029,1.045s.639.485.639.485l.225-.082a7.463,7.463,0,0,1,1.112-.5c.119.015.439.531.439.531a7.354,7.354,0,0,0,1.447-1.154c.41-.514.588-.506,1.283-.818s1.422.162,2.057.325S35.76,9.372,35.76,9.372s1.444.366,1.56.353a.238.238,0,0,1,.051,0,.144.144,0,0,1,.047,0c.032,0,.075,0,.126,0,.005,0,.014,0,.023,0s.038,0,.057,0a1.8,1.8,0,0,0,.182,0c.122,0,.258,0,.408.006h.112c.244,0,.511.008.773.011.094,0,.188,0,.277,0,.047,0,.093,0,.14,0a.067.067,0,0,0,.028,0l.234,0a.621.621,0,0,0,.122,0c.1.007.2.006.291.005a1.439,1.439,0,0,0,.145,0,.054.054,0,0,0,.028,0c.112,0,.2,0,.262,0a7.9,7.9,0,0,1,2.17.579A1.206,1.206,0,0,0,43.115,10.429Z" fill="none" stroke="#b0b6ba" stroke-width="1"/>
    </g>
  </g>
</svg>
