<svg xmlns="http://www.w3.org/2000/svg" xmlns:xlink="http://www.w3.org/1999/xlink" width="83.054" height="66.745" viewBox="0 0 83.054 66.745">
  <defs>
    <clipPath id="clip-path">
      <rect id="Retângulo_1473" data-name="Retângulo 1473" width="83.054" height="66.745" transform="translate(0 0)" fill="none"/>
    </clipPath>
  </defs>
  <g id="Grupo_5584" data-name="Grupo 5584" transform="translate(0 0)">
    <g id="Grupo_5583" data-name="Grupo 5583" clip-path="url(#clip-path)">
      <path id="Caminho_4276" data-name="Caminho 4276" d="M82.32,16.271c-.289.25-1.746.709-2.08,1.043a11.39,11.39,0,0,0-1.246,1.621c-.205.374.873.623.668,1.2s-.373.833-1,1-1.122.5-1.207.793a6.008,6.008,0,0,0-.084,1.327,1.861,1.861,0,0,0,.25,1.331c.334.414.668.708,1.042,1.162a12.256,12.256,0,0,1,1.5,2.2c0,.25-.209.789-.085,1.083L77.46,28.7a7.873,7.873,0,0,0-1.122,1.247c-.065.25.185.439-.374.375s-.623-.165-1.122.01-1.621.364-1.621.923,0,1.5.375,1.686a1.378,1.378,0,0,1,.748,1c.065.439.564.688.065,1.247s-2.184.374-1.626.688,1.936,1.057,2,1.556.813.873.065,2.055-1.371,2.245-1.68,2.744-.229,1.745-.489,1.935a12.915,12.915,0,0,0-1.446,1.372c-.438.5-.748.249-1.5.564s-1.686.434-1.685.868a12.244,12.244,0,0,0,.439,2.184c.01.025.015.055.025.085-.474.245-.918.559-1.022.913-.249.833-.584.624-1.162,1.581a6.321,6.321,0,0,0-.748,1.5c-.169.414-.334,1.122-.543,1.576s-.623.918-.374,1.581.14,1-.074,1.122a5.5,5.5,0,0,1-.923.29s-3.117.584-3.491,1.208-.788,1.122-1.077,1.082-1.167-.374-1.746-.458a7.53,7.53,0,0,0-2.414-.289c-.05.01-.1.03-.174.05-.035.01-.075.02-.115.035-.309.1-.753.259-1.242.434-.06.02-.12.045-.184.07-.245.085-.5.18-.749.27-.279.1-.553.194-.8.279-.08.03-.16.055-.235.08-.264.085-.489.155-.653.195-.873.209-3.491.873-3.491.873l-.873.778-1,.25a13.148,13.148,0,0,0-1.152.938,2.12,2.12,0,0,1-1.312.4,10.169,10.169,0,0,1-1.556-.064,1.465,1.465,0,0,0-1.092.19c-.439.154-.559.593-.808,1.247a2.719,2.719,0,0,1-.439.843,14.961,14.961,0,0,1-2.933-.344,2.539,2.539,0,0,1-1.027-.4,3.883,3.883,0,0,1-.684-1.935c-.065-.5-.748-.778-.9-.872a3.277,3.277,0,0,1-.748-1.621c-.13-.748-.065-.559.029-.778a3.952,3.952,0,0,0-.065-1.347A3.919,3.919,0,0,1,32.7,57.7a4.24,4.24,0,0,1,.967-1.087,2.4,2.4,0,0,0,.5-1.247c0-.19-.624-.908-1.965-.907s-.843.249-1.123.219a6.141,6.141,0,0,1-.808,0,13,13,0,0,1-.718-1.65c-.25-.469-.749-2.245-.47-2.743a2.636,2.636,0,0,0,.344-1.038.886.886,0,0,0-.439-1.022c-.184-.12-1-.618-.933-.838s.808-1.187.778-1.372a4.066,4.066,0,0,0-1.307-1.56,1.384,1.384,0,0,0-.908-.09,4.393,4.393,0,0,0-.683-.379,5.861,5.861,0,0,0-1.5.469c-.654.315-.564.439-.748.564a1.1,1.1,0,0,1-.813.125,5.139,5.139,0,0,0-1.217-.219c-.215,0-.434.309-.529.344s-1.776.06-2.429.215a1.837,1.837,0,0,1-1.217-.154l-.374.124-.374.624s-.623.564-.748.718-.249-.653-.279-1.062-.719.095-.719.095a11.209,11.209,0,0,1-1.062.624c-.184.065-.279-.684-.309-1.028s-.155-.937-.22-1.466-.279-.4-.279-.4a15.683,15.683,0,0,0-1.686-.184,14.867,14.867,0,0,0-2.025.434,16.125,16.125,0,0,1-1.776,0,3.381,3.381,0,0,1-1.775-.843c-.19-.279-1.187-.433-1.372-.433s-.653.464-1.062.653a2.782,2.782,0,0,0-.364.235.683.683,0,0,0-.1.075c-.09.064-.19.139-.294.214s-.19.145-.285.22c-.119.089-.244.184-.364.279-.074.055-.144.11-.214.165-.015.01-.03.025-.045.035-.055.044-.105.084-.154.119q-.165.135-.3.24c-.045.035-.084.065-.119.09l-.015.014c-.045.035-.08.07-.115.1,0,0-.01,0-.015.01-.03.025-.06.05-.08.065a.548.548,0,0,1-.05.04l0,.005S.75,44.056.749,43.806.5,42.495.5,42.091s.5-.624,1.122-1.153a1.1,1.1,0,0,0,.314-.419c.184-.439.044-.932.184-1.421.184-.654,1.371-.9,1.805-1.308a.769.769,0,0,0,.11-.119.263.263,0,0,0,.06-.07c.025-.035.05-.07.07-.105s.039-.07.059-.1a1.706,1.706,0,0,0,.11-.24,1.171,1.171,0,0,0,.045-.12c.08-.229.129-.463.2-.678A5.666,5.666,0,0,1,5.61,34.578c.374-.344,1.586-.344,2.334-.529s2.06-.534,2.245-.534,1.216-.464,1.466-.464a7.982,7.982,0,0,0,1.686.463c.718,0,.718-.06.932-.309a7.641,7.641,0,0,1,1.372-.874,2.587,2.587,0,0,1,1.187-.379,6.483,6.483,0,0,1,1.775,0,2.087,2.087,0,0,0,1.372-.15,1.994,1.994,0,0,1,1.5.149c.314.12,1.247.5,1.716.753s1.775-.654,2.055-.754A14.383,14.383,0,0,0,26.931,30.8a5.3,5.3,0,0,0,1.122-1.033c.279-.344-.095-.713-.125-.963s-.314-.967-.344-1.311.344-.718.439-.9a1.2,1.2,0,0,0-.285-1.027c-.249-.155-.623-.065-1.058-.469s.125-.9.344-1.372,1.028-1.057,1.307-1.4a4.8,4.8,0,0,1,1.122-.748c.314-.22-.095-.938-.375-1.466a7.675,7.675,0,0,0-1.152-1.561c-.534-.588-.4-.838-.534-1.247s.189-.279.533-.778,0-.559,0-1.247a2.787,2.787,0,0,1,.309-1.337c.125-.249.813-.189.968-.189s.813-.155,1.546-.31a2.328,2.328,0,0,0,1.2-.594c.344-.249.029-.688,0-.783a7.8,7.8,0,0,1-.653-.962,8.424,8.424,0,0,1-.544-1.032c-.045-.25.668-.809.763-1.058s-.5-.778-.719-1.187.434-.933.748-1.028a1.553,1.553,0,0,1,.654,0c.154,0,.718.219,1.147.314a.625.625,0,0,0,.693-.155c.219-.159-.065-.5-.25-.822s-.344-.674-.444-.893.534-1.187.534-1.187.938.688,1.062.842a12.074,12.074,0,0,0,1,1.028c.5.468.594,0,1,0a10.286,10.286,0,0,1,1.207.135c-.085.249-.335.124-.544.793s-.578,1.287-.289,1.327a4.967,4.967,0,0,0,1.955-.5c.165-.2,2.159-1.91,2.449-2.2a11.456,11.456,0,0,1,1.62-1.247,13.723,13.723,0,0,1,2.289-.793l.285-.17.962-.579a13.2,13.2,0,0,1,2.7-1.916A12.166,12.166,0,0,1,53.1.567a9.008,9.008,0,0,1,1.038.957,1.514,1.514,0,0,1-.249.873c-.29.459-.708.958-.459,1.536A1.866,1.866,0,0,0,54.6,5.14c.539.125,1.078.374,1.372.124s.454-.957.952-1.207.374-.873,1.666-.539a4.48,4.48,0,0,1,2.245,1.247,3.359,3.359,0,0,0,1.621,1.206,23.277,23.277,0,0,1,2.409,1.371,5.438,5.438,0,0,0,1.372.454,7.6,7.6,0,0,0,2.08-.415c.249-.249.5-.414.748-.334a9.391,9.391,0,0,1,1,.543l1.7,3.033a4.573,4.573,0,0,0,.17,1.122c.125.209,1.5.413,1.5.413s.664-.124.748-.329-.085-.544.663-.5.709-.17,1.706.2,1.287.294,1.327.623.793.748,1.167.748a3.59,3.59,0,0,1,1.871.374c.5.374,1.077.583,1.412,1.331s.289,1.412,0,1.661" fill="#e2e6ea"/>
      <path id="Caminho_4277" data-name="Caminho 4277" d="M82.32,16.271c-.289.25-1.746.709-2.08,1.043a11.39,11.39,0,0,0-1.246,1.621c-.205.374.873.623.668,1.2s-.373.833-1,1-1.122.5-1.207.793a6.008,6.008,0,0,0-.084,1.327,1.861,1.861,0,0,0,.25,1.331c.334.414.668.708,1.042,1.162a12.256,12.256,0,0,1,1.5,2.2c0,.25-.209.789-.085,1.083L77.46,28.7a7.873,7.873,0,0,0-1.122,1.247c-.065.25.185.439-.374.375s-.623-.165-1.122.01-1.621.364-1.621.923,0,1.5.375,1.686a1.378,1.378,0,0,1,.748,1c.065.439.564.688.065,1.247s-2.184.374-1.626.688,1.936,1.057,2,1.556.813.873.065,2.055-1.371,2.245-1.68,2.744-.229,1.745-.489,1.935a12.915,12.915,0,0,0-1.446,1.372c-.438.5-.748.249-1.5.564s-1.686.434-1.685.868a12.244,12.244,0,0,0,.439,2.184c.01.025.015.055.025.085-.474.245-.918.559-1.022.913-.249.833-.584.624-1.162,1.581a6.321,6.321,0,0,0-.748,1.5c-.169.414-.334,1.122-.543,1.576s-.623.918-.374,1.581.14,1-.074,1.122a5.5,5.5,0,0,1-.923.29s-3.117.584-3.491,1.208-.788,1.122-1.077,1.082-1.167-.374-1.746-.458a7.53,7.53,0,0,0-2.414-.289c-.05.01-.1.03-.174.05-.035.01-.075.02-.115.035-.309.1-.753.259-1.242.434-.06.02-.12.045-.184.07-.245.085-.5.18-.749.27-.279.1-.553.194-.8.279-.08.03-.16.055-.235.08-.264.085-.489.155-.653.195-.873.209-3.491.873-3.491.873l-.873.778-1,.25a13.148,13.148,0,0,0-1.152.938,2.12,2.12,0,0,1-1.312.4,10.169,10.169,0,0,1-1.556-.064,1.465,1.465,0,0,0-1.092.19c-.439.154-.559.593-.808,1.247a2.719,2.719,0,0,1-.439.843,14.961,14.961,0,0,1-2.933-.344,2.539,2.539,0,0,1-1.027-.4,3.883,3.883,0,0,1-.684-1.935c-.065-.5-.748-.778-.9-.872a3.277,3.277,0,0,1-.748-1.621c-.13-.748-.065-.559.029-.778a3.952,3.952,0,0,0-.065-1.347A3.919,3.919,0,0,1,32.7,57.7a4.24,4.24,0,0,1,.967-1.087,2.4,2.4,0,0,0,.5-1.247c0-.19-.624-.908-1.965-.907s-.843.249-1.123.219a6.141,6.141,0,0,1-.808,0,13,13,0,0,1-.718-1.65c-.25-.469-.749-2.245-.47-2.743a2.636,2.636,0,0,0,.344-1.038.886.886,0,0,0-.439-1.022c-.184-.12-1-.618-.933-.838s.808-1.187.778-1.372a4.066,4.066,0,0,0-1.307-1.56,1.384,1.384,0,0,0-.908-.09,4.393,4.393,0,0,0-.683-.379,5.861,5.861,0,0,0-1.5.469c-.654.315-.564.439-.748.564a1.1,1.1,0,0,1-.813.125,5.139,5.139,0,0,0-1.217-.219c-.215,0-.434.309-.529.344s-1.776.06-2.429.215a1.837,1.837,0,0,1-1.217-.154l-.374.124-.374.624s-.623.564-.748.718-.249-.653-.279-1.062-.719.095-.719.095a11.209,11.209,0,0,1-1.062.624c-.184.065-.279-.684-.309-1.028s-.155-.937-.22-1.466-.279-.4-.279-.4a15.683,15.683,0,0,0-1.686-.184,14.867,14.867,0,0,0-2.025.434,16.125,16.125,0,0,1-1.776,0,3.381,3.381,0,0,1-1.775-.843c-.19-.279-1.187-.433-1.372-.433s-.653.464-1.062.653a2.782,2.782,0,0,0-.364.235.683.683,0,0,0-.1.075c-.09.064-.19.139-.294.214s-.19.145-.285.22c-.119.089-.244.184-.364.279-.074.055-.144.11-.214.165-.015.01-.03.025-.045.035-.055.044-.105.084-.154.119q-.165.135-.3.24c-.045.035-.084.065-.119.09l-.015.014c-.045.035-.08.07-.115.1,0,0-.01,0-.015.01-.03.025-.06.05-.08.065a.548.548,0,0,1-.05.04l0,.005S.75,44.056.749,43.806.5,42.495.5,42.091s.5-.624,1.122-1.153a1.1,1.1,0,0,0,.314-.419c.184-.439.044-.932.184-1.421.184-.654,1.371-.9,1.805-1.308a.769.769,0,0,0,.11-.119.263.263,0,0,0,.06-.07c.025-.035.05-.07.07-.105s.039-.07.059-.1a1.706,1.706,0,0,0,.11-.24,1.171,1.171,0,0,0,.045-.12c.08-.229.129-.463.2-.678A5.666,5.666,0,0,1,5.61,34.578c.374-.344,1.586-.344,2.334-.529s2.06-.534,2.245-.534,1.216-.464,1.466-.464a7.982,7.982,0,0,0,1.686.463c.718,0,.718-.06.932-.309a7.641,7.641,0,0,1,1.372-.874,2.587,2.587,0,0,1,1.187-.379,6.483,6.483,0,0,1,1.775,0,2.087,2.087,0,0,0,1.372-.15,1.994,1.994,0,0,1,1.5.149c.314.12,1.247.5,1.716.753s1.775-.654,2.055-.754A14.383,14.383,0,0,0,26.931,30.8a5.3,5.3,0,0,0,1.122-1.033c.279-.344-.095-.713-.125-.963s-.314-.967-.344-1.311.344-.718.439-.9a1.2,1.2,0,0,0-.285-1.027c-.249-.155-.623-.065-1.058-.469s.125-.9.344-1.372,1.028-1.057,1.307-1.4a4.8,4.8,0,0,1,1.122-.748c.314-.22-.095-.938-.375-1.466a7.675,7.675,0,0,0-1.152-1.561c-.534-.588-.4-.838-.534-1.247s.189-.279.533-.778,0-.559,0-1.247a2.787,2.787,0,0,1,.309-1.337c.125-.249.813-.189.968-.189s.813-.155,1.546-.31a2.328,2.328,0,0,0,1.2-.594c.344-.249.029-.688,0-.783a7.8,7.8,0,0,1-.653-.962,8.424,8.424,0,0,1-.544-1.032c-.045-.25.668-.809.763-1.058s-.5-.778-.719-1.187.434-.933.748-1.028a1.553,1.553,0,0,1,.654,0c.154,0,.718.219,1.147.314a.625.625,0,0,0,.693-.155c.219-.159-.065-.5-.25-.822s-.344-.674-.444-.893.534-1.187.534-1.187.938.688,1.062.842a12.074,12.074,0,0,0,1,1.028c.5.468.594,0,1,0a10.286,10.286,0,0,1,1.207.135c-.085.249-.335.124-.544.793s-.578,1.287-.289,1.327a4.967,4.967,0,0,0,1.955-.5c.165-.2,2.159-1.91,2.449-2.2a11.456,11.456,0,0,1,1.62-1.247,13.723,13.723,0,0,1,2.289-.793l.285-.17.962-.579a13.2,13.2,0,0,1,2.7-1.916A12.166,12.166,0,0,1,53.1.567a9.008,9.008,0,0,1,1.038.957,1.514,1.514,0,0,1-.249.873c-.29.459-.708.958-.459,1.536A1.866,1.866,0,0,0,54.6,5.14c.539.125,1.078.374,1.372.124s.454-.957.952-1.207.374-.873,1.666-.539a4.48,4.48,0,0,1,2.245,1.247,3.359,3.359,0,0,0,1.621,1.206,23.277,23.277,0,0,1,2.409,1.371,5.438,5.438,0,0,0,1.372.454,7.6,7.6,0,0,0,2.08-.415c.249-.249.5-.414.748-.334a9.391,9.391,0,0,1,1,.543l1.7,3.033a4.573,4.573,0,0,0,.17,1.122c.125.209,1.5.413,1.5.413s.664-.124.748-.329-.085-.544.663-.5.709-.17,1.706.2,1.287.294,1.327.623.793.748,1.167.748a3.59,3.59,0,0,1,1.871.374c.5.374,1.077.583,1.412,1.331S82.609,16.022,82.32,16.271Z" fill="none" stroke="#b0b6ba" stroke-width="1"/>
    </g>
  </g>
</svg>
