<svg xmlns="http://www.w3.org/2000/svg" xmlns:xlink="http://www.w3.org/1999/xlink" width="69.614" height="68.177" viewBox="0 0 69.614 68.177">
  <defs>
    <clipPath id="clip-path">
      <rect id="Retângulo_1477" data-name="Retângulo 1477" width="69.614" height="68.177" transform="translate(0 -0.001)" fill="none"/>
    </clipPath>
  </defs>
  <g id="Grupo_5592" data-name="Grupo 5592" transform="translate(0 0.001)">
    <g id="Grupo_5591" data-name="Grupo 5591" clip-path="url(#clip-path)">
      <path id="Caminho_4284" data-name="Caminho 4284" d="M67.715,27.865c0,.326.178,1.67.178,1.67s-.93,2.065-1.171,2.062-2.606.04-3.436,1.09-.613,2.759-.627,3.658.641,1.638-.062,2.032S61.838,37.31,60.51,39s-1.843,2.175-1.595,2.583a7.977,7.977,0,0,1,.3,2.121,7.908,7.908,0,0,0-1.561.714,1.849,1.849,0,0,0-.429,1.7c.155.491-.17.473-1.323,1.317s-2.628,1.558-3.038,1.956l-.053.051c-.112.1-.336.294-.64.557-.086.077-.185.16-.29.25-.152.135-.323.276-.5.429-.093.084-.192.167-.3.25-1,.852-2.249,1.883-3.251,2.682-.093.071-.178.141-.264.211h-.006c-.073.058-.139.116-.211.167-.132.1-.258.2-.376.287a.219.219,0,0,1-.046.039,2.718,2.718,0,0,1-.237.172c-.073.051-.138.1-.2.147-.125.089-.231.153-.3.2a24.334,24.334,0,0,0-3.709,2.8A7.387,7.387,0,0,0,41.462,60.3c-.005.326.314.826-.423,1.3s-1.555.3-1.811,1.361-.188,1.711-.447,2.515-.016,1.062-1,1.614a4.655,4.655,0,0,1-1.963.584c-.151-.367-.909-1.557-.952-1.721a6.081,6.081,0,0,0-2.4.043c-.328.158-1.522.714-1.89.95s-2.279-.112-3.78-.381-1.206-.832-1.2-1.438a5.436,5.436,0,0,0-.83-2.051c-.392-.82.107-1.542.113-1.992a3.953,3.953,0,0,0-.176-1.716c-.277-.694-.845-1.068-.87-2.006s.384-1.337.522-2.312-.474-1.023-.548-1.311-.269-1.189-.383-1.842-1.284-1.322-2.169-1.817-.821-.012-1.388-.021A3.628,3.628,0,0,1,17.568,49a1.9,1.9,0,0,0-1.453-.914c-.488-.007-.63,1.209-1.859,1.478s-5.289-.077-6.3-.092a3.706,3.706,0,0,1-2.585-1.451c-.679-.773-.651.016-1.426-.034s-1.264.02-1.993-.029-.6-.863-.069-1.057.6-1.581.606-2.271-.356-.579-.634-1.195.381-1.089.381-1.089.685-2.309,1-3.934a6.421,6.421,0,0,0-.517-3.8,16.2,16.2,0,0,0-1.63-2.59c-.715-1.027-.6-3.547-.518-3.793s2.249-.573,2.249-.573a.935.935,0,0,0-.06-1.226c-.564-.62-1.332-.71-1.82-1.206s-.023-1.1.192-1.547S3.178,19.392,3.553,18.7s.936.138,1.3.019.223-1.417.034-2.358-.353-.819-.31-1.06.43-1.746.656-3.007.546-1.21.836-1.453.986-.637.949-1.166-.877-1.113-1.393-1.9a3.264,3.264,0,0,1-.338-1.81c.254,0,.521,0,.808-.014a6.016,6.016,0,0,0,2.611-.366,12.353,12.353,0,0,0,4.049-3.771c.837-1.539,2.695-.287,3.5-.275s.9-.065,1.312-.632S18.8.525,19.7.538a45.868,45.868,0,0,1,5.346,1.537c.324.09,3.07,2.084,4.613,2.191s1.393-.39,1.639-.712a6.986,6.986,0,0,1,2.863-1.1c1.392-.306,1.369,1.245,2.014,1.736a8.71,8.71,0,0,0,1.316.84,3.75,3.75,0,0,0,1.536-1.2c.421-.724.831-.718.831-.718A24.417,24.417,0,0,1,42.5.871c.241,0,.777,2.122.767,2.773s-.582,1.054-1.158,1.7a3.071,3.071,0,0,0-.843,1.531,4.256,4.256,0,0,0,1.364,1.571c.242,0,1.957-.135,2.367-.128s2.423.927,3.244.939a.906.906,0,0,0-.022,1.472,7.5,7.5,0,0,0,3.16.939,6.224,6.224,0,0,1-.764,1.859c-.329.242-1.145.8-.5,1.217s.551,1.148,1.7.676-.067-.73,1.559-.55,1.871-.051,2.425.771a16.486,16.486,0,0,0,2.9,2.408c1.133.909,3.813,1.189,4.385,1.282a6.06,6.06,0,0,1,2.5,1.177,2.647,2.647,0,0,0,1.37,1.244c.97.5,1.28,1.563,1.958,2.387-.824.679-1.479.956-1.487,1.484s.3,1.919.293,2.245" fill="#e2e6ea"/>
      <path id="Caminho_4285" data-name="Caminho 4285" d="M67.715,27.865c0,.326.178,1.67.178,1.67s-.93,2.065-1.171,2.062-2.606.04-3.436,1.09-.613,2.759-.627,3.658.641,1.638-.062,2.032S61.838,37.31,60.51,39s-1.843,2.175-1.595,2.583a7.977,7.977,0,0,1,.3,2.121,7.908,7.908,0,0,0-1.561.714,1.849,1.849,0,0,0-.429,1.7c.155.491-.17.473-1.323,1.317s-2.628,1.558-3.038,1.956l-.053.051c-.112.1-.336.294-.64.557-.086.077-.185.16-.29.25-.152.135-.323.276-.5.429-.093.084-.192.167-.3.25-1,.852-2.249,1.883-3.251,2.682-.093.071-.178.141-.264.211h-.006c-.073.058-.139.116-.211.167-.132.1-.258.2-.376.287a.219.219,0,0,1-.046.039,2.718,2.718,0,0,1-.237.172c-.073.051-.138.1-.2.147-.125.089-.231.153-.3.2a24.334,24.334,0,0,0-3.709,2.8A7.387,7.387,0,0,0,41.462,60.3c-.005.326.314.826-.423,1.3s-1.555.3-1.811,1.361-.188,1.711-.447,2.515-.016,1.062-1,1.614a4.655,4.655,0,0,1-1.963.584c-.151-.367-.909-1.557-.952-1.721a6.081,6.081,0,0,0-2.4.043c-.328.158-1.522.714-1.89.95s-2.279-.112-3.78-.381-1.206-.832-1.2-1.438a5.436,5.436,0,0,0-.83-2.051c-.392-.82.107-1.542.113-1.992a3.953,3.953,0,0,0-.176-1.716c-.277-.694-.845-1.068-.87-2.006s.384-1.337.522-2.312-.474-1.023-.548-1.311-.269-1.189-.383-1.842-1.284-1.322-2.169-1.817-.821-.012-1.388-.021A3.628,3.628,0,0,1,17.568,49a1.9,1.9,0,0,0-1.453-.914c-.488-.007-.63,1.209-1.859,1.478s-5.289-.077-6.3-.092a3.706,3.706,0,0,1-2.585-1.451c-.679-.773-.651.016-1.426-.034s-1.264.02-1.993-.029-.6-.863-.069-1.057.6-1.581.606-2.271-.356-.579-.634-1.195.381-1.089.381-1.089.685-2.309,1-3.934a6.421,6.421,0,0,0-.517-3.8,16.2,16.2,0,0,0-1.63-2.59c-.715-1.027-.6-3.547-.518-3.793s2.249-.573,2.249-.573a.935.935,0,0,0-.06-1.226c-.564-.62-1.332-.71-1.82-1.206s-.023-1.1.192-1.547S3.178,19.392,3.553,18.7s.936.138,1.3.019.223-1.417.034-2.358-.353-.819-.31-1.06.43-1.746.656-3.007.546-1.21.836-1.453.986-.637.949-1.166-.877-1.113-1.393-1.9a3.264,3.264,0,0,1-.338-1.81c.254,0,.521,0,.808-.014a6.016,6.016,0,0,0,2.611-.366,12.353,12.353,0,0,0,4.049-3.771c.837-1.539,2.695-.287,3.5-.275s.9-.065,1.312-.632S18.8.525,19.7.538a45.868,45.868,0,0,1,5.346,1.537c.324.09,3.07,2.084,4.613,2.191s1.393-.39,1.639-.712a6.986,6.986,0,0,1,2.863-1.1c1.392-.306,1.369,1.245,2.014,1.736a8.71,8.71,0,0,0,1.316.84,3.75,3.75,0,0,0,1.536-1.2c.421-.724.831-.718.831-.718A24.417,24.417,0,0,1,42.5.871c.241,0,.777,2.122.767,2.773s-.582,1.054-1.158,1.7a3.071,3.071,0,0,0-.843,1.531,4.256,4.256,0,0,0,1.364,1.571c.242,0,1.957-.135,2.367-.128s2.423.927,3.244.939a.906.906,0,0,0-.022,1.472,7.5,7.5,0,0,0,3.16.939,6.224,6.224,0,0,1-.764,1.859c-.329.242-1.145.8-.5,1.217s.551,1.148,1.7.676-.067-.73,1.559-.55,1.871-.051,2.425.771a16.486,16.486,0,0,0,2.9,2.408c1.133.909,3.813,1.189,4.385,1.282a6.06,6.06,0,0,1,2.5,1.177,2.647,2.647,0,0,0,1.37,1.244c.97.5,1.28,1.563,1.958,2.387-.824.679-1.479.956-1.487,1.484S67.72,27.539,67.715,27.865Z" fill="none" stroke="#b0b6ba" stroke-width="1"/>
    </g>
  </g>
</svg>
