<svg xmlns="http://www.w3.org/2000/svg" xmlns:xlink="http://www.w3.org/1999/xlink" width="70.448" height="68.276" viewBox="0 0 70.448 68.276">
  <defs>
    <clipPath id="clip-path">
      <rect id="Retângulo_1478" data-name="Retângulo 1478" width="70.448" height="68.276" transform="translate(0 0)" fill="none"/>
    </clipPath>
  </defs>
  <g id="Grupo_5594" data-name="Grupo 5594" transform="translate(0 0)">
    <g id="Grupo_5593" data-name="Grupo 5593" clip-path="url(#clip-path)">
      <path id="Caminho_4286" data-name="Caminho 4286" d="M69.948,16.091l0,.012c-.012.029-.037.095-.074.2l-.024.062a.415.415,0,0,0-.033.074c-.008.017-.012.033-.02.054-.38.993-1.356,3.586-1.682,4.822-.406,1.55-.245,2.532-.448,3.358s-.77,1.655-.769,1.911.574,1.03.577,1.7c0,.264.034,1.123.079,2.068.068,1.466.149,3.146.149,3.146s-.152,1.24.162,1.292a4.039,4.039,0,0,1,.827.3l-.564,1.348a11.834,11.834,0,0,0-.357,1.546,2.436,2.436,0,0,1-.507,1.295c-.41.675-.878.263-.872,1.709s.317,1.65.01,2.32-.975.88-1.177,1.966.007,1.706-.148,2.272-2.164.938-2.726,1.816a28.9,28.9,0,0,0-1.177,2.845c-.512,1.035-.832,1.7-1.442,1.968s-1.6.159-2.161.525-.615,1.084-1.439,1.451-1.238.315-1.236.831.263.568.265,1.134a1.89,1.89,0,0,1-.871,1.965c-.058.046-.115.091-.173.145-.008.009-.021.017-.029.025-.062.058-.119.116-.181.183s-.144.161-.209.248-.128.162-.185.245a1.173,1.173,0,0,0-.09.128c-.033.046-.062.091-.091.137-.057.087-.115.178-.168.273s-.111.19-.16.281-.1.191-.147.286c-.009.012-.013.025-.021.037-.032.075-.069.145-.1.219q-.1.224-.184.435c-.016.037-.033.078-.045.115-.033.083-.057.162-.082.24-.016.058-.032.108-.048.161s-.025.1-.037.149a.727.727,0,0,0-.024.12.252.252,0,0,0-.008.054.609.609,0,0,0-.008.074.394.394,0,0,0,0,.066c0,.673,0,1.293.057,1.755s.574,1.133.576,1.492.309.825-.2.827-1.81-.558-2.066-.557-1.346.109-1.5.109a2.681,2.681,0,0,1-.883-.979,1.947,1.947,0,0,1,.516-.981c.357-.414.716-.676.714-1.088a4.2,4.2,0,0,0-.519-1.749,15.457,15.457,0,0,0-1.646,1.452s-.26,0-.518.464a2.376,2.376,0,0,1-.959.781,5.6,5.6,0,0,1-.845-.517c-.414-.3-.418-1.287-1.3-1.077a4.433,4.433,0,0,0-1.8.73c-.152.207-.052.517-1.03.471s-2.743-1.281-2.95-1.334a29.253,29.253,0,0,0-3.406-.911c-.57,0-1.086-.1-1.345.262s-.3.414-.824.416-1.7-.769-2.217.216a7.827,7.827,0,0,1-2.521,2.438,3.817,3.817,0,0,1-1.65.263c-.182.013-.351.018-.512.019,0-.232.023-.422.023-.48a7.048,7.048,0,0,0-1.22-1.469c-.091-.053-.339-.1-.737-.273a7.808,7.808,0,0,1-1.643-1c-1.4-1.08-.624-1.133-.833-1.776a6.491,6.491,0,0,1-.27-2.477,7.02,7.02,0,0,0,.821-1.089c.283-.567.1-.826-.08-1.342s-.9.52-.9.52l-1.833.008c-.541,0-5.91-.286-6.245-.309s-2.12-.483-2.2-.87a14.174,14.174,0,0,1-.141-2.217,6.452,6.452,0,0,0-.448-2.4c-.233-.512-1.784-1-1.785-1.438s.617-.416,1.03-.417.59-.234.615-1.085a4.9,4.9,0,0,0-.4-2.112,8.793,8.793,0,0,1-.654-2.529,6,6,0,0,0-.086-1.651c-.08-.466-.648-1.005-.7-1.108a1.858,1.858,0,0,0-.4-.3c-.029-.02-.062-.041-.095-.061-.05-.029,1.087-.694,1.395-1.059a2.442,2.442,0,0,0,.3-1.393A3.253,3.253,0,0,1,9.6,36.68,7.2,7.2,0,0,0,10.672,34.5c.047-.566,0-.3.458-.98a3.514,3.514,0,0,0,.562-1.964c0-.516-.367-.927-1.1-2.217s-.677-.976-.679-1.442a1.405,1.405,0,0,1,.257-.827,5.05,5.05,0,0,0,.56-1.187,1.5,1.5,0,0,0,0-.93A5.881,5.881,0,0,1,8.665,24.5c-.774-.41,0-.467,0-.467L3.3,24.058a2.731,2.731,0,0,1-1.446-.3c-.306-.2-.157-1.031.121-1.652s.026-.875-.006-1.445a6.262,6.262,0,0,0-.547-1.6c-.209-.618.358-1.186.514-1.447.066-.112-.034-.3-.167-.5-.175-.255-.407-.531-.408-.663a2.654,2.654,0,0,1,.253-.848A2.452,2.452,0,0,0,1.4,14.053a6.28,6.28,0,0,1-.417-1.08l.929-.937L1.9,10.178a.271.271,0,0,0-.137-.248l11.759-.213,7.056-.128a6.936,6.936,0,0,0,0-1.189A2.629,2.629,0,0,1,20.828,7c.151-.414.614-1.341.351-1.806a7.552,7.552,0,0,1-.47-1.96c0-.156.872-.879.977-1.4S20.7.5,21.68.5a1.4,1.4,0,0,1,.492.093,5.071,5.071,0,0,1,1.677,1.186,4.455,4.455,0,0,0,.008,1.962,3.805,3.805,0,0,0,.734,1.7,3.6,3.6,0,0,1,.47,1.856,14.337,14.337,0,0,0,.578,2.009c.1.259.62.17.828.521s.516.972.724,1.277,1.293.1,1.447.407.679,1.392.679,1.392l1.448.663,2.01-.008L61.7,15.53Z" fill="#e2e6ea"/>
      <path id="Caminho_4287" data-name="Caminho 4287" d="M69.948,16.091l0,.012c-.012.029-.037.095-.074.2l-.024.062a.415.415,0,0,0-.033.074c-.008.017-.012.033-.02.054-.38.993-1.356,3.586-1.682,4.822-.406,1.55-.245,2.532-.448,3.358s-.77,1.655-.769,1.911.574,1.03.577,1.7c0,.264.034,1.123.079,2.068.068,1.466.149,3.146.149,3.146s-.152,1.24.162,1.292a4.039,4.039,0,0,1,.827.3l-.564,1.348a11.834,11.834,0,0,0-.357,1.546,2.436,2.436,0,0,1-.507,1.295c-.41.675-.878.263-.872,1.709s.317,1.65.01,2.32-.975.88-1.177,1.966.007,1.706-.148,2.272-2.164.938-2.726,1.816a28.9,28.9,0,0,0-1.177,2.845c-.512,1.035-.832,1.7-1.442,1.968s-1.6.159-2.161.525-.615,1.084-1.439,1.451-1.238.315-1.236.831.263.568.265,1.134a1.89,1.89,0,0,1-.871,1.965c-.058.046-.115.091-.173.145-.008.009-.021.017-.029.025-.062.058-.119.116-.181.183s-.144.161-.209.248-.128.162-.185.245a1.173,1.173,0,0,0-.09.128c-.033.046-.062.091-.091.137-.057.087-.115.178-.168.273s-.111.19-.16.281-.1.191-.147.286c-.009.012-.013.025-.021.037-.032.075-.069.145-.1.219q-.1.224-.184.435c-.016.037-.033.078-.045.115-.033.083-.057.162-.082.24-.016.058-.032.108-.048.161s-.025.1-.037.149a.727.727,0,0,0-.024.12.252.252,0,0,0-.008.054.609.609,0,0,0-.008.074.394.394,0,0,0,0,.066c0,.673,0,1.293.057,1.755s.574,1.133.576,1.492.309.825-.2.827-1.81-.558-2.066-.557-1.346.109-1.5.109a2.681,2.681,0,0,1-.883-.979,1.947,1.947,0,0,1,.516-.981c.357-.414.716-.676.714-1.088a4.2,4.2,0,0,0-.519-1.749,15.457,15.457,0,0,0-1.646,1.452s-.26,0-.518.464a2.376,2.376,0,0,1-.959.781,5.6,5.6,0,0,1-.845-.517c-.414-.3-.418-1.287-1.3-1.077a4.433,4.433,0,0,0-1.8.73c-.152.207-.052.517-1.03.471s-2.743-1.281-2.95-1.334a29.253,29.253,0,0,0-3.406-.911c-.57,0-1.086-.1-1.345.262s-.3.414-.824.416-1.7-.769-2.217.216a7.827,7.827,0,0,1-2.521,2.438,3.817,3.817,0,0,1-1.65.263c-.182.013-.351.018-.512.019,0-.232.023-.422.023-.48a7.048,7.048,0,0,0-1.22-1.469c-.091-.053-.339-.1-.737-.273a7.808,7.808,0,0,1-1.643-1c-1.4-1.08-.624-1.133-.833-1.776a6.491,6.491,0,0,1-.27-2.477,7.02,7.02,0,0,0,.821-1.089c.283-.567.1-.826-.08-1.342s-.9.52-.9.52l-1.833.008c-.541,0-5.91-.286-6.245-.309s-2.12-.483-2.2-.87a14.174,14.174,0,0,1-.141-2.217,6.452,6.452,0,0,0-.448-2.4c-.233-.512-1.784-1-1.785-1.438s.617-.416,1.03-.417.59-.234.615-1.085a4.9,4.9,0,0,0-.4-2.112,8.793,8.793,0,0,1-.654-2.529,6,6,0,0,0-.086-1.651c-.08-.466-.648-1.005-.7-1.108a1.858,1.858,0,0,0-.4-.3c-.029-.02-.062-.041-.095-.061-.05-.029,1.087-.694,1.395-1.059a2.442,2.442,0,0,0,.3-1.393A3.253,3.253,0,0,1,9.6,36.68,7.2,7.2,0,0,0,10.672,34.5c.047-.566,0-.3.458-.98a3.514,3.514,0,0,0,.562-1.964c0-.516-.367-.927-1.1-2.217s-.677-.976-.679-1.442a1.405,1.405,0,0,1,.257-.827,5.05,5.05,0,0,0,.56-1.187,1.5,1.5,0,0,0,0-.93A5.881,5.881,0,0,1,8.665,24.5c-.774-.41,0-.467,0-.467L3.3,24.058a2.731,2.731,0,0,1-1.446-.3c-.306-.2-.157-1.031.121-1.652s.026-.875-.006-1.445a6.262,6.262,0,0,0-.547-1.6c-.209-.618.358-1.186.514-1.447.066-.112-.034-.3-.167-.5-.175-.255-.407-.531-.408-.663a2.654,2.654,0,0,1,.253-.848A2.452,2.452,0,0,0,1.4,14.053a6.28,6.28,0,0,1-.417-1.08l.929-.937L1.9,10.178a.271.271,0,0,0-.137-.248l11.759-.213,7.056-.128a6.936,6.936,0,0,0,0-1.189A2.629,2.629,0,0,1,20.828,7c.151-.414.614-1.341.351-1.806a7.552,7.552,0,0,1-.47-1.96c0-.156.872-.879.977-1.4S20.7.5,21.68.5a1.4,1.4,0,0,1,.492.093,5.071,5.071,0,0,1,1.677,1.186,4.455,4.455,0,0,0,.008,1.962,3.805,3.805,0,0,0,.734,1.7,3.6,3.6,0,0,1,.47,1.856,14.337,14.337,0,0,0,.578,2.009c.1.259.62.17.828.521s.516.972.724,1.277,1.293.1,1.447.407.679,1.392.679,1.392l1.448.663,2.01-.008L61.7,15.53Z" fill="none" stroke="#b0b6ba" stroke-width="1"/>
    </g>
  </g>
</svg>
