<svg xmlns="http://www.w3.org/2000/svg" xmlns:xlink="http://www.w3.org/1999/xlink" width="63.605" height="63.037" viewBox="0 0 63.605 63.037">
  <defs>
    <clipPath id="clip-path">
      <rect id="Retângulo_1482" data-name="Retângulo 1482" width="63.605" height="63.037" transform="translate(0 0)" fill="none"/>
    </clipPath>
  </defs>
  <g id="Grupo_5602" data-name="Grupo 5602" transform="translate(0 0)">
    <g id="Grupo_5601" data-name="Grupo 5601" clip-path="url(#clip-path)">
      <path id="Caminho_4294" data-name="Caminho 4294" d="M63.049,20.718a17.054,17.054,0,0,1-1.124,4.174A14.679,14.679,0,0,0,60.713,27.1c-.167.628-.167,1.379-.333,1.836a5.369,5.369,0,0,1-.748,1.423c-.421.581-1,1.042-1.128,1.416s.04.544-.334,1.129a13.669,13.669,0,0,1-.918,1.419c-.207.264-.407.581-.627.885a3.331,3.331,0,0,1-.959.952,16.356,16.356,0,0,0-1.8.959c-.29.294-.541.21-1,.921a3.34,3.34,0,0,1-.324.425,11.6,11.6,0,0,1-1.012.911c-.247.248-1.292.669-1,.749s1.295.166,1.462.21a8.746,8.746,0,0,1,.919.791c.123.087.544.754.458,1a2.813,2.813,0,0,1-.625.795,1.065,1.065,0,0,0-.166.752,1.273,1.273,0,0,1-.377,1.085,21.452,21.452,0,0,1-1.72,2.044c-.283.21-.991.127-1.285.421s-.791.5-.958.915-.378,0-.458.835a5.623,5.623,0,0,1-.627,1.67,2.551,2.551,0,0,0,.251,1c.123.294.918.878,1,1.336a5.924,5.924,0,0,1-.667,2.881c-.458.585-.958.879-1.212,1.293s-.334.835-.708,1.045-.835.084-1.168.919-.918,1.877-1,2.087c-.067.17-.518,1.229-.691,1.629.03-.083.05-.136.06-.16l0-.01-6.668-.479L12.972,60.505H11.346l-1.169-.541s-.418-.874-.545-1.128-1-.08-1.168-.334-.415-.748-.582-1.035-.587-.213-.668-.424a11.636,11.636,0,0,1-.461-1.626,2.907,2.907,0,0,0-.374-1.5,3.074,3.074,0,0,1-.588-1.379,3.59,3.59,0,0,1,0-1.586,4.1,4.1,0,0,0-1.353-.965A14.029,14.029,0,0,0,3.3,47.778a1.44,1.44,0,0,1-.5-1c0-.334,1.389-1.613,1.889-2.782s3.451-7.127,4-8.629,3.061-6.232,3.562-7.123.223-1.446.276-2.338.334-.724.781-1.112a10.379,10.379,0,0,1,1.169-.835l-.391-.558a6.114,6.114,0,0,1-1.836.779,1.574,1.574,0,0,1-1.393-.444c-.167-.057-.387-.334-.778-1.225s-1-.444-1.279-.611-1.116-.334-2.117-.834-1.056-.558-1.28-1a1.222,1.222,0,0,1,0-.945H3.85s-.277-.224-.721-.614a3.207,3.207,0,0,1-.835-.888,5.638,5.638,0,0,1-.669-2c-.167-.5-.724-.614-1-1.225a6.7,6.7,0,0,1,0-2.394L.955,6.818c.208.04.371.07.405.07.08,0,1.415-.321,1.542-.554s.514-.935.724-1.019.849.487,1.363.431.237-.722.624-.932,1.322.07,1.546,0S7.883,3.965,8.4,3.6s.707-.167.751-.167a7.206,7.206,0,0,0,1.349.391,1.638,1.638,0,0,0,1.058-.268,4.512,4.512,0,0,1,1.837.167c.457.14,1.209.57,1.71.377s.32-1.239.32-1.239A2.139,2.139,0,0,0,14.7,1.92c-.277-.167.557-1.226.557-1.226s1.5.611,1.727.668.611,0,1.112-.5S19.763.526,19.93.526a3.845,3.845,0,0,1,.808.691,2.458,2.458,0,0,1,0,1.439c-.267.458-.2,1.627.12,1.67s1.409-.568,1.827-.348,1.336,1.349,1.626,1.516a10.354,10.354,0,0,0,1.379.457,4.15,4.15,0,0,1,1.169.5,9.581,9.581,0,0,1,.879,1.712c0,.167.581.708.835,1s.624.581.624,1a8.69,8.69,0,0,1,0,1.794c-.124.21.043.5.29,1s2,1.669,2,2.087a2.842,2.842,0,0,0,.335,1.252c.126.123.42.334.46.544s.084,1.249.418,1.416a18.7,18.7,0,0,0,1.917.544s.965.751,1.379-.545a6.781,6.781,0,0,1,.961-2.211c.25-.25,1.042-.875,1.042-.875s.377-1.255.543-1.589a2.448,2.448,0,0,1,.959-.875c.377-.208.794-.251,1.088-.461a3.222,3.222,0,0,0,.791-.916c.124-.253.584-1.1.958-1.215a9.508,9.508,0,0,1,1.189-.394,2.8,2.8,0,0,0,.487-.131,1.311,1.311,0,0,0,.037.18,2.2,2.2,0,0,1,.167.7c0,.22-.073.6.1.791a4.489,4.489,0,0,0,.878.084h.731a4.622,4.622,0,0,1,1.106.688,17.3,17.3,0,0,1,1.042,1.5,1.419,1.419,0,0,0,.878.585,6.756,6.756,0,0,0,1.1-.084,6.373,6.373,0,0,1,1.253-.021c.207,0,.628.668.628.668s-.274.354-.441.585.688.5.775.52a4.173,4.173,0,0,0,1.355.043,15.826,15.826,0,0,1,3.173.354c.08.013.173.03.283.053a1.422,1.422,0,0,1,.147.03c.144.03.3.07.484.113.077.02.161.044.248.064l.187.05c.13.033.263.07.4.107l.715.2c.147.04.294.083.447.127.117.033.234.07.354.1.251.073.5.147.755.223.087.027.177.054.264.077.564.167,1.125.337,1.639.5.111.034.221.067.324.1l.03.011a26.078,26.078,0,0,1-.039,2.771" fill="#e2e6ea"/>
      <path id="Caminho_4295" data-name="Caminho 4295" d="M63.049,20.718a17.054,17.054,0,0,1-1.124,4.174A14.679,14.679,0,0,0,60.713,27.1c-.167.628-.167,1.379-.333,1.836a5.369,5.369,0,0,1-.748,1.423c-.421.581-1,1.042-1.128,1.416s.04.544-.334,1.129a13.669,13.669,0,0,1-.918,1.419c-.207.264-.407.581-.627.885a3.331,3.331,0,0,1-.959.952,16.356,16.356,0,0,0-1.8.959c-.29.294-.541.21-1,.921a3.34,3.34,0,0,1-.324.425,11.6,11.6,0,0,1-1.012.911c-.247.248-1.292.669-1,.749s1.295.166,1.462.21a8.746,8.746,0,0,1,.919.791c.123.087.544.754.458,1a2.813,2.813,0,0,1-.625.795,1.065,1.065,0,0,0-.166.752,1.273,1.273,0,0,1-.377,1.085,21.452,21.452,0,0,1-1.72,2.044c-.283.21-.991.127-1.285.421s-.791.5-.958.915-.378,0-.458.835a5.623,5.623,0,0,1-.627,1.67,2.551,2.551,0,0,0,.251,1c.123.294.918.878,1,1.336a5.924,5.924,0,0,1-.667,2.881c-.458.585-.958.879-1.212,1.293s-.334.835-.708,1.045-.835.084-1.168.919-.918,1.877-1,2.087c-.067.17-.518,1.229-.691,1.629.03-.083.05-.136.06-.16l0-.01-6.668-.479L12.972,60.505H11.346l-1.169-.541s-.418-.874-.545-1.128-1-.08-1.168-.334-.415-.748-.582-1.035-.587-.213-.668-.424a11.636,11.636,0,0,1-.461-1.626,2.907,2.907,0,0,0-.374-1.5,3.074,3.074,0,0,1-.588-1.379,3.59,3.59,0,0,1,0-1.586,4.1,4.1,0,0,0-1.353-.965A14.029,14.029,0,0,0,3.3,47.778a1.44,1.44,0,0,1-.5-1c0-.334,1.389-1.613,1.889-2.782s3.451-7.127,4-8.629,3.061-6.232,3.562-7.123.223-1.446.276-2.338.334-.724.781-1.112a10.379,10.379,0,0,1,1.169-.835l-.391-.558a6.114,6.114,0,0,1-1.836.779,1.574,1.574,0,0,1-1.393-.444c-.167-.057-.387-.334-.778-1.225s-1-.444-1.279-.611-1.116-.334-2.117-.834-1.056-.558-1.28-1a1.222,1.222,0,0,1,0-.945H3.85s-.277-.224-.721-.614a3.207,3.207,0,0,1-.835-.888,5.638,5.638,0,0,1-.669-2c-.167-.5-.724-.614-1-1.225a6.7,6.7,0,0,1,0-2.394L.955,6.818c.208.04.371.07.405.07.08,0,1.415-.321,1.542-.554s.514-.935.724-1.019.849.487,1.363.431.237-.722.624-.932,1.322.07,1.546,0S7.883,3.965,8.4,3.6s.707-.167.751-.167a7.206,7.206,0,0,0,1.349.391,1.638,1.638,0,0,0,1.058-.268,4.512,4.512,0,0,1,1.837.167c.457.14,1.209.57,1.71.377s.32-1.239.32-1.239A2.139,2.139,0,0,0,14.7,1.92c-.277-.167.557-1.226.557-1.226s1.5.611,1.727.668.611,0,1.112-.5S19.763.526,19.93.526a3.845,3.845,0,0,1,.808.691,2.458,2.458,0,0,1,0,1.439c-.267.458-.2,1.627.12,1.67s1.409-.568,1.827-.348,1.336,1.349,1.626,1.516a10.354,10.354,0,0,0,1.379.457,4.15,4.15,0,0,1,1.169.5,9.581,9.581,0,0,1,.879,1.712c0,.167.581.708.835,1s.624.581.624,1a8.69,8.69,0,0,1,0,1.794c-.124.21.043.5.29,1s2,1.669,2,2.087a2.842,2.842,0,0,0,.335,1.252c.126.123.42.334.46.544s.084,1.249.418,1.416a18.7,18.7,0,0,0,1.917.544s.965.751,1.379-.545a6.781,6.781,0,0,1,.961-2.211c.25-.25,1.042-.875,1.042-.875s.377-1.255.543-1.589a2.448,2.448,0,0,1,.959-.875c.377-.208.794-.251,1.088-.461a3.222,3.222,0,0,0,.791-.916c.124-.253.584-1.1.958-1.215a9.508,9.508,0,0,1,1.189-.394,2.8,2.8,0,0,0,.487-.131,1.311,1.311,0,0,0,.037.18,2.2,2.2,0,0,1,.167.7c0,.22-.073.6.1.791a4.489,4.489,0,0,0,.878.084h.731a4.622,4.622,0,0,1,1.106.688,17.3,17.3,0,0,1,1.042,1.5,1.419,1.419,0,0,0,.878.585,6.756,6.756,0,0,0,1.1-.084,6.373,6.373,0,0,1,1.253-.021c.207,0,.628.668.628.668s-.274.354-.441.585.688.5.775.52a4.173,4.173,0,0,0,1.355.043,15.826,15.826,0,0,1,3.173.354c.08.013.173.03.283.053a1.422,1.422,0,0,1,.147.03c.144.03.3.07.484.113.077.02.161.044.248.064l.187.05c.13.033.263.07.4.107l.715.2c.147.04.294.083.447.127.117.033.234.07.354.1.251.073.5.147.755.223.087.027.177.054.264.077.564.167,1.125.337,1.639.5.111.034.221.067.324.1l.03.011A26.078,26.078,0,0,1,63.049,20.718Z" fill="none" stroke="#b0b6ba" stroke-width="1"/>
    </g>
  </g>
</svg>
