<?xml version="1.0" encoding="utf-8"?>
<!-- Generator: Adobe Illustrator 26.2.1, SVG Export Plug-In . SVG Version: 6.00 Build 0)  -->
<svg version="1.1" id="Camada_0_xA0_Imagem_00000021082144723702081060000014710128819979346334_"
	 xmlns="http://www.w3.org/2000/svg" xmlns:xlink="http://www.w3.org/1999/xlink" x="0px" y="0px" viewBox="0 0 123.1 73.4"
	 style="enable-background:new 0 0 123.1 73.4;" xml:space="preserve">
<style type="text/css">
	
		.st0{fill-rule:evenodd;clip-rule:evenodd;fill:#E2E6EA;stroke:#B0B6BA;stroke-linecap:round;stroke-linejoin:round;stroke-miterlimit:10;}
</style>
<path id="Paraíba" class="st0" d="M22.8,33.4l0.1-0.1l0.6-0.1V33h0.1h0.3v-0.3h0.3l0.3-0.1l0.1-0.1v-0.1l0.1-0.1V32l-0.1-0.1
	l0.3-0.3l0.1-0.1l0.1-0.1l0.3-0.1V31l-0.1-0.1h0.3l0.3,0.1v-0.3l-0.3-0.1l-0.1-0.3h-0.3v-0.1V30l-0.1-0.1v-0.3l-0.1-0.1L24.8,29
	v-0.1l0.1-0.4h0.1h-0.1l0.3-0.1l0.1-0.1v-0.3l-0.3-0.1v-0.3l0.1-0.1l0.1-0.1l0.3-0.3v-0.3l-0.3-0.3l0.3-0.1V26l0.1-0.1v-0.1l0.3-0.4
	l-0.1-0.1l0.1-0.3l0.3-0.3l0.6-0.6v-0.4l0.3-0.1v-0.1v-0.1l0.7-0.6H28l-0.3-0.3l-0.3,0.1h-0.1h-0.6h-0.1v-0.1h-0.1h-0.1l-0.1-0.1
	h0.1l0.1-0.1v-0.1h0.3v-0.3h0.1l0.1-0.1h0.4l-0.1-0.1l0.1-0.1h0.1l0.3,0.1H28l0.1,0.1l0.3-0.3h0.1l0.3-0.1l0.3-0.1l-0.3,0.4
	l-0.3,0.4l0.1,0.3l-0.1,0.4l0.4-0.1h0.3l0.1,0.1l0.4,0.3l0.4-0.1h0.1l0.1,0.1l0.1,0.1l0.1,0.3l0.1,0.1v0.3h0.1l0.1,0.1h0.1h0.1h0.1
	h0.1l0.3,0.3l0.1,0.3h0.4v0.4l0.7-0.4h0.1l0.3-0.1l0.1,0.1h0.6l0.3,0.3h0.6l0.3-0.1L36,25h0.3h0.1l0.3-0.3l0.1-0.3l0.3-0.1l0.1-0.4
	l0.1-0.1h0.1v-0.1h0.1v-0.3h0.1v0.3l0.3,0.1L38,24h0.1h0.1l0.1-0.1h0.1l-0.1-0.4l0.3-0.3L38.6,23h0.7l0.1-0.1l0.1-0.3l0.1-0.1v0.1
	l0.3,0.3h0.3l0.3-0.1l0.3-0.3h0.3l0.1-0.1l-0.1-0.1v-0.6l0.6,0.3l0.1-0.1l0.3-0.1v-0.1l0.1-0.3L42.1,21l0.1-0.3l0.3-0.1h0.1
	l-0.1-0.1l0.3-0.4h0.3h0.4H44h-0.1l-0.1-0.3v-0.3l0.1-0.1L43.6,19l0.3-0.1l-0.3-0.1l0.3-0.3H44v-0.3l0.1-0.1l0.7-0.4H45l0.1,0.1
	l0.4,0.1h0.7l0.1-0.3h0.4h0.4l0.3-0.3l0.3-0.1l0.3,0.1h0.4V17h0.3h0.4v-0.1h0.3l0.1,0.1l0.6-0.1v-0.6l0.1-0.1h0.4h0.4h0.3l0.3-0.6
	H52h0.4l0.4-0.4l0.6-0.1l0.1-0.1l0.3,0.1h0.3l0.1-0.3l0.1-0.3l0.1-0.1h0.1l0.3,0.1l0.1,0.3l0.4-0.1l0.3,0.1h0.4l-0.1,0.1l0.1,0.7
	v0.3l0.1,0.3l-0.3,0.7l0.3,0.1h0.1l-0.1,0.4l-0.1,0.1l-0.4,0.1V18l-0.3,0.1l-0.4,0.1L55,18.5h-0.1l-0.3,0.3l-0.4,0.4v0.7h-0.3
	l-0.4-0.1l-0.3,0.1L53,20.3l-0.1,0.1l-0.6,0.3h-0.1L52,21.2v0.6L51.7,22v0.1v0.1l-0.1,0.1v0.3l0.1,0.3l0.1,0.1l-0.1,0.4l-0.1,1.3
	l-0.4,0.4h-0.4h-0.1h-0.4H50l-0.3,0.4v0.1l0.1,0.1l-0.1,0.6v0.3h0.1v0.3v0.6L50,28l-0.1,0.3l0.1,0.1l-0.3,0.7l1.6-0.3h0.3l1.1,0.1
	l0.6-0.3l0.6,0.1l-0.1,0.3l0.3,0.3l0.3,0.1v0.6l-0.1,0.3l0.3,0.3v0.1l0.1,0.1v0.3l0.4,0.3h0.9l0.9-0.6l0.4-0.6h0.1l1-0.3l0.3-0.1
	l0.4-0.1l0.1-0.1l0.7-0.6h0.3l0.1,0.3l0.1,0.4v0.3l0.1,0.3v0.1h0.3l-0.1,0.1v0.1l0.4-0.4l0.6-0.3h0.1l0.7-0.3l0.7-0.3l1.4,1.3V32
	l0.9-0.1l-0.3,1l-0.3,0.4v0.3L64.8,34l0.4,0.7l0.6,0.3h0.1l0.4-1.1h0.7l0.4,0.1h0.4h0.1l0.9-1.3v-0.1l-0.1-0.3l0.1-0.1l0.1-0.1h0.3
	l0.3-0.3l0.4-0.1l0.1-0.1l0.1-0.9l-0.1-0.4L70.1,30l-0.1-0.1h-0.1v-0.1h-0.1l-0.3-0.1l-0.3-0.4l0.3-0.3l0.1-1l0.4-0.9l-0.1-0.3
	l0.3-0.1l0.1,0.1l0.7,0.3l0.3,0.4l0.1-0.1l0.3,0.1v-0.1l-0.1-0.6v-0.9l-0.1-0.1h-0.1l-0.3-0.1l-0.1-0.1L70.6,25l-0.3-0.1l-0.4-0.3
	h-0.1v-0.4l-0.1-0.4v-0.3l0.1-0.3l0.4-0.7v-0.3l0.1-0.7l0.9,0.1h0.6l0.7-1.4l0.7,0.3l0.4-0.1l0.7-0.4l0.3,0.3l0.3,0.3v0.1v0.7
	l-0.3,0.4v0.1V22v0.3h0.1l0.4,0.1l0.3,0.1l0.1,0.7l0.6-0.1h0.1h0.9l0.6-0.1H78h0.1h0.3l0.1-0.1h0.1l0.3-0.1l0.1-0.1h0.1v0.1h0.1
	v-0.1l0.3,0.6l0.3,0.3l0.6,0.1v0.3V24l0.1,0.1l0.6,0.1h0.3l0.4,0.1l1.9-0.1h1.6l0.1-0.1l1-0.1h0.1h0.1l0.1-0.1l0.4-0.4l0.3,0.1h0.1
	v-0.1H88l0.4,0.1l0.3,0.1h0.1h0.3l0.3,0.3v0.1l0.1,0.1H90v0.1h0.1l0.1-0.3h0.1h0.1h0.1V24l0.1,0.1H91h0.3l0.1,0.1v-0.1l0.1,0.1h0.1
	h0.1l0.1-0.1h0.1l0.3,0.1l0.1-0.1v0.1h0.3l0.4,0.1h0.1l0.4,0.3l0.3,0.1l0.4,0.6l0.3,0.1H96l0.4-0.3H97l0.1-0.3h0.1l0.1,0.4l0.1,0.3
	h0.1l0.6,0.1l0.3-0.1h0.1l0.3-0.4h0.3l0.1-0.6h0.1l0.1-0.1h0.1l0.6,0.6h0.1L101,25l0.3-0.3h0.1h0.1l0.4-0.1l0.3-0.1l0.1-0.1l0.1,0.1
	v2.4v0.7l0.3,0.7l0.1,0.3l0.3,0.1l-0.1,0.1v0.3l0.1,0.3l-0.1,0.1l0.1,0.1l-0.1,0.4h0.1v0.3h-0.1h0.3h0.1v0.4v0.7l0.3,0.7v0.3
	l0.4,0.4l0.3,0.1l0.3,0.1l-0.1,0.3l-0.1,0.3V34l0.1,0.4l0.3,0.3l-0.1,0.1l-0.3,0.1h0.1v0.1h0.1V35h0.1v0.1v0.3v0.1h-0.1v0.1h-0.1
	v-0.1l-0.1-0.1v0.1l0.1,0.4h0.1l0.1-0.3l0.3-0.3V35l-0.1-0.3h0.3v0.9v0.6l-0.3,0.1v0.3l0.1,0.3l0.1,0.1l-0.1,0.6l0.3,0.3v0.4
	l0.3,0.3h0.3v0.1v1L106,40l-0.1,0.6l0.1,0.6v0.4v0.3l0.1,0.1l-0.1,0.3l0.1,0.3l-0.1,0.6l0.1,0.3l-0.1,0.3l-0.1,0.4v1.3v0.1l0.1,0.1
	l-0.1,0.1l-0.1,0.1l0.1,0.6l-0.3,0.3l-0.1,0.4h-0.1h-0.1l-0.3-0.1l-0.3,0.1l-0.4-0.3l-0.1,0.3h-0.1v-0.1h-0.1h-0.1l-0.1-0.1
	l-0.1-0.1l-0.4,0.3h-0.1l-0.3-0.4l-0.3-0.3v-0.1L102,46l0.1-0.3v-0.3l-0.4-0.3l-0.6-0.4l-0.3-0.3l-0.4-0.3l-0.1-0.1h-0.1l-0.1,0.1
	l-0.3,0.1l-0.4-0.1h-0.1L98.7,44h-0.1l-0.3-0.1L98,44h-0.1l-0.3-0.1L97,43.7l-0.3-0.1l-0.9,0.3l-0.4,0.4h-0.1h-0.1H95h-0.3l0.1,0.1
	v0.1h-0.3h-0.1v0.3V45h-0.3H94l-0.1,0.1l-0.6,0.3l-0.1,0.3H93l-0.3-0.1l-0.1-0.3h-0.3l-0.6-0.1l-0.4,0.1L91.2,46v0.3l0.1,0.3
	l-0.1,0.1L91,46.8L90.9,47v0.4l-0.1,0.4L90.6,48v0.1l0.1,0.1l0.3-0.1l-0.1,0.3v0.1h-0.1l-0.1,0.3l0.4,0.6h-0.3l-0.1,0.1L90,49.7
	l-0.3-0.1h-0.3h-0.1H89l-0.1,0.1v0.1l-0.3,0.3l-0.1,0.1l-0.3,0.3H88h-0.4h-0.1h-0.1l-0.1-0.1l-0.3,0.1v0.1h-0.1l-0.4,0.1h-0.1v0.1
	L86,51.1h-0.1l-0.4,0.3h-0.3l-0.4,0.3h-0.1h-0.1l-0.3-0.1l-0.4,0.1h-0.3l-0.1,0.1v0.1v0.3l-0.4,0.3l-0.7-0.1L82,52.5h-0.3h-0.3
	l-0.3,0.3H81l-0.1,0.3l-0.1-0.1h-0.4L80,52.7h-0.1l-0.1,0.1l-0.4-0.4l-0.7-0.1l-0.3,0.1h-0.1h-0.4H77l-0.4,0.1l-0.1-0.4l-0.1-0.1
	l-0.7,0.6l-0.1,0.1v0.1l0.3,0.1v0.1l-0.1,0.3h-0.3h-0.1l-0.4-0.3l-0.1-0.1h-0.1h-1.1l-0.1-0.1l-0.3,0.1h-0.4l-0.3,0.1h-0.3l-0.1,0.1
	v0.3v0.7l-0.1,0.1l0.1,0.1v0.3h-0.1l-0.1,0.3v0.1h-0.4l-0.3,0.1l-0.1-0.1l-0.3,0.1l-0.9-0.4l-0.3-0.1l-0.3,0.1l-0.1,0.1l-0.1,0.1
	l0.1,0.4l-0.1,0.3l0.1,0.1l-0.1,0.1l-0.1-0.1l-0.6-0.1l-0.1,0.4v0.3l-0.1,0.1v0.6v0.9l-0.4,0.3l-0.1,0.1v0.1h0.1v0.3h0.3l0.1,0.1
	v0.3l-0.3,0.1l-0.6,0.1l-0.4,0.1l-0.1,0.1l0.1,0.4h-0.4l-0.3-0.1v0.1l0.1,0.1h-0.1v0.1h-0.4l-0.1,0.1l-0.1,0.3l-0.1,0.1l-0.3-0.1
	h-0.3h-0.3l-0.1,0.3l-1,0.4l-0.4,0.3H62l-0.1,0.3l-0.4,0.4l-0.4,0.1v0.3l-0.1,0.1h-0.1h-0.4L60,63.6l-0.6-0.3L59,62.8h-0.1L58,62.6
	l-0.1-0.4l-0.6-0.6v-0.3v-0.3v-0.3l-0.4,0.1l-0.3-0.1l-0.1-0.1v-0.1l0.3-0.1l-0.1-0.3l0.1-0.3h0.1v-0.1l-0.1-0.4l0.1-0.3l-0.3-0.4
	v-0.3l0.1-0.4v-0.3v-0.3l-0.1-0.1l-0.1-0.1h-0.3v-0.1H56l-0.1-0.1v-0.4l-0.3-0.1l-0.3,0.1v0.3H55v-0.1l-0.1,0.1l-0.1-0.1h-0.4
	L54,56.5l-0.3-0.1h-0.3h-0.3l-0.4,0.3v-0.1h-0.3l0.1-0.4v-0.1h0.1l0.4-0.1l0.1-0.1h0.1v-0.1l-0.1-0.1l0.1-0.1h-0.1h-0.1v-0.1h0.3
	v-0.1h0.4l0.9-0.6v-0.3l-0.1-0.1l0.1-0.1l0.4-0.1v-0.4h-0.3l-0.1-0.1l0.3-0.1l0.1-0.1l0.1,0.1l0.4-0.3l0.1-0.1H56l0.1,0.1l0.1,0.1
	v-0.1l0.1-0.1h0.1l0.1-0.3h-0.1v-0.1l0.4-0.6l-0.3-0.3v-0.4l-0.3-0.3l-0.1-0.1l-0.1-0.3V50L56,49.8l-0.3-0.3v-0.3v-0.1V49l0.3-0.1
	l0.1-0.4l0.1-0.4l0.3-0.3l0.4-0.3l0.3-0.4h0.4l0.3-0.3h0.4l0.3-0.3l0.6-0.1v-0.1l0.4-0.1l0.1,0.1l0.3-0.3v-0.1H60v-0.1v-0.1
	l-0.3-0.1l-0.1-0.1l-0.1-0.3l0.1-0.1v-0.1h-0.3l0.3-0.4l-0.3-0.3l-0.4-0.3h-0.1v0.1h-0.3l-0.1-0.3v-0.1L58,43.1h-0.4L57.2,43
	l-0.1-0.1L57,43l-0.1-0.3h-0.3h-0.1l-0.1-0.3l-0.1-0.3l-0.4-0.3l-0.3-0.1L55,41.4h-0.4h-0.1H54l-0.1,0.3h-0.4h-0.1h-0.4l-0.3,0.4
	l-0.1,0.3l0.1,0.3l-0.9,0.4h-0.4l-0.1,0.1l-0.3-0.1h-0.1l-0.1,0.1L50,43.1l-0.4,0.1l-0.1,0.1l0.1,0.3V44l-0.1,0.1l-0.1,0.4h-0.1
	L49,44.7v0.1L48.8,45l-0.1,0.1v0.4v0.1l-0.4,0.1L47.8,46l-0.4,0.3L47,46.4v0.3l-0.1,0.1L46.6,47l-0.3-0.1L46.1,47L46,46.7L45.6,47
	v0.3L45,47.4v0.1v0.3L44.7,48h-0.1l-0.1,0.4h-0.1l-0.1,0.3L44,48.8V49l-0.1,0.1l0.3,0.1l0.1,0.1v0.3L44,49.8V50l-0.3-0.3v-0.3h-0.1
	v-0.3L43.4,49h-0.1h-0.1l-0.3,0.4h-0.7l-0.3,0.1l-0.1,0.1l-0.4,0.6L41,50.4l-0.1,0.1l0.1,0.1l0.1,0.1H41h-0.3h-0.3v0.4L40,51.5v0.3
	l-0.3,0.1l-0.1,0.1l-0.1,0.1l-0.3-0.1L39,52.2h-0.1h-0.1v-0.3l-0.3-0.1L38,51.7l-0.6,0.4l-0.1,0.1v0.3v0.3l0.1,0.3v0.1l-0.1,0.1
	l-0.9-0.1l-0.1-0.1v-0.1l-0.1-0.1L36,52.7l-0.1-0.3h-0.1l-0.3-0.1l-0.3,0.3l-0.4,0.3l-0.3,0.1l-0.1,0.1l-0.1,0.1h-0.3v0.1h-0.4h-0.1
	L33,53.5l-0.1-0.1l-0.3-0.3l-0.1-0.6l0.1-0.3l-0.1-0.1l0.1-0.1h-0.4l0.3-0.4l-0.1-0.1l-0.1-0.1l0.1-0.3h-0.1v-0.1v-0.3L32,50.4
	l-0.1,0.1l-0.1-0.1l-0.1,0.1l-0.3-0.4l-0.1,0.1L31,50.4v0.1l-0.1,0.1l-0.6,0.1l0.1,0.1l-0.1,0.3h-0.1h-0.3l-0.1-0.3h-0.4L29,51.2
	h-0.4l-0.1,0.1v0.3H28l-0.3,0.1l-0.3-0.1L27,51.8l-0.1-0.1l-0.1,0.1v-0.3l-0.1,0.3h-0.3v-0.3L26,51.4v-0.3l-0.1-0.3h-0.1v-0.4
	l-0.4-0.1v-0.1h-0.1V50l-0.3-0.3h-0.1l-0.3-0.6h-0.3l-0.1-0.3h-0.3v-0.1l0.1-0.1v-0.4l0.1-0.1h0.4l0.1-0.1l0.4-0.1v-0.1l0.1-0.1
	l-0.1-0.1l0.1-0.1v-0.3l-0.1-0.1h0.3l-0.1-0.1l0.1-0.3l0.3-0.3l-0.1-0.3l-0.1-0.1v-0.1l0.9-0.1v-0.1l0.1-0.1v-0.1h0.3v-0.4h-0.3
	l0.1-0.3l0.1-0.1l0.1-0.4l0.3-0.4l0.3-0.3v-0.1v-0.1v-0.3l0.1-0.1l0.1-0.3l-0.1-0.4v-0.3h-0.1l-0.1-0.3l0.1-0.1l-0.1-0.1l-0.6,0.3
	l-0.3-0.1l-0.1-0.1l-0.3-0.1v-0.3L25.8,40l0.1-0.3l-0.1-0.1h-0.3l-0.1-0.1h-0.4l-0.4,0.1v-0.3l0.1-0.1L24.5,39l0.1-0.1v-0.6l0.1-0.1
	l0.1-0.3l0.1-0.4v-0.1l-0.1-0.1L24.8,37l-0.1-0.1l0.1-0.3v-0.1l-0.4-0.1V36l-0.4-0.1h-0.1l-0.3-0.1l-0.4-0.3h-0.1l-0.1-0.1l0.1-0.1
	h0.1l0.1-0.3h0.1l-0.1-0.1v-0.1h-0.3l-0.1-0.3l0.3-0.1l-0.1-0.3v-0.3L22.8,33.4z"/>
</svg>
