<svg id="Grupo_5618" data-name="Grupo 5618" xmlns="http://www.w3.org/2000/svg" xmlns:xlink="http://www.w3.org/1999/xlink" width="56.441" height="62.048" viewBox="0 0 56.441 62.048">
  <defs>
    <clipPath id="clip-path">
      <rect id="Retângulo_1490" data-name="Retângulo 1490" width="56.441" height="62.048" transform="translate(0 0)" fill="none"/>
    </clipPath>
  </defs>
  <g id="Grupo_5617" data-name="Grupo 5617" clip-path="url(#clip-path)">
    <path id="Caminho_4310" data-name="Caminho 4310" d="M55.789,25.993a10.16,10.16,0,0,1-.709,1.028c-.145.181-.291.342-.438.5a3.749,3.749,0,0,1-.811.669,1.805,1.805,0,0,1-.294.136,2.2,2.2,0,0,1-.276.114c-1.1.288-1.966-.439-2.953.125a32.3,32.3,0,0,0-4.79,4.682c-1.247,1.377-2.342,2.633-2.823,3.12a13.088,13.088,0,0,0-1.715,2.707,53.579,53.579,0,0,0-3.473,7.419c-.092.278-.263.771-.5,1.436-.1.238-.21.519-.323.8a1.065,1.065,0,0,1-.077.236c-.081.194-.162.389-.24.6-.514,1.294-1.157,2.912-1.847,4.659-.34.821-.678,1.663-1.034,2.527-.158.43-.335.863-.514,1.295-.288.733-.595,1.489-.883,2.222a26.675,26.675,0,0,1-3.314-.142c-1.583-.337-4.318,1.186-5.087.572-.748-.6-7.286.82-7.286.82a16.969,16.969,0,0,1-5.7-4.841c-2.254-3.188-1.409-1.9-2.129-3.717a22.459,22.459,0,0,0-2.282-4.9c-1.246-1.921-1.755-1.863-2.983-3.621a14.578,14.578,0,0,1-2.8-6.528c-.283-2.523,2.774-1.363,4.9-2.282,2.14-.941,2.035-.229,2.035-.229s2.716,1.24,3.243,1.346,3.974-1.313,3.967-3.022c-.027-1.708-.593-2.16-1.791-5.116-1.179-2.959-.45-2.526-.45-2.526s1.942-4.175,1.818-5.274a4.824,4.824,0,0,0-1.9-3.145c-.431-.343-1.2-1.1-2.034-1.956l0-.021a30.85,30.85,0,0,0-3.922-3.536c-1.274-.7-2.53-4.167-2.722-5.876C3.494,4.838,2.179,2.121,1.729.5,4.94.471,8.993.777,11.673,2.249c.507.293,1.05.54,1.573.791.131.068.26.115.369.164.543.249,1.081.456,1.62.664,1.229.479,2.428.88,3.6,1.243.9.29,1.752.545,2.566.824.472.174.943.327,1.4.5a12.274,12.274,0,0,1,3.04,1.555c2.954,2.263,10.527,4.359,11.923,5.232s8.147,3.72,8.892,4.667,4.27,3.518,5.152,4.573c.451.526,2.278,2.113,3.983,3.529" fill="#e2e6ea"/>
    <path id="Caminho_4311" data-name="Caminho 4311" d="M55.789,25.993a10.16,10.16,0,0,1-.709,1.028c-.145.181-.291.342-.438.5a3.749,3.749,0,0,1-.811.669,1.805,1.805,0,0,1-.294.136,2.2,2.2,0,0,1-.276.114c-1.1.288-1.966-.439-2.953.125a32.3,32.3,0,0,0-4.79,4.682c-1.247,1.377-2.342,2.633-2.823,3.12a13.088,13.088,0,0,0-1.715,2.707,53.579,53.579,0,0,0-3.473,7.419c-.092.278-.263.771-.5,1.436-.1.238-.21.519-.323.8a1.065,1.065,0,0,1-.077.236c-.081.194-.162.389-.24.6-.514,1.294-1.157,2.912-1.847,4.659-.34.821-.678,1.663-1.034,2.527-.158.43-.335.863-.514,1.295-.288.733-.595,1.489-.883,2.222a26.675,26.675,0,0,1-3.314-.142c-1.583-.337-4.318,1.186-5.087.572-.748-.6-7.286.82-7.286.82a16.969,16.969,0,0,1-5.7-4.841c-2.254-3.188-1.409-1.9-2.129-3.717a22.459,22.459,0,0,0-2.282-4.9c-1.246-1.921-1.755-1.863-2.983-3.621a14.578,14.578,0,0,1-2.8-6.528c-.283-2.523,2.774-1.363,4.9-2.282,2.14-.941,2.035-.229,2.035-.229s2.716,1.24,3.243,1.346,3.974-1.313,3.967-3.022c-.027-1.708-.593-2.16-1.791-5.116-1.179-2.959-.45-2.526-.45-2.526s1.942-4.175,1.818-5.274a4.824,4.824,0,0,0-1.9-3.145c-.431-.343-1.2-1.1-2.034-1.956l0-.021a30.85,30.85,0,0,0-3.922-3.536c-1.274-.7-2.53-4.167-2.722-5.876C3.494,4.838,2.179,2.121,1.729.5,4.94.471,8.993.777,11.673,2.249c.507.293,1.05.54,1.573.791.131.068.26.115.369.164.543.249,1.081.456,1.62.664,1.229.479,2.428.88,3.6,1.243.9.29,1.752.545,2.566.824.472.174.943.327,1.4.5a12.274,12.274,0,0,1,3.04,1.555c2.954,2.263,10.527,4.359,11.923,5.232s8.147,3.72,8.892,4.667,4.27,3.518,5.152,4.573C52.257,22.99,54.084,24.577,55.789,25.993Z" fill="none" stroke="#b0b6ba" stroke-width="1"/>
  </g>
</svg>
