<svg xmlns="http://www.w3.org/2000/svg" xmlns:xlink="http://www.w3.org/1999/xlink" width="138.117" height="62.245" viewBox="0 0 138.117 62.245">
  <defs>
    <clipPath id="clip-path">
      <rect id="Retângulo_1489" data-name="Retângulo 1489" width="138.117" height="62.245" transform="translate(0 0)" fill="none"/>
    </clipPath>
  </defs>
  <g id="Grupo_5616" data-name="Grupo 5616" transform="translate(0 0)">
    <g id="Grupo_5615" data-name="Grupo 5615" clip-path="url(#clip-path)">
      <path id="Caminho_4308" data-name="Caminho 4308" d="M137.416,3.745c.579,5.809-.221,25.011-.8,26.639-.228.642-1.247,2.935-2.472,5.672l-1.806-1.9s-3.281-.848-3.684-1.088a12.231,12.231,0,0,0-4.027-.674c-1.024.115-2.889,1.828-2.889,1.828s-3.214,1.488-3.5,1.52-2.023.318-3.4.667-1.82,1.317-2.561,2.347c-.725,1.028-1.975,2.476-2.69,3.593s-1.888,1.52-3.125,2.41-3.03.446-3.955.64a21.773,21.773,0,0,0-4.408,2.48c-.776.583-3.069.239-4.453.485a2.76,2.76,0,0,1-2.1-.244,6.7,6.7,0,0,1-2.642-1.851c-.455-.7-2.816-1.652-3.135-2.082-.335-.443-3.505-.176-4.034.064S80.284,42.266,80,42.1c-.3-.146-3.352-2.147-3.645-2.219s-1.631,2.062-2.013,2.946c-.072.158-.156.348-.254.539a5.628,5.628,0,0,1-.3.575l0,.015a14.077,14.077,0,0,1-.929,1.486,10.82,10.82,0,0,1-2.425,1.024,3.485,3.485,0,0,0-1.012,1.812c-.352,1.152-2.8,2.644-2.8,2.644a3.872,3.872,0,0,1-.937-1.788A8.892,8.892,0,0,0,63.2,44.789c-1.517-1.2-4.1-.8-4.843-.717a8.243,8.243,0,0,1-3.331-.752c-1.182-.5-2.622-2.079-3.022-2.289s-2.092.235-4.982.184-2.149-.133-3.065-.526-1.72-1.94-3.174-3.775c-1.47-1.848-2.29.874-3.361,1.37S34.81,40.591,33.7,41.963a36.5,36.5,0,0,0-3.566,5.029c-.813,1.593-1.359,1.279-1.8,1.72a7.243,7.243,0,0,1-2.725,1.419,22.382,22.382,0,0,0-2.834.318c-1.1.259.083.742.265,2.359a5.376,5.376,0,0,1-1.228,3.639,4.416,4.416,0,0,1-1.7,1.318s-4.372,3.617-5.085,3.953-3.064-2.66-3.119-3.15a4.807,4.807,0,0,1,1.073-2.75c.762-.972.112-1.274-.209-1.855A34.332,34.332,0,0,0,7.638,48.4C5.708,46.87,4.784,47.47,2.2,45.762a6.9,6.9,0,0,1-1.531-1.45c.285-.273.446-.441.446-.441s.274-.9,3.692-3.916,5.252-4.468,6.316-6.225a23.416,23.416,0,0,0,1.83-4.969c.106-.387.169-.635.169-.635s-.676-4.807-1.836-6.3c-1.176-1.5-2.015-2.282-2.112-3.143a10.247,10.247,0,0,1,.983-4.618c.268-.556.589-1.178.911-1.785a68.759,68.759,0,0,0,6.8,1.037c1.876-.016,4.342.263,5.255-.035.9-.282,3.166-1.107,3.992-2.042s5.945-.578,5.945-.578,3.638,1.483,4.707,2.58a46.287,46.287,0,0,1,3.635,3.993c2.07,2.5,4.033,2.462,5.481,2.779s1.253-.621,2.257-2.507c.916-1.741,2.018-2.631,2.849-3.927.231.185.383.333.411.45.2.833,3.1,1.62,3.379,1.588a18.251,18.251,0,0,0,3.005-1.736c1.4-.908,2.188,1.152,2.622,1.673a6.641,6.641,0,0,0,3.52,2.039c1.527.218,7.315-4.294,8.841-5.683a16.088,16.088,0,0,0,3.669-4.92C78.435,5,79.562,4.875,81.14,3s3.737-.03,5.231-.108S89.6,5.714,89.709,6.648a2.12,2.12,0,0,1-.825,1.881,8.477,8.477,0,0,0-2.4,2.043c-.559.905.167,1.484.25,2.226S85.851,14.024,85,14.871A3.723,3.723,0,0,0,84.09,17.6a15.87,15.87,0,0,0,2.352,1.808c.7.478.991,3.735,1.425,4.257a4.545,4.545,0,0,0,3.2.948c1.217-.137,1.73-1.322,2.512-1.981.769-.642,2.314-.26,2.967-.334s2.509-1.875,2.352-3.269a6.719,6.719,0,0,1,1.046-4.055,13.159,13.159,0,0,1,2.145-2.57c.922-1.02,1.512-.846,3.686-.625a19.323,19.323,0,0,0,5.193-.584,6.816,6.816,0,0,0,3.009-.895,22.044,22.044,0,0,1,4.415-1.623,3.951,3.951,0,0,0,3.036-2.13,5.964,5.964,0,0,0,.352-2.744c.143-.467,2.238-1.874,3.728-2.793a3.309,3.309,0,0,1,2.878-.324s5.215,2.148,5.5,2.116c.148-.017,1.947.487,3.531.94" fill="#e2e6ea"/>
      <path id="Caminho_4309" data-name="Caminho 4309" d="M137.416,3.745c.579,5.809-.221,25.011-.8,26.639-.228.642-1.247,2.935-2.472,5.672l-1.806-1.9s-3.281-.848-3.684-1.088a12.231,12.231,0,0,0-4.027-.674c-1.024.115-2.889,1.828-2.889,1.828s-3.214,1.488-3.5,1.52-2.023.318-3.4.667-1.82,1.317-2.561,2.347c-.725,1.028-1.975,2.476-2.69,3.593s-1.888,1.52-3.125,2.41-3.03.446-3.955.64a21.773,21.773,0,0,0-4.408,2.48c-.776.583-3.069.239-4.453.485a2.76,2.76,0,0,1-2.1-.244,6.7,6.7,0,0,1-2.642-1.851c-.455-.7-2.816-1.652-3.135-2.082-.335-.443-3.505-.176-4.034.064S80.284,42.266,80,42.1c-.3-.146-3.352-2.147-3.645-2.219s-1.631,2.062-2.013,2.946c-.072.158-.156.348-.254.539a5.628,5.628,0,0,1-.3.575l0,.015a14.077,14.077,0,0,1-.929,1.486,10.82,10.82,0,0,1-2.425,1.024,3.485,3.485,0,0,0-1.012,1.812c-.352,1.152-2.8,2.644-2.8,2.644a3.872,3.872,0,0,1-.937-1.788A8.892,8.892,0,0,0,63.2,44.789c-1.517-1.2-4.1-.8-4.843-.717a8.243,8.243,0,0,1-3.331-.752c-1.182-.5-2.622-2.079-3.022-2.289s-2.092.235-4.982.184-2.149-.133-3.065-.526-1.72-1.94-3.174-3.775c-1.47-1.848-2.29.874-3.361,1.37S34.81,40.591,33.7,41.963a36.5,36.5,0,0,0-3.566,5.029c-.813,1.593-1.359,1.279-1.8,1.72a7.243,7.243,0,0,1-2.725,1.419,22.382,22.382,0,0,0-2.834.318c-1.1.259.083.742.265,2.359a5.376,5.376,0,0,1-1.228,3.639,4.416,4.416,0,0,1-1.7,1.318s-4.372,3.617-5.085,3.953-3.064-2.66-3.119-3.15a4.807,4.807,0,0,1,1.073-2.75c.762-.972.112-1.274-.209-1.855A34.332,34.332,0,0,0,7.638,48.4C5.708,46.87,4.784,47.47,2.2,45.762a6.9,6.9,0,0,1-1.531-1.45c.285-.273.446-.441.446-.441s.274-.9,3.692-3.916,5.252-4.468,6.316-6.225a23.416,23.416,0,0,0,1.83-4.969c.106-.387.169-.635.169-.635s-.676-4.807-1.836-6.3c-1.176-1.5-2.015-2.282-2.112-3.143a10.247,10.247,0,0,1,.983-4.618c.268-.556.589-1.178.911-1.785a68.759,68.759,0,0,0,6.8,1.037c1.876-.016,4.342.263,5.255-.035.9-.282,3.166-1.107,3.992-2.042s5.945-.578,5.945-.578,3.638,1.483,4.707,2.58a46.287,46.287,0,0,1,3.635,3.993c2.07,2.5,4.033,2.462,5.481,2.779s1.253-.621,2.257-2.507c.916-1.741,2.018-2.631,2.849-3.927.231.185.383.333.411.45.2.833,3.1,1.62,3.379,1.588a18.251,18.251,0,0,0,3.005-1.736c1.4-.908,2.188,1.152,2.622,1.673a6.641,6.641,0,0,0,3.52,2.039c1.527.218,7.315-4.294,8.841-5.683a16.088,16.088,0,0,0,3.669-4.92C78.435,5,79.562,4.875,81.14,3s3.737-.03,5.231-.108S89.6,5.714,89.709,6.648a2.12,2.12,0,0,1-.825,1.881,8.477,8.477,0,0,0-2.4,2.043c-.559.905.167,1.484.25,2.226S85.851,14.024,85,14.871A3.723,3.723,0,0,0,84.09,17.6a15.87,15.87,0,0,0,2.352,1.808c.7.478.991,3.735,1.425,4.257a4.545,4.545,0,0,0,3.2.948c1.217-.137,1.73-1.322,2.512-1.981.769-.642,2.314-.26,2.967-.334s2.509-1.875,2.352-3.269a6.719,6.719,0,0,1,1.046-4.055,13.159,13.159,0,0,1,2.145-2.57c.922-1.02,1.512-.846,3.686-.625a19.323,19.323,0,0,0,5.193-.584,6.816,6.816,0,0,0,3.009-.895,22.044,22.044,0,0,1,4.415-1.623,3.951,3.951,0,0,0,3.036-2.13,5.964,5.964,0,0,0,.352-2.744c.143-.467,2.238-1.874,3.728-2.793a3.309,3.309,0,0,1,2.878-.324s5.215,2.148,5.5,2.116C134.033,2.788,135.832,3.292,137.416,3.745Z" fill="none" stroke="#b0b6ba" stroke-width="1"/>
    </g>
  </g>
</svg>
