<svg xmlns="http://www.w3.org/2000/svg" xmlns:xlink="http://www.w3.org/1999/xlink" width="39.005" height="63.027" viewBox="0 0 39.005 63.027">
  <defs>
    <clipPath id="clip-path">
      <rect id="Retângulo_1493" data-name="Retângulo 1493" width="39.005" height="63.027" transform="translate(0 0)" fill="none"/>
    </clipPath>
  </defs>
  <g id="Grupo_5624" data-name="Grupo 5624" transform="translate(0 0)">
    <g id="Grupo_5623" data-name="Grupo 5623" clip-path="url(#clip-path)">
      <path id="Caminho_4316" data-name="Caminho 4316" d="M37.321,33.2A3.356,3.356,0,0,0,37,34.709c.032.282.306.536.691,1.029a6.518,6.518,0,0,1,.6,2.062s-.02.081-.055.207a7.654,7.654,0,0,1-.6,1.627,10.852,10.852,0,0,1-2.067,2.037c-1.119.986-1.208,1.282-1.208,1.282s-.053.055-.146.144A14.891,14.891,0,0,1,32,44.939c-1,.6-1.009,1.22-1.009,1.22l-1.959,1.9s-.915.265-1.352.358a5.227,5.227,0,0,0-1.631.8,11.873,11.873,0,0,0-1.1,1.554c-.349.531-.9.347-1.617.182s-.616-.747-.764-.976-1.024.032-1.622.182a2.122,2.122,0,0,1-.932.061c-.369,0-.527-.309-.627-1.2s-.655.034-.811.091a9.011,9.011,0,0,0-2.189,2.051c-.52.836.32,1.356.721,1.64a2.951,2.951,0,0,1,.865,1.132c.162.351-.751,2.46-.944,2.934a7.467,7.467,0,0,1-1.385,1.886,5.885,5.885,0,0,1-1.663.871,4.262,4.262,0,0,1-.916-.143A12.934,12.934,0,0,0,11.856,61.1a6.137,6.137,0,0,1-1.265,1.214c-.05.035-.1.065-.141.095-.459.3-1.112-.042-1.32-.058a6.573,6.573,0,0,1-2.07-.175c-.808-.278-.838-.89-1.048-1.318a3.748,3.748,0,0,1-.151-1.336c-.041-.364-.414-.405-.473-.93a3.418,3.418,0,0,0-1.254-1.663c-.238-.1-.668.616-.9.912-.06.08-.108.13-.133.128-.124-.006-1.214.136-1.214.136a1.991,1.991,0,0,0,.2-.966c-.025-.573-.062-2.349-.013-2.477s.457-.484.36-.778-.527-1.234-.543-1.375a2.132,2.132,0,0,0-.151-.986c-.2-.263-.863-1.3-.863-1.3a8.133,8.133,0,0,1-.37-1.453,1.746,1.746,0,0,1,.5-1.408c.326-.386.8-.582.884-1.413s.872-2.433.982-3.287a9.2,9.2,0,0,0,.1-1.875A2.556,2.556,0,0,1,3.6,39.244a14.39,14.39,0,0,1,1.144-1.151,4.47,4.47,0,0,1,.39-.334,19.269,19.269,0,0,0,3.127-1.537c.888-.675,1.757-2.042,2.381-2.481a6.756,6.756,0,0,0,1.831-1.6c.248-.5.135-.812.794-1.113s1.88-.6,2-.412a5.975,5.975,0,0,0,.54.6,1.761,1.761,0,0,0,1.629.1c.733-.387,1.184-.93,1.608-1s1.129.2,1.441-.305a4.562,4.562,0,0,0,.734-1.474,4.252,4.252,0,0,0,.1-1.487c-.136-.294-.37-.715-.783-.752a2.448,2.448,0,0,1-1.018-.314c-.182-.127-.769-.1-.824-.585s-.515-3.1-.232-3.682.9-.942,1.169-1.277a1.608,1.608,0,0,0,.479-1.038,4.178,4.178,0,0,0-.607-1.716,6.872,6.872,0,0,1-.887-1.336A1.717,1.717,0,0,1,18.6,14.9a2.039,2.039,0,0,0,.4-1.028c0-.31-.638-.73-.792-1.185a5.994,5.994,0,0,0-.231-.608s.7-1.062,1.058-1.7a3.686,3.686,0,0,0,.68-1.778c-.052-.462-.634-.563-.155-1.374a11.62,11.62,0,0,1,1.1-1.516,5.284,5.284,0,0,0,1.942-.917,16.756,16.756,0,0,0,1.522-1.42A4.822,4.822,0,0,0,25.4,1.387c.034-.22.062-.5.092-.8.051.009.106.022.167.035l.185.033c.02,0,.04.006.065.008l.165.025c.28.043.6.085.929.122.124.011.248.026.372.037a.028.028,0,0,1,.02,0c.035,0,.07.007.1.009.015,0,.029,0,.045,0l.42.026c.124.006.238.013.346.015A2.889,2.889,0,0,0,28.9.85a1.85,1.85,0,0,0,.222-.039l.182-.036a9.284,9.284,0,0,1-.069,1,26.31,26.31,0,0,0,.007,3.688,5.037,5.037,0,0,0,.8,2.078c.3.5,1,1.239,1.495,1.966s-.169,1.779-.416,2.5a6.6,6.6,0,0,0-.14,2.391c.062.2.238,1.409.734,1.8a13.646,13.646,0,0,1,2,1.742c.341.5.138,1.626.1,2.368a4.717,4.717,0,0,0,.5,2.279,2.909,2.909,0,0,1,.7,1.475,10.79,10.79,0,0,0,1.127,3.114c.636,1.281,1.5.569,2.093,1.117s0,2.95-.087,3.245a8.861,8.861,0,0,1-.539,1.069c-.1.2-.21.4-.3.584" fill="#e2e6ea"/>
      <path id="Caminho_4317" data-name="Caminho 4317" d="M37.321,33.2A3.356,3.356,0,0,0,37,34.709c.032.282.306.536.691,1.029a6.518,6.518,0,0,1,.6,2.062s-.02.081-.055.207a7.654,7.654,0,0,1-.6,1.627,10.852,10.852,0,0,1-2.067,2.037c-1.119.986-1.208,1.282-1.208,1.282s-.053.055-.146.144A14.891,14.891,0,0,1,32,44.939c-1,.6-1.009,1.22-1.009,1.22l-1.959,1.9s-.915.265-1.352.358a5.227,5.227,0,0,0-1.631.8,11.873,11.873,0,0,0-1.1,1.554c-.349.531-.9.347-1.617.182s-.616-.747-.764-.976-1.024.032-1.622.182a2.122,2.122,0,0,1-.932.061c-.369,0-.527-.309-.627-1.2s-.655.034-.811.091a9.011,9.011,0,0,0-2.189,2.051c-.52.836.32,1.356.721,1.64a2.951,2.951,0,0,1,.865,1.132c.162.351-.751,2.46-.944,2.934a7.467,7.467,0,0,1-1.385,1.886,5.885,5.885,0,0,1-1.663.871,4.262,4.262,0,0,1-.916-.143A12.934,12.934,0,0,0,11.856,61.1a6.137,6.137,0,0,1-1.265,1.214c-.05.035-.1.065-.141.095-.459.3-1.112-.042-1.32-.058a6.573,6.573,0,0,1-2.07-.175c-.808-.278-.838-.89-1.048-1.318a3.748,3.748,0,0,1-.151-1.336c-.041-.364-.414-.405-.473-.93a3.418,3.418,0,0,0-1.254-1.663c-.238-.1-.668.616-.9.912-.06.08-.108.13-.133.128-.124-.006-1.214.136-1.214.136a1.991,1.991,0,0,0,.2-.966c-.025-.573-.062-2.349-.013-2.477s.457-.484.36-.778-.527-1.234-.543-1.375a2.132,2.132,0,0,0-.151-.986c-.2-.263-.863-1.3-.863-1.3a8.133,8.133,0,0,1-.37-1.453,1.746,1.746,0,0,1,.5-1.408c.326-.386.8-.582.884-1.413s.872-2.433.982-3.287a9.2,9.2,0,0,0,.1-1.875A2.556,2.556,0,0,1,3.6,39.244a14.39,14.39,0,0,1,1.144-1.151,4.47,4.47,0,0,1,.39-.334,19.269,19.269,0,0,0,3.127-1.537c.888-.675,1.757-2.042,2.381-2.481a6.756,6.756,0,0,0,1.831-1.6c.248-.5.135-.812.794-1.113s1.88-.6,2-.412a5.975,5.975,0,0,0,.54.6,1.761,1.761,0,0,0,1.629.1c.733-.387,1.184-.93,1.608-1s1.129.2,1.441-.305a4.562,4.562,0,0,0,.734-1.474,4.252,4.252,0,0,0,.1-1.487c-.136-.294-.37-.715-.783-.752a2.448,2.448,0,0,1-1.018-.314c-.182-.127-.769-.1-.824-.585s-.515-3.1-.232-3.682.9-.942,1.169-1.277a1.608,1.608,0,0,0,.479-1.038,4.178,4.178,0,0,0-.607-1.716,6.872,6.872,0,0,1-.887-1.336A1.717,1.717,0,0,1,18.6,14.9a2.039,2.039,0,0,0,.4-1.028c0-.31-.638-.73-.792-1.185a5.994,5.994,0,0,0-.231-.608s.7-1.062,1.058-1.7a3.686,3.686,0,0,0,.68-1.778c-.052-.462-.634-.563-.155-1.374a11.62,11.62,0,0,1,1.1-1.516,5.284,5.284,0,0,0,1.942-.917,16.756,16.756,0,0,0,1.522-1.42A4.822,4.822,0,0,0,25.4,1.387c.034-.22.062-.5.092-.8.051.009.106.022.167.035l.185.033c.02,0,.04.006.065.008l.165.025c.28.043.6.085.929.122.124.011.248.026.372.037a.028.028,0,0,1,.02,0c.035,0,.07.007.1.009.015,0,.029,0,.045,0l.42.026c.124.006.238.013.346.015A2.889,2.889,0,0,0,28.9.85a1.85,1.85,0,0,0,.222-.039l.182-.036a9.284,9.284,0,0,1-.069,1,26.31,26.31,0,0,0,.007,3.688,5.037,5.037,0,0,0,.8,2.078c.3.5,1,1.239,1.495,1.966s-.169,1.779-.416,2.5a6.6,6.6,0,0,0-.14,2.391c.062.2.238,1.409.734,1.8a13.646,13.646,0,0,1,2,1.742c.341.5.138,1.626.1,2.368a4.717,4.717,0,0,0,.5,2.279,2.909,2.909,0,0,1,.7,1.475,10.79,10.79,0,0,0,1.127,3.114c.636,1.281,1.5.569,2.093,1.117s0,2.95-.087,3.245a8.861,8.861,0,0,1-.539,1.069C37.514,32.812,37.409,33.016,37.321,33.2Z" fill="none" stroke="#b0b6ba" stroke-width="1"/>
    </g>
  </g>
</svg>
