<svg xmlns="http://www.w3.org/2000/svg" xmlns:xlink="http://www.w3.org/1999/xlink" width="101.4" height="66.304" viewBox="0 0 101.4 66.304">
  <defs>
    <clipPath id="clip-path">
      <rect id="Retângulo_1479" data-name="Retângulo 1479" width="101.4" height="66.304" transform="translate(0 0)" fill="none"/>
    </clipPath>
  </defs>
  <g id="Grupo_5596" data-name="Grupo 5596" transform="translate(0 0)">
    <g id="Grupo_5595" data-name="Grupo 5595" clip-path="url(#clip-path)">
      <path id="Caminho_4288" data-name="Caminho 4288" d="M100.8,43.639a55.781,55.781,0,0,1-5.963,4.533A11.472,11.472,0,0,0,91.6,53.125a1.985,1.985,0,0,0,.18,1.238c-5.29-.913-8.765-.394-9.607.025-1.04.523-2.992,2.215-4.156,3.008-1.174.774-1.832.005-2.352-.129s-1.168-.777-1.952-1.941-2.991-1.554-3.387-1.553-2.205.527-4.036.906c-1.81.39-1.945.671-1.945.671A16.941,16.941,0,0,0,62.4,54.7c-.656-.134-2.868,1.7-3.252,2.09a7.1,7.1,0,0,1-1.559.889s-1.177.024-3.508.009c-2.353-.025-2.073,3.419-2.07,4.585l.008,2.863c0,.78-1.831.525-3,.663s-4.295-2.341-5.607-2.723a5.782,5.782,0,0,0-2.738.007,8.973,8.973,0,0,1-1.554-1.172c-1.043-.9-3.124-.512-4.29-.634s-2.6.132-3,.008a10.273,10.273,0,0,1-3.442-2.416c-.835-1.112-2.684.35-3.455.009-.792-.331-1.434,1.128-1.434,1.128s-2.207-.38-2.606-1.42S19.076,57.8,18.42,57.8a20.772,20.772,0,0,0-3.214,1.018,11.714,11.714,0,0,0-1.667-4.648s-1.834-5.065-2.16-6.167-1.044-1.111-1.638-1.432a17.814,17.814,0,0,0-4.487-.436c-1.166,0-1.5.524-3.381.852s-1.3-.777-1.241-.975a22.03,22.03,0,0,1,1.429-2.929,16.973,16.973,0,0,0,1.153-4.749A13.82,13.82,0,0,1,5.02,32.148c1.357-2.148.248-4.684-.015-5.6s-.454-2.539-.727-3.121A7.446,7.446,0,0,0,7.4,22.441c1.558-.909,1.172-1.294,1.554-2.606.392-1.292.265-2.332.645-4.03s1.693-1.43,2.857-2.224c1.164-.774.641-1.563.64-2.084A11.768,11.768,0,0,1,14.645,7.2a38.753,38.753,0,0,1,5.848-4.574c.114-.074.28-.178.478-.324.1-.074.208-.157.322-.241a4.165,4.165,0,0,0,.374-.282.336.336,0,0,0,.073-.062c.187-.136.384-.3.592-.47.114-.084.218-.178.332-.272h.01l4.842.466s4.164.385,5.85.38a16.907,16.907,0,0,0,3.912-.665A3.766,3.766,0,0,1,39.223.5a17,17,0,0,1,3.26.647l4.166,1.29S55.5,3.85,56.083,3.849,57.889,5.8,57.889,5.8l5.427,1.4a25.04,25.04,0,0,0,4.805-1.429c1.039-.648,4.041.76,4.812,1.153.792.384,3.135,4.676,3.929,6.1.774,1.424.011,3.9.013,4.819a11.419,11.419,0,0,0,1.3,3.89,24.646,24.646,0,0,0,3.206,4.03c.991.913.588,1.955.59,2.726a10.2,10.2,0,0,1-.514,2.353,9.085,9.085,0,0,0,0,1.957s4.3.364,4.684.113c.384-.272,3.643-.01,4.944-.013a2.1,2.1,0,0,1,1.824.9s.011,4.163.014,5.464,1.421-1.96,1.421-1.96l3.393-.009c.77,0,.917,4.161,1.824,4.679a3.76,3.76,0,0,1,1.232,1.662" fill="#e2e6ea"/>
      <path id="Caminho_4289" data-name="Caminho 4289" d="M100.8,43.639a55.781,55.781,0,0,1-5.963,4.533A11.472,11.472,0,0,0,91.6,53.125a1.985,1.985,0,0,0,.18,1.238c-5.29-.913-8.765-.394-9.607.025-1.04.523-2.992,2.215-4.156,3.008-1.174.774-1.832.005-2.352-.129s-1.168-.777-1.952-1.941-2.991-1.554-3.387-1.553-2.205.527-4.036.906c-1.81.39-1.945.671-1.945.671A16.941,16.941,0,0,0,62.4,54.7c-.656-.134-2.868,1.7-3.252,2.09a7.1,7.1,0,0,1-1.559.889s-1.177.024-3.508.009c-2.353-.025-2.073,3.419-2.07,4.585l.008,2.863c0,.78-1.831.525-3,.663s-4.295-2.341-5.607-2.723a5.782,5.782,0,0,0-2.738.007,8.973,8.973,0,0,1-1.554-1.172c-1.043-.9-3.124-.512-4.29-.634s-2.6.132-3,.008a10.273,10.273,0,0,1-3.442-2.416c-.835-1.112-2.684.35-3.455.009-.792-.331-1.434,1.128-1.434,1.128s-2.207-.38-2.606-1.42S19.076,57.8,18.42,57.8a20.772,20.772,0,0,0-3.214,1.018,11.714,11.714,0,0,0-1.667-4.648s-1.834-5.065-2.16-6.167-1.044-1.111-1.638-1.432a17.814,17.814,0,0,0-4.487-.436c-1.166,0-1.5.524-3.381.852s-1.3-.777-1.241-.975a22.03,22.03,0,0,1,1.429-2.929,16.973,16.973,0,0,0,1.153-4.749A13.82,13.82,0,0,1,5.02,32.148c1.357-2.148.248-4.684-.015-5.6s-.454-2.539-.727-3.121A7.446,7.446,0,0,0,7.4,22.441c1.558-.909,1.172-1.294,1.554-2.606.392-1.292.265-2.332.645-4.03s1.693-1.43,2.857-2.224c1.164-.774.641-1.563.64-2.084A11.768,11.768,0,0,1,14.645,7.2a38.753,38.753,0,0,1,5.848-4.574c.114-.074.28-.178.478-.324.1-.074.208-.157.322-.241a4.165,4.165,0,0,0,.374-.282.336.336,0,0,0,.073-.062c.187-.136.384-.3.592-.47.114-.084.218-.178.332-.272h.01l4.842.466s4.164.385,5.85.38a16.907,16.907,0,0,0,3.912-.665A3.766,3.766,0,0,1,39.223.5a17,17,0,0,1,3.26.647l4.166,1.29S55.5,3.85,56.083,3.849,57.889,5.8,57.889,5.8l5.427,1.4a25.04,25.04,0,0,0,4.805-1.429c1.039-.648,4.041.76,4.812,1.153.792.384,3.135,4.676,3.929,6.1.774,1.424.011,3.9.013,4.819a11.419,11.419,0,0,0,1.3,3.89,24.646,24.646,0,0,0,3.206,4.03c.991.913.588,1.955.59,2.726a10.2,10.2,0,0,1-.514,2.353,9.085,9.085,0,0,0,0,1.957s4.3.364,4.684.113c.384-.272,3.643-.01,4.944-.013a2.1,2.1,0,0,1,1.824.9s.011,4.163.014,5.464,1.421-1.96,1.421-1.96l3.393-.009c.77,0,.917,4.161,1.824,4.679A3.76,3.76,0,0,1,100.8,43.639Z" fill="none" stroke="#b0b6ba" stroke-width="1"/>
    </g>
  </g>
</svg>
