<svg xmlns="http://www.w3.org/2000/svg" xmlns:xlink="http://www.w3.org/1999/xlink" width="97.877" height="68.215" viewBox="0 0 97.877 68.215">
  <defs>
    <clipPath id="clip-path">
      <rect id="Retângulo_1475" data-name="Retângulo 1475" width="97.877" height="68.215" transform="translate(0 0)" fill="none"/>
    </clipPath>
  </defs>
  <g id="Grupo_5588" data-name="Grupo 5588" transform="translate(0 0)">
    <g id="Grupo_5587" data-name="Grupo 5587" clip-path="url(#clip-path)">
      <path id="Caminho_4280" data-name="Caminho 4280" d="M89.22,39.637c-2.078.749-9.365,1.875-10.676,2.526-1.311.634-.017,2.054-.028,3.377-.01,1.289-1.749.961-4.26,1.481s-3.392,1.818-4.373,2.472c-.98.637-.563,2.938-.465,3.688.1.766,3.137,1.887,3.137,1.887s-.012,1.411-.019,2.281-1.857,1.4-3.832,2.355c-1.957.959-20.342.707-20.342.707a25.39,25.39,0,0,0-5.014-.041c-1.517.319-3.615,3.558-4.592,3.776a30.89,30.89,0,0,1-6.653.173c-2.052-.243-1.734-.885-2.267-1.655s-5.861-.918-6.836-.925a6.946,6.946,0,0,0-4.058,2.352,5.916,5.916,0,0,1-1.193,1.052,12.172,12.172,0,0,1-3.723,1.851,31.919,31.919,0,0,1-5.665.721c-1.41-.012-.527-1.537-.189-2.4.32-.867,1.087-.966,3.279-2.9,2.192-1.949-.315-1.969-.749-2.077a2.109,2.109,0,0,0-.68.081l2.48-3.149s1.62-2.163,2.361-3.463c.725-1.3-1.726-1.912-3.03-2.061s-6.963-.2-8.126-.641A7.52,7.52,0,0,1,.68,48.6c-.429-.735.042-5.223.042-5.223s9.159-2.243,12.212-2.949c.576-.135,1.361-.372,2.286-.661.262-.085.541-.17.821-.272.873-.289,1.833-.612,2.811-.952.873-.307,1.763-.63,2.619-.919.227-.085.437-.171.646-.239,1.711-.6,3.265-1.14,4.347-1.48.14-.05.28-.084.4-.118.244-.068.436-.136.611-.169,2.337-.573,6.383.765,8.418,1.077,2.017.312,5.055,1.486,6.081,1.651,1.008.147,2.468-1.582,3.791-3.748s12.221-4.115,12.221-4.115a19.113,19.113,0,0,0,3.229-.984c.752-.429,1.145-1.592.293-3.915s.623-3.912,1.35-5.508C63.6,18.5,64.2,16.034,64.8,14.594a21.9,21.9,0,0,1,2.654-5.2c2.046-3.326,3.206-2.586,4.1-5.486.375-1.233,1.934-2.318,3.594-3.157.25,1.377-.273,3.689.31,4.72.636,1.085,1.949,2.4,1.927,5.013S77.139,13.318,79.1,14.2c1.509.692,6.485,1.132,8.591,1.289.608.056.974.077.974.077l5.75,1.579,2.577.02a8.98,8.98,0,0,0-.41,1.2c-1.345,4.882-3,7.15-2.577,8.685.423,1.518,2.572,4.914,3.315,7.74.744,2.844-6.022,4.1-8.1,4.845" fill="#e2e6ea"/>
      <path id="Caminho_4281" data-name="Caminho 4281" d="M89.22,39.637c-2.078.749-9.365,1.875-10.676,2.526-1.311.634-.017,2.054-.028,3.377-.01,1.289-1.749.961-4.26,1.481s-3.392,1.818-4.373,2.472c-.98.637-.563,2.938-.465,3.688.1.766,3.137,1.887,3.137,1.887s-.012,1.411-.019,2.281-1.857,1.4-3.832,2.355c-1.957.959-20.342.707-20.342.707a25.39,25.39,0,0,0-5.014-.041c-1.517.319-3.615,3.558-4.592,3.776a30.89,30.89,0,0,1-6.653.173c-2.052-.243-1.734-.885-2.267-1.655s-5.861-.918-6.836-.925a6.946,6.946,0,0,0-4.058,2.352,5.916,5.916,0,0,1-1.193,1.052,12.172,12.172,0,0,1-3.723,1.851,31.919,31.919,0,0,1-5.665.721c-1.41-.012-.527-1.537-.189-2.4.32-.867,1.087-.966,3.279-2.9,2.192-1.949-.315-1.969-.749-2.077a2.109,2.109,0,0,0-.68.081l2.48-3.149s1.62-2.163,2.361-3.463c.725-1.3-1.726-1.912-3.03-2.061s-6.963-.2-8.126-.641A7.52,7.52,0,0,1,.68,48.6c-.429-.735.042-5.223.042-5.223s9.159-2.243,12.212-2.949c.576-.135,1.361-.372,2.286-.661.262-.085.541-.17.821-.272.873-.289,1.833-.612,2.811-.952.873-.307,1.763-.63,2.619-.919.227-.085.437-.171.646-.239,1.711-.6,3.265-1.14,4.347-1.48.14-.05.28-.084.4-.118.244-.068.436-.136.611-.169,2.337-.573,6.383.765,8.418,1.077,2.017.312,5.055,1.486,6.081,1.651,1.008.147,2.468-1.582,3.791-3.748s12.221-4.115,12.221-4.115a19.113,19.113,0,0,0,3.229-.984c.752-.429,1.145-1.592.293-3.915s.623-3.912,1.35-5.508C63.6,18.5,64.2,16.034,64.8,14.594a21.9,21.9,0,0,1,2.654-5.2c2.046-3.326,3.206-2.586,4.1-5.486.375-1.233,1.934-2.318,3.594-3.157.25,1.377-.273,3.689.31,4.72.636,1.085,1.949,2.4,1.927,5.013S77.139,13.318,79.1,14.2c1.509.692,6.485,1.132,8.591,1.289.608.056.974.077.974.077l5.75,1.579,2.577.02a8.98,8.98,0,0,0-.41,1.2c-1.345,4.882-3,7.15-2.577,8.685.423,1.518,2.572,4.914,3.315,7.74C98.064,37.636,91.3,38.888,89.22,39.637Z" fill="none" stroke="#b0b6ba" stroke-width="1"/>
    </g>
  </g>
</svg>
