<svg xmlns="http://www.w3.org/2000/svg" xmlns:xlink="http://www.w3.org/1999/xlink" width="108.148" height="63.874" viewBox="0 0 108.148 63.874">
  <defs>
    <clipPath id="clip-path">
      <rect id="Retângulo_1491" data-name="Retângulo 1491" width="108.148" height="63.874" transform="translate(0 0)" fill="none"/>
    </clipPath>
  </defs>
  <g id="Grupo_5620" data-name="Grupo 5620" transform="translate(0 0)">
    <g id="Grupo_5619" data-name="Grupo 5619" clip-path="url(#clip-path)">
      <path id="Caminho_4312" data-name="Caminho 4312" d="M107.507,43.473a26.372,26.372,0,0,1-5.579,2.023c-3.347.64-6.314,1.237-6.314,1.237s-4.508-3.033-4.861-2.75c-.35.3-3.175-.169-3.616.407-.443.555-6.21,1.082-6.829,1.152a28.778,28.778,0,0,1-4.467-1.4s-.33.3-2,.225a17.513,17.513,0,0,0-3.736.42,6.294,6.294,0,0,1-1.877-1.043c-.978-.78-2.855-2.713-3.946-2.347-1.09.385-2.861.463-3.025,2.241-.184,1.781-.732,2.49.393,3.5.651.575.5.328.5.328a6.78,6.78,0,0,1,.622.678c1.3,1.512,1.753,2.089,1.456,2.871-.293.8-1.372,1.288-1.406,2.06a7.046,7.046,0,0,0,1.392,3.384,1.305,1.305,0,0,1,.591,1.835c-.543.931-1.846,1.219-2.208,2.13-.361.93-1.661,2.857-2.42,2.942-.74.084-2.809-.331-3.208-1.54-.38-1.212-.227-4.527-1.361-4.905-1.116-.38-1.831-2.06-3.2-.9-1.406,1.17-1.746,2.463-2.732,2.695s-3.86-1.588-4.36-1.532a44.1,44.1,0,0,0-4.206,1.99,1.725,1.725,0,0,1-1.751.076c-.809-.536-2.316-3.684-2.857-3.988s-1.13-3.393-1.229-4.272-.435-.457.838-2.623.368-3.379,1.453-3.987c1.065-.6,4.324-.587,4.232-1.588s.472-3.715.429-4.095,1.929-5.153-1.3-3.637c-3.231,1.5-6.147,2.189-7.07,3.689-.944,1.5-2.036,1.868-3.3,2.839-1.286.975-3.693.983-4.986,1.9-1.3.9-1.689,1.707-2.736,3.727-1.05,2,.426,1.449-2.24,3.651s-4.943,3.348-5.683,3.431c-.759.085-4.951-.131-5.244-.584-.314-.449-5.138-3.952-5.138-3.952a1.778,1.778,0,0,0-2.321-.488A4.226,4.226,0,0,1,.56,49.66c-.342-1.6.729-4.129,4.633-7.542,4.143-3.642,3.826-3.222,6.245-5.274,2.421-2.032,2.133-3.518,3.35-6.183,1.237-2.668,1.786-5.521,3.926-10.051s3.392-5.823,3.639-8.117a34.707,34.707,0,0,1,2.124-8.088c.9-2.124,1.627-1.2,4.37-1.625a74.56,74.56,0,0,0,8.2-2.238A20.5,20.5,0,0,0,40.27,2c1.823.563,5.572.263,7.541,1.943,1.967,1.66,5.121.557,10.438.707C63.588,4.819,64.608,3.814,69,2.43c4.4-1.365,11.4-1.02,13.829-.788,2.414.235,8.481,6.875,10.234,8.964,1.75,2.069,5.892,12.992,7.909,17.438,1.158,2.561,3.956,9.083,6.531,15.429" fill="#e2e6ea"/>
      <path id="Caminho_4313" data-name="Caminho 4313" d="M107.507,43.473a26.372,26.372,0,0,1-5.579,2.023c-3.347.64-6.314,1.237-6.314,1.237s-4.508-3.033-4.861-2.75c-.35.3-3.175-.169-3.616.407-.443.555-6.21,1.082-6.829,1.152a28.778,28.778,0,0,1-4.467-1.4s-.33.3-2,.225a17.513,17.513,0,0,0-3.736.42,6.294,6.294,0,0,1-1.877-1.043c-.978-.78-2.855-2.713-3.946-2.347-1.09.385-2.861.463-3.025,2.241-.184,1.781-.732,2.49.393,3.5.651.575.5.328.5.328a6.78,6.78,0,0,1,.622.678c1.3,1.512,1.753,2.089,1.456,2.871-.293.8-1.372,1.288-1.406,2.06a7.046,7.046,0,0,0,1.392,3.384,1.305,1.305,0,0,1,.591,1.835c-.543.931-1.846,1.219-2.208,2.13-.361.93-1.661,2.857-2.42,2.942-.74.084-2.809-.331-3.208-1.54-.38-1.212-.227-4.527-1.361-4.905-1.116-.38-1.831-2.06-3.2-.9-1.406,1.17-1.746,2.463-2.732,2.695s-3.86-1.588-4.36-1.532a44.1,44.1,0,0,0-4.206,1.99,1.725,1.725,0,0,1-1.751.076c-.809-.536-2.316-3.684-2.857-3.988s-1.13-3.393-1.229-4.272-.435-.457.838-2.623.368-3.379,1.453-3.987c1.065-.6,4.324-.587,4.232-1.588s.472-3.715.429-4.095,1.929-5.153-1.3-3.637c-3.231,1.5-6.147,2.189-7.07,3.689-.944,1.5-2.036,1.868-3.3,2.839-1.286.975-3.693.983-4.986,1.9-1.3.9-1.689,1.707-2.736,3.727-1.05,2,.426,1.449-2.24,3.651s-4.943,3.348-5.683,3.431c-.759.085-4.951-.131-5.244-.584-.314-.449-5.138-3.952-5.138-3.952a1.778,1.778,0,0,0-2.321-.488A4.226,4.226,0,0,1,.56,49.66c-.342-1.6.729-4.129,4.633-7.542,4.143-3.642,3.826-3.222,6.245-5.274,2.421-2.032,2.133-3.518,3.35-6.183,1.237-2.668,1.786-5.521,3.926-10.051s3.392-5.823,3.639-8.117a34.707,34.707,0,0,1,2.124-8.088c.9-2.124,1.627-1.2,4.37-1.625a74.56,74.56,0,0,0,8.2-2.238A20.5,20.5,0,0,0,40.27,2c1.823.563,5.572.263,7.541,1.943,1.967,1.66,5.121.557,10.438.707C63.588,4.819,64.608,3.814,69,2.43c4.4-1.365,11.4-1.02,13.829-.788,2.414.235,8.481,6.875,10.234,8.964,1.75,2.069,5.892,12.992,7.909,17.438C102.134,30.6,104.932,37.127,107.507,43.473Z" fill="none" stroke="#b0b6ba" stroke-width="1"/>
    </g>
  </g>
</svg>
