<svg xmlns="http://www.w3.org/2000/svg" xmlns:xlink="http://www.w3.org/1999/xlink" width="60.523" height="67.109" viewBox="0 0 60.523 67.109">
  <defs>
    <clipPath id="clip-path">
      <rect id="Retângulo_1487" data-name="Retângulo 1487" width="60.523" height="67.109" transform="translate(0 0)" fill="none"/>
    </clipPath>
  </defs>
  <g id="Grupo_5612" data-name="Grupo 5612" transform="translate(0 0)">
    <g id="Grupo_5611" data-name="Grupo 5611" clip-path="url(#clip-path)">
      <path id="Caminho_4304" data-name="Caminho 4304" d="M59.526,36.775l.47,9.9s-.108-.007-.315-.01l-.129,0c-.025,0-.051,0-.084,0s-.084,0-.135,0-.09,0-.142,0c-.083,0-.174-.007-.269-.008-.58-.012-1.352-.028-2.212-.021-.1,0-.2,0-.307,0l-.757.008-.453.013c-.136,0-.269.011-.4.012-.218.006-.441.018-.657.029a.593.593,0,0,1-.1.006c-.083,0-.166.012-.242.014-.286.019-.566.038-.841.063-1.908.156-3.494.482-3.63,1.108a27.132,27.132,0,0,1-1.121,4.3c-.52,1.079-1.77,3.73-1.36,4.062s1.062.414,1.216.826-.578,1.131-1.029,1.342a8.26,8.26,0,0,1-1.632.666,4.638,4.638,0,0,1-1.459-.581s-.737-1.361-1.356-1.613-3.433-1.006-3.753-.54-2.229,1.586-2.33,2.56.426,1.448.618,2.177a1.5,1.5,0,0,1-.27,1.423,1.423,1.423,0,0,0-.243,1.151,2.267,2.267,0,0,0,.76,1.519c.616.733,1.019,1.009.789,1.3s-.792.089-1.247-.123-.8-1.412-1.592-1.323-1.142.289-1.388.054-1.544-1.861-1.669-2.008a6.9,6.9,0,0,0-2.23-1.784c-1-.368-2.717-.817-2.543-1.209a14.085,14.085,0,0,1,2.091-1.84,2.418,2.418,0,0,0,.647-1.838,2.715,2.715,0,0,0-.975-2.51c-1.166-.831-2.387-3.64-2.539-4.477s-.6-1.217-.646-1.8-.616-1.478-.255-2.269,1.169-2.109.861-2.5-1.258-2.1-1.592-2.228-2.983-1.8-2.983-1.8a8.941,8.941,0,0,1,.269-2.335c.313-1.05.6-1.776.024-2.192A8.59,8.59,0,0,0,20.03,33.3c-.273-.021-2.012-.307-2.012-.307a9.9,9.9,0,0,0-1.595-.545c.07-.631.041-1.4.069-1.613.036-.351-.676-.752-.767-.825a3.336,3.336,0,0,0-1.537.6c-.255.3-1.633.209-2.516.174a2,2,0,0,1-.305-.03c-.007-.006-.02,0-.027,0-.058-.012-.111-.026-.159-.04l-.039-.014c-.047-.021-.094-.035-.135-.056-.014,0-.021-.01-.035-.015s-.053-.026-.08-.042a.484.484,0,0,1-.069-.044,1.261,1.261,0,0,1-.206-.17h.007l-.087-.087a.682.682,0,0,1-.088-.1c-.015-.018-.03-.035-.039-.047s-.035-.041-.05-.058a2.687,2.687,0,0,1-.118-1.508,3.2,3.2,0,0,0-.236-1.636c-.2-.562-1.107-1.051-1.749-1.511s-.829-1.89-.84-1.992-.17-1.053-.206-1.37.4-.5.565-.917a1.7,1.7,0,0,0-.017-1.122,19.726,19.726,0,0,0-2.742-1.777,39.561,39.561,0,0,1-3.7-2.473c-1.238-1.016-.7-1.718-.7-1.718a18.37,18.37,0,0,0,2.731,1.22,9.292,9.292,0,0,0,2.679.071c.849-.1.846.387.891.516A10.782,10.782,0,0,0,8.4,17.146c.143.068.885-.472,1.082-.6a10.241,10.241,0,0,1,2.182.4,5.7,5.7,0,0,0,1.533.046c.226-.108,1.271-1.029,1.605-1.2s.952.426,1.1.544,1.893,1.366,2.014,1.757a2.308,2.308,0,0,0,.681.8s.531-.3.634-.528a2.358,2.358,0,0,1,.657-.606c.1-.063.678.328,1,.1s-.073-2.534-.168-2.921,1.954-1.69,2.227-1.83a12.118,12.118,0,0,1,2.339.084,6.438,6.438,0,0,0,1.985-.384,25.3,25.3,0,0,1,2.413-1.151,3.276,3.276,0,0,0,1.4-1.339c.213-.5,1.876-1.116,2.147-1.333a20.248,20.248,0,0,1,2.763-.658c.829-.227.3-.868.365-1.273s2.219-2.124,2.634-2.543A1.567,1.567,0,0,0,39.4,3.2c-.041-.367-.418-.646-.61-.919a1.009,1.009,0,0,1,.15-1.006c.15-.1,1.375-.4,1.6-.584A5.455,5.455,0,0,1,43.014.6c.5.187,1.648,2.491,1.606,2.631a24.382,24.382,0,0,1-.8,2.337A3.367,3.367,0,0,0,43.6,7.035s3.194.309,3.415.393.272.476.32.9a8.583,8.583,0,0,0,.541,1.73c.183.429,1.924,1.414,1.975,2.1s-2.309,2.3-2.309,2.3-.058,1.425-.04,1.584a6.346,6.346,0,0,1,.318,1.62c-.039.569-.771,1.48-.86,2.344s-.018,3.905-.021,4.1a12.605,12.605,0,0,0,.555,2.531c.239.481,2.042,1.266,2.411,1.976a3.873,3.873,0,0,1,.024,2.109s.984,1.6,1.178,1.9,1.822,1.426,2.1,1.793a12.929,12.929,0,0,0,2.332,1.5,19.183,19.183,0,0,0,2.3.7c.155.021,1.018.1,1.68.158" fill="#e2e6ea"/>
      <path id="Caminho_4305" data-name="Caminho 4305" d="M59.526,36.775l.47,9.9s-.108-.007-.315-.01l-.129,0c-.025,0-.051,0-.084,0s-.084,0-.135,0-.09,0-.142,0c-.083,0-.174-.007-.269-.008-.58-.012-1.352-.028-2.212-.021-.1,0-.2,0-.307,0l-.757.008-.453.013c-.136,0-.269.011-.4.012-.218.006-.441.018-.657.029a.593.593,0,0,1-.1.006c-.083,0-.166.012-.242.014-.286.019-.566.038-.841.063-1.908.156-3.494.482-3.63,1.108a27.132,27.132,0,0,1-1.121,4.3c-.52,1.079-1.77,3.73-1.36,4.062s1.062.414,1.216.826-.578,1.131-1.029,1.342a8.26,8.26,0,0,1-1.632.666,4.638,4.638,0,0,1-1.459-.581s-.737-1.361-1.356-1.613-3.433-1.006-3.753-.54-2.229,1.586-2.33,2.56.426,1.448.618,2.177a1.5,1.5,0,0,1-.27,1.423,1.423,1.423,0,0,0-.243,1.151,2.267,2.267,0,0,0,.76,1.519c.616.733,1.019,1.009.789,1.3s-.792.089-1.247-.123-.8-1.412-1.592-1.323-1.142.289-1.388.054-1.544-1.861-1.669-2.008a6.9,6.9,0,0,0-2.23-1.784c-1-.368-2.717-.817-2.543-1.209a14.085,14.085,0,0,1,2.091-1.84,2.418,2.418,0,0,0,.647-1.838,2.715,2.715,0,0,0-.975-2.51c-1.166-.831-2.387-3.64-2.539-4.477s-.6-1.217-.646-1.8-.616-1.478-.255-2.269,1.169-2.109.861-2.5-1.258-2.1-1.592-2.228-2.983-1.8-2.983-1.8a8.941,8.941,0,0,1,.269-2.335c.313-1.05.6-1.776.024-2.192A8.59,8.59,0,0,0,20.03,33.3c-.273-.021-2.012-.307-2.012-.307a9.9,9.9,0,0,0-1.595-.545c.07-.631.041-1.4.069-1.613.036-.351-.676-.752-.767-.825a3.336,3.336,0,0,0-1.537.6c-.255.3-1.633.209-2.516.174a2,2,0,0,1-.305-.03c-.007-.006-.02,0-.027,0-.058-.012-.111-.026-.159-.04l-.039-.014c-.047-.021-.094-.035-.135-.056-.014,0-.021-.01-.035-.015s-.053-.026-.08-.042a.484.484,0,0,1-.069-.044,1.261,1.261,0,0,1-.206-.17h.007l-.087-.087a.682.682,0,0,1-.088-.1c-.015-.018-.03-.035-.039-.047s-.035-.041-.05-.058a2.687,2.687,0,0,1-.118-1.508,3.2,3.2,0,0,0-.236-1.636c-.2-.562-1.107-1.051-1.749-1.511s-.829-1.89-.84-1.992-.17-1.053-.206-1.37.4-.5.565-.917a1.7,1.7,0,0,0-.017-1.122,19.726,19.726,0,0,0-2.742-1.777,39.561,39.561,0,0,1-3.7-2.473c-1.238-1.016-.7-1.718-.7-1.718a18.37,18.37,0,0,0,2.731,1.22,9.292,9.292,0,0,0,2.679.071c.849-.1.846.387.891.516A10.782,10.782,0,0,0,8.4,17.146c.143.068.885-.472,1.082-.6a10.241,10.241,0,0,1,2.182.4,5.7,5.7,0,0,0,1.533.046c.226-.108,1.271-1.029,1.605-1.2s.952.426,1.1.544,1.893,1.366,2.014,1.757a2.308,2.308,0,0,0,.681.8s.531-.3.634-.528a2.358,2.358,0,0,1,.657-.606c.1-.063.678.328,1,.1s-.073-2.534-.168-2.921,1.954-1.69,2.227-1.83a12.118,12.118,0,0,1,2.339.084,6.438,6.438,0,0,0,1.985-.384,25.3,25.3,0,0,1,2.413-1.151,3.276,3.276,0,0,0,1.4-1.339c.213-.5,1.876-1.116,2.147-1.333a20.248,20.248,0,0,1,2.763-.658c.829-.227.3-.868.365-1.273s2.219-2.124,2.634-2.543A1.567,1.567,0,0,0,39.4,3.2c-.041-.367-.418-.646-.61-.919a1.009,1.009,0,0,1,.15-1.006c.15-.1,1.375-.4,1.6-.584A5.455,5.455,0,0,1,43.014.6c.5.187,1.648,2.491,1.606,2.631a24.382,24.382,0,0,1-.8,2.337A3.367,3.367,0,0,0,43.6,7.035s3.194.309,3.415.393.272.476.32.9a8.583,8.583,0,0,0,.541,1.73c.183.429,1.924,1.414,1.975,2.1s-2.309,2.3-2.309,2.3-.058,1.425-.04,1.584a6.346,6.346,0,0,1,.318,1.62c-.039.569-.771,1.48-.86,2.344s-.018,3.905-.021,4.1a12.605,12.605,0,0,0,.555,2.531c.239.481,2.042,1.266,2.411,1.976a3.873,3.873,0,0,1,.024,2.109s.984,1.6,1.178,1.9,1.822,1.426,2.1,1.793a12.929,12.929,0,0,0,2.332,1.5,19.183,19.183,0,0,0,2.3.7C58,36.638,58.864,36.721,59.526,36.775Z" fill="none" stroke="#b0b6ba" stroke-width="1"/>
    </g>
  </g>
</svg>
