<?xml version="1.0" encoding="utf-8"?>
<!-- Generator: Adobe Illustrator 26.0.3, SVG Export Plug-In . SVG Version: 6.00 Build 0)  -->
<svg version="1.1" id="Camada_0_xA0_Imagem_00000021082144723702081060000014710128819979346334_"
	 xmlns="http://www.w3.org/2000/svg" xmlns:xlink="http://www.w3.org/1999/xlink" x="0px" y="0px" viewBox="0 0 123.1 108"
	 style="enable-background:new 0 0 123.1 108;" xml:space="preserve">
<style type="text/css">
	
		.st0{fill-rule:evenodd;clip-rule:evenodd;fill:#E2E6EA;stroke:#B0B6BA;stroke-linecap:round;stroke-linejoin:round;stroke-miterlimit:10;}
</style>
<path class="st0" d="M120.5,83.4c-10.4-18.8,3-13.7-4-21.9c-27.1-6.8-22.9,7.4-25.4-16c-0.4-5,1.6-8.4,0.1-13.3
	c-3-2.9,1.2-1.7-0.2-5c2.2-3.8-0.5-9-4.9-6.2c-1.2,5.2-5.2-1.6-6.5-2.8C74.7,13,67.6,4.9,57.1,8.7c-1.2,1.4,0.7,2.3-1.8,2.6
	c-3.2,0.3,1.2,1.7-4.1,2.4c-3.3,3.7,0.7,1.8-0.6,4.6c-2.9,5.2-3.7-2.8-3,6.2c-4.3-0.9-8.1,1.1-12.3,1.1c-2.4,2.5-0.6,4.1-3.3,6.5
	c-3.6,1.9-1.5-5.6-6.6,0c-0.3,1.8-0.9,0.7-1.8,0.2c-3,1.2-3.4,4.3-6.1,0.6C8.5,29.7,9.8,35.7,3,38.3c-3.4,6.2,17.9-2.2,18.3,0.6
	c2.5,2.3,4-5.4,6.3,0.6c0.6,10.8-4.5,9.6-0.1,19.3c-0.6,3.1-2.7,7.9,1.5,9.7c0.3,0.7,0.5,6.6,1.6,3c0.5-0.3,0.2,0.3,0.2,0.5
	c1.2,0.9,2,3,1.7,4.2c0.7,1.3,2.7,0.5,3.8,1.1c0.8,1.2,0.8,2.6,1.7,1.2c-0.3,2.8,5.3,1.1,3.4,4.4c0.9,1.5,2.4,1.7,3.8,2.4
	c1.7-0.7,3.6,0.6,5.4,0.7c2.1-0.3,0.8-2.2,5-1.1c4.9,5.5,10.2,1.5,10.3,4.5c3.7,4.4,7.7,6.5,14.4,6.7c4.3,4.5,4.7,7.7,12.6,7.3
	c4.4-1.3,6.9-1,11.1,1.1C111.2,105.5,117,89.4,120.5,83.4z"/>
</svg>
