<?xml version="1.0" encoding="utf-8"?>
<!-- Generator: Adobe Illustrator 26.0.3, SVG Export Plug-In . SVG Version: 6.00 Build 0)  -->
<svg version="1.1" id="Camada_0_xA0_Imagem_00000021082144723702081060000014710128819979346334_"
	 xmlns="http://www.w3.org/2000/svg" xmlns:xlink="http://www.w3.org/1999/xlink" x="0px" y="0px" viewBox="0 0 105.1 94.3"
	 style="enable-background:new 0 0 105.1 94.3;" xml:space="preserve">
<style type="text/css">
	.st0{clip-path:url(#SVGID_00000151541249299925173260000002515799261789118869_);}
	.st1{fill:#E2E6EA;}
	.st2{fill:none;stroke:#B0B6BA;stroke-miterlimit:10;}
</style>
<g>
	<defs>
		<rect id="SVGID_1_" x="18.1" y="16.5" width="72.9" height="62.7"/>
	</defs>
	<clipPath id="SVGID_00000063591076281069344470000013054334671727299223_">
		<use xlink:href="#SVGID_1_"  style="overflow:visible;"/>
	</clipPath>
	<g id="Grupo_5597" style="clip-path:url(#SVGID_00000063591076281069344470000013054334671727299223_);">
		<path id="Caminho_4290" class="st1" d="M48,59c-1-1.3-1.2-1.4-1.5-1.5c0,0-0.1,0-0.1,0c-0.1,0-0.2-0.1-0.4-0.1
			c-0.8-0.3-1.6-0.7-2.4-1.2c-0.4-0.4-0.8-0.6-1.3-0.7c-0.4-0.1-0.8-0.2-1.2-0.4c-0.8-0.3-1.6-0.8-2.1-1.5l-0.3-0.3
			c-0.5-0.5-0.9-1-1.3-1.4c-0.4-0.5-0.8-0.9-1.3-1.2c-0.2-0.1-0.4-0.2-0.6-0.2c-0.7,0-0.9,0.8-1.1,1.7l0,0.2
			c-0.1,0.4-0.5,0.5-0.9,0.5c-0.2,0-0.4,0-0.5-0.1c-0.2-0.3-0.3-0.6-0.4-1c-0.1-0.5-0.3-1-0.6-1.4c-0.5-0.7-1.1-1.4-1.6-2
			c-0.6-0.7-1.3-1.5-1.6-1.9c-0.8-1-1.9-1.7-3.1-2.2c-0.2-0.1-0.5-0.2-0.7-0.4c-0.4-0.2-0.8-0.3-1.2-0.3c-0.7,0-1.4,0.4-1.9,1
			c-0.8,0.4-1.7,0.7-2.5,0.7c-0.1,0-0.2,0-0.4-0.1C18.8,45,18.8,45,18.8,45c0.1-0.2,0.2-0.4,0.4-0.6c0.5-0.7,5.1-5.9,6.4-7.1
			c0.7-0.7,2-2.1,3.2-3.5c1.2-1.3,2.4-2.7,2.8-3c0.4-0.4,0.9-0.8,1.3-1.2c0.4-0.4,0.7-0.7,1-1c0.2-0.1,0.5-0.2,0.7-0.1
			c0.1,0,0.2,0,0.3,0c0.3,0,0.6-0.1,0.8-0.3c0.2-0.2,0.2-0.6,0-0.8c0,0-0.1,0-0.1-0.1c0,0,0-0.2,0.6-0.7c1.5-1.3,3.1-2.5,4.8-3.6
			l1.2-0.8c1.5-1,3.1-2,4.7-2.8c0.1,0,0.3-0.1,0.7-0.2c1.1-0.2,2.2-0.6,3.2-1.2c0.5-0.4,1-0.7,1.6-1l0.1-0.1l0.6,0l0.5,0h0.2l0.8,0
			h0l0.7,0c0.6,0,1.1,0,1.7,0c0.1,0,0.7,0,1.6,0c1.8,0,3.6,0.2,5.4,0.5c1.2,0.5,2.4,1,3.6,1.6c0.7,0.3,1.2,0.6,1.5,0.7
			c0.4,0.1,0.9,0.3,1.3,0.4c1.2,0.3,2.7,0.5,2.8,0.6c0.1,0,0.2,0,0.3,0.1c0.1,0,0.1,0,0.1,0.1c0,0,0.1,0,0.1,0
			c0.1,0,0.1,0.1,0.2,0.1c0,0,0.1,0.1,0.1,0.1c0.1,0.3,0.5,0.7,3,2.7c1.4,1.1,2.7,2.2,3.9,3.4c1.1,1.3,2.6,2.1,4.2,2.4
			c0.7,0,2.2-0.2,3.2-0.3c0.5-0.1,0.9-0.1,0.9-0.1c0.1,0,0.2,0,0.3,0c0.3-0.1,0.5-0.1,0.8-0.1c0.1,0,0.3,0,0.4,0.1
			c0,0,0,0.1-0.1,0.4c-0.3,0.7-0.9,1.3-1.5,1.6c-0.1,0.1-0.3,0.1-0.4,0.2c-0.2,0.2-0.3,0.6-0.2,0.9c0,0.3,0,0.7-0.1,1
			c-0.3,0.5-0.6,1-1,1.4c-0.2,0.2-0.3,0.4-0.4,0.6c0,0,0,0,0,0c-0.1,0-0.1,0-0.2,0c-0.2,0-0.3,0.1-0.4,0.2c-0.1,0.3,0,0.4,0.4,0.7
			c0.4,0.4,1,0.4,1.5,0.2c0,0,0.1,0,0.1,0c0.3,0.1,0.7,0.1,1,0c0.1,0.2,0.3,0.4,0.4,0.6c0,0.1,0.2,0.4,0.5,0.9
			c-0.2,0.2-0.3,0.4-0.5,0.6L89.1,39c-0.5,0.6-0.9,1.2-1.2,1.9c-1.3,2.5-6.6,11.8-7.3,13.1c-0.6,1-4.5,4.3-6.3,5.2
			c-1.3,0.7-2.5,1.4-3.7,2.2c-0.5,0.5-1,1-1.3,1.6c-0.3,0.6-0.7,1.1-1.2,1.5c-0.2,0.2-0.4,0.3-0.7,0.5c-0.4,0.3-0.8,0.6-1.2,0.9
			c-0.8,0.9-1.3,2-1.6,3.2c-0.1,0.2-0.1,0.4-0.2,0.6c-0.5,1.9-1.4,3.6-2.6,5.1c-0.3,0.2-0.6,0.4-0.9,0.6c-0.3,0.1-0.6,0.3-0.9,0.5
			c-0.3,0.3-0.7,0.6-1,0.9c-0.8,0.8-1.9,2-2.7,1.8s-0.8-1-0.9-2.1c0-0.3,0-0.5,0-0.7c-0.2-0.8-0.1-1.6,0.3-2.3l0.1-0.2
			c0.2-0.3,0.4-0.6,0.8-0.7c0.2-0.1,0.5-0.2,0.6-0.4c0.2-0.2,0.4-0.4,0.6-0.5c0.5-0.3,0.9-0.7,1.2-1.2c0.6-0.9-0.3-1.9-0.7-2.4
			L58.3,68c-0.5-0.4-1-0.7-1.7-0.8c-0.3-0.1-0.6-0.2-0.9-0.3c-0.5-0.4-0.9-1-0.9-1.6c0-0.8-0.8-1.6-1.6-2.4L53,62.7
			c-0.8-0.8-1.7-1.7-1.7-1.7"/>
		<path id="Caminho_4291" class="st2" d="M51.3,61c0,0,0.9,0.9,1.7,1.7l0.2,0.2c0.8,0.8,1.6,1.6,1.6,2.4c0,0.7,0.4,1.2,0.9,1.6
			c0.3,0.1,0.6,0.2,0.9,0.3c0.6,0.1,1.2,0.4,1.7,0.8l0.1,0.2c0.5,0.6,1.4,1.6,0.7,2.4c-0.4,0.4-0.8,0.8-1.2,1.2
			c-0.2,0.2-0.4,0.3-0.6,0.5c-0.2,0.2-0.4,0.3-0.6,0.4c-0.4,0.1-0.6,0.4-0.8,0.7l-0.1,0.2c-0.4,0.7-0.5,1.5-0.3,2.3
			c0,0.2,0,0.5,0,0.7c0,1.1,0.1,1.9,0.9,2.1c0.7,0.2,1.9-1,2.7-1.8c0.3-0.3,0.6-0.6,1-0.9c0.3-0.2,0.6-0.4,0.9-0.5
			c0.3-0.1,0.6-0.3,0.9-0.6c1.2-1.5,2.1-3.2,2.6-5.1c0.1-0.2,0.1-0.4,0.2-0.6c0.3-1.2,0.8-2.2,1.6-3.2c0.4-0.3,0.8-0.7,1.2-0.9
			c0.2-0.2,0.5-0.3,0.7-0.5c0.5-0.4,0.9-0.9,1.2-1.5c0.3-0.6,0.8-1.2,1.3-1.6c1.2-0.8,2.4-1.6,3.7-2.2c1.7-0.9,5.7-4.2,6.3-5.2
			c0.7-1.2,6-10.6,7.3-13.1c0.4-0.7,0.8-1.3,1.2-1.9l0.4-0.5c0.2-0.2,0.3-0.4,0.5-0.6c-0.3-0.5-0.4-0.9-0.5-0.9
			c-0.1-0.2-0.3-0.5-0.4-0.6c-0.3,0.1-0.7,0.1-1,0c0,0,0,0-0.1,0c-0.5,0.3-1.1,0.2-1.5-0.2c-0.3-0.3-0.5-0.5-0.4-0.7
			c0.1-0.2,0.2-0.2,0.4-0.2c0.1,0,0.1,0,0.2,0c0,0,0,0,0,0c0.1-0.1,0.3-0.3,0.4-0.6c0.4-0.4,0.7-0.9,1-1.4c0.1-0.3,0.2-0.7,0.1-1
			c-0.1-0.3,0-0.6,0.2-0.9c0.1-0.1,0.2-0.2,0.4-0.2c0.7-0.3,1.2-0.9,1.5-1.6c0.1-0.3,0.1-0.4,0.1-0.4c-0.1-0.1-0.2-0.1-0.4-0.1
			c-0.3,0-0.5,0-0.8,0.1c-0.1,0-0.2,0-0.3,0c-0.1,0-0.5,0-0.9,0.1c-1,0.1-2.6,0.3-3.2,0.3c-1.6-0.3-3.1-1.1-4.2-2.4
			c-1.2-1.2-2.5-2.4-3.9-3.4c-2.4-2-2.9-2.4-3-2.7c0,0-0.1-0.1-0.1-0.1c-0.1,0-0.1-0.1-0.2-0.1c0,0-0.1,0-0.1,0c0,0-0.1,0-0.1-0.1
			c-0.1,0-0.2,0-0.3-0.1c-0.1,0-1.6-0.3-2.8-0.6c-0.4-0.1-0.9-0.2-1.3-0.4c-0.3-0.1-0.9-0.4-1.5-0.7c-1.1-0.6-2.3-1.1-3.6-1.6
			C62,17.2,60.2,17,58.4,17c-0.9,0-1.4,0-1.6,0c-0.6,0-1.1,0-1.7,0l-0.7,0h0l-0.8,0h-0.2l-0.5,0l-0.6,0l-0.1,0.1
			c-0.6,0.3-1.1,0.6-1.6,1c-1,0.6-2.1,1-3.2,1.2c-0.3,0.1-0.6,0.2-0.7,0.2c-1.6,0.8-3.2,1.8-4.7,2.8l-1.2,0.8
			c-1.7,1.1-3.3,2.3-4.8,3.6c-0.5,0.5-0.6,0.7-0.6,0.7c0.3,0.2,0.3,0.5,0.2,0.8c0,0,0,0.1-0.1,0.1c-0.2,0.2-0.5,0.3-0.8,0.3
			c-0.1,0-0.2,0-0.3,0c-0.2,0-0.5,0-0.7,0.1c-0.3,0.2-0.6,0.6-1,1c-0.4,0.4-0.8,0.8-1.3,1.2c-0.3,0.3-1.6,1.6-2.8,3
			c-1.2,1.4-2.5,2.8-3.2,3.5c-1.3,1.2-5.9,6.4-6.4,7.1c-0.1,0.2-0.3,0.4-0.4,0.6c0,0,0.1,0,0.2,0.1c0.1,0,0.2,0.1,0.4,0.1
			c0.9,0,1.8-0.3,2.5-0.7c0.5-0.6,1.2-0.9,1.9-1c0.4,0,0.8,0.1,1.2,0.3c0.2,0.1,0.5,0.2,0.7,0.4c1.2,0.5,2.2,1.2,3.1,2.2
			c0.3,0.5,1,1.2,1.6,1.9c0.6,0.6,1.1,1.3,1.6,2c0.3,0.4,0.5,0.9,0.6,1.4c0.1,0.3,0.2,0.7,0.4,1c0.2,0.1,0.3,0.2,0.5,0.1
			c0.4,0,0.8-0.2,0.9-0.5l0-0.2c0.2-0.8,0.3-1.7,1.1-1.7c0.2,0,0.4,0.1,0.6,0.2c0.5,0.4,0.9,0.8,1.3,1.2c0.3,0.4,0.7,0.8,1.3,1.4
			l0.3,0.3c0.6,0.7,1.3,1.2,2.2,1.5c0.4,0.2,0.8,0.3,1.2,0.4c0.5,0.1,1,0.3,1.3,0.7c0.7,0.5,1.5,1,2.4,1.2c0.2,0.1,0.3,0.1,0.4,0.1
			c0,0,0.1,0,0.1,0c0.4,0.1,0.6,0.2,1.5,1.5C48.9,60,50,60.6,51.3,61z"/>
	</g>
</g>
</svg>
