<svg id="Grupo_5598" data-name="Grupo 5598" xmlns="http://www.w3.org/2000/svg" xmlns:xlink="http://www.w3.org/1999/xlink" width="72.86" height="62.661" viewBox="0 0 72.86 62.661">
  <defs>
    <clipPath id="clip-path">
      <rect id="Retângulo_1480" data-name="Retângulo 1480" width="72.86" height="62.661" transform="translate(0 0)" fill="none"/>
    </clipPath>
  </defs>
  <g id="Grupo_5597" data-name="Grupo 5597" clip-path="url(#clip-path)">
    <path id="Caminho_4290" data-name="Caminho 4290" d="M29.874,42.5c-.951-1.272-1.179-1.392-1.533-1.511-.036-.013-.074-.024-.115-.043-.076-.034-.2-.083-.369-.144A7.8,7.8,0,0,1,25.5,39.579a2.48,2.48,0,0,0-1.332-.714,5.783,5.783,0,0,1-1.173-.4,4.947,4.947,0,0,1-2.148-1.47l-.327-.323c-.534-.522-.919-.964-1.258-1.354a6.394,6.394,0,0,0-1.28-1.238,1.048,1.048,0,0,0-.554-.184c-.733,0-.908.844-1.076,1.664l-.048.232c-.076.354-.527.513-.914.51a.783.783,0,0,1-.52-.145,3.62,3.62,0,0,1-.419-.962,7.046,7.046,0,0,0-.6-1.4,21.627,21.627,0,0,0-1.636-2.034c-.62-.721-1.261-1.467-1.589-1.946a7.893,7.893,0,0,0-3.084-2.158c-.24-.12-.481-.24-.715-.362a2.624,2.624,0,0,0-1.187-.319,2.6,2.6,0,0,0-1.9.98,5.636,5.636,0,0,1-2.548.7A.769.769,0,0,1,.836,28.6c-.141-.08-.193-.13-.205-.13a3.1,3.1,0,0,1,.375-.587c.515-.7,5.105-5.856,6.393-7.087.675-.651,1.971-2.093,3.222-3.487,1.195-1.33,2.431-2.7,2.752-2.964a16.951,16.951,0,0,0,1.257-1.211c.358-.367.7-.721.975-.955a.992.992,0,0,1,.709-.123c.093.007.185.014.271.014a.962.962,0,0,0,.8-.321.574.574,0,0,0-.107-.875c0-.007.029-.183.559-.662A50.048,50.048,0,0,1,22.654,6.63l1.162-.805a38.622,38.622,0,0,1,4.7-2.817c.092-.041.345-.1.676-.193A9.55,9.55,0,0,0,32.4,1.588,8.486,8.486,0,0,1,34.02.579l.106-.052.614.011.524.008.213,0,.753.01h.005l.743.007a15.745,15.745,0,0,0,1.68-.03C38.8.519,39.384.5,40.247.5a23.3,23.3,0,0,1,5.413.543,31.318,31.318,0,0,1,3.554,1.586c.671.334,1.2.6,1.547.726a12.473,12.473,0,0,0,1.317.353c1.205.275,2.684.545,2.777.562a2.08,2.08,0,0,1,.259.063c.051.016.1.035.146.054.032.013.068.024.1.038a28.644,28.644,0,0,1,.191.108.25.25,0,0,1,.094.107c.091.278.539.682,2.988,2.7a38.842,38.842,0,0,1,3.886,3.435,7.117,7.117,0,0,0,4.183,2.4c.653,0,2.212-.164,3.243-.276.487-.052.855-.094.945-.1a2.47,2.47,0,0,0,.289-.037,4.907,4.907,0,0,1,.805-.089.689.689,0,0,1,.374.065c0,.005.026.1-.1.365a3.29,3.29,0,0,1-1.535,1.609,1.716,1.716,0,0,0-.363.239,1.087,1.087,0,0,0-.22.885,2.312,2.312,0,0,1-.124.986,6.709,6.709,0,0,1-1,1.445c-.188.227-.349.424-.443.568,0-.007-.011-.014-.027-.019a1,1,0,0,0-.162-.028.417.417,0,0,0-.38.248c-.11.261.016.389.354.732a1.328,1.328,0,0,0,1.524.164c.03-.015.057-.03.075-.041a2.2,2.2,0,0,0,1.029-.015c.108.168.256.4.38.619.039.066.21.41.461.923q-.255.317-.493.625l-.355.472a13.853,13.853,0,0,0-1.225,1.886c-1.289,2.5-6.553,11.841-7.29,13.077-.6,1.015-4.527,4.282-6.267,5.217A28.542,28.542,0,0,0,52.5,44.94a5.516,5.516,0,0,0-1.318,1.621,5.215,5.215,0,0,1-1.186,1.486c-.216.166-.443.319-.671.47a7.628,7.628,0,0,0-1.2.925,7.591,7.591,0,0,0-1.6,3.163c-.068.212-.137.424-.208.632a14.462,14.462,0,0,1-2.622,5.1,2.97,2.97,0,0,1-.89.552,4.558,4.558,0,0,0-.919.525,10.161,10.161,0,0,0-.962.925c-.8.837-1.934,2-2.662,1.793s-.821-1-.868-2.079c-.011-.256-.022-.5-.048-.714a3.177,3.177,0,0,1,.289-2.261l.1-.209a1.36,1.36,0,0,1,.806-.726,1.686,1.686,0,0,0,.641-.438,4.473,4.473,0,0,1,.6-.511,5.925,5.925,0,0,0,1.239-1.155c.611-.851-.268-1.874-.74-2.424l-.133-.157a3.367,3.367,0,0,0-1.663-.765,5.872,5.872,0,0,1-.9-.3,2.144,2.144,0,0,1-.913-1.618c0-.782-.826-1.609-1.629-2.409l-.212-.212c-.782-.8-1.691-1.673-1.691-1.673" fill="#e2e6ea"/>
    <path id="Caminho_4291" data-name="Caminho 4291" d="M29.874,42.5c-.951-1.272-1.179-1.392-1.533-1.511-.036-.013-.074-.024-.115-.043-.076-.034-.2-.083-.369-.144A7.8,7.8,0,0,1,25.5,39.579a2.48,2.48,0,0,0-1.332-.714,5.783,5.783,0,0,1-1.173-.4,4.947,4.947,0,0,1-2.148-1.47l-.327-.323c-.534-.522-.919-.964-1.258-1.354a6.394,6.394,0,0,0-1.28-1.238,1.048,1.048,0,0,0-.554-.184c-.733,0-.908.844-1.076,1.664l-.048.232c-.076.354-.527.513-.914.51a.783.783,0,0,1-.52-.145,3.62,3.62,0,0,1-.419-.962,7.046,7.046,0,0,0-.6-1.4,21.627,21.627,0,0,0-1.636-2.034c-.62-.721-1.261-1.467-1.589-1.946a7.893,7.893,0,0,0-3.084-2.158c-.24-.12-.481-.24-.715-.362a2.624,2.624,0,0,0-1.187-.319,2.6,2.6,0,0,0-1.9.98,5.636,5.636,0,0,1-2.548.7A.769.769,0,0,1,.836,28.6c-.141-.08-.193-.13-.205-.13a3.1,3.1,0,0,1,.375-.587c.515-.7,5.105-5.856,6.393-7.087.675-.651,1.971-2.093,3.222-3.487,1.195-1.33,2.431-2.7,2.752-2.964a16.951,16.951,0,0,0,1.257-1.211c.358-.367.7-.721.975-.955a.992.992,0,0,1,.709-.123c.093.007.185.014.271.014a.962.962,0,0,0,.8-.321.574.574,0,0,0-.107-.875c0-.007.029-.183.559-.662A50.048,50.048,0,0,1,22.654,6.63l1.162-.805a38.622,38.622,0,0,1,4.7-2.817c.092-.041.345-.1.676-.193A9.55,9.55,0,0,0,32.4,1.588,8.486,8.486,0,0,1,34.02.579l.106-.052.614.011.524.008.213,0,.753.01h.005l.743.007a15.745,15.745,0,0,0,1.68-.03C38.8.519,39.384.5,40.247.5a23.3,23.3,0,0,1,5.413.543,31.318,31.318,0,0,1,3.554,1.586c.671.334,1.2.6,1.547.726a12.473,12.473,0,0,0,1.317.353c1.205.275,2.684.545,2.777.562a2.08,2.08,0,0,1,.259.063c.051.016.1.035.146.054.032.013.068.024.1.038a28.644,28.644,0,0,1,.191.108.25.25,0,0,1,.094.107c.091.278.539.682,2.988,2.7a38.842,38.842,0,0,1,3.886,3.435,7.117,7.117,0,0,0,4.183,2.4c.653,0,2.212-.164,3.243-.276.487-.052.855-.094.945-.1a2.47,2.47,0,0,0,.289-.037,4.907,4.907,0,0,1,.805-.089.689.689,0,0,1,.374.065c0,.005.026.1-.1.365a3.29,3.29,0,0,1-1.535,1.609,1.716,1.716,0,0,0-.363.239,1.087,1.087,0,0,0-.22.885,2.312,2.312,0,0,1-.124.986,6.709,6.709,0,0,1-1,1.445c-.188.227-.349.424-.443.568,0-.007-.011-.014-.027-.019a1,1,0,0,0-.162-.028.417.417,0,0,0-.38.248c-.11.261.016.389.354.732a1.328,1.328,0,0,0,1.524.164c.03-.015.057-.03.075-.041a2.2,2.2,0,0,0,1.029-.015c.108.168.256.4.38.619.039.066.21.41.461.923q-.255.317-.493.625l-.355.472a13.853,13.853,0,0,0-1.225,1.886c-1.289,2.5-6.553,11.841-7.29,13.077-.6,1.015-4.527,4.282-6.267,5.217A28.542,28.542,0,0,0,52.5,44.94a5.516,5.516,0,0,0-1.318,1.621,5.215,5.215,0,0,1-1.186,1.486c-.216.166-.443.319-.671.47a7.628,7.628,0,0,0-1.2.925,7.591,7.591,0,0,0-1.6,3.163c-.068.212-.137.424-.208.632a14.462,14.462,0,0,1-2.622,5.1,2.97,2.97,0,0,1-.89.552,4.558,4.558,0,0,0-.919.525,10.161,10.161,0,0,0-.962.925c-.8.837-1.934,2-2.662,1.793s-.821-1-.868-2.079c-.011-.256-.022-.5-.048-.714a3.177,3.177,0,0,1,.289-2.261l.1-.209a1.36,1.36,0,0,1,.806-.726,1.686,1.686,0,0,0,.641-.438,4.473,4.473,0,0,1,.6-.511,5.925,5.925,0,0,0,1.239-1.155c.611-.851-.268-1.874-.74-2.424l-.133-.157a3.367,3.367,0,0,0-1.663-.765,5.872,5.872,0,0,1-.9-.3,2.144,2.144,0,0,1-.913-1.618c0-.782-.826-1.609-1.629-2.409l-.212-.212c-.782-.8-1.691-1.673-1.691-1.673" fill="none" stroke="#b0b6ba" stroke-width="1"/>
  </g>
</svg>
