<?xml version="1.0" encoding="utf-8"?>
<!-- Generator: Adobe Illustrator 26.0.3, SVG Export Plug-In . SVG Version: 6.00 Build 0)  -->
<svg version="1.1" id="Camada_0_xA0_Imagem_00000021082144723702081060000014710128819979346334_"
	 xmlns="http://www.w3.org/2000/svg" xmlns:xlink="http://www.w3.org/1999/xlink" x="0px" y="0px" viewBox="0 0 123.1 73.4"
	 style="enable-background:new 0 0 123.1 73.4;" xml:space="preserve">
<style type="text/css">
	.st0{fill:#E2E6EA;stroke:#B0B6BA;stroke-linecap:round;stroke-linejoin:round;stroke-miterlimit:10;}
</style>
<polygon class="st0" points="108.2,32.2 108.4,32 108.7,31.8 108.9,31.8 109.1,31.7 109.2,31.6 109.3,31.4 109.3,31.1 109.4,30.9 
	109.4,30.8 109.5,30.6 109.6,30.7 109.8,31 109.7,30.1 109.6,29.7 109.4,29.4 108.8,29.3 108.7,29.3 108.7,29.2 108.5,28.4 
	108.5,28.1 108.6,27.9 108.6,27.8 108.8,27.6 109.4,27.1 109.5,27 109.6,26.9 110,26.7 110.2,26.7 110.4,26.9 110.5,27.1 
	110.5,27.2 110.2,27.3 110.3,27.5 110.5,27.6 110.7,27.5 110.9,27.4 111,27.3 111,27.1 110.8,26.6 111,26.5 111.1,26.4 111.2,26.1 
	110.8,26 110.6,25.7 110.5,25.4 110.1,25.6 110,25.8 109.9,26.1 109.8,26.2 109.5,26.3 109.3,26.2 109.1,26.1 108.8,25.1 
	108.8,24.9 109,24.7 109.2,24 109.3,23.6 109.4,23.3 109,22.8 109,22.9 108.9,22.9 108.7,22.8 108.5,22.6 108.5,22.4 108.5,21.6 
	108.5,21.5 108.6,21.3 108.7,21.2 108.6,21.1 108.4,20.9 108.4,20.8 108.4,20.1 108.4,19.9 108.5,19.5 108.7,19.2 108.9,18.9 
	109.2,18.7 109.3,18.5 109.3,18.3 109.2,18.1 109,18 108.6,18.2 108.4,18.2 107.6,17.5 107.4,17.3 107.4,17.1 107.3,15.9 
	107.5,14.5 107.7,13.7 108.6,11.7 108.8,11.2 108.6,11.1 108.4,11 108.2,10.9 108.2,10.7 108.1,10.4 108.1,10.2 108,10 107.8,9.9 
	106.6,9.3 106.5,9.1 106.3,8.8 106,8.7 105.2,8.5 105.3,8.3 105.5,8.2 105.7,8.2 106,8.2 105.6,7.7 105.8,7.6 105.9,7.5 106,7.4 
	105.9,7.2 105.8,6.9 106,6.4 105.9,6.2 105.9,6.1 105.8,6 105.8,5.8 105.8,5.6 105.7,5.5 105.5,5.5 105.5,5.4 105.4,5.2 105.3,5 
	105.4,4.8 105.5,4.6 105.2,4 105.2,3.6 105.4,3.5 105.5,4.1 105.7,4.3 105.7,4.5 105.8,4.9 105.8,5.3 106.1,5.8 106.2,6.1 
	106.2,6.6 106.4,6.9 106.8,7 107.3,7.1 107.6,7.1 107.9,6.9 108,6.5 108.3,6.2 108.6,6.1 109,6 109.2,5.8 109.2,5.5 108.9,3.7 
	108.7,3.3 108.7,3.1 108.8,2.7 109.2,2.1 109.2,1.8 109.2,1.8 108.7,1.9 108.4,1.9 108,1.6 103,1.8 102.9,1.8 102.8,1.9 102.8,2 
	102.7,2.2 102.4,2.4 102.1,2.4 101.8,2.4 101.4,2.5 101,2.3 100.8,2.2 100.8,2.3 100.8,2.3 100.7,2.4 100.7,2.5 100.6,2.6 
	100.5,2.6 100.2,2.4 100,2.4 99.7,2.6 99.6,2.6 99.5,2.5 99.5,2.4 99.5,2.3 99.5,2.2 99.5,2.2 99.5,2.2 99.5,2.1 99.4,2.1 99.3,2.1 
	99.2,2.1 99.1,2.1 99,2.2 99,2.2 99,2.3 98.9,2.3 98.8,2.4 98.2,2.5 97.8,2.7 97.5,2.8 97,3.1 96.8,3.4 96.2,4.2 96.1,4.3 95.9,4.4 
	94.5,5.3 93.5,5.6 93.2,5.6 93.1,5.7 93,5.7 92.8,5.9 92.7,6 92.6,6.2 92.4,6.6 92.3,6.8 91.9,7 91.2,7 90.7,6.9 90.4,6.8 89,6.2 
	88,5.5 87.9,5.4 87.8,5.2 87.7,5 87.5,4.8 86.2,4.1 85.9,3.8 85.6,3.5 85.6,3.5 85.3,3.2 85,3 84.8,2.9 84.6,2.9 84.3,2.8 84.2,2.8 
	84.1,2.7 84,2.6 83.9,2.5 83.7,2.5 83.5,2.5 83,2.5 82.7,2.6 82.6,2.7 82.3,2.8 80.7,3.2 80,3.1 79.8,3.2 79.6,3.3 79.4,3.3 
	79.3,3.3 78.9,3.3 78.8,3.2 78.7,3.2 78.7,3.1 78.5,3.1 78.3,3 77.8,3 77.5,3 77.4,3.1 77.3,3.1 76.9,3.3 76.8,3.4 76.7,3.6 
	76.7,3.7 76.7,3.8 76.7,3.9 76.7,4 76.8,4.1 76.8,4.3 76.8,4.4 76.7,4.5 76.5,4.5 76.4,4.5 76.2,4.4 76.1,4.4 76.1,4.3 76,4.2 
	75.9,3.8 75.9,3.7 75.8,3.6 75.7,3.5 75.7,3.5 75.6,3.4 75.4,3.4 74.8,3.3 74.7,3.3 74.6,3.2 74.5,3.2 74.5,3.1 74.4,3 74.4,2.9 
	74.3,2.8 73.9,2.7 72.7,2.7 72.6,2.7 72.4,2.5 72.2,2.5 72,2.4 71.9,2.4 71.8,2.4 71.7,2.5 71.8,2.6 71.8,2.7 71.9,2.7 72.3,2.9 
	72.4,3 72.4,3 72.4,3.1 72.3,3.2 72.1,3.3 71.2,3.4 71,3.5 70.9,3.5 70.8,3.7 70.5,4.8 70.3,5.2 70.1,5.4 69.8,5.8 69.4,6.3 
	69.3,6.5 69.2,6.8 69.2,7 69.1,7.1 69,7.1 68.9,7 68.7,6.9 68.6,6.8 68.5,6.8 68.4,6.8 68.1,6.9 67.9,7 67.3,7.4 67.2,7.5 67.1,7.5 
	67,7.5 66.9,7.5 66.8,7.5 66.5,7.4 66.3,7.5 66.2,7.5 66.2,7.7 66.1,7.8 66,8 65.9,8 65.9,8 65.8,7.9 65.8,7.7 65.8,7.6 65.7,7.5 
	65.7,7.4 65.6,7.3 65.4,7.3 65.3,7.3 65.2,7.4 65.1,7.5 65,7.7 64.9,7.7 64.8,7.7 64.7,7.6 64.6,7.4 64.4,7.2 64.3,7.2 64.3,7.1 
	64.2,7.1 64.2,7.1 64.2,7.1 63.9,7.2 63.6,7.3 63.4,7.3 63.2,7.3 63.1,7.3 63,7.1 63,7.1 62.9,7.1 62.8,7.1 62.7,7.2 62.5,7.4 
	62.3,7.7 62.2,7.8 61.9,8 61.8,8.1 61.7,8.1 60.6,8.5 60.4,8.6 60.2,8.7 60,8.9 59.8,9.2 59.6,9.3 59.5,9.4 59.5,9.5 59.5,9.6 
	59.4,10.1 59.3,10.3 59.3,10.5 58.9,10.9 58.8,11 58.8,11.1 58.8,11.2 58.8,11.3 58.8,11.4 58.9,11.6 59.2,11.8 59.2,11.9 59.2,12 
	59.2,12.1 59,12.4 59,12.5 59,12.6 59.6,13.6 59.7,14 59.8,14.2 59.8,14.5 59.8,14.8 59.5,15.2 58.9,15.7 58.8,15.8 58.6,15.8 
	58,15.9 57,16.2 56.8,16.3 56.7,16.4 56.6,16.6 56.6,16.8 56.5,16.8 56.4,16.8 56.3,16.7 56.1,16.3 56,16 55.9,15.8 55.8,15.8 
	55.7,15.6 55.4,15.5 55.3,15.4 55.3,15.3 55.2,15.2 55.2,15.1 55.2,14.9 55.2,14.8 55.1,14.7 55,14.7 54.9,14.6 54.9,14.6 
	54.8,14.6 52.8,14.7 52.6,14.7 52.5,14.6 52.4,14.5 52.3,14.4 52.2,14.3 52,14.3 51.9,14.3 51.8,14.3 51.5,14.6 51.3,14.6 51,14.7 
	47.9,14.6 46.7,14.3 46.3,14.2 45.6,14.3 45.5,14.2 45.3,14.2 45.2,14.1 44.9,13.8 43.8,13.1 43.5,12.9 43.5,12.8 43.4,12.5 
	43.3,12.4 43.2,12.3 42.3,11.7 42,11.6 41.9,11.6 41.7,11.6 41.4,11.6 40.9,11.5 40.4,11.4 39.9,11.3 39.4,11.4 39.2,11.4 
	38.9,11.4 38.1,11.1 37.1,11.2 36.9,11.1 36.8,11.1 36.2,10.7 35.4,10.5 34,10.6 33.6,10.5 33.5,10.5 33.5,10.4 33.4,10.2 33.1,10 
	30.4,9.2 30.1,9.2 29.8,9.3 29.6,9.3 29.2,9.5 28.5,9.7 28,9.8 27.9,9.8 27.7,9.8 27.5,9.6 27.3,9.5 27.2,9.5 27.1,9.5 26.9,9.6 
	26.1,9.8 25.1,9.9 24.9,9.9 24.7,9.8 24.6,9.8 24.5,9.6 24.4,9.5 24.3,9.4 24.2,9.3 23.6,9 23.2,8.8 22.4,8.2 22.3,8.1 22.2,8.1 
	22.2,8 22,7.8 21.7,7.7 20.6,7.3 20.3,7.2 20.1,7.2 20,7.2 19.9,7.3 18.4,8.2 18.2,8.2 18.1,8.3 17.7,8.3 17.5,8.3 17.3,8.2 
	16.7,7.9 15.5,7.6 15.4,7.5 15.2,7.6 14.9,7.6 14.6,7.6 14.4,8.3 13.6,9.4 13.5,10 13.7,11.9 13.7,12.6 13.7,12.6 13.4,12.8 
	13.3,12.9 13.2,13.1 13.2,13.3 13.3,13.5 13.4,13.6 13.4,13.6 13.4,13.9 13.1,14.6 13.1,15 13.2,15.8 13.2,16.2 13.1,16.6 
	12.9,16.7 12.7,16.7 12.6,16.8 12.5,17 12.6,17.2 12.8,17.4 12.9,17.4 13,17.5 13,17.7 12.9,18 12.9,18.2 13,18.3 13.2,18.3 
	13.3,18.3 13.5,19.1 13.7,20.3 13.7,20.9 13.5,21.7 12.6,23.4 12.5,23.6 12.4,23.6 12.1,23.7 12,23.7 12,24 12,24.6 12,24.9 
	11.9,25 11.6,25.2 11.5,25.3 11.5,25.5 11.7,25.7 11.7,25.8 11.5,26.2 11.3,26.3 11.3,26.4 11.5,26.4 11.6,26.3 11.8,26.2 
	11.9,26.1 12.3,26 12.5,26.1 12.6,26.2 12.7,26.4 12.7,26.6 12.8,26.7 13,26.7 13.2,26.7 13.4,26.7 13.8,26.4 14,26.2 14.2,26.1 
	14.3,26.1 14.6,26.4 14.7,26.8 14.8,27.4 15.2,27.3 15.7,26.8 16,26.6 16.4,26.6 17.3,27 17.6,26.9 17.7,26.5 17.6,26 17.6,25.6 
	17.9,25.3 18.1,25.3 18.3,25.5 18.4,25.7 18.5,25.8 18.6,25.8 18.9,25.6 19.1,25.6 19.5,25.4 19.7,25.1 20.1,24.4 20.8,24.9 
	21.2,25.1 21.7,25.1 21.8,25.4 21.6,26 21.1,27 21.6,27 22.4,26.4 22.9,26.3 23.2,26.4 23.5,26.7 23.7,26.7 23.9,26.6 24,26.3 
	24.2,25.7 24.6,26.2 24.9,26.3 25.3,26.3 25.7,26.1 25.8,25.8 25.8,25.4 26,25 26.2,24.7 26.6,24.7 26.9,24.7 26.9,24.9 26.6,25.3 
	26.5,25.5 26.5,25.7 26.6,26 26.7,26 26.9,25.9 27,25.8 27.2,26.1 27.2,26.4 27.1,26.8 26.9,27.1 26.9,27.2 26.9,27.4 27.1,27.5 
	27.2,27.6 27.4,27.5 27.5,27.3 27.5,27.1 27.6,26.8 28,26.3 28.1,26.5 28.1,26.9 28.3,27.1 28.7,27 28.9,26.8 29.2,26.5 29.4,26.3 
	29.8,26.3 30,26.7 30.2,27.1 30.5,27.3 30.9,27.4 31.2,27.6 31.8,28.1 32,27.9 32.2,27.9 32.4,28 32.5,28.4 32.6,28.6 32.8,28.5 
	33,28.3 33,28.1 33.3,28.2 33.7,28.3 34,28.3 34.2,28.2 34.7,28.1 35,28 35.3,27.9 35.5,27.8 35.5,27.9 35.6,28.1 35.7,28.1 
	36.2,28.3 36.5,28.3 36.7,28.1 36.7,27.9 36.8,27.7 36.9,27.5 37.1,27.4 37.2,27.4 37.3,27.5 37.3,27.6 37.3,27.7 37.4,27.9 
	37.6,28.4 37.8,28.6 37.9,28.4 37.9,28.3 37.8,28.2 37.8,28.1 37.9,27.9 38,27.9 38.1,28 38.2,28.1 38.2,28.3 38.4,28.7 38.4,28.9 
	38.6,28.8 38.8,28.7 39.1,28.7 39.4,28.7 39.5,28.8 39.6,29 39.7,29.1 40,29 39.8,28.6 39.8,28.2 40,28 40.5,28 40.9,28.1 
	41.1,28.3 41,28.5 40.6,28.6 40.6,28.7 40.7,29.1 41,29.4 41.3,29.6 41.8,28.9 42.2,28.5 42.4,28.6 42.6,29.1 43,29.1 43.4,29 
	43.6,29.2 43.5,29.6 43.5,29.8 43.8,29.8 45.1,29.8 45.2,29.8 45.2,29.8 45.2,30.1 45.4,30.4 46.2,30.6 46.5,31 45.9,31 45.6,31 
	45.4,31.1 46.5,31.8 46.9,32.2 46.4,32.6 46.6,32.6 46.8,32.6 47,32.5 47.1,32.3 47.3,32.6 47.4,33.3 47.6,33.6 47.9,33.8 48,33.5 
	48.2,32.8 48.3,32.9 48.4,33 48.4,33.2 48.2,33.5 48.3,33.6 48.8,33.8 49.1,33.8 49.7,33.8 49.5,33.3 49.7,33.1 50,33.1 50.4,33.1 
	50.5,33.2 50.7,33.4 50.8,33.6 51,33.5 51.3,33.1 51.4,32.9 51.6,32.8 51.8,32.9 51.9,33.1 51.9,33.3 52,33.4 52.2,33.6 52.3,33.6 
	52.4,33.4 52.6,33.2 52.8,33.1 52.9,33.4 53,33.8 53,34.1 53.1,34.1 53.7,33.8 53.8,33.9 53.7,34.4 53.7,34.6 53.9,34.8 54.3,34.8 
	54.6,34.7 55,34.6 55.5,34.6 55.7,34.8 55.8,35.1 56,35.6 56.1,35.7 56.3,35.8 56.5,35.8 56.6,35.9 56.7,36.1 56.8,36.3 56.8,36.4 
	57,36.6 57.5,36.1 57.7,36 57.9,36.4 58,36.9 58.2,37 58.6,37 58.9,37.1 58.9,37.3 58.9,37.6 58.8,37.8 58.8,37.9 58.9,38 
	59.2,38.1 59.3,38.2 60,38.9 60.2,39 60.3,39 60.5,38.9 60.7,38.9 61,39 61.4,39.5 61.9,39.7 62.3,40 62.7,40.1 62.8,40.2 
	62.8,40.3 62.8,40.4 63.3,41.1 64,42.4 64.5,42.9 64.9,42.8 65.2,43 65.8,43.8 66.3,44.3 66.4,44.6 66.4,45 66.2,45.4 66.2,45.5 
	66.5,45.6 66.6,45.7 66.6,46 66.6,46.3 66.7,46.5 66.9,46.6 67.1,46.6 67.2,46.4 67.4,46.4 67.6,46.4 67.7,46.6 67.8,46.7 
	68.1,46.6 68.4,47.1 68.8,48.3 69,48.8 69.2,49 69.7,49.2 69.9,49.4 70,49.5 70.2,50.1 70.9,51 71.2,51.6 71.3,51.7 71.4,51.8 
	72,52 72.8,52.6 73,52.4 73.3,52.3 73.5,52.2 73.8,52.3 74,52.4 74.4,52.6 74.5,52.7 75.6,52.7 76.1,52.9 76.4,53.3 76.7,53.1 
	76.9,53 78.8,53.3 79.1,53.4 79.6,53.8 79.8,54 80.1,54 80.2,53.7 80.1,53.4 80.3,53.1 80.5,53.1 80.6,53.3 80.7,53.6 80.8,53.7 
	81,53.7 81.3,53.8 81.8,53.9 81.9,53.9 82.1,53.9 82.4,53.8 82.8,53.5 83.3,53.3 83.5,53.3 83.7,53.5 83.9,53.7 84,53.7 84.1,53.6 
	84.3,53.6 85,53.3 85.2,53.3 85.4,53.4 85.5,53.6 85.5,53.8 85.7,54 85.9,54.2 86.2,54.2 86.9,54.3 87,54.2 87.1,53.9 87.2,53.7 
	87.4,53.7 87.4,53.8 87.6,54.4 87.7,54.6 88.2,54.9 88.3,55 88.2,55.1 88.1,55.2 88,55.3 88,55.5 88.1,55.6 88.4,56.3 88.3,56.6 
	88.1,56.8 88,56.8 87.9,56.8 87.7,56.8 87.6,56.7 87.5,56.6 87.3,56.6 87.2,56.6 87.1,56.6 87,56.6 86.9,56.6 86.8,56.7 86.7,56.9 
	86.6,56.9 86,58.1 85.9,58.3 85.7,58.5 85.5,58.5 85.4,58.6 85.2,58.7 85.1,58.7 84.8,59.2 84.7,59.2 84.6,59.2 84.6,59.1 84.6,59 
	84.6,58.9 84.5,58.8 84.5,58.8 84.4,58.9 84.3,58.9 84.3,59 84.2,59.2 84.2,59.4 84.3,59.5 84.3,59.7 84.3,59.8 84.2,60 84.1,60.1 
	83.9,60.2 83.8,60.3 83.8,60.3 83.7,60.4 83.7,60.6 83.6,61.4 83.5,61.9 83.8,63.9 83.8,64.1 83.7,64.3 83.4,65.1 83.3,65.6 
	83.2,65.8 82.8,66.2 82.8,66.2 82.8,66.4 82.8,66.6 82.8,66.9 82.8,67 82.7,67.1 82.6,67.1 82.5,67.1 82.4,67.1 82.3,67.1 
	82.2,67.2 82.2,67.3 82.1,67.4 82,67.4 81.9,67.3 81.9,67.2 81.8,67 81.7,66.9 81.6,66.9 81.5,66.9 81.4,67 81.4,67.1 81.3,67.4 
	81.1,67.7 80.8,68.1 80.2,68.6 79.9,68.9 79.8,68.9 79.8,69.1 79.7,69.2 79.8,69.6 79.8,70 79.7,70.7 79.7,70.8 79.7,70.9 
	79.7,71.1 79.8,71.2 80,71.4 80.2,71.4 81.2,71.7 81.3,71.8 81.4,72 81.7,72.3 81.8,72.4 81.9,72.4 82,72.4 82.1,72.3 82.2,72 
	82.2,71.8 82.2,71.7 82.2,71.6 82.1,71.4 82.1,71.3 82,71.2 81.9,71 81.2,70.5 81.1,70.5 81.1,70.4 81.1,70.3 81.2,70.1 81.4,70.1 
	82.2,69.9 82.4,69.8 82.8,69.6 82.9,69.5 83,69.5 83.3,69.5 83.4,69.4 83.5,69.2 83.6,69.1 83.7,69 84.1,69.1 85.2,69.5 85.4,69.6 
	85.5,69.8 86.3,70.7 86.6,70.8 87.2,71 87.4,71 87.5,71.1 87.6,71.2 87.7,71.3 87.7,71.6 87.8,71.7 87.9,71.8 88.2,71.8 91.2,67.6 
	95.1,63.3 100.4,58.9 101.9,58 102.3,57.6 102.6,57.4 103.1,57.2 103.6,56.9 103.9,56.9 104.7,56.8 104.9,56.7 105,56.4 105.3,56 
	105.8,55.3 106,54.9 106.1,54.6 105.9,54.6 105.7,54.7 105.6,54.9 105.4,54.8 105.2,54.6 105,54.4 104.4,54.1 104.2,53.9 
	104.2,53.8 104.2,53.7 104.2,53.6 104.3,53.4 104.4,53.2 104.5,53 104.4,52.8 104.3,52.8 104.1,52.8 103.9,52.8 103.8,52.6 
	103.8,52.4 104,52.2 104.1,52 104,51.8 103.8,51.4 103.8,51.1 104,50.6 104.2,50.6 104.5,50.9 104.8,51.1 105.3,51.6 105.3,51.8 
	105.3,52.1 105.1,52.4 105,52.9 105.1,53.3 105.3,53.7 105.5,54.1 105.7,54.2 105.9,54.1 106,53.9 105.9,53.6 105.9,53.4 106,53.2 
	106.2,52.7 106.5,51.9 106.6,51.6 107.1,51 107.1,50.9 107.1,50.4 107.2,49.9 107.3,49.7 107.9,49 108.2,48.6 107.9,48.3 
	107.9,47.8 108.1,46.9 108.3,46.1 108.5,45.4 108.5,45.3 108.6,45.1 108.7,45 108.9,44.9 108.9,44.7 108.9,44.4 108.8,44.3 
	108.7,44.2 108.7,44 108.6,43.6 108.8,42.4 108.9,42.1 109.5,41.3 109.5,40.9 109.5,40.8 109.3,40.8 109.1,40.7 109,40.5 
	109.1,40.4 109.3,40.4 109.4,40.3 109.4,40.2 109.2,39.9 108.6,39.2 108.5,39 108.4,38.9 108.5,38.8 108.7,38.6 108.8,38.6 
	108.7,38.4 108.5,38.1 108.4,37.9 108.4,37.5 108.3,37.1 108.2,36.7 108,36.4 108.2,36.1 108.6,35.7 109,35.5 109.2,35.7 
	109.3,35.3 109.3,34.9 109.1,34.7 108.7,34.6 108,32.9 108.1,32.5 "/>
</svg>
