<svg xmlns="http://www.w3.org/2000/svg" xmlns:xlink="http://www.w3.org/1999/xlink" width="60.944" height="67.536" viewBox="0 0 60.944 67.536">
  <defs>
    <clipPath id="clip-path">
      <rect id="Retângulo_1486" data-name="Retângulo 1486" width="60.944" height="67.536" transform="translate(0 0)" fill="none"/>
    </clipPath>
  </defs>
  <g id="Grupo_5610" data-name="Grupo 5610" transform="translate(0 0)">
    <g id="Grupo_5609" data-name="Grupo 5609" clip-path="url(#clip-path)">
      <path id="Caminho_4302" data-name="Caminho 4302" d="M60.285,33.123a10.836,10.836,0,0,1-.858,1.016c-.172.177-.343.332-.516.487a3.954,3.954,0,0,1-.928.625,1.966,1.966,0,0,1-.325.114,2.24,2.24,0,0,1-.3.092c-1.2.193-2.038-.667-3.142-.171a34.406,34.406,0,0,0-5.557,4.467c-1.461,1.331-2.751,2.549-3.311,3.016a13.846,13.846,0,0,0-2.1,2.692,56.985,56.985,0,0,0-4.443,7.5c-.126.285-.359.79-.674,1.47-.129.242-.277.528-.424.814a1.106,1.106,0,0,1-.107.241c-.106.2-.211.4-.316.616-.679,1.318-1.525,2.966-2.436,4.746-.445.835-.89,1.692-1.356,2.571-.212.439-.444.879-.678,1.319-.381.747-.783,1.516-1.165,2.263a28.259,28.259,0,0,1-3.495-.492c-1.642-.52-4.7.813-5.448.084-.731-.709-7.8.118-7.8.118A18.028,18.028,0,0,1,9.366,61c-2.061-3.61-1.3-2.161-1.873-4.157a23.975,23.975,0,0,0-1.915-5.422c-1.122-2.163-1.668-2.155-2.787-4.143A15.531,15.531,0,0,1,.5,40.073c-.041-2.7,3.078-1.159,5.422-1.915,2.364-.777,2.18-.033,2.18-.033s2.749,1.593,3.3,1.76,4.345-.982,4.514-2.794c.148-1.812-.4-2.349-1.37-5.6-.945-3.257-.217-2.722-.217-2.722s2.487-4.224,2.468-5.4A5.129,5.129,0,0,0,15.1,19.836c-.419-.408-1.153-1.291-1.952-2.282v-.021a32.771,32.771,0,0,0-3.79-4.15c-1.278-.875-2.252-4.675-2.28-6.506C7.057,5.33,5.943,2.316,5.632.554c3.407.3,7.668,1.039,10.356,2.873.507.363,1.058.682,1.586,1,.132.085.264.149.373.212.551.319,1.1.594,1.649.869,1.252.635,2.481,1.183,3.689,1.688.921.4,1.8.758,2.632,1.137.484.233.966.443,1.429.676a13.05,13.05,0,0,1,3.06,1.96c2.9,2.7,10.7,5.7,12.094,6.77s8.248,4.78,8.94,5.859,4.162,4.167,4.987,5.375c.424.6,2.2,2.474,3.858,4.149" fill="#e2e6ea"/>
      <path id="Caminho_4303" data-name="Caminho 4303" d="M60.285,33.123a10.836,10.836,0,0,1-.858,1.016c-.172.177-.343.332-.516.487a3.954,3.954,0,0,1-.928.625,1.966,1.966,0,0,1-.325.114,2.24,2.24,0,0,1-.3.092c-1.2.193-2.038-.667-3.142-.171a34.406,34.406,0,0,0-5.557,4.467c-1.461,1.331-2.751,2.549-3.311,3.016a13.846,13.846,0,0,0-2.1,2.692,56.985,56.985,0,0,0-4.443,7.5c-.126.285-.359.79-.674,1.47-.129.242-.277.528-.424.814a1.106,1.106,0,0,1-.107.241c-.106.2-.211.4-.316.616-.679,1.318-1.525,2.966-2.436,4.746-.445.835-.89,1.692-1.356,2.571-.212.439-.444.879-.678,1.319-.381.747-.783,1.516-1.165,2.263a28.259,28.259,0,0,1-3.495-.492c-1.642-.52-4.7.813-5.448.084-.731-.709-7.8.118-7.8.118A18.028,18.028,0,0,1,9.366,61c-2.061-3.61-1.3-2.161-1.873-4.157a23.975,23.975,0,0,0-1.915-5.422c-1.122-2.163-1.668-2.155-2.787-4.143A15.531,15.531,0,0,1,.5,40.073c-.041-2.7,3.078-1.159,5.422-1.915,2.364-.777,2.18-.033,2.18-.033s2.749,1.593,3.3,1.76,4.345-.982,4.514-2.794c.148-1.812-.4-2.349-1.37-5.6-.945-3.257-.217-2.722-.217-2.722s2.487-4.224,2.468-5.4A5.129,5.129,0,0,0,15.1,19.836c-.419-.408-1.153-1.291-1.952-2.282v-.021a32.771,32.771,0,0,0-3.79-4.15c-1.278-.875-2.252-4.675-2.28-6.506C7.057,5.33,5.943,2.316,5.632.554c3.407.3,7.668,1.039,10.356,2.873.507.363,1.058.682,1.586,1,.132.085.264.149.373.212.551.319,1.1.594,1.649.869,1.252.635,2.481,1.183,3.689,1.688.921.4,1.8.758,2.632,1.137.484.233.966.443,1.429.676a13.05,13.05,0,0,1,3.06,1.96c2.9,2.7,10.7,5.7,12.094,6.77s8.248,4.78,8.94,5.859,4.162,4.167,4.987,5.375C56.851,29.578,58.623,31.448,60.285,33.123Z" fill="none" stroke="#b0b6ba" stroke-width="1"/>
    </g>
  </g>
</svg>
