<svg xmlns="http://www.w3.org/2000/svg" xmlns:xlink="http://www.w3.org/1999/xlink" width="106.735" height="68.188" viewBox="0 0 106.735 68.188">
  <defs>
    <clipPath id="clip-path">
      <rect id="Retângulo_1474" data-name="Retângulo 1474" width="106.735" height="68.188" transform="translate(0 0)" fill="none"/>
    </clipPath>
  </defs>
  <g id="Grupo_5586" data-name="Grupo 5586" transform="translate(0 0)">
    <g id="Grupo_5585" data-name="Grupo 5585" clip-path="url(#clip-path)">
      <path id="Caminho_4278" data-name="Caminho 4278" d="M106.177,35.549c-.333.6-1.063,1.6-1.063,1.6l-1.12,1.451a13.023,13.023,0,0,0-3.763,1.41c-1.144.8,0,1.743,0,2.142s-.7,1.044-.7,1.044a7.762,7.762,0,0,0-2.586.5c-.843.455-2.783,1.654-2.927,1.8s-1.693.944-1.987,1.247.145.844.345,1.09,2.048.792,2.343.99-2.487,2.545-3.379,2.4-5.38-2.624-6.025-2.67a2.262,2.262,0,0,0-1.694.6,12.6,12.6,0,0,1-2.081,2.345c-.6.344-2.843-.049-3.487.152A11.982,11.982,0,0,0,74.483,54.3c-.6.845-.793,1.387-.992,1.594s-1.146.25-1.789.8-8.1,4.987-8.1,4.987a20.089,20.089,0,0,0-1.187,3.585,4.766,4.766,0,0,1-1.444,2.073,2.883,2.883,0,0,0-.942-1.272c-.694-.4-.8-3.581-1.394-3.579l-2.6.006s-1.085,2.494-1.088,1.5-.009-4.18-.009-4.18a1.6,1.6,0,0,0-1.4-.69,22.545,22.545,0,0,0-3.781.009,21.563,21.563,0,0,1-3.583-.088,6.981,6.981,0,0,1,0-1.5,7.694,7.694,0,0,0,.394-1.8c0-.589.308-1.386-.45-2.085a18.8,18.8,0,0,1-2.451-3.084,8.722,8.722,0,0,1-.994-2.975c0-.7.583-2.6-.008-3.687-.608-1.089-2.4-4.373-3-4.667-.59-.3-2.886-1.378-3.681-.883a19.169,19.169,0,0,1-3.676,1.091l-4.15-1.074s-.935-1.494-1.381-1.493-7.215-1.083-7.215-1.083l-3.187-.988a13,13,0,0,0-2.493-.5,2.878,2.878,0,0,0-1.488.505,12.954,12.954,0,0,1-2.993.508c-1.289,0-4.475-.293-4.475-.293l-3.7-.358c.1-.088.207-.175.318-.263,1.208-1,2.71-2.283,3.918-3.345.127-.1.246-.207.357-.311.215-.192.421-.367.6-.535.127-.112.247-.215.35-.311.365-.328.636-.575.771-.695L7.6,29.16c.493-.495,2.282-1.391,3.673-2.453s1.789-1.039,1.589-1.636a2.26,2.26,0,0,1,.489-2.087,9.7,9.7,0,0,1,1.893-.9,9.726,9.726,0,0,0-.412-2.586c-.312-.493.308-1.1,1.9-3.189s1.687-.306,2.538-.8.036-1.393.034-2.484S19,9.835,20,8.535s3.882-1.4,4.177-1.4,1.387-2.543,1.387-2.543l.008-.007a.877.877,0,0,0,.08-.064c.031-.024.079-.064.127-.1.008-.008.016-.008.024-.016.055-.04.111-.1.182-.152L26,4.222c.056-.04.119-.088.191-.144q.214-.167.477-.383c.079-.055.159-.119.246-.191.024-.016.048-.04.072-.056.111-.088.222-.176.342-.264.19-.151.389-.3.58-.447.151-.119.31-.239.453-.351.167-.12.326-.24.469-.343A1.04,1.04,0,0,1,29,1.923a4.511,4.511,0,0,1,.58-.376C30.233,1.243,30.972.5,31.275.5s1.887.243,2.191.688A5.412,5.412,0,0,0,36.3,2.528a25.835,25.835,0,0,0,2.835-.007,23.737,23.737,0,0,1,3.23-.7,24.865,24.865,0,0,1,2.692.289s.35-.2.447.644.307,1.791.356,2.34.2,1.743.5,1.639a17.991,17.991,0,0,0,1.694-1s1.089-.8,1.146-.154.251,1.942.45,1.7,1.191-1.149,1.191-1.149l.6-1,.6-.2a2.935,2.935,0,0,0,1.943.242c1.042-.249,3.733-.3,3.877-.351s.5-.55.842-.551a8.229,8.229,0,0,1,1.944.346,1.756,1.756,0,0,0,1.3-.2c.294-.2.151-.4,1.192-.9a9.385,9.385,0,0,1,2.387-.754,7.028,7.028,0,0,1,1.092.6,2.219,2.219,0,0,1,1.45.14,6.485,6.485,0,0,1,2.091,2.487c.049.3-1.142,1.842-1.237,2.193s1.2,1.143,1.492,1.334a1.416,1.416,0,0,1,.7,1.63,4.248,4.248,0,0,1-.546,1.658c-.444.8.359,3.63.759,4.377s.9,2.538,1.152,2.633a9.865,9.865,0,0,0,1.29,0c.446.047-.351-.349,1.79-.354s3.14,1.139,3.14,1.442a3.84,3.84,0,0,1-.791,1.992,6.768,6.768,0,0,0-1.541,1.739,6.274,6.274,0,0,0,.052,1.935,6.312,6.312,0,0,1,.108,2.149c-.15.351-.254.049-.045,1.242a5.219,5.219,0,0,0,1.2,2.585c.247.151,1.339.594,1.444,1.39s.5,2.635,1.1,3.087a4.062,4.062,0,0,0,1.641.641c.4.095,4.533.786,4.683.539a4.336,4.336,0,0,0,.7-1.347c.4-1.044.585-1.745,1.285-1.993a2.346,2.346,0,0,1,1.743-.307,15.968,15.968,0,0,0,2.485.1A3.378,3.378,0,0,0,94.844,34a20.824,20.824,0,0,1,1.836-1.5l1.591-.4,1.391-1.245a9.479,9.479,0,0,0,0,2.389,3.441,3.441,0,0,0,1.4,1.127,33.331,33.331,0,0,0,3.719.255c.6.062,1.72.33,1.4.928" fill="#e2e6ea"/>
      <path id="Caminho_4279" data-name="Caminho 4279" d="M106.177,35.549c-.333.6-1.063,1.6-1.063,1.6l-1.12,1.451a13.023,13.023,0,0,0-3.763,1.41c-1.144.8,0,1.743,0,2.142s-.7,1.044-.7,1.044a7.762,7.762,0,0,0-2.586.5c-.843.455-2.783,1.654-2.927,1.8s-1.693.944-1.987,1.247.145.844.345,1.09,2.048.792,2.343.99-2.487,2.545-3.379,2.4-5.38-2.624-6.025-2.67a2.262,2.262,0,0,0-1.694.6,12.6,12.6,0,0,1-2.081,2.345c-.6.344-2.843-.049-3.487.152A11.982,11.982,0,0,0,74.483,54.3c-.6.845-.793,1.387-.992,1.594s-1.146.25-1.789.8-8.1,4.987-8.1,4.987a20.089,20.089,0,0,0-1.187,3.585,4.766,4.766,0,0,1-1.444,2.073,2.883,2.883,0,0,0-.942-1.272c-.694-.4-.8-3.581-1.394-3.579l-2.6.006s-1.085,2.494-1.088,1.5-.009-4.18-.009-4.18a1.6,1.6,0,0,0-1.4-.69,22.545,22.545,0,0,0-3.781.009,21.563,21.563,0,0,1-3.583-.088,6.981,6.981,0,0,1,0-1.5,7.694,7.694,0,0,0,.394-1.8c0-.589.308-1.386-.45-2.085a18.8,18.8,0,0,1-2.451-3.084,8.722,8.722,0,0,1-.994-2.975c0-.7.583-2.6-.008-3.687-.608-1.089-2.4-4.373-3-4.667-.59-.3-2.886-1.378-3.681-.883a19.169,19.169,0,0,1-3.676,1.091l-4.15-1.074s-.935-1.494-1.381-1.493-7.215-1.083-7.215-1.083l-3.187-.988a13,13,0,0,0-2.493-.5,2.878,2.878,0,0,0-1.488.505,12.954,12.954,0,0,1-2.993.508c-1.289,0-4.475-.293-4.475-.293l-3.7-.358c.1-.088.207-.175.318-.263,1.208-1,2.71-2.283,3.918-3.345.127-.1.246-.207.357-.311.215-.192.421-.367.6-.535.127-.112.247-.215.35-.311.365-.328.636-.575.771-.695L7.6,29.16c.493-.495,2.282-1.391,3.673-2.453s1.789-1.039,1.589-1.636a2.26,2.26,0,0,1,.489-2.087,9.7,9.7,0,0,1,1.893-.9,9.726,9.726,0,0,0-.412-2.586c-.312-.493.308-1.1,1.9-3.189s1.687-.306,2.538-.8.036-1.393.034-2.484S19,9.835,20,8.535s3.882-1.4,4.177-1.4,1.387-2.543,1.387-2.543l.008-.007a.877.877,0,0,0,.08-.064c.031-.024.079-.064.127-.1.008-.008.016-.008.024-.016.055-.04.111-.1.182-.152L26,4.222c.056-.04.119-.088.191-.144q.214-.167.477-.383c.079-.055.159-.119.246-.191.024-.016.048-.04.072-.056.111-.088.222-.176.342-.264.19-.151.389-.3.58-.447.151-.119.31-.239.453-.351.167-.12.326-.24.469-.343A1.04,1.04,0,0,1,29,1.923a4.511,4.511,0,0,1,.58-.376C30.233,1.243,30.972.5,31.275.5s1.887.243,2.191.688A5.412,5.412,0,0,0,36.3,2.528a25.835,25.835,0,0,0,2.835-.007,23.737,23.737,0,0,1,3.23-.7,24.865,24.865,0,0,1,2.692.289s.35-.2.447.644.307,1.791.356,2.34.2,1.743.5,1.639a17.991,17.991,0,0,0,1.694-1s1.089-.8,1.146-.154.251,1.942.45,1.7,1.191-1.149,1.191-1.149l.6-1,.6-.2a2.935,2.935,0,0,0,1.943.242c1.042-.249,3.733-.3,3.877-.351s.5-.55.842-.551a8.229,8.229,0,0,1,1.944.346,1.756,1.756,0,0,0,1.3-.2c.294-.2.151-.4,1.192-.9a9.385,9.385,0,0,1,2.387-.754,7.028,7.028,0,0,1,1.092.6,2.219,2.219,0,0,1,1.45.14,6.485,6.485,0,0,1,2.091,2.487c.049.3-1.142,1.842-1.237,2.193s1.2,1.143,1.492,1.334a1.416,1.416,0,0,1,.7,1.63,4.248,4.248,0,0,1-.546,1.658c-.444.8.359,3.63.759,4.377s.9,2.538,1.152,2.633a9.865,9.865,0,0,0,1.29,0c.446.047-.351-.349,1.79-.354s3.14,1.139,3.14,1.442a3.84,3.84,0,0,1-.791,1.992,6.768,6.768,0,0,0-1.541,1.739,6.274,6.274,0,0,0,.052,1.935,6.312,6.312,0,0,1,.108,2.149c-.15.351-.254.049-.045,1.242a5.219,5.219,0,0,0,1.2,2.585c.247.151,1.339.594,1.444,1.39s.5,2.635,1.1,3.087a4.062,4.062,0,0,0,1.641.641c.4.095,4.533.786,4.683.539a4.336,4.336,0,0,0,.7-1.347c.4-1.044.585-1.745,1.285-1.993a2.346,2.346,0,0,1,1.743-.307,15.968,15.968,0,0,0,2.485.1A3.378,3.378,0,0,0,94.844,34a20.824,20.824,0,0,1,1.836-1.5l1.591-.4,1.391-1.245a9.479,9.479,0,0,0,0,2.389,3.441,3.441,0,0,0,1.4,1.127,33.331,33.331,0,0,0,3.719.255C105.379,34.683,106.5,34.951,106.177,35.549Z" fill="none" stroke="#b0b6ba" stroke-width="1"/>
    </g>
  </g>
</svg>
