<?xml version="1.0" encoding="utf-8"?>
<!-- Generator: Adobe Illustrator 26.0.3, SVG Export Plug-In . SVG Version: 6.00 Build 0)  -->
<svg version="1.1" id="Camada_0_xA0_Imagem_00000021082144723702081060000014710128819979346334_"
	 xmlns="http://www.w3.org/2000/svg" xmlns:xlink="http://www.w3.org/1999/xlink" x="0px" y="0px" viewBox="0 0 123.1 118.8"
	 style="enable-background:new 0 0 123.1 118.8;" xml:space="preserve">
<style type="text/css">
	
		.st0{fill-rule:evenodd;clip-rule:evenodd;fill:#E2E6EA;stroke:#B0B6BA;stroke-linecap:round;stroke-linejoin:round;stroke-miterlimit:10;}
</style>
<polygon class="st0" points="94.2,73.3 92.6,73.1 91.8,72.8 91.5,72.6 91.5,72.6 91.4,72.5 90.9,71.8 90.7,71.6 89.3,71.2 
	88.9,71.2 88.9,71.2 88,71.4 87.9,71.4 87.7,71.3 87.4,71.3 87.3,71.2 87.2,71.1 86.9,70.6 86.7,70.5 86.5,70.3 86.3,70.1 
	86.1,69.6 86.1,69.5 86,69.4 85.6,69.1 85.5,69 85.5,68.9 85.5,68.9 85.5,68.8 85.5,68.8 85.5,68.8 85.6,68.5 85.6,68.1 85.6,67.9 
	85.5,67.7 85.3,67.3 85.2,67 85,66.9 84,66.3 83.5,65.8 83.4,65.7 83.2,65.6 83.1,65.6 82.9,65.5 82.9,65.5 82.8,65.4 82.8,65.1 
	82.8,64.9 82.8,64.7 82.9,64.5 82.9,64.4 83,64.4 83,64.3 83.1,64.3 83.2,64.2 83.2,64.2 83.4,64.3 83.4,64.3 83.5,64.2 83.6,64.2 
	83.6,64.2 83.7,64.1 83.7,64.1 83.8,64 83.9,63.6 83.9,63.5 84,63.4 84.1,63.3 84.3,63 84.5,62.9 84.6,62.8 84.6,62.8 84.6,62.7 
	84.7,62.6 84.7,62.5 84.6,62.4 84.6,62.3 84.5,62.2 84.5,62.1 84.3,62 84.2,61.9 83.9,61.9 82.8,61.5 81.7,60.8 81.2,60.4 
	80.9,60.2 80.7,59.7 80.7,59.6 80.6,59.4 80.6,59.1 80.7,58.6 80.7,58.4 80.5,57.7 80.4,57.5 79.9,56.8 79.8,56.7 79.1,56.2 
	79.1,56.2 78.9,56.2 78.7,56.2 78.1,56.2 78,56.2 77.8,56.2 77.7,56.1 77.6,56 77.3,55.9 77.2,55.7 77.2,55.6 77.2,55.5 77.3,55.4 
	77.3,55.3 77.4,55.1 77.4,55.1 77.4,55 77.5,55 77.8,54.7 77.9,54.5 78.1,54.3 78.3,54.1 78.4,54 78.5,53.9 78.6,53.8 78.9,53.6 
	78.9,53.5 79,53.4 79.2,53.3 79.5,53.1 79.6,53 79.6,52.9 79.7,52.9 79.7,52.8 79.7,52.7 79.4,51.8 79.4,51.7 79.4,51.6 79.6,51.2 
	79.7,51.1 79.7,50.8 79.7,50.6 79.8,50.6 79.8,50.2 79.9,49.6 80.1,49.1 80.2,49 80.4,48.6 80.4,48.4 80.5,48.3 80.6,48.2 80.6,48 
	81.1,47.7 81.1,47.6 82.1,47.2 82.9,47.1 83,47.1 83.3,47.1 83.4,47.1 83.7,47.1 85,47.1 85.1,47.1 85.1,47.1 85.2,47 85.2,46.9 
	85.1,46.9 85,46.8 84.9,46.8 84.9,46.7 84.8,46.7 84.8,46.6 84.7,46.4 84.5,46.2 84.5,46 84.5,45.9 84.5,45.9 84.5,45.8 84.7,45.7 
	84.8,45.7 84.8,45.7 84.9,45.6 84.9,45.5 84.9,45.5 85,45 85,44.9 85.2,44.5 85.2,44.4 85.2,44.4 85.1,44.3 85,44.2 85,44.1 85,44 
	85,43.9 85.1,43.8 85.1,43.7 85.2,43.4 85.3,43.1 85.3,43 85.3,43 85.4,42.9 85.5,42.8 85.5,42.6 85.5,42.5 85.4,42.3 85.3,42.1 
	85.2,41.5 85.2,41.3 85.1,41.2 84.4,40.9 84.3,40.9 84.3,40.8 84.1,40.5 84,40.5 84,40.4 83.9,40.4 83.8,40.4 83.8,40.4 83.7,40.3 
	83.6,40.4 83.5,40.4 83.5,40.4 83.4,40.4 83.4,40.5 83.2,40.5 83.1,40.5 82.2,40.6 81.7,40.7 81.6,40.8 81.5,40.9 81.5,40.9 
	81.4,41 81.3,41 80.6,41.1 80.5,41.1 80.5,41.1 80.4,41.1 80,41.2 80,41.2 79.9,41.2 79.8,41.3 79.8,41.4 79.7,41.4 79.6,41.4 
	79.5,41.4 79.3,41.6 79.2,41.7 79.1,41.7 79.1,41.7 79.1,41.8 79,41.9 78.9,42.1 78.8,42.1 78.8,42.2 78.5,42.3 78.2,42.3 
	78.2,42.3 78.1,42.3 78,42.3 77.9,42.2 77.8,42.1 77.8,41.9 77.8,41.8 77.7,41.7 77.6,41.6 77.6,41.6 77.5,41.5 77.3,41.5 
	77.2,41.4 77.2,41.3 77,41 77,40.8 76.2,39.8 76.2,39.7 76.1,39.7 75.9,39.6 75.7,39.5 75.5,39.2 75.2,38.7 75.1,38.5 75.1,38.4 
	75,38.3 74.9,38.3 74.9,38.3 74.8,38.3 74.7,38.2 74.6,38.2 74.5,38.2 74.5,38.1 74.5,38 74.5,37.9 74.5,37.9 74.5,37.7 74.5,37.7 
	74.4,37.6 74.3,37.5 74.3,37.5 74.2,37.4 74.3,37.4 74.3,37.3 74.3,37.3 74.3,37.2 74.1,36.9 74,36.8 73.9,36.8 73.9,36.9 
	73.9,36.9 73.9,37 73.9,37.1 73.9,37.2 73.8,37.2 73.8,37.2 73.7,37.2 73.6,37.1 73.6,37.1 73.6,37 73.6,36.9 73.6,36.8 73.4,36.3 
	73.3,36.2 73.3,36.1 73.2,36.1 73,36.1 72.9,36.1 72.8,36 72.8,36 72.9,35.8 72.9,35.7 72.8,35.5 72.8,35.4 72.7,35.4 72.4,35.4 
	72.4,35.4 72.3,35.4 72.3,35.5 72.2,35.5 72.1,35.5 72,35.4 71.9,35.3 71.7,34.9 71.7,34.9 71.7,34.8 71.6,34.5 71.6,34.4 
	71.6,34.3 71.5,34.3 71.5,34.3 71.4,34.3 71.3,34.3 71,34.3 70.7,34.3 70.6,34.4 70.5,34.4 70.3,34.3 70.7,33.9 71.2,33.7 
	71.7,33.4 71.9,32.8 71.7,32.3 71.4,32 70.9,31.9 70.3,31.9 70.1,32 69.8,32.3 69.6,32.4 69.4,31.8 69.1,31.6 68.6,31.3 68.3,30.9 
	68.5,30.5 69,30.2 69.6,30.4 70.4,29.2 71.3,28.4 71.5,28 71.5,27.8 71.7,27 71.7,26.9 71.8,26.7 71.7,26.6 71.6,26.6 71.6,26.5 
	71.6,26.4 71.6,26.3 71.6,25.4 71.7,25.1 71.8,24.7 71.7,24.2 71.8,23.7 72.1,22.8 72.1,22.3 72.2,22.1 72.3,21.9 72.6,21.4 
	72.7,21.2 72.6,20.9 72.6,20.6 72.8,19.9 72.7,19.5 73.1,18.5 73.2,17.9 73.1,17.7 72.7,17.2 72.6,17 72.6,16.7 72.5,16.2 
	72.5,14.4 72.6,13.6 72.6,13 72.6,12.9 72.5,12.7 72.4,12.5 72.3,12.3 72.3,12.2 72.2,12 72.2,11.9 72.2,11.8 72.1,11.6 71.8,11.4 
	71.7,11.3 71.9,9.3 71.5,8.4 71.3,8 71,7.8 70.7,7.7 70.2,7.7 70,7.6 69.7,7.3 68.5,6.6 68.2,6.5 68,6.5 67.5,6.6 67.2,6.6 
	66.9,6.5 66.7,6.3 66.6,6.1 66.6,5.4 66.5,5.1 66.3,4.9 66.1,4.8 65.5,4.6 65,4.5 64.7,4.5 64.5,4.5 64.1,4.9 63.8,4.9 63.2,4.9 
	62.7,4.8 60.5,3.8 60.3,3.7 60.2,3.6 60.2,3.6 59.1,3.6 58.5,3.7 58,3.9 57.6,4.1 57.4,4.3 57.2,4.5 56.9,5.4 56.8,5.5 56.6,5.7 
	56.5,5.8 56.5,5.7 56.3,5.5 56.1,5.5 55.6,5.5 55.4,5.6 55,6.2 55.5,6.2 56.2,6.6 56.8,6.8 57,6.9 57.2,6.9 57.6,6.8 59.4,6.6 
	59.6,6.7 59.8,6.8 60.4,7.9 60.7,8.3 61.1,8.5 61.4,8.6 61.7,8.6 61.9,8.6 62,8.8 62.1,9 62.2,9.1 62.6,9.4 62.7,9.6 62.8,9.8 
	62.8,10.1 62.6,10.3 62.2,10.8 62,10.9 61.6,11 61.1,11 60.8,11.1 60.7,11.4 60.7,12.2 60.8,12.5 61,12.8 61.6,13.4 61.7,13.7 
	61.7,13.9 61.5,14.1 60.7,14.2 60.4,14.3 60.3,14.5 60.2,14.8 60.3,15.1 60.4,15.2 60.7,15.3 60.9,15.6 60.9,16.1 60.4,16.4 
	59.2,16.8 59,16.9 59,17.1 59,18.1 59.2,18.7 59.3,18.8 59.4,18.9 59.6,19.1 59.7,19.2 59.7,19.4 59.6,19.7 59.5,19.7 58.5,19.4 
	58,19.6 57.6,19.8 57,20.5 56.6,20.7 56.6,20.8 56.5,20.9 56.4,21 56,21.6 55.9,21.9 55.8,22.1 55.9,22.2 55.9,22.4 56,23 
	55.9,23.3 55.8,23.6 55.6,23.8 53.7,24.5 53.4,24.8 53.1,24.8 52.7,24.9 51.2,25.4 50.9,25.5 50.7,25.7 48.6,27 48.4,27.3 
	48.3,27.8 48.8,29.4 48.8,31.4 48.8,31.7 48.4,32.5 46.3,35.1 46.2,35.4 46.1,35.7 46.1,36.4 46.3,37 46.6,37.5 47.2,38 48.3,38.8 
	48.9,38.9 49.1,39.1 49.1,39.2 49.1,39.3 49.1,39.5 49,39.6 49.1,40.1 49.1,40.5 49,40.7 48.8,41.3 48.7,41.5 48.7,42.4 48.7,42.6 
	48.6,42.7 48.4,42.8 48.4,42.9 48.3,43.1 48.3,43.5 47.3,46.5 47.3,46.8 47.2,47 47,47.2 46.6,47.4 46.2,47.7 46,48.2 45.6,49.2 
	45.1,50.1 44.9,50.2 44.6,50.9 44.7,51.1 44.7,51.3 44.6,51.4 43.9,52.3 43.9,52.5 43.8,52.8 43.5,53.1 43.3,53.3 43,53.4 
	42.2,53.6 42,53.8 41.2,54.3 41,54.6 40.9,54.8 40.8,54.9 40.8,55 40.8,55.1 40.5,55.3 40.4,55.4 40.4,55.8 40.2,56 39.7,56.5 
	38.9,57.7 38.6,58 38.2,58.3 38,58.5 38,58.8 37.9,58.9 37.5,59.3 37.2,59.7 37.1,59.9 37.1,60.1 37,60.5 37,60.6 36.9,60.9 
	36.6,61.9 36.5,63.1 36.4,63.3 36.1,63.9 36,64.3 36,64.6 35.9,64.7 35.9,64.9 35.9,65 35.8,65 35.7,65.2 35.5,65.4 35.4,65.4 
	35.3,65.6 35.2,66 35,66.5 34.8,66.8 34.5,67.3 34.2,67.9 33.9,68.8 33.9,69 33.9,69.2 33.7,69.5 33,70.3 32.9,70.4 32.8,70.7 
	32.7,70.8 32.6,71.1 32.6,71.4 32.7,71.9 32.7,72.4 32.5,73 32.2,73.6 31.9,74 31.5,74.4 31.3,74.6 31.3,74.9 31.3,75.4 31.3,75.5 
	31.2,75.7 31,75.9 30.9,76.1 31,76.4 31,76.6 30.9,76.6 30.8,76.7 30.6,77.2 30.5,77.2 30.4,77.2 30.3,77.3 30.2,77.4 30.1,77.6 
	30.1,77.7 29.9,77.9 29.9,78 29.9,78.2 30.1,78.5 30.1,78.7 30.1,79.2 30,79.5 29.9,79.7 29.9,79.8 29.8,79.9 29.7,79.9 29.7,80 
	29.5,80.2 29.5,80.2 29.5,80.3 29.6,80.6 29.7,80.8 29.7,80.9 29.7,81 29.7,81.1 29.7,81.2 29.6,81.3 29.5,81.5 29.4,81.6 
	29.4,81.7 29.5,82.1 29.7,82.8 29.7,82.9 29.7,83 29.8,83.4 29.7,83.6 29.7,83.7 29.6,83.8 29.6,83.8 29.5,83.9 29.4,83.9 29.4,84 
	29.3,84 29.1,84.4 29,84.5 29,85.7 29,86.1 28.9,86.2 28.8,86.5 28.8,86.6 28.7,86.6 28.6,86.8 28.2,88.1 28.2,88.4 28.1,88.6 
	28.1,88.8 28,89 28,89.4 28,89.6 28.2,89.8 28.3,90 28.3,90.1 28.4,90.2 28.5,90.2 28.5,90.3 29.1,90.5 29.1,90.6 29.2,90.6 
	29.2,90.7 29.2,90.8 29.3,90.9 29.2,91.5 29.2,91.6 29.2,91.6 29.1,91.7 29.1,91.7 29,91.8 28.8,92 28.7,92.1 28.6,92.2 28.5,92.3 
	28.5,92.4 28.4,92.5 28.4,92.7 28.4,92.8 28.4,92.8 28.5,92.9 28.6,93.1 28.6,93.1 28.7,93.3 28.7,93.5 28.8,93.7 28.8,93.8 
	28.9,93.9 28.9,94.2 28.9,94.4 29,94.5 29.1,94.5 29.2,94.6 29.3,94.6 29.3,94.7 29.3,94.7 29.3,94.9 29.3,95 29.3,95.1 29.2,95.1 
	29.1,95.2 29.1,95.2 29.1,95.3 29.1,95.4 29.1,95.4 29.2,95.6 29.2,95.7 29.2,95.9 29.1,96 29.1,96 28.9,96.1 28.9,96.2 28.8,96.2 
	28.8,96.3 28.9,96.5 28.8,96.8 29,98.9 29,99 29.2,99.2 29.4,99.4 29.4,99.5 29.6,100 29.6,100.1 29.6,100.3 29.6,100.4 29.6,100.5 
	29.8,102.2 29.8,102.2 29.8,102.3 29.7,102.4 29.7,102.4 29.6,102.4 29.5,102.4 29.5,102.5 29.5,102.6 29.5,102.9 29.5,103.1 
	29.5,103.3 29.4,103.5 29.4,103.5 29.3,103.8 29.3,103.9 29.3,103.9 29.3,104.1 29.3,104.3 29.3,104.5 29.3,104.5 29.2,104.6 
	29.2,104.5 29.2,104.5 29.1,104.5 29,104.5 29,104.5 29,104.6 29,104.7 29,104.8 29.1,104.9 29.3,105 29.5,105.2 29.6,105.2 
	29.6,105.3 29.6,105.6 29.7,105.7 29.8,105.9 29.8,106 29.8,106.1 29.9,106.4 29.9,106.5 29.8,106.7 29.8,106.8 29.9,106.9 
	29.9,107 30,107.2 30,107.3 30,107.3 30.1,107.3 30.3,107.3 30.4,107.2 30.4,107.3 30.5,107.3 30.4,107.3 30.4,107.4 30.4,107.4 
	30.4,107.5 30.4,107.6 30.5,107.6 30.6,107.7 30.8,107.7 30.9,107.8 31.4,107.8 31.5,107.8 31.8,107.3 31.9,107 31.9,106.8 
	31.9,106.7 32,106.4 32,106.3 32,106.1 32,105.8 32.1,105.7 32.3,105.6 32.4,105.5 32.5,105.3 32.5,105.2 32.5,105 32.6,104.9 
	32.7,104.6 33.1,104.2 33.2,104.1 33.2,103.9 33.3,103.8 33.3,103.7 33.5,103.6 33.6,103.5 33.7,103.4 33.7,103.3 33.7,103.3 
	33.8,103.2 33.9,103.2 34,103.1 34,103.1 34.1,103 34.3,102.8 34.6,102.6 34.9,102.4 36,101.7 36.2,101.8 36.3,102 36.3,102.1 
	36.4,102.2 36.3,102.5 36.3,102.6 36.2,102.8 35.5,103.5 35.4,103.7 35.3,103.8 35.3,103.9 35.3,104.1 35.4,104.7 35.4,104.9 
	35.4,105.2 35.3,105.4 34.5,106.4 34.4,106.6 34.4,106.8 34.4,107 34.4,108.5 34.5,108.7 34.6,108.9 34.8,109 37.4,110.2 
	38.1,110.2 38.2,110.2 38.3,110.2 38.5,110.3 39.3,110.9 42.3,112.3 43.9,112.5 44.6,112.7 45.9,113.3 46.2,113.4 46.4,113.3 
	46.5,113.2 46.5,113.1 46.6,113 46.6,112.9 46.6,112.5 46.6,112.2 46.7,111.8 47.5,109.9 49.7,106.3 50.7,105.5 51.3,105.2 
	51.4,105.1 51.4,105.1 51.5,105.2 51.5,105.2 51.5,105.2 51.3,105.9 51.3,106 51.3,106.1 51.4,106.2 51.4,106.3 51.5,106.4 
	51.6,106.5 52.5,106.9 53.4,107.6 53.7,107.9 53.9,108.2 54.1,108.5 54.3,108.9 54.3,109.1 54.3,109.3 54.2,109.9 54.2,109.9 
	54.2,110 54.2,110.2 54.3,110.4 54.6,111 54.7,111.2 54.8,112.8 54.5,113.9 54.5,114.1 54.5,114.2 54.5,114.4 54.6,114.7 
	54.7,114.9 54.7,115 54.8,115.1 54.9,115.2 55,115.2 55.1,115.2 55.5,114.8 55.7,114.7 55.7,114.6 55.8,114.5 55.8,114.4 
	55.9,114.2 56,113.6 56.1,112.8 56.1,112.4 56.2,112.3 56.2,112.2 56.3,112.1 56.5,112 56.6,112 56.9,112 57.1,112 57.3,112.1 
	58.1,112.5 58.5,112.6 59.6,112.5 59.8,112.5 60.1,112.5 60.3,112.4 60.6,112.2 62,111.2 62.3,111 62.8,110.8 63,110.8 63.1,110.8 
	63.1,110.9 63.1,111 63.1,111 63.1,111.2 62.8,111.9 62.7,112.2 62.7,112.3 62.7,112.3 63,112.3 63.3,112.4 63.7,112.4 64,112.5 
	64.5,112.9 65,113.3 65.2,113.4 65.4,113.4 65.5,113.4 65.7,113.2 65.7,113.2 65.9,113.2 66.1,113.3 66.4,113.6 67,113.9 
	69.3,114.7 69.5,114.7 69.6,114.7 69.7,114.6 69.7,114.4 69.6,114.3 68.8,112.6 68.7,112.3 68.7,112.2 68.7,112.1 68.8,111.9 
	68.8,111.9 68.9,111.8 69.5,111.3 69.6,111.3 69.7,111.2 69.7,111.3 69.8,111.3 69.8,111.3 69.9,111.4 70,111.7 70.1,111.9 
	70.4,112.2 70.5,112.3 70.5,112.3 70.5,112.4 70.6,112.6 70.6,112.7 70.6,112.7 71,113.2 71,113.2 71.1,113.3 71.1,113.4 
	71.1,113.4 71.1,113.5 71.2,113.9 71.2,113.9 71.3,113.9 71.4,113.9 71.5,113.7 71.5,113.7 71.6,113.6 71.6,113.6 71.6,113.6 
	71.6,113.5 71.6,113.5 71.6,113.4 72.5,113.3 72.9,113.1 73.1,113 74,112.6 74.2,112.5 74.3,112.5 74.5,112.5 74.6,112.5 
	74.7,112.5 74.8,112.4 77.2,111.1 77.8,111 78.8,110.8 79,110.8 79.2,110.8 79.5,110.9 80.1,110.8 80.8,110.8 81.2,110.7 
	81.5,110.6 81.7,110.4 81.8,110.3 83.2,108.8 83.4,108.6 83.6,108.5 84,108.3 84.9,108.2 85.4,108 85.8,107.8 85.9,107.7 
	86.1,107.7 87.3,107.7 87.9,107.5 88.8,107 88.7,106.8 88.6,106.5 88.6,106.4 88.6,106.3 88.7,106 88.8,105.8 89.8,104.3 
	89.8,104.2 89.8,104.1 89.8,103 89.8,102.9 89.7,102.9 89.7,102.8 89.7,102.8 89.6,102.7 89.4,102.6 89.2,102.5 88.4,102.3 
	87.9,102.1 87.8,102 87.7,101.9 87.5,101.6 87.3,100.9 87.3,100.8 87.4,97.9 87.4,97.6 87.4,97.5 87.5,97.4 87.5,97.4 87.6,97.3 
	88.3,97 88.5,96.8 88.6,96.8 89,96.1 89,96.1 89.1,96 89.3,95.9 90.1,95.7 90.2,95.6 90.5,95.3 90.6,95.2 90.7,95.2 90.8,95.1 
	90.9,95.1 91,95 91,94.9 91,94.8 90.7,94.4 90.5,94.2 90.3,94.1 90.1,93.9 89.8,93.8 89.6,93.8 89.5,93.8 89.3,93.8 89,93.8 
	88.7,93.9 88.5,93.9 88.5,93.9 88.4,93.9 88.3,93.8 88.3,93.6 88.2,93 88.2,92.9 88.2,92.7 88.3,92.7 88.3,92.6 88.4,92.5 
	88.5,92.4 88.6,92.3 89.3,92 90.2,91.7 90.3,91.6 90.4,91.6 90.4,91.5 90.5,91.5 90.6,91.4 90.6,91.3 90.8,90.9 90.8,90.7 
	90.8,90.6 90.7,90.6 90.5,90.5 90.4,90.3 89.3,89.9 88.1,89.5 86.1,89.3 86.1,89.2 85.9,89.2 85.8,89.1 85.7,89 85.7,89 85.6,88.9 
	85.5,88.5 85.4,88.3 85.3,88.1 85.3,88.1 85.2,88 85.2,88 85.1,87.9 84.5,87.7 84.4,87.6 84.3,87.4 84.2,87.2 84.2,87 84.2,86.9 
	84.2,86.8 84.2,86.7 84.3,86.4 84.4,86.3 84.7,85.6 84.9,85.5 85,85.4 85.1,85.3 85.5,85.1 85.6,85 85.6,84.9 86,83.7 86.7,82.3 
	86.9,82 87,81.9 87.2,81.8 87.6,81.6 88.1,81.4 88.3,81.4 88.4,81.3 88.5,81.3 88.7,81.1 88.7,81 88.8,80.9 88.7,80.9 88.7,80.8 
	88.3,80.2 88.2,80.1 88.2,80 88.2,80 88.2,79.9 88.2,79.8 88.1,79.8 88.1,79.7 87.9,79.7 87.8,79.6 87.7,79.6 87.7,79.5 87.7,79.3 
	87.7,79.2 87.8,79.1 88.2,78.8 88.4,78.7 88.6,78.5 89.2,77.9 89.3,77.8 89.3,77.8 90,77.4 90.1,77.3 90.7,76.8 90.7,76.7 
	90.9,76.7 91.3,76.6 91.3,76.6 91.8,76.2 92.5,75.9 92.8,75.6 93,75.5 93.3,75.4 93.6,75.3 93.8,75.2 93.8,75.1 94,75 94.3,74.7 
	94.4,74.6 94.4,74.5 94.5,74.4 94.5,74.3 94.5,74 94.6,73.9 94.7,73.6 94.8,73.5 94.8,73.4 95,73.3 95.1,73.3 "/>
</svg>
